<?xml version="1.0" encoding="utf-8"?>
<!-- Generator: Adobe Illustrator 16.0.0, SVG Export Plug-In . SVG Version: 6.00 Build 0)  -->
<!DOCTYPE svg PUBLIC "-//W3C//DTD SVG 1.1//EN" "http://www.w3.org/Graphics/SVG/1.1/DTD/svg11.dtd">
<svg version="1.1" id="Layer_1" xmlns="http://www.w3.org/2000/svg" xmlns:xlink="http://www.w3.org/1999/xlink" x="0px" y="0px"
	 width="512px" height="512px" viewBox="0 0 512 512" enable-background="new 0 0 512 512" xml:space="preserve">
<g>
	<g>
		<linearGradient id="SVGID_1_" gradientUnits="userSpaceOnUse" x1="101.0698" y1="100.6938" x2="417.1437" y2="416.7677">
			<stop  offset="0" style="stop-color:#DC00FF"/>
			<stop  offset="1" style="stop-color:#9A00FF"/>
		</linearGradient>
		<path fill="url(#SVGID_1_)" d="M481.705,256.33c0,124.261-100.733,225-225,225s-225-100.739-225-225
			c0-124.267,100.733-225,225-225S481.705,132.063,481.705,256.33z"/>
		<linearGradient id="SVGID_2_" gradientUnits="userSpaceOnUse" x1="150.7583" y1="72.8247" x2="362.6514" y2="439.8343">
			<stop  offset="0" style="stop-color:#9A00FF"/>
			<stop  offset="1" style="stop-color:#DC00FF"/>
		</linearGradient>
		<circle fill="url(#SVGID_2_)" cx="256.705" cy="256.33" r="211.858"/>
	</g>
</g>
<g>
	<path fill-rule="evenodd" clip-rule="evenodd" fill="#FFFFFF" d="M142.005,395.413c-1.65-1.767-2.17-3.826-2.164-6.265
		c0.037-86.352,0.03-172.684,0.049-259.041c0-1.216,0.104-2.476,0.422-3.643c0.489-1.785,1.65-2.671,3.698-2.671
		c64.321,0.037,128.674,0.031,193.007,0.037c2.8,0,4.139,1.455,4.145,4.584c0.024,7.549,0.006,15.085,0.006,22.628
		c0,21.118,0,42.231,0,63.203c3.912,1.602,7.689,3.172,11.491,4.707c0.386,0.147,0.875,0.189,1.284,0.11
		c7.964-1.424,13.729,2.084,18.074,8.337c3.723,5.373,4.848,11.65,5.354,18.032c0.813,10.128-0.238,20.141-1.998,30.116
		c-0.153,0.868,0.274,2.103,0.867,2.806c7.457,8.961,3.606,21.589-7.609,25.018c-0.924,0.281-2.018,1.223-2.317,2.104
		c-1.833,5.434-4.547,10.336-8.367,14.608c-0.954,1.063-0.93,1.944-0.618,3.276c1.369,5.825,6.003,6.009,10.605,6.583
		c6.485,0.801,12.989,1.571,19.383,2.818c12.305,2.408,20.861,13.245,20.941,26.186c0.061,12.157,0.012,24.31,0.012,36.467
		c-3.02,0-6.039,0-9.053,0c-0.049-1.058-0.128-2.121-0.134-3.179c-0.007-10.904,0.036-21.809-0.019-32.72
		c-0.037-9.205-5.422-16.375-13.582-17.787c-7.188-1.241-14.443-2.127-21.699-3.16c-0.428,0.788-0.825,1.467-1.161,2.176
		c-7.952,16.614-15.917,33.222-23.809,49.865c-1.069,2.274-2.438,3.882-5.067,3.961c-2.671,0.08-4.107-1.602-5.256-3.771
		c-5.813-10.996-11.675-21.962-17.507-32.934c-3.429-6.442-6.852-12.885-10.257-19.272c-6.436,0.874-12.634,1.675-18.82,2.573
		c-11.283,1.632-16.699,8.074-16.681,19.407c0.019,11.613-0.134,23.228-0.208,34.841
		C224.016,395.413,183.007,395.413,142.005,395.413z M149.254,132.455c0,84.86,0,169.474,0,254.243c35.63,0,71.063,0,106.522,0
		c0-8.882,0-17.599,0-26.425c-2.066,0-3.924,0-5.782,0c-26.271,0-52.543-0.024-78.802,0.006
		c-7.995,0.007-13.576-6.338-13.301-13.136c0.269-6.552,0.067-13.142,0.049-19.7c-0.012-3.19,1.253-5.794,3.343-8.117
		c2.989-3.313,6.84-4.064,11.063-4.059c28.845,0.043,57.678,0.043,86.528,0.062c2.922,0,5.855-0.062,8.759,0.189
		c5.435,0.458,9.915,4.755,10.703,10.141c0.324,2.17,0.409,4.376,0.624,6.784c6.619-0.99,13.111-2.219,19.676-2.854
		c4.021-0.385,6.81-1.607,8.038-5.739c0.397-1.382,0.323-2.146-0.587-3.276c-3.625-4.499-6.4-9.48-8.179-15.024
		c-0.287-0.887-1.333-1.877-2.237-2.164c-10.397-3.239-14.517-13.539-8.808-22.989c1.473-2.457,1.546-4.651,1.308-7.255
		c-0.563-6.253-1.363-12.549-1.223-18.809c0.416-18.282,13.888-34.938,31.62-39.358c4.334-1.082,8.845-1.406,13.374-2.103
		c0-26.638,0-53.478,0-80.416C271.015,132.455,210.263,132.455,149.254,132.455z M305.794,272.363
		c-0.257,1.021-0.617,1.778-0.629,2.536c-0.073,4.835-2.14,7.445-7.311,7.721c-2.788,0.158-4.848,3.606-4.542,6.302
		c0.373,3.19,2.977,5.642,6.217,5.844c4.089,0.25,5.226,1.436,6.497,5.238c1.339,3.979,2.659,8.111,4.859,11.626
		c7.946,12.671,22.897,15.996,34.358,7.885c7.091-5.013,11.26-12.011,13.38-20.336c0.954-3.753,1.804-4.353,5.459-4.413
		c3.765-0.067,6.607-2.537,6.883-5.99c0.263-3.222-2.28-6.021-5.984-6.596c-4.278-0.685-5.171-1.516-5.673-5.838
		c-0.183-1.57-0.635-2.298-2.396-2.401c-3.546-0.202-6.742-1.528-9.126-4.236c-1.73-1.968-3.185-4.181-4.891-6.442
		C331.553,269.845,318.967,271.96,305.794,272.363z M296.369,267.968c0.324-0.018,0.647-0.049,0.972-0.066
		c1.431-4.413,2.487-5.037,7.091-4.934c3.361,0.08,6.76,0.031,10.098-0.348c9.657-1.089,18.789-3.809,27.011-9.236
		c2.793-1.852,6.399-0.941,8.16,1.791c0.703,1.094,1.118,2.384,1.613,3.606c1.688,4.169,4.334,6.834,9.255,6.191
		c2.689-0.348,4.933,0.568,6.827,2.861c0.52-7.17,1.052-14.254,0.813-21.314c-0.184-5.263-1.088-10.605-4.554-14.963
		c-1.877-2.347-4.31-4.224-7.464-3.551c-2.971,0.642-5.501,0.287-8.147-1.076c-8.851-4.536-18.185-5.624-27.738-2.934
		c-13.136,3.692-22.586,14.78-23.857,28.117C295.947,257.351,296.369,262.675,296.369,267.968z M218.154,324.551
		c-15.624,0-31.235-0.006-46.852,0.007c-3.252,0-4.254,1.045-4.261,4.303c-0.018,5.765-0.006,11.528-0.006,17.305
		c0.006,3.716,1.167,4.938,4.878,4.963c5.232,0.031,10.471-0.018,15.703-0.018c22.359,0.012,44.719-0.007,67.079,0.073
		c1.815,0.006,2.652-0.525,3.239-2.25c1.467-4.383,4.059-8.252,7.873-10.745c3.038-2.005,4.15-4.23,3.606-7.61
		c-0.056-0.342,0-0.715-0.007-1.069c-0.023-4.255-0.721-4.951-4.944-4.958C249.028,324.551,233.594,324.551,218.154,324.551z
		 M333.618,349.637c-3.203,3.9-6.149,7.421-9.016,11.009c-0.409,0.525-0.85,1.528-0.624,1.98c3.032,5.904,6.187,11.735,9.469,17.915
		c3.093-6.491,6.015-12.585,8.881-18.703c0.215-0.459,0.27-1.297-0.006-1.639C339.517,356.703,336.626,353.268,333.618,349.637z
		 M311.668,333.879c-0.537,0.434-1.277,1.033-2.145,1.742c3.123,5.85,6.173,11.559,9.37,17.561c2.592-3.19,4.871-6.032,6.968-8.612
		C320.972,340.878,316.399,337.437,311.668,333.879z M352.806,333.94c-3.919,3.41-7.8,6.815-11.772,10.28
		c1.998,2.415,4.01,4.842,6.197,7.494c2.226-4.664,4.188-9.089,6.455-13.344C354.762,336.318,354.663,334.942,352.806,333.94z
		 M343.734,330.548c-7.329,0.336-13.814,0.642-20.972,0.978c3.526,2.042,6.662,3.906,9.859,5.654
		c0.446,0.244,1.296,0.178,1.724-0.104C337.371,335.053,340.323,332.932,343.734,330.548z"/>
	<path fill-rule="evenodd" clip-rule="evenodd" fill="#FFFFFF" d="M218.276,221.452c15.25,0,30.507,0,45.764,0.006
		c9.608,0,14.676,5.11,14.688,14.792c0.018,12.598,0.018,25.183,0,37.781c-0.013,9.591-5.195,14.793-14.75,14.793
		c-30.599,0.018-61.204,0.018-91.797,0c-7.219,0-12.146-3.393-13.863-9.585c-0.361-1.247-0.367-2.616-0.373-3.93
		c-0.024-13.222,0.263-26.443-0.128-39.646c-0.244-8.197,5.74-14.407,14.426-14.273
		C187.585,221.636,202.934,221.458,218.276,221.452z M218.258,230.731c-14.725,0-29.444,0-44.169,0
		c-6.938,0-7.054,0.116-7.054,6.914c0,12.243,0,24.486,0,36.724c0,4.229,0.868,5.159,5.122,5.159
		c30.685,0.012,61.369,0.012,92.054,0.006c4.42-0.006,5.184-0.819,5.195-5.361c0.007-12.683,0.007-25.36,0-38.043
		c-0.012-4.701-0.684-5.391-5.391-5.391C248.765,230.725,233.515,230.731,218.258,230.731z"/>
	<path fill-rule="evenodd" clip-rule="evenodd" fill="#FFFFFF" d="M235.036,147.027c2.268,2.317,4.304,4.383,6.449,6.577
		c-4.132,4.095-8.325,8.294-12.591,12.42c-0.966,0.935-1.137,1.669-0.624,2.952c2.408,6.052,1.027,12.824-3.558,17.036
		c-4.927,4.523-10.685,5.752-16.907,3.221c-6.259-2.543-9.707-7.592-9.761-14.199c-0.116-12.323,12.029-18.704,20.703-15.061
		c1.962,0.813,3.142,0.41,4.548-1.082C227.06,154.894,231.008,151.073,235.036,147.027z M213.539,168.946
		c-4.169-0.031-6.528,2.628-6.302,6.131c0.245,3.557,3.185,6.314,6.663,6.259c3.35-0.055,6.07-2.763,5.74-6.601
		c-1.565,1.87-3.124,3.741-4.303,5.159c-2.488-2.262-4.633-4.205-7.17-6.51C210.006,171.862,211.766,170.407,213.539,168.946z"/>
	<path fill-rule="evenodd" clip-rule="evenodd" fill="#FFFFFF" d="M229.242,203.885c0,2.995,0,5.801,0,8.735
		c-23.698,0-47.262,0-71.051,0c0-2.805,0-5.678,0-8.735C181.76,203.885,205.397,203.885,229.242,203.885z"/>
	<path fill-rule="evenodd" clip-rule="evenodd" fill="#FFFFFF" d="M238.355,174.741c0-8.802,6.993-15.807,15.758-15.764
		c8.447,0.031,15.709,7.311,15.685,15.733c-0.012,8.662-7.157,15.679-15.941,15.679
		C245.189,190.383,238.355,183.494,238.355,174.741z M247.451,174.704c-0.012,3.545,3.007,6.626,6.504,6.632
		c3.527,0,6.577-3.05,6.583-6.601c0.019-3.521-3.093-6.663-6.57-6.663C250.47,168.072,247.457,171.134,247.451,174.704z"/>
	<path fill-rule="evenodd" clip-rule="evenodd" fill="#FFFFFF" d="M157.958,174.777c-0.525-7.885,6.706-15.88,15.74-15.819
		c8.497,0.067,15.672,7.219,15.703,15.715c0.031,8.637-7.127,15.715-15.892,15.715C164.822,190.383,157.97,183.506,157.958,174.777z
		 M167.035,174.515c-0.104,3.527,2.849,6.693,6.351,6.821c3.533,0.128,6.62-2.769,6.815-6.387c0.178-3.411-2.866-6.675-6.399-6.846
		C170.336,167.932,167.133,170.969,167.035,174.515z"/>
	<path fill-rule="evenodd" clip-rule="evenodd" fill="#FFFFFF" d="M309.811,174.777c0.336,8.918-8.026,16.033-16.101,15.685
		c-8.252-0.354-15.416-7.408-15.373-15.788c0.037-8.57,7.341-15.752,15.984-15.697C302.891,159.025,309.828,166.104,309.811,174.777
		z M300.696,174.729c0-3.569-3.001-6.644-6.51-6.656c-3.447-0.006-6.626,3.172-6.626,6.644c0,3.539,3.051,6.614,6.59,6.62
		C297.677,181.354,300.696,178.304,300.696,174.729z"/>
	<path fill-rule="evenodd" clip-rule="evenodd" fill="#FFFFFF" d="M193.777,306.306c0-2.995,0-5.788,0-8.734
		c22.316,0,44.529,0,66.858,0c0,2.934,0,5.727,0,8.734C238.417,306.306,216.216,306.306,193.777,306.306z"/>
	<path fill-rule="evenodd" clip-rule="evenodd" fill="#FFFFFF" d="M158.056,150.187c0-3.038,0-5.868,0-8.912
		c16.247,0,32.427,0,48.784,0c0,2.934,0,5.825,0,8.912C190.672,150.187,174.492,150.187,158.056,150.187z"/>
	<path fill-rule="evenodd" clip-rule="evenodd" fill="#FFFFFF" d="M184.535,306.36c-8.808,0-17.519,0-26.394,0
		c0-2.934,0-5.794,0-8.796c8.796,0,17.512,0,26.394,0C184.535,300.505,184.535,303.354,184.535,306.36z"/>
	<path fill-rule="evenodd" clip-rule="evenodd" fill="#FFFFFF" d="M166.889,368.946c0,2.977,0,5.782,0,8.808
		c-2.879,0-5.74,0-8.753,0c0-2.891,0-5.764,0-8.808C160.978,368.946,163.771,368.946,166.889,368.946z"/>
	<path fill-rule="evenodd" clip-rule="evenodd" fill="#FFFFFF" d="M171.455,368.854c3.007,0,5.74,0,8.686,0c0,2.934,0,5.801,0,8.888
		c-2.805,0-5.66,0-8.686,0C171.455,374.845,171.455,371.972,171.455,368.854z"/>
	<path fill-rule="evenodd" clip-rule="evenodd" fill="#FFFFFF" d="M184.792,368.879c2.989,0,5.721,0,8.661,0c0,2.952,0,5.88,0,8.955
		c-2.885,0-5.685,0-8.661,0C184.792,374.888,184.792,372.021,184.792,368.879z"/>
	<path fill-rule="evenodd" clip-rule="evenodd" fill="#FFFFFF" d="M206.889,369.02c0,2.897,0,5.758,0,8.796
		c-2.867,0-5.636,0-8.644,0c0-2.879,0-5.728,0-8.796C201.008,369.02,203.777,369.02,206.889,369.02z"/>
	<path fill-rule="evenodd" clip-rule="evenodd" fill="#FFFFFF" d="M211.668,377.791c0-2.977,0-5.844,0-8.857
		c2.903,0,5.672,0,8.619,0c0,2.978,0,5.832,0,8.857C217.396,377.791,214.621,377.791,211.668,377.791z"/>
	<path fill-rule="evenodd" clip-rule="evenodd" fill="#FFFFFF" d="M202.793,342.015c0-2.995,0-5.807,0-8.759
		c19.254,0,38.387,0,57.744,0c0,2.799,0,5.666,0,8.759C241.424,342.015,222.23,342.015,202.793,342.015z"/>
	<path fill-rule="evenodd" clip-rule="evenodd" fill="#FFFFFF" d="M175.892,342.033c0-3.051,0-5.844,0-8.79
		c5.886,0,11.632,0,17.567,0c0,2.854,0,5.715,0,8.79C187.701,342.033,181.9,342.033,175.892,342.033z"/>
	<path fill-rule="evenodd" clip-rule="evenodd" fill="#FFFFFF" d="M175.868,248.25c0-2.977,0-5.776,0-8.723
		c28.313,0,56.479,0,84.768,0c0,2.922,0,5.721,0,8.723C232.445,248.25,204.272,248.25,175.868,248.25z"/>
	<path fill-rule="evenodd" clip-rule="evenodd" fill="#FFFFFF" d="M175.837,266.3c0-3.008,0-5.819,0-8.857
		c20.764,0,41.473,0,62.366,0c0,2.873,0,5.752,0,8.857C217.542,266.3,196.84,266.3,175.837,266.3z"/>
</g>
</svg>
