<?xml version="1.0" encoding="utf-8"?>
<!-- Generator: Adobe Illustrator 16.0.0, SVG Export Plug-In . SVG Version: 6.00 Build 0)  -->
<!DOCTYPE svg PUBLIC "-//W3C//DTD SVG 1.1//EN" "http://www.w3.org/Graphics/SVG/1.1/DTD/svg11.dtd">
<svg version="1.1" id="Layer_1" xmlns="http://www.w3.org/2000/svg" xmlns:xlink="http://www.w3.org/1999/xlink" x="0px" y="0px"
	 width="512px" height="512px" viewBox="0 0 512 512" enable-background="new 0 0 512 512" xml:space="preserve">
<g>
	<g>
		<linearGradient id="SVGID_1_" gradientUnits="userSpaceOnUse" x1="100.8867" y1="100.8652" x2="416.9592" y2="416.9377">
			<stop  offset="0" style="stop-color:#00B100"/>
			<stop  offset="1" style="stop-color:#006700"/>
		</linearGradient>
		<path fill="url(#SVGID_1_)" d="M481.521,256.501c0,124.261-100.733,225-225,225s-225-100.739-225-225
			c0-124.264,100.733-225,225-225S481.521,132.237,481.521,256.501z"/>
		<linearGradient id="SVGID_2_" gradientUnits="userSpaceOnUse" x1="150.5742" y1="72.9971" x2="362.4697" y2="440.0109">
			<stop  offset="0" style="stop-color:#006700"/>
			<stop  offset="1" style="stop-color:#00B100"/>
		</linearGradient>
		<path fill="url(#SVGID_2_)" d="M468.38,256.501c0,117.011-94.854,211.864-211.858,211.864S44.663,373.512,44.663,256.501
			c0-117.005,94.854-211.858,211.858-211.858S468.38,139.496,468.38,256.501z"/>
	</g>
</g>
<g>
	<g>
		<path fill-rule="evenodd" clip-rule="evenodd" fill="#FFFFFF" d="M251.601,269.759c9.089,1.223,17.953,1.98,26.644,3.692
			c11.815,2.322,19.585,9.755,23.411,21.124c4.798,14.255,5.893,28.991,4.145,43.802c-1.382,11.791-8.509,18.656-20.752,21.565
			c-8.558,2.029-17.293,2.176-26.009,2.176c-32.751-0.036-65.501,0.013-98.246-0.281c-6.069-0.049-12.262-1.063-18.197-2.487
			c-10.733-2.562-17.604-9.542-18.906-20.617c-1.846-15.654-0.813-31.223,4.841-46.138c3.875-10.189,11.351-16.827,22.066-18.948
			c8.918-1.772,18.02-2.641,27.115-3.924c1.351,8.771,7.121,13.044,14.016,15.855c15.299,6.259,30.782,6.247,46.069-0.067
			c3.295-1.369,6.278-3.71,9.089-5.978C249.688,277.277,251.1,274.031,251.601,269.759z"/>
		<path fill-rule="evenodd" clip-rule="evenodd" fill="#FFFFFF" d="M231.656,272.949c-6.186,3.754-12.788,5.893-20.184,4.988
			c-8.252-1.021-15.214-4.878-20.972-10.605c-16.883-16.788-26.205-37.093-26.125-61.023c0.085-23.444,18.79-44.291,41.986-47.858
			c27.549-4.242,52.427,13.026,57.946,40.354c2.316,11.418,0.227,22.479-3.466,33.289c-1.399,4.071-3.179,8.026-5.012,11.919
			c-0.465,1.012-1.706,1.895-2.806,2.326c-1.681,0.663-3.521,1.097-5.318,1.216c-1.375,0.092-2.817-0.354-4.187-0.746
			c-1.663-0.474-3.252-1.574-4.896-1.641c-4.877-0.196-9.829-0.461-14.646,0.113c-6.632,0.795-11.473,7.247-11.137,13.854
			c0.349,6.907,5.666,12.555,12.42,13.056c2.103,0.159,4.23,0.024,6.345,0.024C231.619,272.461,231.65,272.705,231.656,272.949z"/>
		<path fill-rule="evenodd" clip-rule="evenodd" fill="#FFFFFF" d="M132.432,227.644c0-3.909,0-7.815,0-11.724
			c0.006-4.734,1.889-8.445,5.813-11.232c0.819-0.583,1.369-1.999,1.455-3.078c1.18-14.633,5.972-27.989,15.116-39.431
			c19.749-24.756,45.66-34.792,76.479-27.836c30.269,6.828,49.125,26.668,56.791,56.84c0.893,3.524,1.015,7.231,1.699,10.81
			c0.202,1.057,0.893,2.265,1.748,2.909c3.405,2.586,5.373,5.926,5.429,10.171c0.104,8.396,0.177,16.794-0.007,25.18
			c-0.22,9.233-9.505,14.915-18.05,11.14c-1.345-0.599-2.182-0.48-3.344,0.296c-8.832,5.877-18.71,8.802-29.15,9.994
			c-1.858,0.214-3.313,0.666-4.78,2.078c-1.308,1.265-3.429,2.06-5.281,2.268c-3.124,0.366-6.314,0.177-9.469,0.086
			c-4.615-0.135-7.817-3.387-7.726-7.714c0.091-4.2,3.343-7.195,7.891-7.234c3.075-0.028,6.18-0.26,9.212,0.088
			c1.858,0.208,3.612,1.345,5.428,2.026c0.99,0.37,2.048,1.021,3.02,0.929c9.114-0.886,17.714-3.436,25.611-8.206
			c1.394-0.834,1.943-1.586,1.479-3.371c-0.471-1.797-0.294-3.79-0.3-5.697c-0.024-6.892,0.062-13.799-0.03-20.688
			c-0.073-4.875,1.717-8.67,5.715-11.522c0.599-0.428,0.984-1.635,0.947-2.448c-1.687-26.922-22.133-50.633-48.93-56.803
			c-36.833-8.481-72.854,16.549-77.714,54c-0.348,2.696-0.379,4.893,2.42,6.77c2.928,1.962,4.041,5.364,4.046,8.973
			c0.006,8.31,0.08,16.623-0.03,24.93c-0.092,7.198-5.672,12.503-12.836,12.42c-7.023-0.073-12.476-5.397-12.622-12.46
			c-0.098-4.153-0.024-8.31-0.024-12.466C132.432,227.644,132.432,227.644,132.432,227.644z"/>
	</g>
	<path fill="#FFFFFF" d="M335.69,237.219c-0.874,0-1.742-0.242-2.513-0.73c-1.626-1.03-2.463-2.953-2.097-4.847l2.286-11.968h-4.027
		c-2.592,0-4.695-2.103-4.695-4.694v-26.538c0-2.591,2.104-4.694,4.695-4.694h60.843c2.592,0,4.694,2.103,4.694,4.694v26.538
		c0,2.591-2.103,4.694-4.694,4.694h-28.894l-22.836,16.644C337.634,236.917,336.662,237.219,335.69,237.219z M334.033,210.285h5.013
		c1.399,0,2.727,0.624,3.618,1.702c0.893,1.079,1.254,2.5,0.99,3.875l-1.118,5.865l14.462-10.541
		c0.801-0.586,1.767-0.901,2.763-0.901h25.728v-17.149h-51.455V210.285z"/>
	<path fill="#FFFFFF" d="M335.69,296.458c-0.874,0-1.742-0.244-2.513-0.728c-1.626-1.033-2.463-2.958-2.097-4.847l2.286-11.969
		h-4.027c-2.592,0-4.695-2.103-4.695-4.694v-26.537c0-2.592,2.104-4.694,4.695-4.694h60.843c2.592,0,4.694,2.103,4.694,4.694v26.537
		c0,2.592-2.103,4.694-4.694,4.694h-28.894l-22.836,16.645C337.634,296.158,336.662,296.458,335.69,296.458z M334.033,269.526h5.013
		c1.399,0,2.727,0.624,3.618,1.706c0.893,1.075,1.254,2.493,0.99,3.869l-1.118,5.867l14.462-10.544
		c0.801-0.58,1.767-0.898,2.763-0.898h25.728v-17.148h-51.455V269.526z"/>
	<path fill="#FFFFFF" d="M335.69,355.7c-0.874,0-1.742-0.244-2.513-0.728c-1.626-1.033-2.463-2.958-2.097-4.847l2.286-11.969h-4.027
		c-2.592,0-4.695-2.103-4.695-4.694v-26.54c0-2.592,2.104-4.694,4.695-4.694h60.843c2.592,0,4.694,2.103,4.694,4.694v26.54
		c0,2.592-2.103,4.694-4.694,4.694h-28.894l-22.836,16.645C337.634,355.4,336.662,355.7,335.69,355.7z M334.033,328.769h5.013
		c1.399,0,2.727,0.624,3.618,1.705c0.893,1.076,1.254,2.494,0.99,3.87l-1.118,5.867l14.462-10.544
		c0.801-0.58,1.767-0.898,2.763-0.898h25.728v-17.151h-51.455V328.769z"/>
</g>
</svg>
