<?xml version="1.0" encoding="utf-8"?>
<!-- Generator: Adobe Illustrator 16.0.0, SVG Export Plug-In . SVG Version: 6.00 Build 0)  -->
<!DOCTYPE svg PUBLIC "-//W3C//DTD SVG 1.1//EN" "http://www.w3.org/Graphics/SVG/1.1/DTD/svg11.dtd">
<svg version="1.1" id="Layer_1" xmlns="http://www.w3.org/2000/svg" xmlns:xlink="http://www.w3.org/1999/xlink" x="0px" y="0px"
	 width="512px" height="512px" viewBox="0 0 512 512" enable-background="new 0 0 512 512" xml:space="preserve">
<g>
	<g>
		<linearGradient id="SVGID_1_" gradientUnits="userSpaceOnUse" x1="100.4907" y1="100.5122" x2="416.5632" y2="416.5847">
			<stop  offset="0" style="stop-color:#0091FF"/>
			<stop  offset="0.505" style="stop-color:#0087FF"/>
			<stop  offset="1" style="stop-color:#4501EE"/>
		</linearGradient>
		<path fill="url(#SVGID_1_)" d="M481.125,256.147c0,124.261-100.733,225-225,225s-225-100.739-225-225
			c0-124.264,100.733-225,225-225S481.125,131.884,481.125,256.147z"/>
		<linearGradient id="SVGID_2_" gradientUnits="userSpaceOnUse" x1="150.1777" y1="72.6436" x2="362.0732" y2="439.6573">
			<stop  offset="0" style="stop-color:#0023FF"/>
			<stop  offset="1" style="stop-color:#007AFF"/>
		</linearGradient>
		<path fill="url(#SVGID_2_)" d="M467.983,256.147c0,117.011-94.854,211.864-211.858,211.864S44.267,373.158,44.267,256.147
			c0-117.005,94.854-211.858,211.858-211.858S467.983,139.143,467.983,256.147z"/>
	</g>
</g>
<path fill-rule="evenodd" clip-rule="evenodd" fill="#FFFFFF" d="M296.027,385.622c-0.904,0-1.577,0-2.262,0
	c-26.027,0-52.054,0.141-78.068-0.073c-9.438-0.08-17.347-3.931-21.455-12.854c-3.838-8.338-3.239-16.932,1.259-24.945
	c3.362-5.984,9.145-8.637,15.709-9.016c6.467-0.379,12.995-0.013,19.487,0.006c10.171,0.024,20.354,0.202,30.514-0.019
	c6.76-0.146,13.496-0.795,20.232-1.369c2.555-0.22,5.073-0.795,7.591-1.32c8.546-1.772,13.888-11.259,13.093-19.07
	c-0.831-8.13-5.366-13.741-12.444-15.367c-5.22-1.204-10.22-0.184-15.024,1.919c-6.748,2.952-13.644,5.379-20.929,6.614
	c-9.963,1.687-19.854,1.742-29.413-2.061c-8.973-3.563-15.11-9.676-16.711-19.584c-0.171-1.118-0.208-2.273-0.33-3.625
	c-2.678,0-5.281,0-7.885,0c-2.897-0.012-4.12-1.18-4.12-4.107c-0.024-8.453-0.024-16.9,0-25.352
	c0.012-2.836,1.247-4.028,4.034-4.028c8.557-0.003,17.115-0.006,25.66,0c2.714,0,3.924,1.21,3.924,3.939
	c0.024,8.557,0.024,17.109,0,25.661c0,2.652-1.222,3.875-3.826,3.875c-3.606,0.012-7.225,0.012-10.966,0.012
	c0.024,5.807,2.274,10.306,6.748,13.668c5.55,4.169,11.993,5.563,18.766,5.844c11.247,0.464,21.785-2.348,31.98-6.847
	c6.418-2.842,13.068-4.119,20.061-2.359c8.876,2.237,15.733,10,16.92,19.083c1.32,10.049-1.969,18.228-9.829,24.597
	c-3.13,2.537-6.919,3.436-10.733,4.199c-9.279,1.871-18.717,2.359-28.154,2.5c-9.694,0.135-19.401,0.037-29.107-0.036
	c-5.293-0.049-10.575-0.33-15.88-0.367c-1.919-0.012-3.875,0.232-5.758,0.636c-5.098,1.088-8.264,4.279-9.584,9.304
	c-0.99,3.753-1.234,7.566-0.403,11.369c1.418,6.504,6.455,10.966,13.667,12.164c1.284,0.213,2.604,0.33,3.912,0.33
	c25.758,0.012,51.528,0.012,77.298,0.012c0.611,0,1.234,0,2.029,0c0-3.008,0-5.88,0-8.753c0-3.338,0.721-4.193,4.047-4.854
	c10.586-2.127,21.173-4.242,31.76-6.363c2.763-0.556,4.486,0.838,4.499,3.661c0.012,3.143,0,6.271,0,9.634
	c2.396,0,4.633-0.049,6.87,0.013c1.626,0.036,2.861,1.124,3.154,2.566c0.306,1.541-0.354,3.075-1.736,3.692
	c-0.599,0.274-1.308,0.366-1.968,0.392c-2.042,0.042-4.071,0.012-6.223,0.012c0,2.243,0,4.364,0,6.699c2.14,0,4.218-0.03,6.296,0
	c2.054,0.037,3.387,1.088,3.655,2.787c0.343,2.237-1.112,3.888-3.569,3.961c-1.98,0.062-3.985,0.037-5.979,0.049
	c-0.098,0-0.195,0.067-0.501,0.184c0,2.836,0,5.758,0,8.68c-0.013,0.63,0.036,1.271-0.073,1.883
	c-0.367,1.968-2.152,2.922-4.548,2.457c-3.595-0.709-7.188-1.442-10.782-2.164c-7.188-1.442-14.377-2.891-21.565-4.34
	c-2.359-0.488-3.3-1.583-3.325-4.021C295.99,392.034,296.027,388.941,296.027,385.622z M302.91,393.024
	c8.937,1.784,17.763,3.551,26.626,5.317c0-10.733,0-21.345,0-32.066c-8.961,1.798-17.775,3.57-26.626,5.337
	C302.91,378.788,302.91,385.812,302.91,393.024z M222.115,278.109c0-6.748,0-13.368,0-20.003c-6.699,0-13.276,0-19.951,0
	c0,6.702,0,13.316,0,20.003C208.827,278.109,215.416,278.109,222.115,278.109z"/>
<g>
	<path fill-rule="evenodd" clip-rule="evenodd" fill="#FFFFFF" d="M219.193,214.885c-25.917,0-51.663,0-77.347,0
		c-1.882,9.462,2.359,16.522,10.941,18.655c12.665,3.148,21.883-0.868,25.098-11.036c13.423,0,26.882,0,40.782,0
		c-0.135,5.587-2.91,9.618-7.188,11.971c-5.794,3.179-11.858,6.541-18.203,7.87c-23.105,4.832-46.332,4.963-69.511-0.058
		c-26.125-5.66-26.785-29.218-21.247-45.232c2.458-7.093,8.509-11.274,15.416-13.059c9.046-2.335,18.313-4.27,27.604-5.052
		c16.675-1.403,33.362-0.859,49.756,3.038c3.081,0.727,6.125,1.748,9.034,3.01C216.541,190.313,221.858,200.79,219.193,214.885z
		 M178.375,204.592c0.624-7.415-1.235-11.372-6.687-13.27c-7.506-2.613-15.208-2.781-22.751-0.153
		c-5.929,2.066-8.374,6.978-7.066,13.423C153.912,204.592,166.003,204.592,178.375,204.592z"/>
	<path fill-rule="evenodd" clip-rule="evenodd" fill="#FFFFFF" d="M339.438,185.588c7.177-13.933,13.998-26.931,20.526-40.085
		c1.516-3.065,3.301-4.101,6.626-4.01c8.02,0.22,16.051,0.074,25.012,0.074c-1.088,2.042-1.772,3.441-2.543,4.786
		c-11.479,19.969-23.031,39.896-34.376,59.938c-1.345,2.369-2.066,5.357-2.164,8.087c-0.269,8.796-0.098,17.598-0.098,26.394
		c0,1.638,0,3.276,0,5.208c-10,0-19.475,0-29.426,0c0-10.63,0.159-21.058-0.098-31.477c-0.061-2.888-0.771-6.033-2.114-8.566
		c-10.489-19.816-21.223-39.508-31.858-59.245c-0.782-1.434-1.468-2.916-2.519-5.055c10.538,0,20.477-0.104,30.416,0.159
		c1.075,0.027,2.408,2.026,3.08,3.38c5.673,11.721,11.223,23.512,16.822,35.272C337.421,181.902,338.24,183.308,339.438,185.588z"/>
	<path fill-rule="evenodd" clip-rule="evenodd" fill="#FFFFFF" d="M313.717,226.172c-6.063,0-12.678,0-19.731,0
		c-0.428-2.961-0.855-5.893-1.369-9.447c-1.296,1.424-2.262,2.491-3.215,3.548c-6.063,6.66-17.567,9.334-26.442,6.146
		c-7.812-2.812-12.421-10.08-12.8-20.159c-0.636-17.005,7.103-25.453,24.816-26.834c4.523-0.354,9.096-0.336,13.644-0.318
		c2.298,0.012,3.386-0.782,3.203-3.172c-0.135-1.809,0-3.643-0.196-5.449c-0.647-5.914-3.044-8.16-8.691-8.355
		c-5.44-0.187-7.886,2.044-8.851,8.108c-0.172,1.021-0.33,2.039-0.526,3.228c-7.078,0-14.021,0-20.929,0
		c-1.516-6.327,1.149-13.13,6.577-17.069c8.337-6.051,17.909-5.804,27.493-5.235c0.99,0.058,2.237,1.385,2.813,2.427
		c7.836,14.349,15.599,28.75,23.35,43.145c0.354,0.657,0.818,1.381,0.818,2.081C313.729,207.85,313.717,216.893,313.717,226.172z
		 M292.299,190.209c-3.704,0.278-6.101,0.4-8.496,0.648c-9.34,0.969-12.323,4.532-11.847,14.025c0.294,6.018,2.775,9.453,7.25,9.979
		c5.758,0.678,10.281-2.017,11.467-7.879C291.736,201.75,291.761,196.297,292.299,190.209z"/>
	<path fill-rule="evenodd" clip-rule="evenodd" fill="#FFFFFF" d="M202.836,149.408c7.604,0,14.548,0,22.176,0
		c0,12.549,0,24.997,0,38.723c9.45-10.092,19.572-9.881,31.234-5.816c-8.203,7.803-9.89,17.087-8.545,27.044
		c1.406,10.526,6.699,18.068,17.457,20.541c0.905,10.672-4.218,20.929-11.993,24.38c-9.596,4.251-20.733,1.65-28.9-7.222
		c-0.195,2.619-0.342,4.737-0.513,7.234c-6.809,0-13.533,0-20.893,0c0-3.478-0.183-7.063,0.123-10.608
		c0.085-0.929,1.602-1.867,2.616-2.552c3.374-2.271,7.176-4.053,10.159-6.749c2.237-2.035,3.998-5,5.061-7.885
		c1.944-5.336,0.636-6.846-4.976-6.932c-4.083-0.064-8.154-0.159-12.249-0.278c-0.184-0.009-0.354-0.388-1.516-1.708
		c4.817,0,8.692,0,12.58,0c7.799,0,8.007-0.281,7.946-8.197c-0.123-12.567-5.232-21.858-17.115-26.977
		c-1.125-0.477-2.506-2.002-2.53-3.069C202.763,169.512,202.836,159.684,202.836,149.408z M224.707,216.841
		c0.574,6.372,0.941,12.711,1.797,18.982c0.575,4.175,2.653,7.442,7.567,7.57c4.45,0.123,7.971-2.054,8.264-7.252
		c0.685-12.17,0.746-24.395,0.367-36.574c-0.159-4.878-3.851-7.365-8.276-7.387c-4.193-0.021-7.25,2.249-8.032,7.1
		C225.453,205.068,225.245,210.979,224.707,216.841z"/>
</g>
</svg>
