<?xml version="1.0" encoding="utf-8"?>
<!-- Generator: Adobe Illustrator 16.0.0, SVG Export Plug-In . SVG Version: 6.00 Build 0)  -->
<!DOCTYPE svg PUBLIC "-//W3C//DTD SVG 1.1//EN" "http://www.w3.org/Graphics/SVG/1.1/DTD/svg11.dtd">
<svg version="1.1" id="Layer_1" xmlns="http://www.w3.org/2000/svg" xmlns:xlink="http://www.w3.org/1999/xlink" x="0px" y="0px"
	 width="512px" height="512px" viewBox="0 0 512 512" enable-background="new 0 0 512 512" xml:space="preserve">
<g>
	<g>
		<linearGradient id="SVGID_1_" gradientUnits="userSpaceOnUse" x1="101.2378" y1="100.6938" x2="417.3109" y2="416.767">
			<stop  offset="0" style="stop-color:#0000FF"/>
			<stop  offset="1" style="stop-color:#000083"/>
		</linearGradient>
		<path fill="url(#SVGID_1_)" d="M481.873,256.33c0,124.261-100.733,225-225,225s-225-100.739-225-225
			c0-124.267,100.733-225,225-225S481.873,132.063,481.873,256.33z"/>
		<linearGradient id="SVGID_2_" gradientUnits="userSpaceOnUse" x1="150.9268" y1="72.8252" x2="362.8198" y2="439.8348">
			<stop  offset="0" style="stop-color:#000083"/>
			<stop  offset="1" style="stop-color:#0000FF"/>
		</linearGradient>
		<circle fill="url(#SVGID_2_)" cx="256.873" cy="256.33" r="211.858"/>
	</g>
</g>
<path fill-rule="evenodd" clip-rule="evenodd" fill="#FFFFFF" d="M142.271,162.846c21.602,0,42.402,0,63.851,0
	c0,15.024,0.122,29.75-0.208,44.462c-0.03,1.333-2.958,3.71-4.566,3.735c-18.129,0.263-36.259,0.275-54.389-0.049
	c-1.589-0.031-4.444-2.879-4.48-4.475C142.124,192.174,142.271,177.81,142.271,162.846z M162.839,193.103v0.024
	c3.741,0,7.5,0.202,11.21-0.122c1.106-0.098,2.091-1.663,3.124-2.555c-1.021-0.905-2.011-2.567-3.062-2.598
	c-7.079-0.226-14.169-0.214-21.247,0.031c-0.96,0.037-1.858,1.833-2.781,2.812c0.911,0.807,1.76,2.213,2.726,2.298
	C156.133,193.28,159.495,193.103,162.839,193.103z M163.432,183.903c3.735,0,7.47,0.159,11.18-0.116
	c0.893-0.067,2.329-1.583,2.335-2.438c0-0.85-1.473-2.415-2.329-2.439c-7.256-0.202-14.517-0.202-21.773-0.031
	c-0.941,0.024-1.852,1.4-2.769,2.151c0.917,0.966,1.772,2.659,2.775,2.757C156.347,184.129,159.905,183.916,163.432,183.903z
	 M164,196.789c0,0.012,0,0.024,0,0.037c-3.723,0-7.463-0.208-11.155,0.128c-0.996,0.098-1.84,1.833-2.757,2.812
	c0.929,0.734,1.846,2.084,2.8,2.109c7.054,0.189,14.107,0.22,21.155,0.006c1.051-0.036,2.054-1.625,3.075-2.494
	c-1.04-0.862-2.017-2.366-3.136-2.476C170.687,196.575,167.332,196.789,164,196.789z"/>
<path fill-rule="evenodd" clip-rule="evenodd" fill="#FFFFFF" d="M292.454,162.87c0,14.872-0.024,29.224,0.018,43.588
	c0.007,3.6-1.876,4.78-5.214,4.774c-17.939-0.049-35.874,0.073-53.808-0.196c-1.632-0.024-4.609-2.353-4.64-3.662
	c-0.33-14.725-0.208-29.45-0.208-44.505C249.99,162.87,270.791,162.87,292.454,162.87z M249.825,193.103
	c3.545,0,7.103,0.171,10.624-0.11c0.972-0.073,1.852-1.467,2.769-2.25c-0.911-1.002-1.797-2.824-2.738-2.86
	c-7.072-0.251-14.169-0.263-21.241-0.037c-1.069,0.037-2.078,1.663-3.117,2.555c1.033,0.905,1.986,2.488,3.093,2.592
	C242.729,193.335,246.286,193.121,249.825,193.103z M249.416,183.934c3.533,0,7.084,0.195,10.587-0.11
	c1.131-0.098,2.139-1.528,3.209-2.348c-0.972-0.904-1.92-2.549-2.922-2.585c-7.06-0.226-14.126-0.232-21.186-0.006
	c-1.015,0.031-1.974,1.693-2.952,2.61c1.082,0.813,2.109,2.219,3.264,2.335C242.723,184.148,246.078,183.94,249.416,183.934z
	 M249.563,201.984c3.533,0,7.078,0.195,10.581-0.116c1.081-0.098,2.041-1.583,3.062-2.433c-1.026-0.874-2.022-2.481-3.068-2.518
	c-7.054-0.22-14.113-0.22-21.167,0.024c-0.966,0.037-1.871,1.809-2.806,2.781c0.935,0.752,1.833,2.078,2.818,2.151
	C242.497,202.137,246.036,201.978,249.563,201.984z"/>
<path fill-rule="evenodd" clip-rule="evenodd" fill="#FFFFFF" d="M314.941,162.846c21.437,0,42.268,0,63.753,0
	c0,15.024,0.129,29.774-0.214,44.518c-0.03,1.314-3.087,3.649-4.756,3.673c-17.964,0.263-35.935,0.263-53.899,0
	c-1.645-0.024-4.646-2.359-4.67-3.68C314.813,192.626,314.941,177.889,314.941,162.846z M336.158,193.133c0,0.018,0,0.042,0,0.061
	c3.355,0,6.729,0.214,10.055-0.104c1.18-0.122,2.237-1.522,3.344-2.335c-1.137-1.002-2.237-2.812-3.417-2.854
	c-6.896-0.281-13.809-0.263-20.709-0.031c-1.052,0.037-2.048,1.681-3.075,2.586c1.046,0.893,2.036,2.445,3.154,2.555
	C329.03,193.341,332.606,193.133,336.158,193.133z M335.699,183.922c3.545,0,7.115,0.195,10.636-0.11
	c1.137-0.098,2.158-1.522,3.233-2.335c-0.978-0.917-1.925-2.598-2.928-2.628c-7.09-0.214-14.199-0.202-21.29,0.042
	c-1.021,0.037-1.992,1.687-2.982,2.592c1.088,0.813,2.127,2.225,3.282,2.335C328.97,184.136,332.344,183.934,335.699,183.922z
	 M335.602,201.984c3.545,0,7.109,0.195,10.63-0.11c1.149-0.098,2.188-1.498,3.27-2.298c-0.978-0.941-1.938-2.659-2.952-2.689
	c-7.084-0.238-14.181-0.245-21.266-0.012c-1.014,0.031-1.979,1.742-2.97,2.677c1.081,0.813,2.103,2.231,3.251,2.335
	C328.891,202.21,332.252,202.002,335.602,201.984z"/>
<path fill-rule="evenodd" clip-rule="evenodd" fill="#FFFFFF" d="M292.441,156.195c-21.613,0-42.28,0-63.796,0
	c0-8.765-0.183-17.359,0.208-25.929c0.055-1.198,2.891-3.233,4.468-3.252c18.136-0.226,36.284-0.263,54.425,0.061
	c1.589,0.024,4.389,2.842,4.48,4.493C292.698,139.582,292.441,147.638,292.441,156.195z M259.024,148.243
	c0.85,0.055,1.699,0.11,2.543,0.171c1.607-2.268,4.493-4.572,4.432-6.791c-0.056-1.956-3.13-4.945-5.354-5.471
	c-3.539-0.837-6.302,1.968-5.832,5.538C255.112,144.02,257.545,146.073,259.024,148.243z M285.534,142.895
	c0.019-0.875,0.037-1.754,0.062-2.628c-2.329-1.461-4.75-4.181-6.95-4.016c-1.999,0.153-4.933,3.24-5.342,5.422
	c-0.636,3.484,2.139,6.235,5.782,5.563C281.421,146.807,283.395,144.411,285.534,142.895z M240.388,148.304
	c0.874,0.012,1.754,0.031,2.628,0.037c1.607-2.06,4.107-3.924,4.609-6.229c0.788-3.588-1.803-6.498-5.349-5.966
	c-2.225,0.343-5.458,3.111-5.69,5.086C236.329,143.415,239,145.933,240.388,148.304z"/>
<path fill-rule="evenodd" clip-rule="evenodd" fill="#FFFFFF" d="M206.06,156.202c-21.607,0-42.262,0-63.704,0
	c0-8.765-0.184-17.366,0.208-25.935c0.055-1.198,2.922-3.233,4.511-3.252c17.928-0.245,35.868-0.281,53.796,0.006
	c1.748,0.031,4.866,2.524,4.951,4.016C206.311,139.233,206.06,147.479,206.06,156.202z M175.797,134.937
	c-0.899-0.012-1.803-0.031-2.708-0.043c-1.589,2.262-4.621,4.713-4.358,6.736c0.275,2.146,3.515,5.08,5.782,5.397
	c1.614,0.226,5.159-3.185,5.306-5.165C179.978,139.667,177.264,137.259,175.797,134.937z M193.823,134.9
	c-0.862,0.042-1.717,0.085-2.58,0.128c-1.479,2.17-4.45,4.657-4.071,6.424c0.501,2.292,3.472,5.189,5.746,5.557
	c1.553,0.25,5.184-3.319,5.251-5.281C198.254,139.509,195.406,137.18,193.823,134.9z M162.552,143.188
	c0.006-0.856,0.012-1.724,0.012-2.586c-2.108-1.559-4.046-4.01-6.381-4.48c-3.576-0.727-6.485,1.84-5.874,5.41
	c0.379,2.194,3.215,5.348,5.171,5.52C157.704,147.247,160.186,144.6,162.552,143.188z"/>
<path fill-rule="evenodd" clip-rule="evenodd" fill="#FFFFFF" d="M378.725,156.195c-21.559,0-42.23,0-63.856,0
	c0-8.741-0.184-17.316,0.208-25.868c0.055-1.223,2.86-3.294,4.413-3.313c18.142-0.232,36.283-0.269,54.419,0.061
	c1.633,0.024,4.499,2.793,4.603,4.419C378.988,139.515,378.725,147.577,378.725,156.195z M363.792,148.384
	c0.856-0.03,1.712-0.067,2.567-0.098c1.528-2.146,4.01-4.145,4.377-6.467c0.568-3.582-2.152-6.431-5.697-5.691
	c-2.237,0.464-5.385,3.392-5.495,5.361C359.416,143.702,362.252,146.08,363.792,148.384z M335.003,142.736
	c0.006-0.843,0.006-1.687,0.006-2.537c-2.384-1.43-4.872-4.114-7.108-3.924c-1.999,0.177-4.945,3.344-5.281,5.526
	c-0.526,3.466,2.335,6.186,5.965,5.428C330.938,146.74,332.875,144.301,335.003,142.736z M345.009,148.311
	c0.88,0.006,1.761,0.024,2.646,0.037c1.596-2.066,4.089-3.955,4.572-6.253c0.746-3.545-1.742-6.534-5.343-5.966
	c-2.206,0.348-5.379,3.129-5.604,5.104C341.029,143.42,343.64,145.933,345.009,148.311z"/>
<path fill-rule="evenodd" clip-rule="evenodd" fill="#FFFFFF" d="M353.799,223.519c-3.454,0-6.522,0-10.141,0
	c0,5.036,0.122,9.737-0.031,14.438c-0.214,6.528-3.496,10.024-9.89,10.067c-20.739,0.122-41.485,0.073-62.231,0.055
	c-0.916,0-1.833-0.348-3.38-0.66c0-7.989,0-15.807,0-23.833c-3.912,0-7.115,0-10.898,0c0,8.221,0,16.033,0,24.169
	c-2.084,0.128-3.619,0.299-5.159,0.306c-15.263,0.012-30.525,0.024-45.788,0.006c0.018-0.245,0.037-0.489,0.049-0.746
	c-0.306,0.25-0.617,0.501-0.936,0.746c-4.987,0-9.969,0-14.963-0.012c-7.904-0.019-10.997-3.172-11.155-11.198
	c-0.086-4.438-0.019-8.887-0.019-13.331c-4.163,0-7.225,0-10.813,0c0,4.45-0.012,8.558,0,12.671
	c0.037,14.982,7.598,22.604,22.616,22.641c0.336,0,0.678,0,1.015,0c-4.126,3.35-8.246,6.705-12.378,10.049
	c-3.588,2.91-5.611,6.461-5.605,11.266c0.067,31.81,0.037,63.612,0.037,95.416c0,8.007,5.898,13.894,13.918,13.894
	c48.172,0.006,96.345,0.006,144.517,0c8.246,0,14.083-5.868,14.083-14.175c0-31.517-0.018-63.038,0.024-94.566
	c0-3.826-1.18-7.011-4.083-9.56c-4.682-4.102-9.357-8.228-14.034-12.341c1.639-0.007,3.271-0.007,4.908-0.013
	c10.452-0.049,18.687-5.679,20.135-14.847C354.642,237.314,353.799,230.364,353.799,223.519z M332.777,375.7
	c-48.227,0-96.448,0-144.829,0c0-29.107,0-58.209,0-87.641c3.961,2.989,7.714,5.789,11.449,8.606
	c11.418,8.606,22.854,17.194,34.248,25.819c7.983,6.045,15.936,12.127,23.875,18.222c2.329,1.778,3.308,1.827,5.593,0.104
	c20.05-15.067,40.104-30.141,60.153-45.208c3.081-2.316,6.144-4.657,9.511-7.219C332.777,317.699,332.777,346.648,332.777,375.7z
	 M329.416,279.014c-15.245,11.351-30.508,22.689-45.765,34.027c-7.071,5.251-14.156,10.478-21.21,15.746
	c-1.461,1.088-2.665,1.101-4.169-0.055c-4.847-3.723-9.792-7.299-14.688-10.947c-15.067-11.241-30.128-22.488-45.183-33.747
	c-2.916-2.183-5.776-4.42-8.839-6.767c4.835-3.991,9.303-7.763,13.863-11.406c2.084-1.668,3.838-3.282,2.744-6.326
	c-0.073-0.227-0.128-0.458-0.189-0.69c14.591,0.019,29.175,0.006,43.759,0.006c2.323,0,4.646,0,6.968,0
	c0.495,0.532,0.99,1.063,1.479,1.596c-1.382,2.261-2.299,5.109-4.249,6.675c-5.892,4.719-8.459,11.356-6.338,18.325
	c2.084,6.87,7.787,11.131,15.006,11.198c7.121,0.066,13.301-4.242,15.397-10.752c2.256-6.975-0.178-13.638-6.058-18.405
	c-2.029-1.65-3.16-4.389-4.706-6.638c0.586-0.703,1.173-1.4,1.754-2.103c2.922,0,5.837-0.007,8.766,0
	c10.562,0.018,21.124,0.061,31.692,0.079c7.25,6.314,14.347,12.5,21.614,18.826C330.394,278.213,329.923,278.635,329.416,279.014z"
	/>
<path fill-rule="evenodd" clip-rule="evenodd" fill="#FFFFFF" d="M286.708,331.055c1.186,0.568,2.402,0.874,3.258,1.602
	c3.228,2.775,6.351,5.673,9.486,8.552c7.054,6.485,14.12,12.964,21.138,19.486c1.081,1.003,2.071,2.157,2.885,3.38
	c1.596,2.354,1.259,4.004-0.947,5.832c-2.023,1.662-4.096,1.602-6.07-0.172c-2.598-2.322-5.207-4.614-7.756-6.974
	c-8.197-7.567-16.395-15.129-24.512-22.763c-2.75-2.599-2.793-5.386-0.317-7.482C284.624,331.868,285.669,331.574,286.708,331.055z"
	/>
<path fill-rule="evenodd" clip-rule="evenodd" fill="#FFFFFF" d="M195.076,365.927c0.623-1.106,1.021-2.47,1.907-3.301
	c6.155-5.758,12.433-11.412,18.649-17.108c4.028-3.692,8.032-7.409,12.06-11.089c0.936-0.855,1.914-1.692,2.958-2.384
	c2.17-1.424,3.924-1.015,5.758,1.204c1.339,1.626,1.363,4.315-0.146,5.795c-3.435,3.38-6.938,6.705-10.477,9.981
	c-4.371,4.047-8.802,8.025-13.209,12.036c-3.05,2.763-6.045,5.593-9.169,8.258c-1.663,1.424-3.698,2.097-5.85,1.075
	C195.822,369.569,195.388,367.956,195.076,365.927z"/>
</svg>
