<?xml version="1.0" encoding="utf-8"?>
<!-- Generator: Adobe Illustrator 16.0.0, SVG Export Plug-In . SVG Version: 6.00 Build 0)  -->
<!DOCTYPE svg PUBLIC "-//W3C//DTD SVG 1.1//EN" "http://www.w3.org/Graphics/SVG/1.1/DTD/svg11.dtd">
<svg version="1.1" id="Layer_1" xmlns="http://www.w3.org/2000/svg" xmlns:xlink="http://www.w3.org/1999/xlink" x="0px" y="0px"
	 width="512px" height="512px" viewBox="0 0 512 512" enable-background="new 0 0 512 512" xml:space="preserve">
<g>
	<g>
		<linearGradient id="SVGID_1_" gradientUnits="userSpaceOnUse" x1="99.3184" y1="99.8184" x2="415.3922" y2="415.8922">
			<stop  offset="0" style="stop-color:#00C9FF"/>
			<stop  offset="1" style="stop-color:#0091FF"/>
		</linearGradient>
		<path fill="url(#SVGID_1_)" d="M479.954,255.455c0,124.261-100.733,225-225,225s-225-100.739-225-225
			c0-124.267,100.733-225,225-225S479.954,131.188,479.954,255.455z"/>
		<linearGradient id="SVGID_2_" gradientUnits="userSpaceOnUse" x1="149.0078" y1="71.9507" x2="360.9009" y2="438.9603">
			<stop  offset="0" style="stop-color:#0091FF"/>
			<stop  offset="0.4483" style="stop-color:#0093FF"/>
			<stop  offset="1" style="stop-color:#00C9FF"/>
		</linearGradient>
		<circle fill="url(#SVGID_2_)" cx="254.954" cy="255.455" r="211.858"/>
	</g>
</g>
<g>
	<path fill-rule="evenodd" clip-rule="evenodd" fill="#FFFFFF" d="M251.22,226.47c1.791,1.296,2.335,1.724,2.916,2.09
		c27.854,17.5,71.449,14.597,96.742-6.363c19.096-15.819,26.853-36.834,27.885-60.862c0.196-4.297,0.66-7.732,4.597-10.66
		c3.687-2.732,6.419-6.767,9.572-10.232c-0.306-0.312-0.636-0.611-0.947-0.905c-3.368,0.801-6.724,1.589-10.458,2.476
		c3.136-4.963,5.807-9.163,8.472-13.343c-3.289,0.08-5.238,1.002-7.213,1.876c-6.082,2.714-11.271,3.942-17.812-0.941
		c-9.102-6.767-19.805-5.917-29.584-0.214c-9.72,5.678-15.067,14.211-14.817,25.801c0.043,1.65,0,3.313,0,5.098
		c-23.515-3.056-43.472-12.17-59.144-29.816c-7.702,11.87-5.63,23.832,6.625,38.301c-4.095-1.119-7.396-2.042-11.124-3.075
		c0.208,13.704,7.604,22.268,20.696,28.851c-4.535,0-7.139,0-10.396,0c4.181,12.91,14.132,17.745,26.717,21.125
		C280.479,224.006,267.148,227.356,251.22,226.47z"/>
</g>
<g>
	<path fill-rule="evenodd" clip-rule="evenodd" fill="#FFFFFF" d="M252.895,193.328c-25.715,0-51.424,0-77.14,0.012
		c-7.225,0.006-9.267,2.115-9.267,9.407c-0.012,23.368-0.006,46.742-0.012,70.116c0,22.714,0.012,45.434-0.006,68.154
		c-0.006,9.987,1.302,11.369,11.277,11.369c46.253,0.006,92.506,0,138.765,0c6.778-0.006,8.991-2.219,8.991-9.188
		c0.019-30.501,0.024-82.701,0.024-91.503c15.435-3.606,26.29-11.687,26.29-11.687c0,34.646,0,69.291,0.013,103.931
		c0,20.782-13.912,34.73-34.72,34.73c-47.72,0-95.439-0.03-143.166-0.006c-12.029,0-21.442-4.896-28.288-14.749
		c-3.851-5.551-5.465-11.779-5.465-18.49c0.012-48.539-0.049-97.072,0.043-145.611c0.043-18.509,14.542-32.708,33.203-32.745
		c20.617-0.049,41.229-0.031,61.846-0.019c3.57,0,7.14,0,10.715,0c0,0.006,0-10.556,0,0.019S252.895,193.328,252.895,193.328z"/>
	<path fill-rule="evenodd" clip-rule="evenodd" fill="#FFFFFF" d="M227.521,249.746c13.967,0,27.329,0,40.69,0
		c1.479,0,2.946-0.055,4.413-0.006c8.24,0.269,14.034,5.752,14.053,13.277c0.024,7.427-5.929,13.166-14.077,13.239
		c-13.074,0.11-26.149,0.03-39.224,0.03c-1.76,0-3.521,0-5.446,0c0,6.938-0.66,13.497,0.153,19.866
		c1.191,9.346,9.994,16.234,19.822,16.375c9.475,0.135,18.961,0.012,28.436,0.055c8.545,0.031,14.523,5.477,14.572,13.179
		c0.049,7.695-5.887,13.215-14.486,13.282c-9.646,0.08-19.291,0.178-28.925-0.03c-26.002-0.544-46.333-21.351-46.394-47.348
		c-0.043-22.879-0.061-45.758-0.037-68.637c0-2.273,0.037-4.627,0.599-6.797c1.577-5.99,7.842-10.177,13.783-9.517
		c6.522,0.721,11.669,5.929,11.95,12.848c0.318,8.001,0.104,16.009,0.116,24.022C227.527,245.375,227.521,247.161,227.521,249.746z"
		/>
</g>
</svg>
