<?xml version="1.0" encoding="utf-8"?>
<!-- Generator: Adobe Illustrator 16.0.0, SVG Export Plug-In . SVG Version: 6.00 Build 0)  -->
<!DOCTYPE svg PUBLIC "-//W3C//DTD SVG 1.1//EN" "http://www.w3.org/Graphics/SVG/1.1/DTD/svg11.dtd">
<svg version="1.1" id="Layer_1" xmlns="http://www.w3.org/2000/svg" xmlns:xlink="http://www.w3.org/1999/xlink" x="0px" y="0px"
	 width="512px" height="512px" viewBox="0 0 512 512" enable-background="new 0 0 512 512" xml:space="preserve">
<g>
	<g>
		<linearGradient id="SVGID_1_" gradientUnits="userSpaceOnUse" x1="101.1138" y1="100.6938" x2="417.1869" y2="416.767">
			<stop  offset="0" style="stop-color:#FFA300"/>
			<stop  offset="1" style="stop-color:#FF6400"/>
		</linearGradient>
		<path fill="url(#SVGID_1_)" d="M481.749,256.33c0,124.261-100.733,225-225,225s-225-100.739-225-225
			c0-124.267,100.733-225,225-225S481.749,132.063,481.749,256.33z"/>
		<linearGradient id="SVGID_2_" gradientUnits="userSpaceOnUse" x1="150.8027" y1="72.8252" x2="362.6958" y2="439.8348">
			<stop  offset="0" style="stop-color:#FF6400"/>
			<stop  offset="1" style="stop-color:#FFA300"/>
		</linearGradient>
		<circle fill="url(#SVGID_2_)" cx="256.749" cy="256.33" r="211.858"/>
	</g>
</g>
<g>
	<path fill-rule="evenodd" clip-rule="evenodd" fill="#FFFFFF" d="M334.701,309.942c-48.068,0-95.605,0-143.631,0
		c-0.055-1.32-0.165-2.634-0.165-3.948c-0.006-38.546-0.024-77.079,0.006-115.618c0.012-14.456,9.34-23.9,23.753-23.924
		c32.005-0.061,64.022-0.067,96.033,0.012c14.756,0.037,23.974,9.328,23.985,24.022c0.037,38.539,0.019,77.078,0.019,115.617
		C334.701,307.217,334.701,308.322,334.701,309.942z M294.836,274.551c-21.564,0-42.696,0-63.839,0c0,5.318,0,10.361,0,15.404
		c21.431,0,42.562,0,63.839,0C294.836,284.729,294.836,279.766,294.836,274.551z M255.936,230.878
		c-0.361-14.218-11.736-25.312-25.685-25.049c-14.487,0.263-25.495,11.827-25.11,26.375c0.367,13.802,11.956,24.749,25.855,24.426
		C245.203,256.299,256.285,244.857,255.936,230.878z M295.533,205.865c-14.291-0.183-25.722,10.979-25.868,25.257
		c-0.135,13.808,10.983,25.288,24.816,25.605c14.218,0.323,25.904-10.954,26.021-25.11
		C320.612,217.412,309.592,206.049,295.533,205.865z"/>
	<path fill-rule="evenodd" clip-rule="evenodd" fill="#FFFFFF" d="M262.837,361.403c-30.898,0-61.785,0.03-92.683-0.019
		c-9.725-0.012-16.479-5.066-18.704-13.729c-2.604-10.195,4.627-20.77,15.073-21.986c1.112-0.135,2.25-0.178,3.38-0.178
		c62.035,0.007,124.07-0.006,186.106,0.067c12.934,0.019,21.399,11.138,17.903,23.136c-2.194,7.524-9.114,12.598-17.647,12.629
		c-21.723,0.085-43.453,0.055-65.177,0.061c-9.419,0.007-18.839,0-28.252,0C262.837,361.392,262.837,361.397,262.837,361.403z"/>
	<path fill-rule="evenodd" clip-rule="evenodd" fill="#FFFFFF" d="M168.418,211.862c2.604,0,4.707,0,7.115,0
		c0,17.585,0,35.061,0,52.506c-11.718,2.023-23.49-7.151-24.34-19.536c-0.416-6.033,0.507-12.182,1.162-18.246
		c0.195-1.742,1.229-3.723,2.494-4.976c6.302-6.253,2.567-14.016,3.331-21.076c0.067-0.623-1.601-1.62-2.622-2.145
		c-9.083-4.64-12.512-15.501-7.653-24.395c4.731-8.643,15.801-11.687,24.413-6.706c11.455,6.62,11.724,23.833,0.123,30.202
		c-3.594,1.975-4.389,4.102-4.059,7.604C168.583,207.198,168.418,209.319,168.418,211.862z"/>
	<path fill-rule="evenodd" clip-rule="evenodd" fill="#FFFFFF" d="M350.02,264.576c0-17.641,0-35.031,0-52.378
		c12.243-2.048,23.961,7.867,24.621,20.703c0.183,3.502,0.207,7.036,0.049,10.538C374.127,256.281,363.24,265.725,350.02,264.576z"
		/>
	<path fill-rule="evenodd" clip-rule="evenodd" fill="#FFFFFF" d="M289.182,150.951c-17.598,0-34.976,0-52.757,0
		c-0.586-4.554,0.312-8.729,2.439-12.628c3.649-6.687,9.254-11.027,16.852-11.76c5.306-0.507,10.831-0.526,16.063,0.36
		C282.788,128.799,290.483,139.649,289.182,150.951z"/>
	<path fill-rule="evenodd" clip-rule="evenodd" fill="#FFFFFF" d="M230.679,213.323c-10.042-0.134-17.916,7.512-18.111,17.604
		c-0.196,9.945,7.561,18.154,17.402,18.411c9.939,0.269,18.435-7.818,18.619-17.732
		C248.772,221.532,240.863,213.451,230.679,213.323z"/>
	<path fill-rule="evenodd" clip-rule="evenodd" fill="#FFFFFF" d="M313.112,231.33c0.024-10.128-7.971-18.099-18.124-18.068
		c-9.884,0.037-17.879,8.013-17.988,17.94c-0.098,9.811,8.313,18.178,18.258,18.172C305.025,249.368,313.094,241.22,313.112,231.33z
		"/>
	<path fill-rule="evenodd" clip-rule="evenodd" fill="#FFFFFF" d="M230.679,213.323c10.184,0.128,18.093,8.209,17.91,18.282
		c-0.184,9.915-8.68,18.001-18.619,17.732c-9.841-0.257-17.598-8.466-17.402-18.411
		C212.764,220.835,220.637,213.188,230.679,213.323z"/>
	<path fill-rule="evenodd" clip-rule="evenodd" fill="#FFFFFF" d="M313.112,231.33c-0.019,9.89-8.087,18.038-17.854,18.044
		c-9.945,0.006-18.355-8.362-18.258-18.172c0.109-9.927,8.104-17.903,17.988-17.94C305.142,213.231,313.137,221.202,313.112,231.33z
		"/>
</g>
</svg>
