<?xml version="1.0" encoding="utf-8"?>
<!-- Generator: Adobe Illustrator 16.0.0, SVG Export Plug-In . SVG Version: 6.00 Build 0)  -->
<!DOCTYPE svg PUBLIC "-//W3C//DTD SVG 1.1//EN" "http://www.w3.org/Graphics/SVG/1.1/DTD/svg11.dtd">
<svg version="1.1" id="Layer_1" xmlns="http://www.w3.org/2000/svg" xmlns:xlink="http://www.w3.org/1999/xlink" x="0px" y="0px"
	 width="512px" height="512px" viewBox="0 0 512 512" enable-background="new 0 0 512 512" xml:space="preserve">
<linearGradient id="SVGID_1_" gradientUnits="userSpaceOnUse" x1="99.2827" y1="99.2778" x2="415.3559" y2="415.351">
	<stop  offset="0" style="stop-color:#E20001"/>
	<stop  offset="1" style="stop-color:#8C0000"/>
</linearGradient>
<path fill="url(#SVGID_1_)" d="M479.918,254.914c0,124.261-100.733,225-225,225s-225-100.739-225-225c0-124.267,100.733-225,225-225
	S479.918,130.647,479.918,254.914z"/>
<linearGradient id="SVGID_2_" gradientUnits="userSpaceOnUse" x1="148.9707" y1="71.4097" x2="360.8662" y2="438.4235">
	<stop  offset="0" style="stop-color:#8C0000"/>
	<stop  offset="1" style="stop-color:#E20001"/>
</linearGradient>
<path fill="url(#SVGID_2_)" d="M466.776,254.914c0,117.011-94.854,211.864-211.858,211.864S43.06,371.925,43.06,254.914
	c0-117.005,94.854-211.858,211.858-211.858S466.776,137.909,466.776,254.914z"/>
<g>
	<path fill-rule="evenodd" clip-rule="evenodd" fill="#FFFFFF" d="M330.584,206.424c0,7.408,0,14.486,0,21.98
		c-8.478,0-16.864,0-25.568,0c0,2.567,0,4.719,0,7.372c1.339,0,2.646,0,3.955,0c15.88,0,31.76,0.043,47.641-0.042
		c2.225-0.013,3.783,0.617,5.214,2.322c2.598,3.099,5.415,6.009,8.344,9.224c2.879-3.276,5.562-6.418,8.367-9.456
		c0.789-0.85,1.926-1.925,2.916-1.944c8.974-0.153,17.946-0.085,27.909-0.085c-8.6,9.664-16.625,18.686-24.811,27.879
		c8.234,9.211,16.369,18.313,25.092,28.074c-8.02,0-15.195-0.397-22.304,0.128c-5.624,0.416-9.713-1.075-12.806-5.819
		c-1.333-2.053-3.246-3.722-5.165-5.867c-2.897,3.276-5.6,6.553-8.558,9.584c-0.966,0.99-2.592,1.889-3.918,1.895
		c-31.309,0.104-62.616,0.08-93.925,0.074c-0.653,0-1.308-0.099-2.151-0.172c-0.146-1.504-0.287-2.885-0.477-4.804
		c-8.001,9.107-17.384,10.158-27.458,5.495c-9.774-4.523-14.664-12.904-16.656-23.479c-13.063,0-26.167,0-39.45,0
		c0.366,5.171,2.916,8.619,7.438,10.483c4.328,1.778,8.283,0.94,11.987-2.023c1.333-1.076,3.258-1.858,4.951-1.944
		c5.238-0.244,10.495-0.085,15.855-0.085c-3.637,12.971-18.417,21.339-33.698,19.144c-8.992-1.289-16.314-5.635-21.467-13.258
		c-3.759-5.544-4.199-8.398-4.376-25.091c-7.176,0-14.346,0-21.883,0c0,11.773,0,23.539,0,35.599c-7.799,0-15.238,0-22.879,0
		c0-28.325,0-56.541,0-85.012c16.724,0,33.332,0,50.238,0c0,6.106,0,12.31,0,18.802c-9.083,0-18.056,0-27.268,0
		c0,4.034,0,7.806,0,12.023c8.179,0,16.442,0,25.012,0c0,3.545,0,6.668,0,10.739c8.056-10.85,18.307-15.11,30.667-13.973
		c12.622,1.162,21.125,8.063,25.917,20.422c3.472-9.211,8.93-15.966,17.971-18.869c8.997-2.885,17.518-1.968,25.22,5.312
		c0-6.265,0-11.852,0-17.433c0-5.624,0-11.247,0-17.194C283.873,206.424,307.082,206.424,330.584,206.424z M282.791,210.489
		c0,25.678,0,51.167,0,76.828c14.449,0,28.686,0,43.093,0c0-4.56,0-8.949,0-13.753c-8.674,0-17.042,0-25.471,0
		c0-7.005,0-13.595,0-20.563c8.558,0,16.938,0,25.544,0c0-4.475,0-8.57,0-13.167c-8.515,0-16.87,0-25.244,0
		c0-5.501,0-10.501,0-15.789c8.673,0,17.072,0,25.636,0c0-4.639,0-8.979,0-13.557C311.801,210.489,297.345,210.489,282.791,210.489z
		 M370.229,253.643c-3.771-4.15-7.146-7.922-10.593-11.62c-0.728-0.783-1.711-1.846-2.61-1.876
		c-5.55-0.171-11.118-0.086-17.401-0.086c7.347,8.246,14.132,15.862,21.081,23.674c-6.925,7.787-13.747,15.452-21.137,23.753
		c5.6,0,10.294,0.153,14.97-0.092c1.467-0.073,3.221-0.886,4.248-1.938c3.582-3.691,6.907-7.628,10.508-11.675
		c3.673,4.12,7.084,7.983,10.55,11.797c0.654,0.722,1.504,1.767,2.286,1.785c5.745,0.152,11.497,0.086,18.001,0.086
		c-7.433-8.319-14.242-15.941-21.247-23.777c6.913-7.788,13.692-15.44,20.954-23.631c-5.6,0-10.324-0.171-15.024,0.098
		c-1.565,0.092-3.417,0.984-4.512,2.115C376.868,245.8,373.732,249.627,370.229,253.643z M331.336,268.918
		c0,7.103,0,13.606,0,20.855c8.068-9.083,15.532-17.494,23.111-26.039c-3.863-4.352-7.586-8.558-11.32-12.757
		c-3.759-4.224-7.53-8.429-11.296-12.646c-0.287,0.122-0.574,0.232-0.862,0.349c0,6.326,0,12.652,0,19.284
		c-8.881,0-17.279,0-25.739,0c0,3.753,0,7.183,0,10.954C313.83,268.918,322.223,268.918,331.336,268.918z M236.159,263.258
		c0.624,3.056,0.837,5.317,1.559,7.408c1.754,5.098,6.009,8.08,10.911,7.958c5.006-0.122,8.876-3.142,10.483-8.472
		c1.589-5.269,1.271-10.471-1.614-15.269c-4.229-7.042-13.814-7.323-18.129-0.336C237.668,257.298,237.057,260.715,236.159,263.258z
		 M177.528,255.666c7.06,0,13.93,0,20.837,0c-0.984-5.135-4.572-8.344-9.432-8.619C183.298,246.735,179.276,249.694,177.528,255.666
		z"/>
</g>
</svg>
