<?xml version="1.0" encoding="utf-8"?>
<!-- Generator: Adobe Illustrator 16.0.0, SVG Export Plug-In . SVG Version: 6.00 Build 0)  -->
<!DOCTYPE svg PUBLIC "-//W3C//DTD SVG 1.1//EN" "http://www.w3.org/Graphics/SVG/1.1/DTD/svg11.dtd">
<svg version="1.1" id="Layer_1" xmlns="http://www.w3.org/2000/svg" xmlns:xlink="http://www.w3.org/1999/xlink" x="0px" y="0px"
	 width="512px" height="512px" viewBox="0 0 512 512" enable-background="new 0 0 512 512" xml:space="preserve">
<g>
	<linearGradient id="SVGID_1_" gradientUnits="userSpaceOnUse" x1="99.9268" y1="99.2773" x2="416.0006" y2="415.3512">
		<stop  offset="0" style="stop-color:#E20001"/>
		<stop  offset="1" style="stop-color:#8C0000"/>
	</linearGradient>
	<path fill="url(#SVGID_1_)" d="M480.563,254.914c0,124.261-100.733,225-225,225s-225-100.739-225-225
		c0-124.267,100.733-225,225-225S480.563,130.647,480.563,254.914z"/>
	<linearGradient id="SVGID_2_" gradientUnits="userSpaceOnUse" x1="149.6152" y1="71.4102" x2="361.5112" y2="438.4248">
		<stop  offset="0" style="stop-color:#8C0000"/>
		<stop  offset="1" style="stop-color:#E20001"/>
	</linearGradient>
	<path fill="url(#SVGID_2_)" d="M467.421,254.914c0,117.011-94.854,211.864-211.858,211.864S43.704,371.925,43.704,254.914
		c0-117.005,94.854-211.858,211.858-211.858S467.421,137.909,467.421,254.914z"/>
</g>
<path fill-rule="evenodd" clip-rule="evenodd" fill="#FFFFFF" d="M357.952,133.863c-13.729,29.003-31.326,54.676-51.857,78.386
	c-27.659,31.926-58.827,59.719-96.107,80.086c-19.407,10.593-39.694,18.894-62.237,19.144
	c-25.679,0.281-41.785-15.758-42.641-41.602c-0.746-22.316,6.18-42.793,14.914-62.842c0.514-1.174,1.626-2.561,2.751-2.922
	c6.424-2.072,12.94-3.857,19.046-5.636c-2.799,10.837-6.131,21.357-8.063,32.115c-1.033,5.758-0.568,12.164,0.789,17.909
	c3.447,14.609,17.402,21.993,34.26,19.114c20.397-3.49,37.91-13.276,54.175-25.361c31.681-23.551,57.219-52.47,75.159-87.861
	c0.984-1.938,2.94-4.095,4.902-4.713c17.439-5.501,34.976-10.672,52.494-15.917C356.07,133.606,356.705,133.802,357.952,133.863z"/>
<path fill-rule="evenodd" clip-rule="evenodd" fill="#FFFFFF" d="M233.209,171.002c-9.431,18.778-22.072,33.325-37.891,45.202
	c-8.435,6.326-17.365,11.724-28.062,13.331c-12.323,1.852-19.438-5.043-17.958-17.415c0.189-1.601,0.36-3.209,0.654-4.798
	c1.473-8.147,4.64-13.631,14.089-15.996c20.843-5.232,41.265-12.146,61.864-18.35C227.953,172.365,230.031,171.852,233.209,171.002z
	"/>
<g>
	<path fill="#FFFFFF" d="M282.268,263.68h6.106v18.203c2.635-1.926,5.446-2.886,8.447-2.886c3.906,0,7.103,1.474,9.585,4.426
		c2.481,2.952,3.723,6.742,3.723,11.363c0,4.963-1.485,8.911-4.438,11.852c-2.965,2.94-6.926,4.407-11.89,4.407
		c-1.992,0-4.083-0.208-6.283-0.636c-2.2-0.422-3.955-0.96-5.251-1.607V263.68z M288.374,287.714v16.699
		c2.078,0.623,4.212,0.935,6.4,0.935c2.701,0,4.908-0.959,6.619-2.879c1.712-1.925,2.567-4.395,2.567-7.414
		c0-3.057-0.801-5.55-2.402-7.476c-1.595-1.919-3.674-2.879-6.253-2.879C293.032,284.7,290.715,285.703,288.374,287.714z"/>
	<path fill="#FFFFFF" d="M316.467,326.234V279.67h10.679c5.471,0,9.731,1.363,12.775,4.089c3.05,2.727,4.572,6.534,4.572,11.431
		c0,4.633-1.431,8.429-4.304,11.399c-2.866,2.971-6.521,4.456-10.959,4.456c-1.969,0-4.139-0.428-6.528-1.302v16.491H316.467z
		 M327.018,285.373h-4.315v18.973c1.87,0.96,3.832,1.437,5.886,1.437c2.854,0,5.189-0.99,7.012-2.983
		c1.814-1.986,2.726-4.547,2.726-7.677c0-2.011-0.434-3.79-1.296-5.33c-0.85-1.54-2.023-2.665-3.508-3.368
		C332.042,285.721,329.872,285.373,327.018,285.373z"/>
	<path fill="#FFFFFF" d="M365.947,279.603c4.694,0,8.595,1.516,11.706,4.541c3.104,3.032,4.657,6.834,4.657,11.419
		c0,4.443-1.577,8.135-4.73,11.075c-3.148,2.94-7.115,4.407-11.901,4.407c-4.627,0-8.49-1.491-11.596-4.475
		c-3.111-2.982-4.663-6.705-4.663-11.18c0-4.517,1.57-8.276,4.712-11.283C357.274,281.106,361.211,279.603,365.947,279.603z
		 M365.611,285.098c-2.928,0-5.33,0.966-7.207,2.885c-1.876,1.92-2.817,4.371-2.817,7.348c0,2.946,0.96,5.354,2.885,7.225
		c1.92,1.858,4.39,2.793,7.409,2.793c2.994,0,5.452-0.947,7.359-2.83c1.913-1.895,2.866-4.309,2.866-7.261
		c0-2.929-0.996-5.354-2.982-7.274C371.131,286.063,368.631,285.098,365.611,285.098z"/>
	<path fill="#FFFFFF" d="M387.573,308.301v-6.571c1.718,1.204,3.479,2.183,5.275,2.934c1.803,0.746,3.313,1.119,4.548,1.119
		c1.271,0,2.365-0.312,3.282-0.936c0.923-0.623,1.375-1.375,1.375-2.243c0-0.898-0.293-1.638-0.886-2.237
		c-0.594-0.587-1.877-1.442-3.845-2.561c-3.925-2.188-6.504-4.065-7.721-5.618c-1.222-1.552-1.827-3.245-1.827-5.073
		c0-2.371,0.923-4.309,2.763-5.807c1.846-1.491,4.218-2.237,7.127-2.237c3.014,0,6.112,0.844,9.285,2.543v6.033
		c-3.625-2.188-6.583-3.282-8.888-3.282c-1.18,0-2.133,0.25-2.867,0.752c-0.721,0.507-1.088,1.173-1.088,1.998
		c0,0.716,0.33,1.4,0.99,2.048c0.66,0.648,1.81,1.431,3.466,2.348l2.183,1.24c5.141,2.903,7.714,6.119,7.714,9.652
		c0,2.524-0.99,4.596-2.971,6.216s-4.523,2.427-7.628,2.427c-1.834,0-3.46-0.189-4.891-0.581
		C391.541,310.066,389.743,309.352,387.573,308.301z"/>
	<path fill="#FFFFFF" d="M411.174,284.565l11.467-11.271v6.376h9.756v5.495h-9.756v15.098c0,3.521,1.461,5.287,4.389,5.287
		c2.188,0,4.505-0.728,6.944-2.176v5.696c-2.348,1.32-4.915,1.975-7.678,1.975c-2.8,0-5.122-0.813-6.975-2.445
		c-0.58-0.488-1.063-1.045-1.448-1.656c-0.373-0.617-0.697-1.418-0.953-2.414c-0.257-0.996-0.386-2.892-0.386-5.685v-13.68h-5.36
		V284.565z"/>
</g>
</svg>
