<?xml version="1.0" encoding="utf-8"?>
<!-- Generator: Adobe Illustrator 16.0.0, SVG Export Plug-In . SVG Version: 6.00 Build 0)  -->
<!DOCTYPE svg PUBLIC "-//W3C//DTD SVG 1.1//EN" "http://www.w3.org/Graphics/SVG/1.1/DTD/svg11.dtd">
<svg version="1.1" id="Layer_1" xmlns="http://www.w3.org/2000/svg" xmlns:xlink="http://www.w3.org/1999/xlink" x="0px" y="0px"
	 width="512px" height="512px" viewBox="0 0 512 512" enable-background="new 0 0 512 512" xml:space="preserve">
<g>
	<g>
		<linearGradient id="SVGID_1_" gradientUnits="userSpaceOnUse" x1="101.1841" y1="99.9458" x2="417.2566" y2="416.0183">
			<stop  offset="0" style="stop-color:#FF7601"/>
			<stop  offset="1" style="stop-color:#FF0000"/>
		</linearGradient>
		<path fill="url(#SVGID_1_)" d="M481.818,255.581c0,124.261-100.733,225-225,225s-225-100.739-225-225
			c0-124.264,100.733-225,225-225S481.818,131.317,481.818,255.581z"/>
		<linearGradient id="SVGID_2_" gradientUnits="userSpaceOnUse" x1="150.8716" y1="72.0767" x2="362.7671" y2="439.0905">
			<stop  offset="0" style="stop-color:#FF0000"/>
			<stop  offset="1" style="stop-color:#FF6301"/>
		</linearGradient>
		<path fill="url(#SVGID_2_)" d="M468.677,255.581c0,117.011-94.854,211.864-211.858,211.864S44.96,372.592,44.96,255.581
			c0-117.005,94.854-211.858,211.858-211.858S468.677,138.576,468.677,255.581z"/>
	</g>
</g>
<g>
	<path fill-rule="evenodd" clip-rule="evenodd" fill="#FFFFFF" d="M368.951,246.437c-8.123,0-16.246,0.171-24.363-0.085
		c-2.8-0.085-4.769-1.968-5.783-4.866c-1.247-3.533-2.757-6.992-4.425-10.342c-1.211-2.445-1.235-4.64-0.043-7.048
		c1.992-4.041,3.997-8.087,5.69-12.255c0.452-1.101,0.275-3.087-0.465-3.931c-2.384-2.732-5.098-5.202-7.854-7.573
		c-0.562-0.483-2.029-0.428-2.806-0.055c-3.856,1.864-7.658,3.857-11.418,5.929c-3.153,1.736-6.088,1.968-9.389,0.074
		c-2.573-1.479-5.482-2.5-8.355-3.289c-3.148-0.862-4.914-2.69-5.893-5.721c-1.326-4.077-3.02-8.032-4.291-12.127
		c-0.593-1.907-1.564-2.555-3.441-2.488c-3.209,0.128-6.43,0.202-9.646,0.141c-1.833-0.037-2.665,0.77-3.185,2.445
		c-1.399,4.499-2.684,9.07-4.541,13.392c-0.789,1.822-2.678,3.49-4.475,4.48c-3.172,1.76-6.748,2.763-9.976,4.425
		c-2.659,1.363-5.037,1.351-7.646,0.049c-3.839-1.919-7.818-3.563-11.608-5.562c-1.809-0.954-2.971-0.837-4.499,0.525
		c-8.044,7.195-8.075,7.152-2.769,16.473c0.373,0.654,0.66,1.357,1.106,1.956c2.958,4.046,3.441,7.891,0.421,12.39
		c-1.852,2.763-2.695,6.29-3.625,9.578c-0.886,3.148-2.738,4.884-5.825,5.752c-3.924,1.1-7.738,2.58-11.675,3.637
		c-2.292,0.618-2.983,1.907-3.124,4.114c-0.666,10.868-0.727,11.345,9.597,14.218c6.81,1.9,10.746,5.22,13.735,12.06
		c3.05,6.975,3.227,12.47-0.783,18.49c-0.061,0.086-0.079,0.202-0.122,0.3c-1.106,2.732-3.888,6.381-2.989,8.007
		c2.029,3.68,5.819,6.425,9.034,9.396c0.428,0.391,1.815,0.092,2.567-0.27c4.249-2.06,8.472-4.175,12.641-6.388
		c2.305-1.222,4.389-1.094,6.736-0.006c3.294,1.534,6.699,2.892,10.152,4.016c2.83,0.917,4.48,2.629,5.397,5.41
		c1.369,4.175,3.038,8.258,4.383,12.438c0.563,1.755,1.534,2.243,3.246,2.372c11.814,0.861,11.814,0.893,15.488-10.416
		c0.135-0.409,0.33-0.807,0.403-1.223c0.973-5.642,4.01-9.26,9.823-10.323c1.033-0.184,2.103-0.648,2.939-1.266
		c4.896-3.594,9.688-3.16,14.591,0.013c1.607,1.039,3.472,1.674,5.214,2.5c5.795,2.769,5.795,2.769,10.067-1.89
		c5.703-6.204,5.703-6.204,1.62-13.661c-0.257-0.471-0.483-0.959-0.789-1.399c-3.697-5.36-4.957-10.831-0.801-16.577
		c0.184-0.251,0.318-0.574,0.361-0.887c1.026-7.433,5.794-10.898,12.701-12.408c2.794-0.611,5.446-1.9,9.022-3.19
		c-1.449-0.349-2.061-0.624-2.665-0.624c-10.947-0.023-21.901,0.019-32.849-0.066c-1.877-0.013-2.524,0.642-2.928,2.463
		c-4.163,18.582-19.676,31.253-38.173,31.296c-18.624,0.049-34.193-12.384-38.612-30.819c-4.646-19.4,6.968-39.443,26.577-45.886
		c18.734-6.144,40.11,3.478,47.689,21.497c0.318,0.752,0.471,1.583,0.85,2.879c-3.832,0-7.329,0.122-10.801-0.098
		c-0.77-0.049-1.613-1.222-2.176-2.042c-6.467-9.603-15.52-14.138-26.969-12.824c-11.448,1.308-19.241,7.799-23.392,18.576
		c-0.41,1.07-0.599,2.225-0.984,3.692c47.641,0,94.914,0,142.701,0c-0.647-0.88-1.039-1.553-1.564-2.084
		c-3.783-3.814-7.628-7.555-11.363-11.406c-2.677-2.757-2.781-5.972-0.446-8.239c2.335-2.262,5.557-2.14,8.283,0.556
		c7.628,7.549,15.22,15.135,22.763,22.769c2.536,2.561,2.549,5.721,0.024,8.283c-7.616,7.708-15.275,15.385-22.995,22.995
		c-2.647,2.609-6.015,2.561-8.276,0.171c-2.103-2.237-1.975-5.44,0.605-8.014c4.303-4.303,8.729-8.472,13.104-12.695
		c-0.146-0.257-0.3-0.507-0.446-0.764c-8.808,0-17.616,0-26.602,0c-0.104,0.317-0.348,0.709-0.336,1.088
		c0.281,5.819-2.738,8.753-8.197,10.061c-3.416,0.819-6.625,2.482-10.006,3.497c-2.084,0.629-2.824,2.022-3.832,3.777
		c-2.537,4.443-2.078,8.307,0.685,12.433c1.833,2.744,3.068,5.893,4.59,8.851c1.296,2.513,1.455,5.062-0.556,7.183
		c-5.221,5.52-10.52,10.959-15.904,16.326c-2.055,2.048-4.555,2.066-7.146,0.764c-3.93-1.968-7.945-3.777-11.852-5.801
		c-2.354-1.222-4.321-1.021-6.901-0.146c-4.267,1.442-6.43,3.949-7.378,8.203c-0.764,3.447-2.206,6.729-3.196,10.128
		c-0.887,3.026-2.695,4.934-5.893,5.019c-7.384,0.196-14.768,0.306-22.151,0.337c-3.05,0.012-4.908-1.718-5.893-4.579
		c-1.528-4.468-3.282-8.856-4.719-13.35c-0.63-1.962-1.761-2.836-3.606-3.618c-8.404-3.588-7.744-3.38-12.512,4.554
		c-4.144,6.895-8.337,13.766-12.384,20.728c-1.571,2.701-3.594,3.875-6.785,3.851c-12.879-0.085-25.758,0.104-38.637,0.013
		c-2.836-0.019-4.175,0.513-5.085,3.618c-4.248,14.493-17.488,23.344-32.61,22.262c-13.87-0.99-26.094-12.146-28.319-25.831
		c-2.738-16.871,7.763-32.445,24.462-36.266c15.703-3.601,31.754,6.033,36.662,21.992c0.306,1.016,0.575,2.048,0.954,3.393
		c1.247,0,2.506,0,3.771,0c11.375,0,22.757-0.049,34.132,0.043c1.938,0.013,3.147-0.471,4.107-2.237
		c1.772-3.294,3.802-6.454,5.654-9.554c-3.82-3.441-7.653-6.668-11.223-10.171c-2.592-2.536-4.866-5.409-7.225-8.179
		c-1.717-2.011-1.833-4.205-0.678-6.589c2.151-4.438,4.34-8.869,6.229-13.417c0.525-1.271,0.299-3.001,0.012-4.45
		c-1.027-5.263-4.584-7.683-9.658-8.71c-3.233-0.654-6.308-2.066-9.48-3.063c-2.512-0.788-4.022-2.438-4.413-5.006
		c-1.131-7.451-1.761-14.891-0.575-22.433c0.568-3.637,2.182-5.801,5.77-6.791c4.224-1.174,8.436-2.494,12.512-4.108
		c1.345-0.532,2.329-2.115,3.319-3.337c0.446-0.544,0.354-1.498,0.751-2.103c3.026-4.664,2.084-8.918-0.953-13.203
		c-1.657-2.353-2.849-5.037-4.236-7.579c-1.485-2.72-1.571-5.349,0.733-7.684c5.477-5.544,10.99-11.063,16.871-16.975
		c-2.854-4.327-6.021-9.248-9.358-14.059c-0.41-0.586-1.693-0.801-2.573-0.807c-10.202-0.049-20.397,0.037-30.593-0.08
		c-2.225-0.024-2.873,0.875-3.301,2.879c-3.16,14.761-15.77,25.03-30.581,25.042c-14.816,0.018-27.555-10.245-30.837-24.835
		c-3.6-16.015,6.18-32.255,22.158-36.809c15.807-4.511,32.684,4.022,37.958,19.401c0.935,2.745,2.212,3.539,5.031,3.49
		c11.051-0.171,22.108,0.049,33.166-0.134c3.777-0.062,6.155,1.32,8.154,4.48c5.617,8.894,11.485,17.623,17.261,26.412
		c2.574,3.924,3.252,3.802,7.531,2.415c4.364-1.418,6.662-3.949,7.567-8.398c0.721-3.558,2.164-6.962,3.288-10.428
		c0.844-2.585,2.476-4.346,5.3-4.431c7.378-0.232,14.762-0.404,22.14-0.477c3.27-0.031,5.372,1.742,6.43,4.859
		c1.491,4.364,2.916,8.771,4.726,13.007c0.617,1.449,2.139,2.684,3.521,3.606c4.284,2.873,8.435,2.384,12.714-0.452
		c2.836-1.883,6.125-3.075,9.156-4.683c2.378-1.259,4.634-1.186,6.553,0.63c5.538,5.202,11.009,10.471,16.424,15.801
		c2.183,2.151,2.17,4.7,0.832,7.408c-2.134,4.321-4.279,8.655-6.144,13.105c-0.531,1.271-0.349,3.001-0.067,4.431
		c1.052,5.385,4.694,7.849,9.872,8.888c3.233,0.648,6.399,1.84,9.432,3.172c1.65,0.721,2.952,2.255,4.413,3.423
		C369.44,245.605,369.196,246.021,368.951,246.437z M173.42,169.982c0.043-11.412-8.9-20.434-20.324-20.507
		c-11.069-0.073-20.354,8.894-20.434,19.75c-0.092,11.724,8.734,20.935,20.165,21.057
		C164.141,190.397,173.377,181.296,173.42,169.982z M132.656,349.347c-0.018,11.191,9.004,20.257,20.196,20.293
		c11.473,0.043,20.52-8.851,20.568-20.226c0.049-11.346-9.083-20.563-20.349-20.545C141.696,328.888,132.668,337.94,132.656,349.347
		z M255.174,265.251c1.522,13.307,15.177,23.509,29.572,22.494c12.433-0.874,25.086-12.256,24.835-22.494
		C291.519,265.251,273.457,265.251,255.174,265.251z"/>
</g>
</svg>
