<?xml version="1.0" encoding="utf-8"?>
<!-- Generator: Adobe Illustrator 16.0.0, SVG Export Plug-In . SVG Version: 6.00 Build 0)  -->
<!DOCTYPE svg PUBLIC "-//W3C//DTD SVG 1.1//EN" "http://www.w3.org/Graphics/SVG/1.1/DTD/svg11.dtd">
<svg version="1.1" id="Layer_1" xmlns="http://www.w3.org/2000/svg" xmlns:xlink="http://www.w3.org/1999/xlink" x="0px" y="0px"
	 width="512px" height="512px" viewBox="0 0 512 512" enable-background="new 0 0 512 512" xml:space="preserve">
<g>
	<g>
		<linearGradient id="SVGID_1_" gradientUnits="userSpaceOnUse" x1="99.7485" y1="99.8188" x2="415.8217" y2="415.892">
			<stop  offset="0" style="stop-color:#00C9FF"/>
			<stop  offset="1" style="stop-color:#0091FF"/>
		</linearGradient>
		<path fill="url(#SVGID_1_)" d="M480.384,255.455c0,124.261-100.733,225-225,225s-225-100.739-225-225
			c0-124.267,100.733-225,225-225S480.384,131.188,480.384,255.455z"/>
		<linearGradient id="SVGID_2_" gradientUnits="userSpaceOnUse" x1="149.4375" y1="71.9502" x2="361.3306" y2="438.9598">
			<stop  offset="0" style="stop-color:#0091FF"/>
			<stop  offset="0.4483" style="stop-color:#0093FF"/>
			<stop  offset="1" style="stop-color:#00C9FF"/>
		</linearGradient>
		<circle fill="url(#SVGID_2_)" cx="255.384" cy="255.455" r="211.858"/>
	</g>
</g>
<g>
	<g>
		<g>
			<path fill-rule="evenodd" clip-rule="evenodd" fill="#FFFFFF" d="M114.986,155.125c0.679-0.99,1.327-1.999,2.036-2.964
				c3.655-4.994,8.704-6.938,14.75-6.932c30.709,0.024,61.424,0,92.133,0c42.311,0.006,84.621-0.006,126.938,0.024
				c11.382,0.012,18.02,6.748,18.026,18.093c0.006,29.407,0.006,58.814,0.006,88.209c0,0.771,0,1.535,0,2.995
				c-0.782-1.216-1.174-1.925-1.669-2.561c-3.386-4.407-6.675-8.918-10.269-13.154c-1.284-1.522-1.901-2.867-1.901-4.829
				c0.049-23.38,0.019-46.76,0-70.141c0-4.358-0.458-4.743-4.811-4.743c-42.311,0.006-84.627,0-126.943,0
				c-30.446,0-60.887-0.006-91.333,0c-3.606,0-4.23,0.648-4.236,4.315c-0.006,43.178-0.006,86.363,0.006,129.554
				c0,3.258,0.77,3.942,4.328,3.942c39.346,0.012,78.686,0.036,118.032-0.024c1.98,0,2.903,0.446,3.441,2.451
				c2.763,10.312,7.86,19.352,15.397,26.925c2.304,2.311,1.198,5.03,1.699,7.8c-19.456,0-38.692,0-58.368,0
				c0.391-7.665,0.782-15.354,1.198-23.393c-1.271,0-2.286,0-3.307,0c-25.568,0-51.131-0.165-76.681,0.104
				c-8.362,0.086-14.566-2.652-18.472-10.134C114.986,252.154,114.986,203.634,114.986,155.125z"/>
			<path fill-rule="evenodd" clip-rule="evenodd" fill="#FFFFFF" d="M278.293,235.755c-3.673,4.511-7.182,8.899-10.807,13.172
				c-0.439,0.52-1.564,0.636-2.371,0.642c-20.838,0.037-47.94,0.042-68.784,0.042c-16.125,0-32.262,0-48.398-0.03
				c-4.48-0.012-7.616-2.628-7.836-6.375c-0.239-4.211,2.952-7.402,7.628-7.433c7.409-0.061,14.823-0.018,22.231-0.018
				c33.319,0,72.885,0,106.191,0C276.894,235.755,277.627,235.755,278.293,235.755z"/>
			<path fill-rule="evenodd" clip-rule="evenodd" fill="#FFFFFF" d="M257.254,280.682c-3.63,0-13.453,0-17.011,0
				c-30.599,0.006-61.192,0-91.791,0.024c-2.555,0-4.872-0.538-6.607-2.507c-1.742-1.98-2.311-4.291-1.302-6.809
				c1.149-2.843,3.361-4.456,6.418-4.578c3.826-0.141,7.671-0.062,11.498-0.062c30.599-0.006,67.457-0.006,98.05-0.006
				c0.862,0,1.73,0,2.836,0C258.636,271.482,257.957,275.975,257.254,280.682z"/>
			<path fill-rule="evenodd" clip-rule="evenodd" fill="#FFFFFF" d="M241.148,355.59c-12.647,0-25.288,0.018-37.934,0
				c-6.473-0.013-9.859-5.581-6.889-11.363c1.283-2.476,3.576-3.063,6.18-3.063c14.218,0.006,28.429-0.012,42.646-0.012
				c11.51,0,23.025-0.019,34.535,0.036c6.388,0.024,9.634,5.367,6.81,11.192c-1.326,2.726-3.845,3.233-6.619,3.227
				C266.967,355.577,254.063,355.59,241.148,355.59z"/>
			<path fill-rule="evenodd" clip-rule="evenodd" fill="#FFFFFF" d="M295.849,190.235c-12.47,0-24.945,0.025-37.415-0.006
				c-4.077-0.012-7.127-2.677-7.39-6.271c-0.306-4.211,2.702-7.427,7.194-7.457c10.116-0.067,20.238-0.049,30.349-0.055
				c14.749,0,29.486,0.019,44.229-0.012c2.543-0.012,4.891,0.336,6.607,2.415c1.742,2.115,2.415,4.499,1.211,7.06
				c-1.333,2.836-3.588,4.34-6.84,4.334C321.147,190.205,308.501,190.235,295.849,190.235L295.849,190.235z"/>
			<path fill-rule="evenodd" clip-rule="evenodd" fill="#FFFFFF" d="M296.001,219.489c-12.567,0-25.128-0.006-37.689,0.006
				c-3.105,0-5.391-1.388-6.699-4.138c-1.204-2.5-0.789-4.927,0.954-7.097c1.62-1.999,3.784-2.585,6.271-2.573
				c8.814,0.037,17.623-0.012,26.437-0.012c15.697-0.006,31.4,0.012,47.097-0.019c2.714-0.006,5.27,0.269,7.121,2.5
				c1.761,2.121,2.274,4.548,1.106,7.078c-1.29,2.769-3.563,4.236-6.65,4.249c-7.849,0.037-15.703,0.03-23.563,0.03
				c-4.792,0-9.591,0-14.383,0C296.001,219.508,296.001,219.496,296.001,219.489z"/>
		</g>
		<g>
			<path fill-rule="evenodd" clip-rule="evenodd" fill="#FFFFFF" d="M363.141,334.514c5.391,0.728,10.66,1.18,15.813,2.194
				c7.018,1.376,11.626,5.789,13.9,12.537c2.848,8.466,3.49,17.212,2.463,26.002c-0.825,6.999-5.055,11.076-12.322,12.8
				c-5.08,1.21-10.264,1.296-15.44,1.296c-19.438-0.019-38.882,0.006-58.319-0.165c-3.606-0.037-7.279-0.636-10.801-1.479
				c-6.375-1.521-10.452-5.666-11.223-12.237c-1.094-9.297-0.488-18.539,2.873-27.39c2.299-6.045,6.736-9.987,13.1-11.253
				c5.287-1.045,10.69-1.564,16.094-2.323c0.801,5.208,4.229,7.738,8.319,9.413c9.083,3.717,18.276,3.711,27.347-0.042
				c1.956-0.808,3.723-2.201,5.397-3.552C362.004,338.982,362.841,337.057,363.141,334.514z"/>
			<path fill-rule="evenodd" clip-rule="evenodd" fill="#FFFFFF" d="M351.301,336.408c-3.674,2.231-7.598,3.497-11.98,2.959
				c-4.896-0.605-9.034-2.892-12.451-6.29c-10.019-9.97-15.557-22.023-15.508-36.229c0.049-13.912,11.155-26.29,24.921-28.411
				c16.357-2.512,31.125,7.739,34.401,23.955c1.369,6.779,0.134,13.35-2.061,19.768c-0.831,2.415-1.883,4.762-2.971,7.072
				c-0.281,0.6-1.021,1.125-1.668,1.382c-0.997,0.391-2.085,0.647-3.154,0.721c-0.819,0.056-1.675-0.208-2.488-0.439
				c-0.983-0.281-1.925-0.936-2.909-0.972c-2.897-0.123-5.831-0.281-8.692,0.066c-3.936,0.465-6.809,4.297-6.607,8.222
				c0.208,4.095,3.362,7.451,7.372,7.751c1.247,0.091,2.506,0.012,3.765,0.012C351.282,336.115,351.295,336.262,351.301,336.408z"/>
			<path fill-rule="evenodd" clip-rule="evenodd" fill="#FFFFFF" d="M292.395,309.514c0-2.316,0-4.64,0-6.956
				c0.013-2.812,1.125-5.012,3.454-6.669c0.482-0.348,0.813-1.186,0.868-1.821c0.696-8.691,3.545-16.62,8.967-23.417
				c11.724-14.688,27.108-20.647,45.396-16.521c17.978,4.059,29.169,15.831,33.717,33.747c0.532,2.084,0.6,4.291,1.009,6.411
				c0.122,0.63,0.531,1.346,1.039,1.73c2.023,1.534,3.185,3.521,3.215,6.039c0.067,4.981,0.11,9.97,0,14.945
				c-0.122,5.477-5.642,8.856-10.715,6.613c-0.795-0.354-1.296-0.287-1.986,0.178c-5.245,3.49-11.101,5.22-17.305,5.929
				c-1.101,0.128-1.962,0.397-2.83,1.234c-0.782,0.752-2.042,1.217-3.142,1.345c-1.853,0.214-3.741,0.104-5.617,0.056
				c-2.738-0.086-4.64-2.018-4.585-4.579c0.056-2.493,1.98-4.272,4.683-4.297c1.827-0.018,3.667-0.152,5.471,0.049
				c1.1,0.129,2.139,0.801,3.215,1.204c0.593,0.221,1.223,0.605,1.797,0.551c5.41-0.526,10.52-2.036,15.208-4.872
				c0.819-0.488,1.149-0.941,0.88-1.998c-0.287-1.07-0.177-2.25-0.184-3.381c-0.018-4.096,0.037-8.19-0.018-12.279
				c-0.043-2.892,1.015-5.147,3.393-6.84c0.354-0.258,0.586-0.973,0.556-1.455c-0.996-15.984-13.136-30.056-29.04-33.723
				c-21.864-5.031-43.246,9.822-46.137,32.06c-0.208,1.596-0.221,2.903,1.442,4.017c1.742,1.167,2.396,3.19,2.396,5.33
				c0.007,4.933,0.049,9.865-0.012,14.798c-0.049,4.272-3.368,7.421-7.622,7.372c-4.169-0.049-7.402-3.203-7.494-7.396
				c-0.055-2.47-0.006-4.933-0.006-7.402C292.4,309.514,292.4,309.514,292.395,309.514z"/>
		</g>
	</g>
	<g>
		<path fill="#FFFFFF" d="M154.876,189.605v3.723h-14.982V173.01h14.774v3.722h-9.712v4.261h9.267v3.722h-9.267v4.89H154.876z"/>
		<path fill="#FFFFFF" d="M177.902,173.01l-9.395,20.581h-2.194l-9.847-20.581h5.513l5.379,11.607l5.092-11.607H177.902z"/>
		<path fill="#FFFFFF" d="M195.213,189.605v3.723h-14.982V173.01h14.774v3.722h-9.713v4.261h9.267v3.722h-9.267v4.89H195.213z"/>
		<path fill="#FFFFFF" d="M219.656,173.01v20.318h-4.272l-11.216-13.02v13.02h-5.061V173.01h4.639l10.85,12.42v-12.42H219.656z"/>
		<path fill="#FFFFFF" d="M242.566,173.01v3.722h-7.359v16.596h-5.061v-16.596h-7.359v-3.722H242.566z"/>
		<path fill="#FFFFFF" d="M156.734,200.314v3.723h-6.846v16.595h-4.707v-16.595h-6.846v-3.723H156.734z"/>
		<path fill="#FFFFFF" d="M164.473,200.314v20.318h-4.707v-20.318H164.473z"/>
		<path fill="#FFFFFF" d="M186.441,214.435v4.438c-2.366,1.351-4.841,2.023-7.427,2.023c-3.356,0-6.027-0.996-8.02-2.989
			c-1.987-1.993-2.983-4.45-2.983-7.366c0-2.921,1.051-5.397,3.148-7.433c2.097-2.042,4.835-3.056,8.215-3.056
			c2.696,0,4.982,0.593,6.846,1.791v4.523c-2.292-1.387-4.456-2.084-6.503-2.084c-2.011,0-3.655,0.581-4.933,1.742
			c-1.277,1.155-1.913,2.635-1.913,4.426c0,1.803,0.629,3.294,1.889,4.468c1.253,1.174,2.867,1.761,4.835,1.761
			c0.972,0,1.913-0.141,2.812-0.416C183.312,215.987,184.65,215.375,186.441,214.435z"/>
		<path fill="#FFFFFF" d="M206.05,200.314l-6.155,9.554l8.35,10.764h-5.886l-7.494-9.529v9.529h-4.707v-20.318h4.707v9.145
			l6.009-9.145H206.05z"/>
		<path fill="#FFFFFF" d="M224.094,216.91v3.722h-13.93v-20.318h13.741v3.723h-9.034v4.26h8.619v3.723h-8.619v4.89H224.094z"/>
		<path fill="#FFFFFF" d="M244.754,200.314v3.723h-6.846v16.595h-4.707v-16.595h-6.846v-3.723H244.754z"/>
	</g>
</g>
</svg>
