<?xml version="1.0" encoding="utf-8"?>
<!-- Generator: Adobe Illustrator 16.0.0, SVG Export Plug-In . SVG Version: 6.00 Build 0)  -->
<!DOCTYPE svg PUBLIC "-//W3C//DTD SVG 1.1//EN" "http://www.w3.org/Graphics/SVG/1.1/DTD/svg11.dtd">
<svg version="1.1" id="Layer_1" xmlns="http://www.w3.org/2000/svg" xmlns:xlink="http://www.w3.org/1999/xlink" x="0px" y="0px"
	 width="512px" height="512px" viewBox="0 0 512 512" enable-background="new 0 0 512 512" xml:space="preserve">
<g>
	<g>
		<g>
			<linearGradient id="SVGID_1_" gradientUnits="userSpaceOnUse" x1="99.7056" y1="99.9448" x2="415.7787" y2="416.018">
				<stop  offset="0" style="stop-color:#FF7601"/>
				<stop  offset="1" style="stop-color:#FF0000"/>
			</linearGradient>
			<path fill="url(#SVGID_1_)" d="M480.341,255.581c0,124.261-100.733,225-225,225s-225-100.739-225-225
				c0-124.264,100.733-225,225-225S480.341,131.317,480.341,255.581z"/>
			<linearGradient id="SVGID_2_" gradientUnits="userSpaceOnUse" x1="149.3936" y1="72.0771" x2="361.2891" y2="439.0909">
				<stop  offset="0" style="stop-color:#FF0000"/>
				<stop  offset="1" style="stop-color:#FF6301"/>
			</linearGradient>
			<path fill="url(#SVGID_2_)" d="M467.199,255.581c0,117.011-94.854,211.864-211.858,211.864S43.482,372.592,43.482,255.581
				c0-117.005,94.854-211.858,211.858-211.858S467.199,138.576,467.199,255.581z"/>
		</g>
	</g>
	<g>
		<path fill-rule="evenodd" clip-rule="evenodd" fill="#FFFFFF" d="M136.948,246.559c0.691-2.458,1.21-4.976,2.091-7.372
			c5.623-15.373,16.259-25.22,32.5-28.142c5.837-1.051,11.925-0.709,17.891-1.002c0.067,0.202,0.128,0.41,0.189,0.617
			c-0.33,0.52-0.636,1.052-0.99,1.553c-6.058,8.723-11.235,17.916-15.104,27.824c-0.275,0.709-0.831,1.399-1.442,1.883
			c-3.967,3.147-5.997,7.176-5.997,12.28c0.025,23.973,0,47.94,0.019,71.919c0,8.74,6.033,14.755,14.798,14.762
			c46.247,0.012,92.5,0.012,138.747-0.007c5.978,0,10.935-1.938,13.545-7.787c0.568-1.259,0.868-2.659,1.106-4.034
			c0.141-0.831,0.771-2.048-0.904-2.305c-0.153-0.018-0.281-0.702-0.281-1.081c-0.019-11.461-0.024-22.916,0.019-34.377
			c0-0.495,0.305-1.161,0.696-1.455c8.857-6.699,17.751-13.35,26.638-20.006c0.129-0.098,0.313-0.11,0.624-0.214
			c0.036,0.568,0.11,1.063,0.11,1.553c0,18.655,0.158,37.305-0.049,55.953c-0.172,15.195-6.449,27.445-19.004,36.223
			c-5.617,3.924-11.938,6.082-18.753,6.785c-0.514,0.055-1.015,0.201-1.522,0.306c-48.661,0-97.316,0-145.978,0
			c-0.33-0.086-0.654-0.221-0.99-0.263c-16.797-1.999-28.374-10.979-34.988-26.395c-1.345-3.129-1.999-6.552-2.971-9.841
			C136.948,304.816,136.948,275.685,136.948,246.559z"/>
		<path fill-rule="evenodd" clip-rule="evenodd" fill="#FFFFFF" d="M388.831,156.736c-1.161-0.024-2.329,0.012-3.49-0.073
			c-13.734-1.039-26.778,1.662-39.12,7.579c-18.147,8.686-31.589,22.207-40.477,40.257c-0.226,0.471-0.428,0.954-0.721,1.614
			c3.337,1.485,6.656,2.897,9.901,4.438c1.999,0.941,4.06,1.876,5.825,3.179c5.514,4.077,6.84,12.017,3.711,18.129
			c-1.993,3.869-4.865,6.333-8.595,8.337c-18.924,10.202-37.774,20.532-56.644,30.843c-10.453,5.716-21.247,0.581-23.527-11.045
			c-3.704-18.967-7.616-37.897-11.369-56.864c-0.874-4.395-1.84-8.826-2.042-13.282c-0.123-2.8,0.752-5.801,1.797-8.46
			c1.106-2.806,4.083-3.967,6.632-5.122c3.661-1.656,7.402-1.546,11.143,0.342c4.01,2.017,8.19,3.692,12.475,5.587
			c0.324-0.618,0.63-1.155,0.905-1.711c12.745-25.446,33.039-41.07,60.899-46.858c1.302-0.269,2.616-0.504,3.918-0.755
			c7.487,0,14.97,0,22.457,0c0.214,0.085,0.416,0.223,0.636,0.254c10.379,1.381,20.037,4.926,29.254,9.768
			c6.4,3.362,11.706,8.078,16.431,13.484C388.831,156.492,388.831,156.614,388.831,156.736z"/>
	</g>
	<g>
		<path fill="#FFFFFF" d="M239.84,334.793h-15.031l-2.207-2.751c-2.922,1.198-5.532,2.084-7.836,2.659
			c-2.311,0.574-4.817,0.861-7.537,0.861c-9.217,0-16.363-2.225-21.437-6.675c-5.33-4.7-7.995-11.607-7.995-20.709
			c0-9.254,2.427-16.259,7.274-21.015c4.854-4.756,12.262-7.127,22.213-7.127c9.652,0,17.005,2.549,22.06,7.652
			c4.34,4.396,6.51,10.086,6.51,17.078c0,5.062-0.232,8.76-0.691,11.113c-0.715,3.569-2.219,6.968-4.517,10.183L239.84,334.793z
			 M222.603,307.678c0-4.896-1.021-8.882-3.063-11.95c-2.653-3.931-6.791-5.886-12.408-5.886c-5.306,0-9.279,1.503-11.907,4.511
			c-2.628,3.014-3.942,7.354-3.942,13.025c0,6.382,1.528,11.052,4.597,14.016c2.75,2.659,6.84,3.979,12.249,3.979
			c4.902,0,8.539-1.491,10.917-4.48C221.417,317.91,222.603,313.503,222.603,307.678z"/>
		<path fill="#FFFFFF" d="M256.38,334.566h-14.321v-53.539h14.321V334.566z"/>
		<path fill="#FFFFFF" d="M314.283,312.274h-36.998v22.292h-13.167v-32.892c0-2.035,0.379-4.278,1.149-6.729
			c1.473-4.432,4.236-7.744,8.264-9.938c4.805-2.653,12.586-3.979,23.368-3.979h17.384v8.961h-18.154
			c-4.853,0-8.27,0.25-10.263,0.764c-3.374,0.862-5.801,2.714-7.273,5.557c-1.076,2.084-1.614,4.419-1.614,7.011h37.305V312.274z"/>
	</g>
</g>
</svg>
