<?xml version="1.0" encoding="utf-8"?>
<!-- Generator: Adobe Illustrator 16.0.0, SVG Export Plug-In . SVG Version: 6.00 Build 0)  -->
<!DOCTYPE svg PUBLIC "-//W3C//DTD SVG 1.1//EN" "http://www.w3.org/Graphics/SVG/1.1/DTD/svg11.dtd">
<svg version="1.1" id="Layer_1" xmlns="http://www.w3.org/2000/svg" xmlns:xlink="http://www.w3.org/1999/xlink" x="0px" y="0px"
	 width="512px" height="512px" viewBox="0 0 512 512" enable-background="new 0 0 512 512" xml:space="preserve">
<g>
	<g>
		<g>
			<linearGradient id="SVGID_1_" gradientUnits="userSpaceOnUse" x1="99.7627" y1="99.9453" x2="415.8352" y2="416.0178">
				<stop  offset="0" style="stop-color:#FF7601"/>
				<stop  offset="1" style="stop-color:#FF0000"/>
			</linearGradient>
			<path fill="url(#SVGID_1_)" d="M480.397,255.581c0,124.261-100.733,225-225,225s-225-100.739-225-225
				c0-124.264,100.733-225,225-225S480.397,131.317,480.397,255.581z"/>
			<linearGradient id="SVGID_2_" gradientUnits="userSpaceOnUse" x1="149.4502" y1="72.0771" x2="361.3457" y2="439.0909">
				<stop  offset="0" style="stop-color:#FF0000"/>
				<stop  offset="1" style="stop-color:#FF6301"/>
			</linearGradient>
			<path fill="url(#SVGID_2_)" d="M467.256,255.581c0,117.011-94.854,211.864-211.858,211.864S43.539,372.592,43.539,255.581
				c0-117.005,94.854-211.858,211.858-211.858S467.256,138.576,467.256,255.581z"/>
		</g>
	</g>
	<g>
		<path fill-rule="evenodd" clip-rule="evenodd" fill="#FFFFFF" d="M168.619,272.085c0-13.552,0-26.437,0-40.086
			c4.958,0.63,8.863,0.911,12.665,1.693c2.91,0.587,4.542,0.006,5.66-2.922c2.347-6.198,5.226-12.201,7.384-18.454
			c0.514-1.485-0.434-4.193-1.638-5.397c-2.775-2.757-6.125-4.927-9.523-7.562c7.61-11.546,16.846-20.764,28.392-28.246
			c2.647,3.478,4.786,6.883,7.549,9.664c1.21,1.204,4.004,2.023,5.55,1.492c6.259-2.152,12.415-4.694,18.368-7.585
			c1.418-0.685,2.702-3.283,2.677-4.982c-0.043-3.906-0.923-7.799-1.516-12.054c12.653-2.745,24.853-2.72,37.047-0.52
			c1.052,0.189,1.853,2.127,2.599,3.35c0.238,0.385-0.062,1.1-0.11,1.668c-1.027,11.583-1.045,11.614,9.854,16.125
			c4.357,1.803,9.309,5.471,13.044,4.535c3.686-0.929,6.173-6.607,9.205-10.189c0.238-0.281,0.568-0.482,1.418-1.186
			c11.161,7.311,20.446,16.638,28.02,28.228c-4.297,3.294-8.325,6.387-12.683,9.731c3.129,7.653,6.063,15.202,9.4,22.561
			c0.52,1.137,2.959,2.042,4.462,1.968c3.925-0.189,7.818-0.972,12.128-1.577c3.184,13.466,2.977,26.467,0.03,40.037
			c-4.23-0.587-8.117-1.473-12.011-1.51c-1.706-0.012-4.285,1.302-4.988,2.732c-2.897,5.941-5.006,12.273-7.86,18.239
			c-1.437,3.008-0.379,4.554,1.833,6.144c3.069,2.2,6.095,4.443,9.523,6.943c-7.359,11.517-16.681,20.648-28.331,28.319
			c-3.282-4.139-6.51-8.222-9.933-12.537c-7.427,3.063-14.829,5.905-22.005,9.236c-1.284,0.599-2.316,3.197-2.292,4.854
			c0.055,3.74,0.837,7.481,1.399,11.791c-13.276,3.502-26.271,2.842-39.915,0.293c0.544-4.389,1.327-8.441,1.418-12.519
			c0.03-1.546-1.143-3.93-2.433-4.548c-6.143-2.945-12.451-5.586-18.851-7.909c-1.388-0.501-3.979,0.208-5.019,1.302
			c-2.836,2.978-5.134,6.461-8.698,11.119c-9.597-9.615-18.717-18.76-28.484-28.539c4.267-3.276,7.292-5.697,10.422-7.977
			c2.451-1.791,3.27-3.546,1.767-6.663c-2.628-5.446-4.915-11.094-6.883-16.815c-1.265-3.691-3.374-4.419-6.858-3.753
			C176.919,271.247,173.35,271.504,168.619,272.085z M262.439,312.348c32.683,1.296,61.527-25.214,61.913-58.588
			c0.409-36.131-27.054-60.196-57.372-61.602c-33.282-1.547-61.748,24.395-62.971,56.992
			C202.727,283.368,228.258,310.984,262.439,312.348z"/>
		<path fill-rule="evenodd" clip-rule="evenodd" fill="#FFFFFF" d="M322.763,402.775c-12.163-8.063-23.02-15.263-34.327-22.757
			c7.182-11.21,14.168-22.108,21.889-34.145c1.754,7.616,3.221,13.931,4.682,20.27c51.015-17.702,100.062-95.086,57.604-174.279
			c4.865-4.414,9.847-8.943,15.171-13.784c10.55,17.09,17.151,35.104,19.799,54.438c8.96,65.495-23.888,125.435-83.87,153.136
			c-3.251,1.504-4.267,3.057-3.239,6.437C321.388,395.129,321.828,398.313,322.763,402.775z"/>
		<path fill-rule="evenodd" clip-rule="evenodd" fill="#FFFFFF" d="M157.164,246.425c-6.437-1.944-11.431-3.454-16.485-4.982
			c-9.364,56.864,37.61,136.534,123.398,137.396c1.351,6.29,2.727,12.678,4.224,19.651c-14.083,0.587-27.164-1.026-40.012-4.303
			c-65.33-16.645-110.532-76.241-109.248-143.827c0.098-5.226,2.06-11.736-0.33-15.324c-2.243-3.362-9.114-3.637-13.943-5.275
			c-0.538-0.183-1.076-0.367-3.013-1.039c12.763-6.375,24.59-12.292,36.779-18.386C144.658,222.207,150.624,233.753,157.164,246.425
			z"/>
		<path fill-rule="evenodd" clip-rule="evenodd" fill="#FFFFFF" d="M349.811,136.015c3.955-3.576,7.977-7.213,13.074-11.815
			c-0.855,14.328-1.638,27.365-2.457,41.119c-13.35-0.624-26.259-1.223-40.685-1.889c5.294-4.823,9.548-8.705,14.206-12.953
			c-13.558-9.48-28.068-15.593-43.76-18.796c-52.799-10.77-103.948,11.284-132.561,57.176c-1.907,3.063-3.545,3.704-6.803,2.445
			c-4.743-1.828-9.67-3.172-14.548-4.731C167.14,119.444,267.751,77.919,349.811,136.015z"/>
		<path fill-rule="evenodd" clip-rule="evenodd" fill="#FFFFFF" d="M236.907,285.709c1.418-5.336,2.53-9.505,3.423-12.872
			c7.298,1.326,14.071,2.738,20.893,3.686c2.127,0.293,4.572-0.33,6.62-1.155c5.666-2.292,6.626-8.417,1.784-12.176
			c-2.481-1.926-5.604-3.068-8.515-4.407c-4.125-1.889-8.484-3.325-12.451-5.495c-7.188-3.937-11.314-9.939-10.825-18.49
			c0.495-8.662,4.896-15.159,12.854-17.739c6.467-2.09,8.912-5.269,7.836-11.675c-0.092-0.52,0.171-1.1,0.299-1.644
			c0.043-0.165,0.202-0.306,0.526-0.782c3.099,0,6.437,0,10.323,0c0.208,3.307,0.422,6.601,0.63,9.816
			c5.868,1.375,11.474,2.684,17.537,4.107c-1.278,5.043-2.329,9.206-3.246,12.818c-6.687-0.941-12.952-2.103-19.267-2.622
			c-3.948-0.324-7.8,0.984-8.906,5.434c-1.112,4.468,2.317,6.552,5.593,8.117c4.773,2.286,9.804,4.028,14.608,6.259
			c11.926,5.526,16.645,14.15,13.925,25.373c-1.95,8.044-7.17,13.563-14.928,15.6c-5.122,1.351-6.938,3.459-6.191,8.465
			c0.269,1.804-0.141,3.705-0.238,5.686c-3.796,0-7.133,0-11.021,0c0-3.595,0-6.932,0-10.808c-3.863-0.733-7.366-1.21-10.752-2.084
			C244.004,288.233,240.697,286.956,236.907,285.709z"/>
	</g>
</g>
</svg>
