<?xml version="1.0" encoding="utf-8"?>
<!-- Generator: Adobe Illustrator 16.0.0, SVG Export Plug-In . SVG Version: 6.00 Build 0)  -->
<!DOCTYPE svg PUBLIC "-//W3C//DTD SVG 1.1//EN" "http://www.w3.org/Graphics/SVG/1.1/DTD/svg11.dtd">
<svg version="1.1" id="Layer_1" xmlns="http://www.w3.org/2000/svg" xmlns:xlink="http://www.w3.org/1999/xlink" x="0px" y="0px"
	 width="512px" height="512px" viewBox="0 0 512 512" enable-background="new 0 0 512 512" xml:space="preserve">
<g>
	<g>
		<linearGradient id="SVGID_1_" gradientUnits="userSpaceOnUse" x1="101.2109" y1="99.9453" x2="417.2841" y2="416.0185">
			<stop  offset="0" style="stop-color:#FF7601"/>
			<stop  offset="1" style="stop-color:#FF0000"/>
		</linearGradient>
		<path fill="url(#SVGID_1_)" d="M481.846,255.581c0,124.261-100.733,225-225,225s-225-100.739-225-225
			c0-124.264,100.733-225,225-225S481.846,131.317,481.846,255.581z"/>
		<linearGradient id="SVGID_2_" gradientUnits="userSpaceOnUse" x1="150.8984" y1="72.0767" x2="362.7939" y2="439.0905">
			<stop  offset="0" style="stop-color:#FF0000"/>
			<stop  offset="1" style="stop-color:#FF6301"/>
		</linearGradient>
		<path fill="url(#SVGID_2_)" d="M468.704,255.581c0,117.011-94.854,211.864-211.858,211.864S44.987,372.592,44.987,255.581
			c0-117.005,94.854-211.858,211.858-211.858S468.704,138.576,468.704,255.581z"/>
	</g>
</g>
<g>
	<path fill-rule="evenodd" clip-rule="evenodd" fill="#FFFFFF" d="M255.379,153.05c-36.382,0-72.549,0-109.089,0
		c-0.214,1.852-0.544,3.478-0.55,5.123c-0.03,19.297,0.116,38.606-0.104,57.891c-0.061,4.743,1.418,6.216,6.167,6.161
		c19.511-0.226,39.028-0.33,58.527,0.128c3.747,0.086,8.606,1.938,10.88,4.676c5.061,6.106-0.006,14.75-8.576,14.988
		c-12.286,0.324-24.59,0.128-36.895,0.134c-12.72,0.006-25.458,0.092-38.166-0.037c-8.411-0.098-11.98-3.643-12.011-12.127
		c-0.098-28.423-0.098-56.846,0-85.266c0.031-8.386,3.71-12.234,11.999-12.25c42.201-0.095,84.407-0.095,126.602,0.009
		c7.738,0.024,11.32,3.594,11.779,11.201c0.244,4.224,0.25,8.5-0.086,12.711c-0.557,6.62-4.242,10.196-9.951,10.196
		c-5.409,0-9.034-3.405-10.043-9.493C255.66,155.887,255.562,154.64,255.379,153.05z"/>
	<path fill-rule="evenodd" clip-rule="evenodd" fill="#FFFFFF" d="M172.035,197.054c2.738,1.259,4.768,2.512,6.968,3.129
		c3.411,0.96,6.938,1.926,10.428,1.975c1.534,0.012,3.105-2.237,4.664-3.448c-1.192-1.503-2.079-3.63-3.619-4.352
		c-3.619-1.699-7.586-2.659-11.345-4.04c-5.819-2.133-9.859-5.789-10.031-12.463c-0.171-6.418,2.94-10.648,8.558-13.637
		c1.828-0.978,2.714-3.618,4.193-5.36c1.143-1.351,2.409-3.319,3.827-3.521c1.375-0.208,4.303,1.412,4.364,2.384
		c0.348,5.599,5.018,5.868,8.417,8.038c2.06,1.345,3.068,4.315,4.554,6.552c-2.372,1.009-4.804,2.928-7.109,2.788
		c-3.472-0.238-6.797-2.433-10.281-2.732c-1.742-0.159-3.686,2.036-5.525,3.154c1.253,1.663,2.151,4.028,3.826,4.847
		c3.576,1.748,7.567,2.641,11.351,3.998c5.947,2.121,9.725,6.173,9.737,12.671c0.019,6.559-3.301,11.021-9.358,13.814
		c-2.054,0.954-3.301,3.527-5.037,5.214c-1.4,1.363-3.038,3.527-4.499,3.472c-1.485-0.073-4.016-2.329-4.107-3.759
		c-0.238-3.838-2.543-4.7-5.434-5.825c-2.714-1.039-5.464-2.463-7.567-4.389c-1.057-0.959-1.381-3.649-0.837-5.128
		C168.691,198.992,170.727,198.111,172.035,197.054z"/>
</g>
<g>
	<path fill-rule="evenodd" clip-rule="evenodd" fill="#FFFFFF" d="M316.87,297.806c-22.151,0-44.297,0.153-66.461-0.055
		c-13.704-0.122-22.451-9.364-22.451-23.057c0-28.337,0.465-56.668-0.257-84.975c-0.244-9.407,10.868-21.131,19.64-21.21
		c9.083-0.073,18.154-0.538,27.231-0.556c32.139-0.08,64.284-0.073,96.418-0.024c4.713,0,9.443,0.214,14.132,0.654
		c12.83,1.186,20.807,10.178,20.807,23.215c0,27.788,0,55.568,0,83.337c0,12.714-9.205,22.438-22.06,22.562
		c-22.329,0.238-44.664,0.073-66.999,0.073C316.87,297.775,316.87,297.794,316.87,297.806z M393.863,215.948
		c-2.427,0-4.206,0-5.979,0c-37.414,0-74.841,0-112.249,0.024c-9.811,0.006-19.621,0.134-29.432,0.171
		c-2.818,0.006-4.854,0.416-4.811,4.132c0.263,17.977,0.171,35.959,0.531,53.931c0.135,7.097,3.167,9.56,10.312,9.578
		c21.987,0.012,43.967,0.042,65.941-0.019c22.164-0.049,44.315-0.165,66.485-0.336c5.538-0.043,9.114-2.959,9.15-7.818
		C393.948,256.015,393.863,236.394,393.863,215.948z M393.655,193.863c0.177-8.02-2.012-10.617-9.059-11.21
		c-2.177-0.178-4.358-0.257-6.528-0.257c-42.14-0.061-84.272-0.116-126.4-0.141c-7.042,0-10.458,4.175-9.652,11.607
		C292.457,193.863,342.903,193.863,393.655,193.863z"/>
	<path fill-rule="evenodd" clip-rule="evenodd" fill="#FFFFFF" d="M276.943,269.646c-8.093,6.198-16.589,6.088-22.207-0.049
		c-4.908-5.354-5.122-14.064-0.489-19.413c5.984-6.876,13.814-7.182,22.75-0.886c10.025-6.027,17.989-5.715,23.197,0.886
		c4.64,5.917,4.377,14.071-0.642,19.37C293.569,275.868,286.057,275.96,276.943,269.646z"/>
</g>
<g>
	<path fill="#FFFFFF" d="M133.875,348.784c-5.52,4.859-2.219,13.729,8.949,13.729c6.491,0,12.983-4.188,18.075-10.887
		c-7.244-3.563-13.387-6.118-20.024-5.458C139.083,346.345,135.715,347.146,133.875,348.784z"/>
	<path fill="#FFFFFF" d="M144.162,367.354c-14.321,0-19.187-12.641-12.402-20.966c1.473-1.815,3.991-3.545,7.897-4.517
		c6.101-1.51,15.825,0.947,24.933,3.979c1.7-3.166,3.05-6.51,4.047-9.963h-28.075v-2.873h14.474v-5.141h-17.53v-2.866h17.53v-7.335
		c0,0,0-1.235,1.241-1.235h7.072v8.57h17.335v2.866H163.35v5.141h14.15c-1.351,5.593-3.411,10.74-5.99,15.263
		c4.291,1.565,8.148,3.05,11.021,4.022c10.269,3.466,12.646,3.68,12.677,3.68v-37.543c0-6.406-5.141-11.596-11.492-11.596h-48.79
		c-6.351,0-11.498,5.189-11.498,11.596v49.205c0,6.4,5.146,11.596,11.498,11.596h48.79c6.351,0,11.492-5.195,11.492-11.596v-0.477
		c-0.067-0.03-18.686-7.854-28.093-12.427C160.788,362.592,152.628,367.354,144.162,367.354z"/>
	<rect x="195.208" y="355.979" fill="#FFFFFF" width="0.006" height="11.186"/>
</g>
<g>
	<path fill="#FFFFFF" d="M279.303,317.439c0,3.747,2.732,6.265,6.553,6.265s6.553-2.518,6.553-6.265
		c0-3.674-2.738-6.266-6.553-6.266C282.035,311.174,279.303,313.766,279.303,317.439"/>
	<path fill="#FFFFFF" d="M261.002,365.337h11.382v-52.58h-11.382V365.337z M224.486,347.115l6.767-23.411h0.293l6.406,23.411
		H224.486z M241.051,314.561h-15.269l-17.072,50.776h10.52l2.879-9.939h18.081l2.732,9.939h13.472L241.051,314.561z
		 M280.158,365.337h11.382V326.73h-11.382V365.337z M410.464,326.797l0.073-0.066h-10.733l-6.767,23.478h-0.36l-7.781-23.478h-12.75
		l15.342,38.746l-6.412,11.816v0.287h10.019L410.464,326.797z M312.646,358.711c-1.314,0.018-2.629-0.178-3.888-0.575V337.25
		c2.378-1.663,4.321-2.451,6.772-2.451c4.248,0,7.635,3.38,7.635,10.587C323.166,354.604,318.196,358.711,312.646,358.711
		 M319.854,325.941c-4.182,0-7.421,1.577-11.095,4.609v-3.82h-11.382v50.85h11.382v-12.604c2.164,0.575,4.175,0.868,6.626,0.868
		c10.152,0,19.303-7.494,19.303-20.819C334.688,333.068,328.063,325.941,319.854,325.941 M358.533,355.973
		c-3.026,1.656-4.756,2.304-6.767,2.304c-2.739,0-4.469-1.797-4.469-4.676c0-1.082,0.214-2.164,1.076-3.032
		c1.375-1.369,4.04-2.371,10.159-3.813V355.973z M369.908,355.685v-16.137c0-8.783-5.178-13.606-14.328-13.606
		c-5.831,0-9.871,1.003-17.213,3.24l2.012,8.856c6.699-3.025,9.657-4.321,12.75-4.321c3.747,0,5.404,2.665,5.404,6.767v0.293
		c-13.038,2.445-17.072,3.814-19.591,6.339c-1.877,1.87-2.665,4.535-2.665,7.628c0,7.421,5.764,11.388,11.167,11.388
		c4.028,0,7.274-1.516,11.663-4.828l0.795,4.034h11.381L369.908,355.685z"/>
</g>
</svg>
