<?xml version="1.0" encoding="utf-8"?>
<!-- Generator: Adobe Illustrator 16.0.0, SVG Export Plug-In . SVG Version: 6.00 Build 0)  -->
<!DOCTYPE svg PUBLIC "-//W3C//DTD SVG 1.1//EN" "http://www.w3.org/Graphics/SVG/1.1/DTD/svg11.dtd">
<svg version="1.1" id="Layer_1" xmlns="http://www.w3.org/2000/svg" xmlns:xlink="http://www.w3.org/1999/xlink" x="0px" y="0px"
	 width="512px" height="512px" viewBox="0 0 512 512" enable-background="new 0 0 512 512" xml:space="preserve">
<g>
	<g>
		<linearGradient id="SVGID_1_" gradientUnits="userSpaceOnUse" x1="101.1958" y1="100.8657" x2="417.2683" y2="416.9382">
			<stop  offset="0" style="stop-color:#00B100"/>
			<stop  offset="1" style="stop-color:#006700"/>
		</linearGradient>
		<path fill="url(#SVGID_1_)" d="M481.83,256.501c0,124.261-100.733,225-225,225s-225-100.739-225-225
			c0-124.264,100.733-225,225-225S481.83,132.237,481.83,256.501z"/>
		<linearGradient id="SVGID_2_" gradientUnits="userSpaceOnUse" x1="150.8828" y1="72.9971" x2="362.7783" y2="440.0109">
			<stop  offset="0" style="stop-color:#006700"/>
			<stop  offset="1" style="stop-color:#00B100"/>
		</linearGradient>
		<path fill="url(#SVGID_2_)" d="M468.688,256.501c0,117.011-94.854,211.864-211.858,211.864S44.972,373.512,44.972,256.501
			c0-117.005,94.854-211.858,211.858-211.858S468.688,139.496,468.688,256.501z"/>
	</g>
</g>
<g>
	<g>
		<path fill-rule="evenodd" clip-rule="evenodd" d="M244.202,282.229c10.159,2.396,20.318,3.02,30.496,1.821
			c13.881-1.632,26.998-5.752,39.175-12.714c14.535-8.307,26.442-19.346,35.439-33.493c2.916-4.587,2.837-4.566,8.258-3.558
			c3.1,0.581,6.241,0.938,9.358,1.396c0.221-0.266,0.428-0.532,0.63-0.801c-0.728-2.212-1.302-4.486-2.2-6.635
			c-4.885-11.861-12.078-22.692-15.667-35.223c-12.934,10.74-25.079,22.457-40.293,30.504c4.046,1.005,7.866,1.947,12.103,2.989
			C304.477,257.8,278.841,276.226,244.202,282.229z M372.239,352.754c0.05-0.776,0.116-1.271,0.116-1.772
			c0-25.435,0.024-50.868,0-76.308c-0.018-4.977-3.539-8.484-8.569-8.558s-10.073-0.024-15.092-0.013
			c-6.827,0-10.152,3.307-10.152,10.184c-0.013,24.578-0.007,49.156,0,73.74c0,0.893,0.091,1.785,0.146,2.727
			C349.996,352.754,360.999,352.754,372.239,352.754z M327.496,352.705c0.092-0.557,0.189-0.88,0.189-1.21
			c0.013-17.586,0.08-35.172-0.024-52.77c-0.042-5.482-3.839-8.918-9.346-8.979c-5.036-0.037-10.079-0.037-15.122-0.013
			c-5.887,0.03-9.389,3.521-9.389,9.377c0,16.992,0,33.985,0,50.978c0,0.825,0.092,1.65,0.128,2.616
			C305.168,352.705,316.231,352.705,327.496,352.705z M282.563,352.754c0.043-1.027,0.11-1.785,0.11-2.537
			c0-11.265,0.006-22.536-0.019-33.795c0-5.306-3.46-8.778-8.766-8.803c-4.871-0.024-9.749-0.012-14.603,0
			c-7.225,0-10.44,3.179-10.464,10.367c-0.006,10.672,0,21.345,0.024,32.018c0,0.892,0.092,1.797,0.147,2.75
			C260.296,352.754,271.292,352.754,282.563,352.754z M241.646,369.533c46.235,0,92.207,0,138.191,0c0-3.105,0-5.973,0-8.955
			c-46.131,0-92.128,0-138.191,0C241.646,363.628,241.646,366.495,241.646,369.533z"/>
		<path fill-rule="evenodd" clip-rule="evenodd" fill="#FFFFFF" d="M244.202,282.229c34.639-6.003,60.275-24.429,77.298-55.712
			c-4.236-1.042-8.057-1.983-12.103-2.989c15.214-8.047,27.359-19.765,40.293-30.504c3.589,12.531,10.782,23.362,15.667,35.223
			c0.898,2.148,1.473,4.422,2.2,6.635c-0.202,0.269-0.409,0.535-0.63,0.801c-3.117-0.458-6.259-0.816-9.358-1.396
			c-5.421-1.009-5.342-1.03-8.258,3.558c-8.997,14.147-20.904,25.187-35.439,33.493c-12.177,6.962-25.294,11.082-39.175,12.714
			C264.52,285.248,254.361,284.624,244.202,282.229z"/>
		<path fill-rule="evenodd" clip-rule="evenodd" fill="#FFFFFF" d="M372.239,352.754c-11.24,0-22.243,0-33.551,0
			c-0.056-0.941-0.146-1.834-0.146-2.727c-0.007-24.584-0.013-49.162,0-73.74c0-6.877,3.325-10.184,10.152-10.184
			c5.019-0.012,10.062-0.061,15.092,0.013s8.552,3.581,8.569,8.558c0.024,25.439,0,50.873,0,76.308
			C372.355,351.482,372.289,351.978,372.239,352.754z"/>
		<path fill-rule="evenodd" clip-rule="evenodd" fill="#FFFFFF" d="M327.496,352.705c-11.265,0-22.328,0-33.563,0
			c-0.036-0.966-0.128-1.791-0.128-2.616c0-16.992,0-33.985,0-50.978c0-5.856,3.502-9.347,9.389-9.377
			c5.043-0.024,10.086-0.024,15.122,0.013c5.507,0.061,9.304,3.496,9.346,8.979c0.104,17.598,0.037,35.184,0.024,52.77
			C327.686,351.825,327.588,352.148,327.496,352.705z"/>
		<path fill-rule="evenodd" clip-rule="evenodd" fill="#FFFFFF" d="M282.563,352.754c-11.271,0-22.268,0-33.569,0
			c-0.055-0.953-0.147-1.858-0.147-2.75c-0.024-10.673-0.031-21.346-0.024-32.018c0.024-7.188,3.24-10.367,10.464-10.367
			c4.854-0.012,9.731-0.024,14.603,0c5.306,0.024,8.766,3.497,8.766,8.803c0.024,11.259,0.019,22.53,0.019,33.795
			C282.674,350.969,282.606,351.727,282.563,352.754z"/>
		<path fill-rule="evenodd" clip-rule="evenodd" fill="#FFFFFF" d="M241.646,369.533c0-3.038,0-5.905,0-8.955
			c46.063,0,92.061,0,138.191,0c0,2.982,0,5.85,0,8.955C333.854,369.533,287.882,369.533,241.646,369.533z"/>
	</g>
	<g>
		<path fill-rule="evenodd" clip-rule="evenodd" fill="#FFFFFF" d="M301.83,155.523c0,11.345,0,22.521,0,33.9
			c-38.239,0-76.198,0-114.425,0c0-11.281,0-22.463,0-33.882c-7.616,0-14.976,0-22.598,0c0,63.252,0,126.602,0,190.306
			c2.549,0,5.055,0,7.574,0c9.621,0,19.254,0.073,28.906-0.061c2.304-0.024,3.551,0.501,4.529,2.763
			c1.284,2.958,3.24,5.623,5.049,8.648c-19.242,0-38.325,0-57.646,0c0-70.996,0-141.989,0-213.374c20.116,0,40.275,0,60.617,0
			c0.391-9.838,4.096-17.763,11.467-23.793c6.076-4.96,13.081-7.112,20.954-6.828c15.464,0.553,26.724,12.143,29.157,30.41
			c20.049,0,40.128,0,60.477,0c0,16.904,0,33.548,0,50.238c-3.68-0.165-7.249-0.318-11.161-0.489c0-12.519,0-25.067,0-37.839
			C317.05,155.523,309.679,155.523,301.83,155.523z M263.511,155.306c0-4.385,0.165-8.383-0.036-12.375
			c-0.581-12.1-11.883-20.41-23.613-17.5c-8.081,2.014-13.887,9.184-14.206,17.793c-0.165,3.964-0.036,7.943-0.036,12.176
			c-9.206,0-17.843,0-26.577,0c0,7.635,0,14.988,0,22.39c30.483,0,60.782,0,90.978,0c0-7.616,0-14.972,0-22.485
			C281.231,155.306,272.661,155.306,263.511,155.306z"/>
		<path fill-rule="evenodd" clip-rule="evenodd" fill="#FFFFFF" d="M280.442,231.428c-23.245,0-46.491,0-70.006,0
			c0-3.649,0-7.283,0-11.177c24.493,0,49.059,0,73.802,0C282.973,223.977,281.732,227.638,280.442,231.428z"/>
		<path fill-rule="evenodd" clip-rule="evenodd" fill="#FFFFFF" d="M210.339,261.874c0-3.86,0-7.421,0-11.174
			c20.507,0,40.855,0,61.992,0c-3.985,3.93-7.519,7.479-11.131,10.929c-0.446,0.416-1.375,0.428-2.078,0.428
			c-15.776,0.025-31.546,0.013-47.329,0C211.396,262.057,210.986,261.959,210.339,261.874z"/>
		<path fill-rule="evenodd" clip-rule="evenodd" fill="#FFFFFF" d="M210.345,292.583c0-3.912,0-7.476,0-11.302
			c10.245,0,20.501,0,31.229,0c-3.753,3.783-7.188,7.304-10.709,10.727c-0.446,0.429-1.357,0.551-2.054,0.551
			C222.796,292.602,216.763,292.583,210.345,292.583z"/>
		<path fill-rule="evenodd" clip-rule="evenodd" fill="#FFFFFF" d="M198.75,220.217c0,3.814,0,7.369,0,11.137
			c-3.753,0-7.384,0-11.235,0c0-3.668,0-7.299,0-11.137C191.176,220.217,194.807,220.217,198.75,220.217z"/>
		<path fill-rule="evenodd" clip-rule="evenodd" fill="#FFFFFF" d="M187.49,250.667c3.9,0,7.451,0,11.186,0
			c0,3.774,0,7.399,0,11.219c-3.735,0-7.372,0-11.186,0C187.49,258.143,187.49,254.515,187.49,250.667z"/>
		<path fill-rule="evenodd" clip-rule="evenodd" fill="#FFFFFF" d="M187.466,292.313c0-3.643,0-7.194,0-11.021
			c3.582,0,7.225,0,11.137,0c0,3.479,0,7.109,0,11.021C195.039,292.313,191.335,292.313,187.466,292.313z"/>
	</g>
</g>
</svg>
