<?xml version="1.0" encoding="utf-8"?>
<!-- Generator: Adobe Illustrator 16.0.0, SVG Export Plug-In . SVG Version: 6.00 Build 0)  -->
<!DOCTYPE svg PUBLIC "-//W3C//DTD SVG 1.1//EN" "http://www.w3.org/Graphics/SVG/1.1/DTD/svg11.dtd">
<svg version="1.1" id="Layer_1" xmlns="http://www.w3.org/2000/svg" xmlns:xlink="http://www.w3.org/1999/xlink" x="0px" y="0px"
	 width="512px" height="512px" viewBox="0 0 512 512" enable-background="new 0 0 512 512" xml:space="preserve">
<g>
	<g>
		<linearGradient id="SVGID_1_" gradientUnits="userSpaceOnUse" x1="100.3813" y1="99.9458" x2="416.4538" y2="416.0183">
			<stop  offset="0" style="stop-color:#FF7601"/>
			<stop  offset="1" style="stop-color:#FF0000"/>
		</linearGradient>
		<path fill="url(#SVGID_1_)" d="M481.016,255.581c0,124.261-100.733,225-225,225s-225-100.739-225-225
			c0-124.264,100.733-225,225-225S481.016,131.317,481.016,255.581z"/>
		<linearGradient id="SVGID_2_" gradientUnits="userSpaceOnUse" x1="150.0684" y1="72.0767" x2="361.9639" y2="439.0905">
			<stop  offset="0" style="stop-color:#FF0000"/>
			<stop  offset="1" style="stop-color:#FF6301"/>
		</linearGradient>
		<path fill="url(#SVGID_2_)" d="M467.874,255.581c0,117.011-94.854,211.864-211.858,211.864S44.157,372.592,44.157,255.581
			c0-117.005,94.854-211.858,211.858-211.858S467.874,138.576,467.874,255.581z"/>
	</g>
</g>
<g>
	<path fill-rule="evenodd" clip-rule="evenodd" fill="#FFFFFF" d="M260.337,153.05c-36.381,0-72.549,0-109.089,0
		c-0.214,1.852-0.544,3.478-0.55,5.123c-0.031,19.297,0.116,38.606-0.104,57.891c-0.061,4.743,1.418,6.216,6.167,6.161
		c19.511-0.226,39.028-0.33,58.527,0.128c3.747,0.086,8.606,1.938,10.88,4.676c5.061,6.106-0.006,14.75-8.576,14.988
		c-12.286,0.324-24.591,0.128-36.895,0.134c-12.72,0.006-25.458,0.092-38.167-0.037c-8.411-0.098-11.98-3.643-12.011-12.127
		c-0.098-28.423-0.098-56.846,0-85.266c0.031-8.386,3.71-12.234,11.999-12.25c42.2-0.095,84.407-0.095,126.602,0.009
		c7.738,0.024,11.32,3.594,11.778,11.201c0.245,4.224,0.251,8.5-0.085,12.711c-0.557,6.62-4.242,10.196-9.951,10.196
		c-5.41,0-9.035-3.405-10.043-9.493C260.618,155.887,260.521,154.64,260.337,153.05z"/>
	<path fill-rule="evenodd" clip-rule="evenodd" fill="#FFFFFF" d="M176.994,197.054c2.738,1.259,4.768,2.512,6.968,3.129
		c3.411,0.96,6.938,1.926,10.428,1.975c1.534,0.012,3.105-2.237,4.664-3.448c-1.192-1.503-2.078-3.63-3.619-4.352
		c-3.619-1.699-7.585-2.659-11.345-4.04c-5.819-2.133-9.859-5.789-10.031-12.463c-0.171-6.418,2.94-10.648,8.558-13.637
		c1.828-0.978,2.714-3.618,4.193-5.36c1.143-1.351,2.408-3.319,3.826-3.521c1.375-0.208,4.303,1.412,4.364,2.384
		c0.349,5.599,5.019,5.868,8.417,8.038c2.06,1.345,3.068,4.315,4.554,6.552c-2.372,1.009-4.805,2.928-7.109,2.788
		c-3.472-0.238-6.797-2.433-10.281-2.732c-1.742-0.159-3.686,2.036-5.525,3.154c1.253,1.663,2.151,4.028,3.826,4.847
		c3.576,1.748,7.567,2.641,11.351,3.998c5.947,2.121,9.725,6.173,9.737,12.671c0.018,6.559-3.301,11.021-9.358,13.814
		c-2.054,0.954-3.301,3.527-5.037,5.214c-1.4,1.363-3.038,3.527-4.499,3.472c-1.485-0.073-4.016-2.329-4.107-3.759
		c-0.238-3.838-2.543-4.7-5.434-5.825c-2.714-1.039-5.464-2.463-7.567-4.389c-1.057-0.959-1.381-3.649-0.837-5.128
		C173.65,198.992,175.686,198.111,176.994,197.054z"/>
</g>
<g>
	<path fill-rule="evenodd" clip-rule="evenodd" fill="#FFFFFF" d="M321.828,297.806c-22.151,0-44.297,0.153-66.46-0.055
		c-13.704-0.122-22.451-9.364-22.451-23.057c0-28.337,0.465-56.668-0.256-84.975c-0.245-9.407,10.868-21.131,19.639-21.21
		c9.083-0.073,18.154-0.538,27.231-0.556c32.14-0.08,64.285-0.073,96.418-0.024c4.713,0,9.444,0.214,14.132,0.654
		c12.83,1.186,20.808,10.178,20.808,23.215c0,27.788,0,55.568,0,83.337c0,12.714-9.206,22.438-22.061,22.562
		c-22.329,0.238-44.663,0.073-66.999,0.073C321.828,297.775,321.828,297.794,321.828,297.806z M398.821,215.948
		c-2.427,0-4.205,0-5.978,0c-37.415,0-74.842,0-112.25,0.024c-9.811,0.006-19.621,0.134-29.432,0.171
		c-2.817,0.006-4.853,0.416-4.811,4.132c0.263,17.977,0.171,35.959,0.532,53.931c0.134,7.097,3.166,9.56,10.312,9.578
		c21.986,0.012,43.967,0.042,65.941-0.019c22.164-0.049,44.315-0.165,66.485-0.336c5.538-0.043,9.113-2.959,9.15-7.818
		C398.907,256.015,398.821,236.394,398.821,215.948z M398.613,193.863c0.178-8.02-2.011-10.617-9.059-11.21
		c-2.176-0.178-4.358-0.257-6.528-0.257c-42.139-0.061-84.272-0.116-126.399-0.141c-7.042,0-10.458,4.175-9.651,11.607
		C297.415,193.863,347.861,193.863,398.613,193.863z"/>
	<path fill-rule="evenodd" clip-rule="evenodd" fill="#FFFFFF" d="M281.902,269.646c-8.094,6.198-16.59,6.088-22.207-0.049
		c-4.908-5.354-5.122-14.064-0.489-19.413c5.984-6.876,13.814-7.182,22.751-0.886c10.024-6.027,17.989-5.715,23.197,0.886
		c4.639,5.917,4.376,14.071-0.643,19.37C298.527,275.868,291.016,275.96,281.902,269.646z"/>
</g>
<g>
	<path fill-rule="evenodd" clip-rule="evenodd" fill="#FFFFFF" d="M158.399,338.576c3.258-3.246,7.115-5.587,11.681-6.632
		c13.967-3.197,27.854,6.296,28.9,20.587c0.776,10.586,0.152,21.265,0.152,32.054c-4.217,0-8.398,0-12.86,0c0-0.74,0-1.474,0-2.207
		c0-8.991,0.049-17.977-0.019-26.968c-0.055-7.665-7.084-12.935-13.998-10.594c-4.401,1.486-7.506,5.808-7.524,10.637
		c-0.031,8.918-0.006,17.842-0.006,26.76c0,0.752,0,1.498,0,2.378c-4.352,0-8.527,0-13.044,0c0-0.819,0-1.614,0-2.408
		c0-8.851,0.049-17.702-0.018-26.559c-0.055-6.412-4.432-11.101-10.33-11.266c-5.923-0.165-11.021,4.683-11.088,10.788
		c-0.098,8.919-0.037,17.837-0.037,26.761c0,0.819,0,1.645,0,2.635c-4.254,0-8.356,0-12.788,0c0-0.636,0-1.363,0-2.097
		c0-8.845-0.006-17.702,0.006-26.553c0.006-10.428,4.59-18.239,14.089-22.457c9.419-4.181,18.228-2.39,25.941,4.505
		c0.208,0.184,0.422,0.349,0.636,0.52C158.149,338.503,158.222,338.509,158.399,338.576z"/>
	<path fill-rule="evenodd" clip-rule="evenodd" fill="#FFFFFF" d="M389.598,371.369c-5.855,11.901-20.984,17.543-33.655,12.689
		c-13.044-5-20.287-19.113-16.688-32.512c3.625-13.472,17.054-22.268,30.422-19.927c14.42,2.524,22.854,14.811,21.596,31.681
		c-13.014,0-26.052,0-39.089,0c0.073,3.784,4.119,8.271,8.759,9.927c6.65,2.378,12.146,0.294,18.19-6.999
		C382.593,367.928,386.089,369.646,389.598,371.369z M352.263,352.476c8.575,0,17.14,0,25.758,0
		c-1.858-5.752-7.586-9.621-13.631-9.321C358.742,343.436,353.308,347.604,352.263,352.476z"/>
	<path fill-rule="evenodd" clip-rule="evenodd" fill="#FFFFFF" d="M233.375,331.406c15.086,0.037,27.292,12.329,27.2,27.384
		c-0.091,14.927-12.384,27.103-27.347,27.084c-14.945-0.024-27.146-12.243-27.17-27.225
		C206.028,343.552,218.253,331.369,233.375,331.406z M219.017,358.405c-0.122,7.891,6.113,14.407,13.943,14.578
		c7.916,0.165,14.486-6.137,14.688-14.102c0.202-7.757-6.222-14.413-14.003-14.535C225.588,344.224,219.133,350.428,219.017,358.405
		z"/>
	<path fill-rule="evenodd" clip-rule="evenodd" fill="#FFFFFF" d="M280.441,384.683c-4.242,0-8.417,0-12.708,0
		c0-26.149,0-52.176,0-78.35c4.205,0,8.38,0,12.708,0C280.441,332.408,280.441,358.49,280.441,384.683z"/>
	<path fill-rule="evenodd" clip-rule="evenodd" fill="#FFFFFF" d="M292.709,306.277c4.285,0,8.41,0,12.665,0
		c0,26.162,0,52.244,0,78.424c-4.236,0-8.362,0-12.665,0C292.709,358.606,292.709,332.531,292.709,306.277z"/>
	<path fill-rule="evenodd" clip-rule="evenodd" fill="#FFFFFF" d="M330.301,384.658c-4.242,0-8.368,0-12.665,0
		c0-17.237,0-34.469,0-51.828c4.175,0,8.35,0,12.665,0C330.301,350.043,330.301,367.219,330.301,384.658z"/>
	<path fill-rule="evenodd" clip-rule="evenodd" fill="#FFFFFF" d="M332.599,313.356c0.037,4.743-3.753,8.575-8.49,8.575
		c-4.627,0-8.393-3.753-8.435-8.423c-0.043-4.664,3.654-8.49,8.282-8.569C328.705,304.859,332.556,308.606,332.599,313.356z"/>
</g>
</svg>
