<?xml version="1.0" encoding="utf-8"?>
<!-- Generator: Adobe Illustrator 16.0.0, SVG Export Plug-In . SVG Version: 6.00 Build 0)  -->
<!DOCTYPE svg PUBLIC "-//W3C//DTD SVG 1.1//EN" "http://www.w3.org/Graphics/SVG/1.1/DTD/svg11.dtd">
<svg version="1.1" id="Layer_1" xmlns="http://www.w3.org/2000/svg" xmlns:xlink="http://www.w3.org/1999/xlink" x="0px" y="0px"
	 width="512px" height="512px" viewBox="0 0 512 512" enable-background="new 0 0 512 512" xml:space="preserve">
<g>
	<g>
		<linearGradient id="SVGID_1_" gradientUnits="userSpaceOnUse" x1="101.1523" y1="100.8652" x2="417.2248" y2="416.9377">
			<stop  offset="0" style="stop-color:#00B100"/>
			<stop  offset="1" style="stop-color:#006700"/>
		</linearGradient>
		<path fill="url(#SVGID_1_)" d="M481.787,256.501c0,124.261-100.733,225-225,225s-225-100.739-225-225
			c0-124.264,100.733-225,225-225S481.787,132.237,481.787,256.501z"/>
		<linearGradient id="SVGID_2_" gradientUnits="userSpaceOnUse" x1="150.8398" y1="72.9971" x2="362.7354" y2="440.0109">
			<stop  offset="0" style="stop-color:#006700"/>
			<stop  offset="1" style="stop-color:#00B100"/>
		</linearGradient>
		<path fill="url(#SVGID_2_)" d="M468.646,256.501c0,117.011-94.854,211.864-211.858,211.864S44.929,373.512,44.929,256.501
			c0-117.005,94.854-211.858,211.858-211.858S468.646,139.496,468.646,256.501z"/>
	</g>
</g>
<g>
	<g>
		<path fill-rule="evenodd" clip-rule="evenodd" fill="#FFFFFF" d="M211.787,255.933c7.646,1.027,15.104,1.665,22.415,3.104
			c9.951,1.957,16.491,8.203,19.707,17.775c4.04,12.005,4.963,24.401,3.49,36.864c-1.161,9.921-7.164,15.703-17.463,18.154
			c-7.207,1.705-14.554,1.827-21.889,1.827c-27.567-0.03-55.128,0.013-82.684-0.231c-5.11-0.05-10.318-0.905-15.318-2.104
			c-9.034-2.151-14.811-8.031-15.911-17.347c-1.546-13.179-0.678-26.277,4.083-38.826c3.252-8.582,9.542-14.163,18.564-15.954
			c7.506-1.482,15.165-2.219,22.824-3.294c1.137,7.377,5.99,10.972,11.791,13.343c12.873,5.263,25.911,5.257,38.771-0.061
			c2.769-1.149,5.281-3.118,7.653-5.031C210.173,262.253,211.365,259.526,211.787,255.933z"/>
		<path fill-rule="evenodd" clip-rule="evenodd" fill="#FFFFFF" d="M195.002,258.616c-5.208,3.16-10.764,4.957-16.993,4.199
			c-6.944-0.856-12.8-4.102-17.647-8.928c-14.211-14.132-22.054-31.216-21.986-51.357c0.067-19.728,15.813-37.274,35.33-40.281
			c23.19-3.567,44.12,10.969,48.771,33.967c1.95,9.612,0.19,18.918-2.916,28.013c-1.18,3.426-2.677,6.754-4.217,10.031
			c-0.392,0.855-1.442,1.592-2.366,1.956c-1.412,0.559-2.958,0.923-4.474,1.027c-1.155,0.076-2.366-0.303-3.521-0.633
			c-1.406-0.394-2.738-1.317-4.12-1.372c-4.107-0.165-8.271-0.397-12.329,0.088c-5.574,0.669-9.651,6.098-9.37,11.66
			c0.293,5.816,4.768,10.562,10.452,10.99c1.767,0.132,3.563,0.021,5.342,0.021C194.966,258.203,194.996,258.411,195.002,258.616z"
			/>
		<path fill-rule="evenodd" clip-rule="evenodd" fill="#FFFFFF" d="M111.494,220.489c0-3.292,0-6.583,0-9.872
			c0.006-3.982,1.583-7.109,4.89-9.45c0.697-0.495,1.155-1.681,1.229-2.595c0.99-12.308,5.024-23.552,12.72-33.179
			c16.625-20.837,38.429-29.285,64.364-23.432c25.477,5.749,41.338,22.448,47.787,47.842c0.752,2.961,0.862,6.085,1.437,9.095
			c0.165,0.89,0.746,1.907,1.467,2.445c2.867,2.176,4.523,4.988,4.572,8.56c0.085,7.066,0.147,14.132-0.006,21.189
			c-0.183,7.769-7.995,12.555-15.195,9.379c-1.131-0.504-1.834-0.4-2.812,0.248c-7.433,4.948-15.746,7.408-24.529,8.408
			c-1.571,0.186-2.794,0.565-4.022,1.754c-1.106,1.057-2.885,1.729-4.443,1.904c-2.628,0.312-5.318,0.156-7.971,0.08
			c-3.888-0.116-6.577-2.857-6.498-6.495c0.074-3.533,2.812-6.058,6.639-6.091c2.585-0.021,5.202-0.217,7.75,0.077
			c1.559,0.177,3.038,1.134,4.566,1.706c0.837,0.306,1.73,0.855,2.543,0.782c7.671-0.749,14.908-2.891,21.552-6.904
			c1.174-0.703,1.645-1.341,1.247-2.836c-0.403-1.516-0.245-3.19-0.25-4.795c-0.024-5.797,0.049-11.614-0.031-17.417
			c-0.055-4.095,1.449-7.295,4.817-9.691c0.501-0.363,0.825-1.375,0.794-2.06c-1.424-22.659-18.625-42.616-41.173-47.803
			c-31.003-7.139-61.32,13.924-65.41,45.443c-0.288,2.265-0.318,4.117,2.042,5.693c2.457,1.654,3.393,4.518,3.398,7.555
			c0.006,6.996,0.067,13.985-0.019,20.981c-0.085,6.058-4.773,10.526-10.807,10.453c-5.911-0.061-10.501-4.544-10.624-10.492
			c-0.08-3.493-0.018-6.987-0.018-10.483C111.494,220.489,111.494,220.489,111.494,220.489z"/>
	</g>
</g>
<g>
	<path fill-rule="evenodd" clip-rule="evenodd" fill="#FFFFFF" d="M385.455,192.999c2.23,0.113,4.352,0.162,6.467,0.339
		c3.533,0.29,6.161,2.228,8.178,4.96c1.541,2.082,2.732,4.417,4.236,6.528c1.986,2.793,2.562,5.914,2.555,9.221
		c-0.018,9.981-0.049,19.96-0.049,29.942c0.007,12.537,0.037,25.074,0.043,37.604c0.006,6.589-0.012,13.185-0.049,19.78
		c-0.019,3.826-1.082,7.353-3.527,10.33c-3.343,4.07-7.689,6.143-12.988,6.143c-8.032-0.006-16.063-0.006-24.096-0.006
		c-7.609,0.012-15.226,0.043-22.836,0.049c-13.655,0.006-27.299,0-40.947-0.006c-9.396-0.007-16.883-8.186-16.32-17.592
		c0.238-3.979,0.043-7.978,0.049-11.975c0.006-4.401,0.024-8.809,0.019-13.215c-0.013-4.133-0.062-8.265-0.062-12.391
		c-0.006-4.129,0.024-8.258,0.037-12.387c0-4.083-0.013-8.166-0.013-12.252c0.013-4.361,0.03-8.722,0.03-13.081
		c0.007-3.946,0.08-7.891-0.043-11.834c-0.104-3.218,0.941-5.993,2.678-8.597c1.314-1.968,2.549-3.988,3.894-5.932
		c2.506-3.615,6.033-5.418,10.386-5.501c4.181-0.077,8.355,0,12.53,0.006c2.029,0.003,2.035,0.003,2.378-1.971
		c0.855-4.923,1.681-9.856,2.566-14.78c1.706-9.432,3.448-18.86,5.159-28.292c0.636-3.509,1.229-7.023,1.84-10.532
		c0.397-2.298,2.476-3.408,4.737-2.858c3.008,0.737,6.082,1.208,9.132,1.77c3.918,0.715,7.837,1.4,11.755,2.125
		c7.139,1.32,14.278,2.662,21.424,3.988c0.275,0.049,0.55,0.061,0.831,0.073c1.926,0.079,3.233,0.85,4.347,2.601
		c2.585,4.062,5.501,7.913,8.264,11.861c0.929,1.33,1.858,2.668,2.646,4.08c0.281,0.498,0.3,1.25,0.189,1.84
		c-1.186,6.516-2.427,13.026-3.648,19.536c-0.569,3.004-1.144,6.008-1.693,9.013C385.473,192.026,385.485,192.482,385.455,192.999z
		 M347.031,221.715c-21.827-0.33-40.287,17.641-40.439,39.78c-0.159,22.396,17.536,40.807,40.537,40.715
		c21.944-0.092,39.12-17.549,40.025-38.588C388.156,240,368.535,221.351,347.031,221.715z M321.982,213.209c3.094,0,5.881,0,8.655,0
		c8.448,0,16.896,0,25.33,0c5.478-0.003,10.954-0.028,16.425,0.015c0.947,0.003,1.265-0.314,1.424-1.229
		c1.406-8.261,2.873-16.513,4.315-24.768c1.314-7.482,2.665-14.96,3.906-22.458c0.141-0.865-0.062-1.993-0.532-2.717
		c-2.408-3.686-4.938-7.289-7.476-10.886c-0.317-0.443-0.886-0.88-1.405-0.987c-3.638-0.728-7.286-1.354-10.924-2.036
		c-6.687-1.247-13.361-2.518-20.049-3.765c-2.255-0.419-4.517-0.789-6.889-1.204C330.491,166.602,326.249,189.817,321.982,213.209z
		 M315.381,205.144c-2.041,0-3.894-0.134-5.715,0.037c-2.207,0.202-3.545,2.017-3.441,4.303c0.098,2.222,1.406,3.594,3.668,3.741
		c1.112,0.067,2.225,0.024,3.337-0.043c0.3-0.018,0.801-0.271,0.844-0.489C314.531,210.254,314.929,207.8,315.381,205.144z
		 M381.555,213.063c1.944,0.361,3.436,0.049,4.499-1.473c0.862-1.226,0.911-3.545,0.055-4.753c-0.715-1.027-1.632-1.736-3.05-1.452
		C382.563,207.94,382.074,210.428,381.555,213.063z"/>
	<path fill-rule="evenodd" clip-rule="evenodd" fill="#FFFFFF" d="M342.875,257.977c0-4.006,0-7.808,0-11.61
		c0-2.925-0.03-5.85,0.006-8.777c0.031-2.316,1.718-3.872,4.059-3.845c2.25,0.031,3.955,1.742,3.961,3.988
		c0.007,7.754,0.007,15.504,0.007,23.255c0,3.569-1.608,4.976-5.135,4.89c-4.175-0.104-8.35,0.056-12.524,0.05
		c-5.013-0.007-10.03-0.019-15.03-0.141c-2.256-0.05-3.509-1.541-3.503-3.827c0-2.262,1.406-3.894,3.606-3.924
		c5.104-0.073,10.214-0.049,15.324-0.059C336.646,257.971,339.66,257.977,342.875,257.977z"/>
	<path fill-rule="evenodd" clip-rule="evenodd" fill="#FFFFFF" d="M374.342,180.511c-13.453-2.424-26.729-4.82-40.189-7.243
		c0.459-2.638,0.905-5.165,1.382-7.861c13.441,2.424,26.742,4.82,40.171,7.24C375.247,175.309,374.807,177.843,374.342,180.511z"/>
	<path fill-rule="evenodd" clip-rule="evenodd" fill="#FFFFFF" d="M330.943,189.38c0.471-2.671,0.911-5.171,1.375-7.864
		c13.344,2.402,26.657,4.801,40.202,7.247c-0.465,2.537-0.929,5.092-1.418,7.824C357.71,194.185,344.385,191.794,330.943,189.38z"/>
	<path fill-rule="evenodd" clip-rule="evenodd" fill="#FFFFFF" d="M338.119,157.18c0.514-2.653,1.003-5.224,1.517-7.867
		c10.703,2.014,21.369,4.019,32.14,6.045c-0.489,2.619-0.984,5.189-1.486,7.812C359.489,161.159,348.865,159.181,338.119,157.18z"/>
</g>
</svg>
