<?xml version="1.0" encoding="utf-8"?>
<!-- Generator: Adobe Illustrator 16.0.0, SVG Export Plug-In . SVG Version: 6.00 Build 0)  -->
<!DOCTYPE svg PUBLIC "-//W3C//DTD SVG 1.1//EN" "http://www.w3.org/Graphics/SVG/1.1/DTD/svg11.dtd">
<svg version="1.1" id="Layer_1" xmlns="http://www.w3.org/2000/svg" xmlns:xlink="http://www.w3.org/1999/xlink" x="0px" y="0px"
	 width="512px" height="512px" viewBox="0 0 512 512" enable-background="new 0 0 512 512" xml:space="preserve">
<g>
	<g>
		<linearGradient id="SVGID_1_" gradientUnits="userSpaceOnUse" x1="100.7031" y1="100.8184" x2="416.7763" y2="416.8915">
			<stop  offset="0" style="stop-color:#FF00FF"/>
			<stop  offset="1" style="stop-color:#FF006F"/>
		</linearGradient>
		<path fill="url(#SVGID_1_)" d="M481.339,256.455c0,124.261-100.733,225-225,225s-225-100.739-225-225
			c0-124.267,100.733-225,225-225S481.339,132.188,481.339,256.455z"/>
		<linearGradient id="SVGID_2_" gradientUnits="userSpaceOnUse" x1="150.3926" y1="72.9512" x2="362.2861" y2="439.9616">
			<stop  offset="0" style="stop-color:#FF006F"/>
			<stop  offset="0.6601" style="stop-color:#FF007F"/>
			<stop  offset="1" style="stop-color:#FF00FF"/>
		</linearGradient>
		<circle fill="url(#SVGID_2_)" cx="256.339" cy="256.455" r="211.858"/>
	</g>
</g>
<g>
	<path fill-rule="evenodd" clip-rule="evenodd" fill="#FFFFFF" d="M275.819,348.424c0-6.65-0.024-13.057,0-19.457
		c0.073-19.938-0.049-39.883,0.317-59.816c0.208-10.91,10.38-21.106,21.125-22.078c12.524-1.143,20.881,4.737,23.991,17.103
		c0.74,2.952,1.235,6.052,1.253,9.083c0.172,23.154,0.202,46.314,0.27,69.475c0,1.907,0,3.809,0,5.691c15.251,0,29.603,0,44.175,0
		c0.104-1.339,0.244-2.378,0.244-3.417c0.013-25.159,0.288-50.318-0.158-75.465c-0.135-7.714-1.468-15.605-3.558-23.05
		c-11.767-41.864-63.533-42.335-81.59-20.428c-1.705,2.066-3.447,4.107-6.021,7.17c0-6.779,0-12.329,0-18.075
		c-15.085,0-29.572,0-44.328,0c0,44.475,0,88.717,0,133.265C246.284,348.424,260.758,348.424,275.819,348.424z M206.26,215.178
		c-14.695,0-29.169,0-43.9,0c0,44.456,0,88.686,0,133.239c14.694,0,29.15,0,43.9,0C206.26,303.894,206.26,259.664,206.26,215.178z
		 M184.261,196.51c15.495-0.019,26.424-10.868,25.073-24.744c-0.88-9.046-5.238-15.776-13.606-19.156
		c-9.352-3.771-18.723-3.228-27.127,2.793c-8.203,5.874-10.984,15.947-7.646,25.856C164.15,190.74,172.977,196.516,184.261,196.51z"
		/>
</g>
</svg>
