<?xml version="1.0" encoding="utf-8"?>
<!-- Generator: Adobe Illustrator 16.0.0, SVG Export Plug-In . SVG Version: 6.00 Build 0)  -->
<!DOCTYPE svg PUBLIC "-//W3C//DTD SVG 1.1//EN" "http://www.w3.org/Graphics/SVG/1.1/DTD/svg11.dtd">
<svg version="1.1" id="Layer_1" xmlns="http://www.w3.org/2000/svg" xmlns:xlink="http://www.w3.org/1999/xlink" x="0px" y="0px"
	 width="512px" height="512px" viewBox="0 0 512 512" enable-background="new 0 0 512 512" xml:space="preserve">
<g>
	<g>
		<linearGradient id="SVGID_1_" gradientUnits="userSpaceOnUse" x1="101.2065" y1="100.6938" x2="417.2797" y2="416.767">
			<stop  offset="0" style="stop-color:#DC00FF"/>
			<stop  offset="1" style="stop-color:#9A00FF"/>
		</linearGradient>
		<path fill="url(#SVGID_1_)" d="M481.842,256.33c0,124.261-100.733,225-225,225s-225-100.739-225-225
			c0-124.267,100.733-225,225-225S481.842,132.063,481.842,256.33z"/>
		<linearGradient id="SVGID_2_" gradientUnits="userSpaceOnUse" x1="150.8955" y1="72.8252" x2="362.7886" y2="439.8348">
			<stop  offset="0" style="stop-color:#9A00FF"/>
			<stop  offset="1" style="stop-color:#DC00FF"/>
		</linearGradient>
		<circle fill="url(#SVGID_2_)" cx="256.842" cy="256.33" r="211.858"/>
	</g>
</g>
<g>
	<path fill-rule="evenodd" clip-rule="evenodd" fill="#FFFFFF" d="M341.744,118.084c0,5.171,0.189,9.902-0.08,14.609
		c-0.146,2.708,0.93,3.551,3.344,4.132c17.293,4.175,34.554,8.484,51.828,12.757c0.953,0.238,1.889,0.563,2.977,0.893
		c-3.148,12.763-6.247,25.342-9.364,37.921c-9.627,38.833-19.272,77.659-28.814,116.516c-0.354,1.455-0.079,3.355,0.568,4.73
		c3.142,6.584,2.879,12.849-1.345,18.82c-1.662,2.366-3.551,4.572-5.477,7.029c5.722,4.597,11.247,9.108,16.895,13.466
		c0.716,0.544,2.091,0.502,3.1,0.349c11.155-1.662,20.886,5.893,22.311,17.365c1.234,9.994-6.883,20-17.023,20.973
		c-11.302,1.088-20.782-6.853-21.62-17.916c-0.098-1.296-0.898-2.83-1.876-3.71c-2.727-2.47-5.709-4.658-9.139-7.384
		c-2.011,11.602-6.876,21.98-6.338,33.697c-64.585,0-129.047,0-193.692,0c0-91.344,0-182.604,0-274.248
		c2.995,0,5.893,0.153,8.765-0.08c1.04-0.085,2.445-0.837,2.94-1.711c4.523-8.032,11.234-12.665,20.495-12.653
		c9.12,0.012,15.794,4.535,20.33,12.427c0.55,0.959,2.054,1.901,3.13,1.932c6.846,0.171,13.698,0.018,20.544,0.128
		c1.901,0.037,2.659-0.605,2.989-2.438c0.44-2.451,1.186-4.848,1.901-7.641c5.189,1.247,10.232,2.445,15.269,3.686
		c7.61,1.889,15.195,3.863,22.817,5.703c1.742,0.416,3.57,0.617,5.361,0.624c21.852,0.042,43.697,0.024,65.544,0.024
		C339.177,118.084,340.259,118.084,341.744,118.084z M181.206,168.378c0-1.547,0.006-2.836,0-4.126
		c-0.012-5.74,0.024-11.473-0.11-17.213c-0.019-0.789-0.898-1.559-1.381-2.341c-0.532,0.746-1.51,1.497-1.516,2.249
		c-0.098,9.065-0.214,18.124,0.049,27.176c0.11,3.918,3.649,7.06,7.262,7.372c3.209,0.275,6.889-2.402,7.861-5.917
		c0.336-1.234,0.36-2.592,0.36-3.888c0.024-13.588,0.019-27.182,0.012-40.776c0-0.96-0.11-1.932-0.159-2.879
		c-12.115,0-23.937,0-35.771,0c0,85.006,0,169.811,0,254.542c58.185,0,116.112,0,174.053,0c0-6.442,0-12.629,0-18.869
		c-8.063,2.787-11.992,3.483-16.345,0.837c-5.941-3.612-11.375-8.063-17.146-12.243c10.947-13.68,21.479-26.772,31.877-39.97
		c1.015-1.277,1.681-3.215,1.687-4.841c0.086-58.796,0.073-117.598,0.073-176.399c0-1.045,0-2.097,0-3.099
		c-43.062,0-85.617,0-128.515,0c0,1.333,0,2.512,0,3.698c-0.006,13.894,0.074,27.788-0.049,41.681
		c-0.079,9.652-7.702,17.561-16.938,17.903c-9.089,0.336-17.598-7.255-18.014-16.821c-0.416-9.542-0.281-19.126-0.042-28.686
		c0.153-5.941,5.177-10.733,10.843-11.069c5.098-0.3,10.954,4.034,11.29,9.401c0.495,7.995,0.128,16.045,0.128,24.279
		C187.704,168.378,184.727,168.378,181.206,168.378z M345.075,294.233c2.47,1.956,4.854,3.839,7.549,5.972
		c11.87-47.836,23.612-95.165,35.422-142.75c-15.593-3.863-30.831-7.64-46.033-11.406c0,50.605,0,100.893,0,151.571
		C343.199,296.306,344.066,295.346,345.075,294.233z M346.261,308.097c-11.247,14.034-22.536,28.142-33.96,42.402
		c1.405,1.137,2.634,2.157,3.899,3.142c5.281,4.132,9.193,3.661,13.404-1.613c6.65-8.332,13.295-16.676,19.957-25
		c7.103-8.895,6.688-12.079-2.512-18.68C346.903,308.243,346.689,308.231,346.261,308.097z M347.429,345.572
		c6.161,4.938,12.121,9.847,18.245,14.554c2.47,1.901,3.778,3.961,3.289,7.164c-0.202,1.326,0.006,2.836,0.422,4.132
		c1.632,5.012,6.876,7.659,11.803,6.106c5.049-1.577,7.738-6.553,6.333-11.699c-1.363-4.994-6.706-8.13-11.883-6.437
		c-3.319,1.088-5.673,0.446-8.233-1.705c-5.911-4.951-12.023-9.67-18.203-14.609C348.547,344.001,348.046,344.704,347.429,345.572z
		 M170.729,117.834c6.491,0,12.592,0,18.918,0C184.33,111.85,176.053,111.837,170.729,117.834z"/>
	<path fill-rule="evenodd" clip-rule="evenodd" fill="#FFFFFF" d="M306.555,151.88c3.698-3.258,7.298-6.436,11.1-9.792
		c2.188,2.47,4.236,4.768,6.449,7.256c-3.942,3.515-7.72,6.968-11.602,10.293c-1.302,1.125-1.583,2.133-1.253,3.882
		c2.628,13.887-1.375,25.66-12.537,34.321c-11.253,8.735-23.894,9.92-36.583,3.466c-12.817-6.522-19.052-17.567-18.814-31.926
		c0.245-14.333,10.055-26.87,24.095-31.442c13.313-4.328,28.344,0.281,37.158,11.4C305.18,150.114,305.784,150.89,306.555,151.88z
		 M280.681,174.912c6.223-5.538,12.206-10.856,18.136-16.125c-5.08-10.647-18.894-15.52-30.397-10.917
		c-11.956,4.792-18.203,18.258-14.181,30.581c4.01,12.255,17.023,19.352,29.579,16.131c11.405-2.928,20.067-14.835,18.08-25.416
		c-1.026,0.88-1.919,1.632-2.787,2.402c-5.116,4.542-10.195,9.126-15.349,13.625c-2.872,2.5-5.544,2.524-7.622-0.141
		c-4.633-5.941-9.083-12.023-13.753-18.24c2.671-1.999,5.184-3.888,7.794-5.844C273.779,165.75,277.147,170.224,280.681,174.912z"/>
	<path fill-rule="evenodd" clip-rule="evenodd" fill="#FFFFFF" d="M167.429,238.763c0-3.148,0-6.112,0-9.328
		c51.43,0,102.769,0,154.346,0c0,3.05,0,6.088,0,9.328C270.32,238.763,218.963,238.763,167.429,238.763z"/>
	<path fill-rule="evenodd" clip-rule="evenodd" fill="#FFFFFF" d="M167.404,258.121c0-3.246,0-6.216,0-9.389
		c51.503,0,102.849,0,154.4,0c0,3.136,0,6.18,0,9.389C270.32,258.121,219.042,258.121,167.404,258.121z"/>
	<path fill-rule="evenodd" clip-rule="evenodd" fill="#FFFFFF" d="M285.748,310.822c2.945-1.821,5.66-3.502,8.759-5.415
		c1.699,2.677,3.38,5.33,5.214,8.215c-3.509,2.176-6.705,4.456-10.165,6.235c-5.165,2.652-11.302-0.104-13.063-5.734
		c-0.685-2.176-0.917-4.498-1.516-7.615c-1.302,4.309-2.225,7.879-3.472,11.332c-1.18,3.282-3.655,5.403-7.201,5.544
		c-3.392,0.128-6.105-1.546-7.433-4.7c-0.831-1.993-1.173-4.23-1.51-6.388c-0.348-2.28-0.416-4.603-0.66-6.901
		c-0.08-0.685-0.135-1.521-0.532-1.998c-0.856-1.009-2.011-2.604-2.904-2.519c-1.155,0.116-2.775,1.442-3.129,2.579
		c-0.526,1.693-0.55,3.82-0.012,5.514c0.807,2.537,2.292,4.854,3.673,7.628c-2.268,1.724-4.7,3.576-7.426,5.648
		c-4.701-6.479-8.191-12.946-5.948-21.058c1.724-6.266,6.871-10.281,12.934-10.257c5.703,0.024,10.794,4.272,12.469,10.435
		c0.313,1.137,0.544,2.304,0.898,3.826c1.192-2.048,2.134-3.888,3.276-5.587c2.268-3.368,5.544-4.603,9.444-3.82
		c3.691,0.745,6.008,3.179,6.857,6.815C284.916,305.199,285.24,307.864,285.748,310.822z"/>
	<path fill-rule="evenodd" clip-rule="evenodd" fill="#FFFFFF" d="M167.404,219.411c0-3.191,0-6.155,0-9.34
		c30.275,0,60.397,0,90.746,0c0,3.014,0,6.07,0,9.34C228.016,219.411,197.893,219.411,167.404,219.411z"/>
	<path fill-rule="evenodd" clip-rule="evenodd" fill="#FFFFFF" d="M234.745,277.467c-22.512,0-44.786,0-67.286,0
		c0-3.196,0-6.24,0-9.449c22.458,0,44.744,0,67.286,0C234.745,271.079,234.745,274.123,234.745,277.467z"/>
	<path fill-rule="evenodd" clip-rule="evenodd" fill="#FFFFFF" d="M239.079,339.723c0-3.173,0-6.155,0-9.334
		c20.855,0,41.607,0,62.573,0c0,3.025,0,6.076,0,9.334C280.913,339.723,260.161,339.723,239.079,339.723z"/>
</g>
</svg>
