<?xml version="1.0" encoding="utf-8"?>
<!-- Generator: Adobe Illustrator 16.0.0, SVG Export Plug-In . SVG Version: 6.00 Build 0)  -->
<!DOCTYPE svg PUBLIC "-//W3C//DTD SVG 1.1//EN" "http://www.w3.org/Graphics/SVG/1.1/DTD/svg11.dtd">
<svg version="1.1" id="Layer_1" xmlns="http://www.w3.org/2000/svg" xmlns:xlink="http://www.w3.org/1999/xlink" x="0px" y="0px"
	 width="512px" height="512px" viewBox="0 0 512 512" enable-background="new 0 0 512 512" xml:space="preserve">
<g>
	<g>
		<linearGradient id="SVGID_1_" gradientUnits="userSpaceOnUse" x1="99.8804" y1="99.6938" x2="415.9535" y2="415.767">
			<stop  offset="0" style="stop-color:#0000FF"/>
			<stop  offset="1" style="stop-color:#000083"/>
		</linearGradient>
		<path fill="url(#SVGID_1_)" d="M480.516,255.33c0,124.261-100.733,225-225,225s-225-100.739-225-225
			c0-124.267,100.733-225,225-225S480.516,131.063,480.516,255.33z"/>
		<linearGradient id="SVGID_2_" gradientUnits="userSpaceOnUse" x1="149.5688" y1="71.8252" x2="361.4619" y2="438.8348">
			<stop  offset="0" style="stop-color:#000083"/>
			<stop  offset="1" style="stop-color:#0000FF"/>
		</linearGradient>
		<circle fill="url(#SVGID_2_)" cx="255.516" cy="255.33" r="211.858"/>
	</g>
</g>
<g>
	<path fill-rule="evenodd" clip-rule="evenodd" fill="#FFFFFF" d="M313.523,251.809c1.454-0.116,2.909-0.336,4.376-0.342
		c12.995-0.03,26.003,0.019,38.997-0.049c15.752-0.085,29.64-12.42,29.988-29.737c0.446-22.164-21.217-35.556-38.674-29.963
		c-7.866,2.518-8.551,1.84-7.359-6.271c3.222-21.736-13.625-41.186-35.263-39.915c-5.617,0.33-11.094,3.209-16.607,4.988
		c-0.984,0.318-1.84,1.021-2.787,1.485c-3.142,1.546-4.181,1.094-4.658-2.488c-0.91-6.846-3.185-13.136-6.913-18.942
		c-9.548-14.86-29.003-22.958-46.491-17.983c-15.147,4.309-24.982,13.924-29.89,28.435c-1.717,5.073-1.614,10.819-1.962,16.284
		c-0.275,4.438-0.605,4.951-4.872,4.224c-20.893-3.57-37.775,2.757-49.377,20.807c-12.61,19.633-7.384,48.943,14.939,62.317
		c8.167,4.89,16.883,7.133,26.406,6.871c8.545-0.245,17.103-0.074,25.648-0.043c1.155,0.006,2.775-0.196,3.386,0.446
		c3.552,3.747,6.865,7.714,10.905,12.354c-2.188,0.317-3.166,0.593-4.144,0.586c-13.937-0.006-27.934,0.776-41.803-0.263
		c-23.466-1.754-40.471-13.691-50.428-35.287c-4.823-10.464-5.893-21.467-4.132-32.622c2.738-17.341,11.779-30.855,26.571-40.312
		c9.242-5.923,19.407-9.193,30.495-9.138c2.353,0.006,3.478-0.941,3.979-3.399c4.511-21.962,17.628-36.797,38.741-43.612
		c25.966-8.38,53.71,4.224,65.831,27.714c3.289,6.357,3.246,6.375,10.306,5.024c22.556-4.321,45.838,9.267,53.051,31.045
		c0.947,2.867,1.803,5.832,2.17,8.814c0.372,3.026,1.681,4.15,4.688,4.414c14.463,1.259,25.984,7.646,34.273,19.792
		c12.579,18.441,8.086,45.464-10.007,58.79c-8.147,6.003-17.268,9.132-27.463,9.047c-7.146-0.067-14.291,0.141-21.437-0.098
		c-2.048-0.067-4.297-0.881-6.052-1.993c-4.981-3.166-9.755-6.675-14.608-10.042C313.406,252.433,313.462,252.121,313.523,251.809z"
		/>
	<path fill-rule="evenodd" clip-rule="evenodd" fill="#FFFFFF" d="M324.85,282.94c-1.607,5.935-2.879,11.992-4.921,17.78
		c-1.735,4.934-3.851,5.71-9.046,4.621c-12.567-2.622-24.438-7.151-35.478-13.667c-21.662-12.781-39.596-29.719-54.45-49.908
		c-11.008-14.958-18.93-31.394-22.488-49.768c-0.715-3.723,0.288-6.192,4.053-7.971c7.255-3.429,15.073-4.242,22.94-3.979
		c1.828,0.061,4.041,1.516,5.306,2.989c7.58,8.832,12.842,18.961,15.336,30.348c0.385,1.785-0.936,4.15-1.968,5.966
		c-0.899,1.577-2.549,2.714-3.802,4.102c-3.301,3.655-3.661,6.742-0.685,10.697c8.698,11.559,18.937,21.644,30.44,30.397
		c3.899,2.964,7.048,2.909,10.214-0.954c5.122-6.234,10.813-7.145,17.622-3.508c6.864,3.667,13.777,7.268,20.525,11.143
		c4.315,2.476,6.626,6.241,5.386,11.559C324.177,282.836,324.514,282.885,324.85,282.94z"/>
</g>
<g>
	<path fill-rule="evenodd" clip-rule="evenodd" fill="#FFFFFF" d="M388.229,365.972c-4.022,7.292-6.785,8.949-13.783,8.967
		c-6.162,0.024-12.323,0.007-18.87,0.007c0,5.52-0.134,10.439,0.05,15.354c0.098,2.427-0.832,3.532-3.063,4.235
		c-3.197,1.003-6.29,2.316-9.426,3.503c-1.137,0-2.268,0-3.404,0c-0.11-2.109-0.306-4.224-0.306-6.333
		c-0.031-22.354-0.031-44.7-0.037-67.054c0-1.669,0-3.344,0-5.604c5.049,0,9.683-0.159,14.285,0.104
		c1.24,0.067,2.414,1.394,4.468,2.684c3.533-1.174,8.729-2.903,13.925-4.627c1.98,0,3.961,0,5.953,0
		c5.459,1.748,8.515,5.684,10.208,11.026V365.972z M355.589,362.708c5.887,0,11.027,0,16.382,0c0-9.456,0.036-18.515-0.043-27.573
		c-0.006-1.058-0.452-2.849-1.063-3.026c-1.877-0.537-4.224-1.167-5.838-0.464c-3.233,1.399-8.845,0.232-9.242,4.981
		C355.075,345.189,355.589,353.851,355.589,362.708z"/>
	<path fill-rule="evenodd" clip-rule="evenodd" fill="#FFFFFF" d="M133.829,325.715c3.319-5.085,7.989-7.09,14.052-6.846
		c7.348,0.293,14.713-0.006,22.072,0.086c8.24,0.104,12.903,4.755,12.958,12.946c0.073,10.189,0.061,20.379-0.012,30.562
		c-0.067,8.032-4.651,12.604-12.677,12.689c-7.641,0.08-15.287-0.177-22.916,0.11c-5.984,0.227-10.446-1.858-13.478-7.005
		C133.829,354.077,133.829,339.896,133.829,325.715z M166.665,362.903c0-10.067,0.043-19.938-0.098-29.805
		c-0.006-0.678-1.333-1.882-2.078-1.913c-4.915-0.171-9.829-0.085-14.841-0.085c0,10.959,0,21.326,0,31.803
		C155.375,362.903,160.724,362.903,166.665,362.903z"/>
	<path fill-rule="evenodd" clip-rule="evenodd" fill="#FFFFFF" d="M209.538,374.773c-5.538,0-10.563,0-15.825,0
		c0-18.605,0-36.955,0-55.593c5.159,0,10.183,0,15.568,0c0.159,1.095,0.33,2.292,0.514,3.552c0.52,0,0.941,0.092,1.308-0.019
		c4.474-1.333,8.899-2.866,13.423-4.016c9.572-2.439,16.656,1.846,17.103,11.57c0.667,14.683,0.171,29.413,0.171,44.438
		c-5.202,0-10.22,0-15.917,0c0-1.51,0-3.002,0-4.499c0.006-11.052,0.018-22.103,0-33.154c-0.006-6.026-1.559-7.176-7.158-5.428
		c-9.175,2.873-9.175,2.873-9.181,12.476C209.538,354.156,209.538,364.211,209.538,374.773z"/>
	<path fill-rule="evenodd" clip-rule="evenodd" fill="#FFFFFF" d="M298.828,335.184c-4.933,0-9.584,0-14.486,0
		c-0.354-1.357-0.69-2.641-1.063-4.083c-4.64,0-9.254,0-13.82,0c-1.241,4.229-0.116,6.559,4.236,7.609
		c5.495,1.333,10.892,3.111,16.247,4.951c7.652,2.641,10.024,6.149,10.049,14.199c0.049,15.52-1.724,17.28-17.28,17.268
		c-5.666-0.006-11.339,0.007-17.005,0.013c-9.468,0-12.836-3.35-12.763-12.751c0.006-1.24,0.141-2.481,0.232-3.973
		c5.25,0,10.287,0,15.623,0c0.22,1.339,0.446,2.677,0.716,4.334c4.584,0,9.156,0,13.703,0c1.149-6.388,1.082-6.461-4.792-8.143
		c-5.574-1.607-11.173-3.153-16.699-4.914c-6.98-2.219-8.429-4.878-8.863-12.042c-1.021-16.98,6.485-19.395,18.924-18.691
		c4.664,0.263,9.352,0.012,14.028,0.049C296.438,319.089,300.559,324.083,298.828,335.184z"/>
	<path fill-rule="evenodd" clip-rule="evenodd" fill="#FFFFFF" d="M311.114,319.205c5.697,0,11.015,0,16.602,0
		c0,18.563,0,36.883,0,55.563c-5.428,0-10.85,0-16.602,0C311.114,356.399,311.114,337.977,311.114,319.205z"/>
</g>
</svg>
