<?xml version="1.0" encoding="utf-8"?>
<!-- Generator: Adobe Illustrator 16.0.0, SVG Export Plug-In . SVG Version: 6.00 Build 0)  -->
<!DOCTYPE svg PUBLIC "-//W3C//DTD SVG 1.1//EN" "http://www.w3.org/Graphics/SVG/1.1/DTD/svg11.dtd">
<svg version="1.1" id="Layer_1" xmlns="http://www.w3.org/2000/svg" xmlns:xlink="http://www.w3.org/1999/xlink" x="0px" y="0px"
	 width="512px" height="512px" viewBox="0 0 512 512" enable-background="new 0 0 512 512" xml:space="preserve">
<g>
	<g>
		<linearGradient id="SVGID_1_" gradientUnits="userSpaceOnUse" x1="99.7593" y1="99.2798" x2="415.8324" y2="415.3529">
			<stop  offset="0" style="stop-color:#00B5A4"/>
			<stop  offset="1" style="stop-color:#007D7D"/>
		</linearGradient>
		<path fill="url(#SVGID_1_)" d="M480.395,254.916c0,124.261-100.733,225-225,225s-225-100.739-225-225
			c0-124.267,100.733-225,225-225S480.395,130.649,480.395,254.916z"/>
		<linearGradient id="SVGID_2_" gradientUnits="userSpaceOnUse" x1="149.4482" y1="71.4116" x2="361.3413" y2="438.4212">
			<stop  offset="0.1823" style="stop-color:#007D7D"/>
			<stop  offset="1" style="stop-color:#00B5A4"/>
		</linearGradient>
		<circle fill="url(#SVGID_2_)" cx="255.395" cy="254.916" r="211.858"/>
	</g>
</g>
<g>
	<path fill-rule="evenodd" clip-rule="evenodd" fill="#FFFFFF" d="M279.453,183.284c-3.203-0.208-6.204-0.397-9.254-0.599
		c-0.783-6.009-1.29-11.693-2.268-17.28c-5.85-33.307-25.251-43.386-54.041-40.171c-18.246,2.036-30.275,14.315-34.829,34.615
		c-1.681,7.5-2.494,15.189-3.784,23.319c-3.319,0-6.491,0-9.713,0c0,2.457,0,4.333,0,6.632c38.233,0,75.923,0,113.888,0
		C279.453,187.52,279.453,185.533,279.453,183.284z"/>
	<path fill-rule="evenodd" clip-rule="evenodd" fill="#FFFFFF" d="M206.88,248.052c9.719,7.628,21.424,8.05,31.076,0.776
		c16.204-12.207,22.873-29.768,27.023-49.102c-28.325,0-56.002,0-83.851,0c0.312,1.809,0.489,3.35,0.856,4.835
		C186.183,221.401,192.748,236.97,206.88,248.052z"/>
	<path fill-rule="evenodd" clip-rule="evenodd" fill="#FFFFFF" d="M319.832,254.427c-14.12-0.073-26.9,5.685-36.094,14.976
		c-3.949-0.85-7.995-1.65-12.176-2.567c0,7.763,0,15.221,0,22.616c-1.388,4.346-2.152,8.949-2.293,13.711c-3.526,0-6.84,0-10.409,0
		c0-13.216,0-26.095,0-37.048c-6.412-4.585-11.577-8.276-17.127-12.25c-3.063,3.289-6.608,7.036-10.08,10.819
		c-4.59,5.006-12.873,5.006-17.494-0.012c-3.496-3.778-7.011-7.543-10.049-10.807c-5.721,4.071-11.021,7.848-17.255,12.28
		c0,11.29,0,24.016,0,37.035c-4.242,0-8.099,0-12.714,0c0-12.188,0-24.095,0-36.375c-7.849,1.761-14.933,3.154-21.877,5.067
		c-1.656,0.458-3.569,2.444-4.12,4.138c-2.146,6.528-3.722,13.24-5.642,19.854c-3.71,12.849-7.512,25.654-11.284,38.496
		c0,0.685,0,1.382,0,2.066c2.231-0.146,4.45-0.422,6.681-0.422c59.34-0.019,79.279-0.012,128.228-0.012
		c-5.703,3.845-9.682,4.884-18.869,5.342c-2.897,0.152-5.807,0.141-8.704,0.116c-9.022-0.079-15.905,3.521-21.235,10.966
		c-9.022,12.622-9.444,26.266-5.789,40.544c0.33,1.283,1.65,2.316,3.093,4.242c3.723-6.431,6.883-11.877,10.062-17.311
		c4.37-7.476,10.898-9.181,18.398-4.829c1.883,1.094,3.814,2.109,5.66,3.246c6.901,4.235,8.771,10.599,5.012,17.714
		c-2.292,4.321-5.012,8.417-7.323,12.726c-0.868,1.633-1.125,3.613-1.663,5.429c2.06,0.336,4.187,1.21,6.149,0.917
		c8.735-1.266,15.855-5.96,22.433-11.504c8.509-7.146,13.509-15.893,12.433-27.5c-0.739-7.824-0.452-15.557,4.836-20.783
		c-6.492-6.644-12.678-12.97-18.869-19.314c2.646,0,5.336,0,8.178,0c9.193,11.797,23.466,19.37,39.621,19.37
		c27.897,0.006,50.343-22.537,50.379-50.593C369.961,277.11,347.527,254.567,319.832,254.427z M328.219,337.196
		c-2.567,0.794-5.264,0.996-5.563,4.682c-0.067,0.807-2.194,2.048-3.301,1.98c-1.106-0.073-2.158-1.51-3.173-2.39
		c-1.559-1.369-2.842-3.49-4.627-4.034c-6.381-1.926-10.85-5.776-13.245-11.871c-1.284-3.264-1.235-6.833,2.542-8.367
		c3.655-1.474,6.314-0.202,8.075,3.881c3.691,8.521,11.638,11.277,17.701,6.333c1.95-1.583,3.02-4.218,3.937-5.551
		c-0.312-6.546-4.053-8.605-8.264-10.232c-4.548-1.76-9.255-3.16-13.588-5.33c-6.847-3.416-9.792-9.303-9.364-16.949
		c0.422-7.678,4.321-12.879,11.105-16.076c2.696-1.271,5.924-1.711,6.192-5.752c0.043-0.696,2.17-1.992,2.916-1.742
		c1.32,0.44,2.353,1.81,3.453,2.861c1.266,1.21,2.256,3.025,3.753,3.661c5.765,2.438,10.354,5.941,12.622,11.962
		c1.382,3.68,1.058,7.012-3.074,8.509c-4.138,1.497-6.351-0.795-7.714-4.591c-2.562-7.139-7.457-10.104-12.427-6.876
		c-2.512,1.613-5.195,5.336-5.073,7.977c0.141,2.983,2.738,6.754,5.373,8.484c3.502,2.304,8.093,2.946,12.213,4.333
		c8.905,3.02,12.885,8.631,12.72,17.916C341.263,328.498,336.66,334.586,328.219,337.196z"/>
	<path fill-rule="evenodd" clip-rule="evenodd" fill="#FFFFFF" d="M427.485,216.414c-0.275-0.984-1.352-2.084-2.305-2.433
		c-0.557-0.195-1.883,0.856-2.39,1.65c-1.761,2.745-3.473,5.538-4.921,8.454c-8.472,16.974-15.568,15.214-28.265,6.846
		c-5.935-3.924-7.726-10.159-4.413-16.528c2.421-4.657,5.251-9.095,7.727-13.741c0.788-1.479,1.003-3.276,1.485-4.92
		c-1.858-0.397-3.747-1.259-5.55-1.131c-18.612,1.412-36.138,20.99-35.422,39.511c0.293,7.684,0.274,15.214-5.184,20.453
		c7.28,7.255,14.272,14.236,21.607,21.546c6.534-5.366,10.269-6.853,19.719-7.359c3.625-0.202,7.256-0.195,10.874-0.312
		c7.329-0.245,14.01-2.158,18.937-8.002C430.468,247.336,431.874,232.379,427.485,216.414z"/>
</g>
</svg>
