<?xml version="1.0" encoding="utf-8"?>
<!-- Generator: Adobe Illustrator 16.0.0, SVG Export Plug-In . SVG Version: 6.00 Build 0)  -->
<!DOCTYPE svg PUBLIC "-//W3C//DTD SVG 1.1//EN" "http://www.w3.org/Graphics/SVG/1.1/DTD/svg11.dtd">
<svg version="1.1" id="Layer_1" xmlns="http://www.w3.org/2000/svg" xmlns:xlink="http://www.w3.org/1999/xlink" x="0px" y="0px"
	 width="512px" height="512px" viewBox="0 0 512 512" enable-background="new 0 0 512 512" xml:space="preserve">
<g>
	<g>
		<linearGradient id="SVGID_1_" gradientUnits="userSpaceOnUse" x1="100.6519" y1="100.8647" x2="416.725" y2="416.9379">
			<stop  offset="0" style="stop-color:#00B100"/>
			<stop  offset="1" style="stop-color:#006700"/>
		</linearGradient>
		<path fill="url(#SVGID_1_)" d="M481.287,256.501c0,124.261-100.733,225-225,225s-225-100.739-225-225
			c0-124.264,100.733-225,225-225S481.287,132.237,481.287,256.501z"/>
		<linearGradient id="SVGID_2_" gradientUnits="userSpaceOnUse" x1="150.3398" y1="72.9971" x2="362.2354" y2="440.0109">
			<stop  offset="0" style="stop-color:#006700"/>
			<stop  offset="1" style="stop-color:#00B100"/>
		</linearGradient>
		<path fill="url(#SVGID_2_)" d="M468.146,256.501c0,117.011-94.854,211.864-211.858,211.864S44.429,373.512,44.429,256.501
			c0-117.005,94.854-211.858,211.858-211.858S468.146,139.496,468.146,256.501z"/>
	</g>
</g>
<g>
	<path fill-rule="evenodd" clip-rule="evenodd" fill="#FFFFFF" d="M316.574,149.15c0,13.573,0,26.959,0,40.581
		c-45.77,0-91.21,0-136.98,0c0-13.506,0-26.889,0-40.563c-9.132,0-17.94,0-27.06,0c0,75.721,0,151.567,0,227.839
		c3.044,0,6.051,0,9.059,0c11.534,0,23.074,0.086,34.609-0.066c2.75-0.037,4.254,0.593,5.434,3.307
		c1.546,3.533,3.881,6.724,6.045,10.349c-23.044,0-45.893,0-69.022,0c0-84.994,0-169.994,0-255.459c24.083,0,48.215,0,72.58,0
		c0.458-11.775,4.896-21.265,13.723-28.481c7.273-5.941,15.666-8.512,25.079-8.175c18.515,0.66,31.999,14.535,34.915,36.406
		c23.997,0,48.037,0,72.401,0c0,20.245,0,40.165,0,60.147c-4.413-0.193-8.686-0.379-13.361-0.587c0-14.985,0-30.003,0-45.297
		C334.796,149.15,325.981,149.15,316.574,149.15z M270.7,148.888c0-5.248,0.195-10.04-0.036-14.816
		c-0.703-14.486-14.224-24.438-28.271-20.951c-9.682,2.412-16.626,10.994-17.017,21.305c-0.184,4.75-0.031,9.511-0.031,14.575
		c-11.033,0-21.369,0-31.821,0c0,9.141,0,17.946,0,26.806c36.491,0,72.769,0,108.924,0c0-9.12,0-17.922,0-26.919
		C291.917,148.888,281.666,148.888,270.7,148.888z"/>
	<path fill-rule="evenodd" clip-rule="evenodd" fill="#FFFFFF" d="M347.039,299.539c-3.961-1.51-6.705,1.259-9.694,4.267
		c-26.021,26.173-52.121,52.273-78.265,78.325c-13.093,13.044-33.307,11.296-43.154-3.576c-7.219-10.898-5.892-24.963,3.478-34.578
		c8.057-8.264,16.302-16.345,24.462-24.511c18.833-18.827,37.64-37.689,56.534-56.455c1.858-1.846,2.598-3.582,2.451-6.271
		c-1.308-24.878,16.455-45.926,40.733-48.493c24.512-2.592,46.37,14.435,50.245,39.126
		C398.139,274.783,376.109,299.729,347.039,299.539z M365.297,227.042c-11.424-7.097-24.994-6.626-35.557,1.061
		c-10.317,7.509-15.379,20.724-12.108,32.922c0.819,3.025-0.03,4.565-1.968,6.497c-28.186,28.1-56.32,56.26-84.462,84.413
		c-0.984,0.979-2.011,1.938-2.873,3.026c-6.229,7.854-2.201,19.395,7.567,21.613c5.477,1.247,9.816-0.788,13.686-4.664
		c28.551-28.631,57.164-57.2,85.746-85.807c1.369-1.369,2.439-2.396,4.841-1.748c13.087,3.496,25.973-1.015,33.797-11.516
		c7.872-10.551,8.416-23.888,1.283-35.963c-7.476,7.481-15.208,14.621-22.194,22.424c-4.169,4.651-8.698,3.832-13.393,3.404
		c-1.547-6.452,0.263-11.079,5.104-15.349C351.959,241.018,358.457,233.888,365.297,227.042z"/>
	<path fill-rule="evenodd" clip-rule="evenodd" fill="#FFFFFF" d="M269.521,390.603c4.707-4.621,8.667-8.692,12.879-12.5
		c0.947-0.855,2.763-1.046,4.181-1.052c17.482-0.067,34.958-0.043,52.439-0.043c1.394,0,2.781,0,4.811,0c0-1.461,0-2.787,0-4.107
		c0-17.738-0.006-35.464,0.006-53.203c0-4.389,1.956-6.467,6.217-6.724c2.384-0.146,4.762-0.342,7.396-0.537
		c0,26.112,0,52.011,0,78.166C328.451,390.603,299.521,390.603,269.521,390.603z"/>
	<path fill-rule="evenodd" clip-rule="evenodd" fill="#FFFFFF" d="M290.976,240.025c-27.83,0-55.66,0-83.809,0
		c0-4.371,0-8.723,0-13.383c29.322,0,58.735,0,88.356,0C294.007,231.104,292.516,235.486,290.976,240.025z"/>
	<path fill-rule="evenodd" clip-rule="evenodd" fill="#FFFFFF" d="M207.039,276.471c0-4.621,0-8.876,0-13.374
		c24.554,0,48.918,0,74.224,0c-4.762,4.706-8.985,8.948-13.313,13.08c-0.531,0.501-1.656,0.52-2.506,0.52
		c-18.881,0.019-37.763,0.019-56.65,0C208.311,276.696,207.821,276.574,207.039,276.471z"/>
	<path fill-rule="evenodd" clip-rule="evenodd" fill="#FFFFFF" d="M207.057,313.243c0-4.688,0-8.949,0-13.533
		c12.255,0,24.536,0,37.39,0c-4.493,4.523-8.606,8.741-12.83,12.843c-0.532,0.52-1.62,0.653-2.451,0.66
		C221.959,313.262,214.734,313.243,207.057,313.243z"/>
	<path fill-rule="evenodd" clip-rule="evenodd" fill="#FFFFFF" d="M193.164,226.599c0,4.572,0,8.823,0,13.337
		c-4.493,0-8.838,0-13.441,0c0-4.392,0-8.735,0-13.337C184.111,226.599,188.451,226.599,193.164,226.599z"/>
	<path fill-rule="evenodd" clip-rule="evenodd" fill="#FFFFFF" d="M179.691,263.047c4.67,0,8.918,0,13.399,0c0,4.53,0,8.87,0,13.441
		c-4.48,0-8.827,0-13.399,0C179.691,272.008,179.691,267.668,179.691,263.047z"/>
	<path fill-rule="evenodd" clip-rule="evenodd" fill="#FFFFFF" d="M179.661,312.913c0-4.353,0-8.606,0-13.19
		c4.297,0,8.649,0,13.331,0c0,4.168,0,8.508,0,13.19C188.726,312.913,184.288,312.913,179.661,312.913z"/>
</g>
</svg>
