<?xml version="1.0" encoding="utf-8"?>
<!-- Generator: Adobe Illustrator 16.0.0, SVG Export Plug-In . SVG Version: 6.00 Build 0)  -->
<!DOCTYPE svg PUBLIC "-//W3C//DTD SVG 1.1//EN" "http://www.w3.org/Graphics/SVG/1.1/DTD/svg11.dtd">
<svg version="1.1" id="Layer_1" xmlns="http://www.w3.org/2000/svg" xmlns:xlink="http://www.w3.org/1999/xlink" x="0px" y="0px"
	 width="512px" height="512px" viewBox="0 0 512 512" enable-background="new 0 0 512 512" xml:space="preserve">
<g>
	<g>
		<linearGradient id="SVGID_1_" gradientUnits="userSpaceOnUse" x1="101.0508" y1="100.6934" x2="417.1246" y2="416.7672">
			<stop  offset="0" style="stop-color:#DC00FF"/>
			<stop  offset="1" style="stop-color:#9A00FF"/>
		</linearGradient>
		<path fill="url(#SVGID_1_)" d="M481.687,256.33c0,124.261-100.733,225-225,225s-225-100.739-225-225
			c0-124.267,100.733-225,225-225S481.687,132.063,481.687,256.33z"/>
		<linearGradient id="SVGID_2_" gradientUnits="userSpaceOnUse" x1="150.7402" y1="72.8257" x2="362.6333" y2="439.8353">
			<stop  offset="0" style="stop-color:#9A00FF"/>
			<stop  offset="1" style="stop-color:#DC00FF"/>
		</linearGradient>
		<circle fill="url(#SVGID_2_)" cx="256.687" cy="256.33" r="211.858"/>
	</g>
</g>
<g>
	<path fill-rule="evenodd" clip-rule="evenodd" d="M202.261,169.105c-7.805-2.023-15.208-0.685-19.315,1.62
		c-3.992,2.243-7.684,4.865-12.372,5.843c-4.499,0.947-7.066,4.389-9.493,8.325c-2.408,3.918-3.942,7.854-3.795,12.292
		c0.183,5.673,0.862,11.327,1.271,16.993c0.055,0.788,0.019,1.772-0.397,2.353c-3.136,4.358-2.335,11.253,1.833,14.694
		c0.385,0.318,0.936,0.44,1.308,0.758c0.899,0.764,1.932,1.455,2.543,2.408c0.636,0.99,0.831,2.243,1.229,3.386
		c2.567,7.494,6.113,14.193,13.393,18.337c7.787,4.432,15.471,8.222,24.712,4.064c6.516-2.934,13.044-5.966,16.98-12.096
		c2.671-4.15,4.114-9.089,6.21-13.619c0.41-0.88,1.186-1.828,2.036-2.207c5.306-2.347,7.365-11.223,3.618-15.587
		c-0.599-0.685-1.039-1.876-0.923-2.745c1.027-7.194,0.844-14.254-0.819-21.388c-2.372-10.226-8.741-16.577-18.289-19.987
		c-3.692-1.314-7.592-2.023-11.284-2.983C201.008,169.484,201.436,169.355,202.261,169.105z M195.091,341.605
		c-4.908-6.901-9.768-13.674-14.554-20.502c-1.027-1.454-2.207-3.007-2.585-4.682c-0.935-4.083-1.516-8.252-2.121-12.402
		c-1.815-12.488-3.619-24.963-5.299-37.463c-0.306-2.274-1.296-2.091-2.75-1.352c-3.466,1.761-6.975,3.466-10.349,5.379
		c-10.935,6.211-21.858,12.451-32.702,18.803c-6.491,3.813-11.058,9.34-13.142,16.656c-1.919,6.754-3.82,13.526-5.385,20.373
		c-1.492,6.57-2.549,13.245-3.814,19.963c41.479,0,82.604,0,124.205,0c-7.243-8.271-11.956-17.433-15.257-27.971
		C205.617,326.574,200.421,334.008,195.091,341.605z M204.278,284.014c-2.586-2.415-5.037-4.865-7.684-7.066
		c-0.587-0.495-2.237-0.568-2.781-0.116c-2.757,2.317-5.312,4.872-7.903,7.323c1.204,1.907,2.127,3.551,3.221,5.079
		c1.18,1.65,1.485,3.179,0.88,5.263c-1.956,6.755-3.729,13.582-5.306,20.435c-0.318,1.381,0.085,3.288,0.85,4.498
		c2.494,3.919,5.403,7.562,7.958,11.431c1.143,1.724,1.932,1.729,3.026,0.129c2.787-4.035,5.685-8.008,8.307-12.152
		c0.654-1.051,0.862-2.763,0.556-3.997c-1.809-7.226-3.845-14.396-5.74-21.607c-0.195-0.728-0.171-1.718,0.177-2.335
		C201.075,288.751,202.512,286.715,204.278,284.014z"/>
	<path fill-rule="evenodd" clip-rule="evenodd" fill="#FFFFFF" d="M202.261,169.105c-0.825,0.25-1.253,0.379-1.552,0.465
		c3.692,0.959,7.592,1.668,11.284,2.983c9.548,3.411,15.917,9.762,18.289,19.987c1.663,7.134,1.846,14.193,0.819,21.388
		c-0.116,0.868,0.324,2.06,0.923,2.745c3.747,4.364,1.688,13.24-3.618,15.587c-0.85,0.379-1.626,1.326-2.036,2.207
		c-2.097,4.529-3.539,9.468-6.21,13.619c-3.937,6.13-10.464,9.163-16.98,12.096c-9.242,4.157-16.925,0.367-24.712-4.064
		c-7.28-4.145-10.825-10.844-13.393-18.337c-0.397-1.143-0.593-2.396-1.229-3.386c-0.611-0.954-1.644-1.645-2.543-2.408
		c-0.373-0.318-0.923-0.44-1.308-0.758c-4.168-3.441-4.969-10.336-1.833-14.694c0.416-0.581,0.452-1.565,0.397-2.353
		c-0.409-5.667-1.088-11.32-1.271-16.993c-0.147-4.438,1.387-8.374,3.795-12.292c2.427-3.937,4.994-7.378,9.493-8.325
		c4.688-0.978,8.38-3.6,12.372-5.843C187.053,168.42,194.456,167.082,202.261,169.105z"/>
	<path fill-rule="evenodd" clip-rule="evenodd" fill="#FFFFFF" d="M195.091,341.605c5.33-7.598,10.526-15.031,16.247-23.197
		c3.301,10.538,8.014,19.7,15.257,27.971c-41.602,0-82.726,0-124.205,0c1.265-6.718,2.322-13.393,3.814-19.963
		c1.565-6.847,3.466-13.619,5.385-20.373c2.084-7.316,6.65-12.843,13.142-16.656c10.844-6.352,21.767-12.592,32.702-18.803
		c3.374-1.913,6.883-3.618,10.349-5.379c1.455-0.739,2.445-0.923,2.75,1.352c1.681,12.5,3.484,24.975,5.299,37.463
		c0.605,4.15,1.186,8.319,2.121,12.402c0.379,1.675,1.559,3.228,2.585,4.682C185.323,327.932,190.183,334.704,195.091,341.605z"/>
	<path fill-rule="evenodd" clip-rule="evenodd" fill="#FFFFFF" d="M204.278,284.014c-1.767,2.701-3.203,4.737-4.438,6.883
		c-0.348,0.617-0.373,1.607-0.177,2.335c1.895,7.212,3.931,14.382,5.74,21.607c0.306,1.234,0.098,2.946-0.556,3.997
		c-2.622,4.145-5.52,8.117-8.307,12.152c-1.094,1.601-1.883,1.595-3.026-0.129c-2.555-3.869-5.464-7.512-7.958-11.431
		c-0.764-1.21-1.167-3.117-0.85-4.498c1.577-6.853,3.35-13.68,5.306-20.435c0.605-2.084,0.299-3.612-0.88-5.263
		c-1.094-1.528-2.017-3.172-3.221-5.079c2.592-2.451,5.146-5.006,7.903-7.323c0.544-0.452,2.194-0.379,2.781,0.116
		C199.241,279.148,201.692,281.599,204.278,284.014z"/>
</g>
<g>
	<path fill-rule="evenodd" clip-rule="evenodd" fill="#FFFFFF" d="M238.869,177.076c1.002-4.132,2.836-7.745,6.32-10.141
		c1.999-1.375,4.432-2.109,6.675-3.129c43.949,0,87.897,0,131.852,0c0.862,0.287,1.742,0.525,2.579,0.874
		c6.125,2.53,9.444,7.158,10.116,13.71c0.092,0.911,0.062,1.84,0.062,2.756c0,18.949,0,37.892,0,56.834c0,0.636,0,1.277,0,2.127
		c-0.636-0.287-1.058-0.489-1.485-0.666c-3.05-1.241-6.063-2.58-9.163-3.68c-1.118-0.392-1.527-0.801-1.516-1.999
		c0.067-4.597,0.03-9.193,0.03-13.796c0-13.154,0-26.308,0-39.456c0-3.453-1.13-4.59-4.541-4.59c-41.406,0-82.812,0-124.218,0
		c-3.337,0-4.462,1.106-4.462,4.48c-0.012,50.336-0.012,100.672,0,151.008c0,3.338,1.155,4.438,4.523,4.438
		c41.406,0,82.812,0,124.218,0c3.227,0,4.254-0.979,4.511-4.169c0.036-0.435,0.342-1.088,0.69-1.229
		c3.704-1.461,7.451-2.837,11.137-4.218c1.198,8.129-0.25,16.516-9.4,20.654c-0.587,0.256-1.187,0.488-1.779,0.739
		c-44.927,0-89.854,0-134.78,0c-2.072-1.234-4.309-2.249-6.162-3.747c-2.873-2.335-4.291-5.654-5.208-9.218V177.076z"/>
	<path fill-rule="evenodd" clip-rule="evenodd" fill="#FFFFFF" d="M415.543,287.271c-2.469,24.004-23.166,40.917-46.063,39.138
		c-23.068-1.791-40.263-20.617-40.006-43.398c0.257-22.481,17.903-40.947,40.44-42.359c22.609-1.412,43.245,15.306,45.629,39.315
		V287.271z M373.526,316.287c18.937-1.088,32.573-16.167,31.491-34.822c-1.015-17.721-16.626-31.345-34.67-30.27
		c-17.934,1.076-31.607,16.669-30.336,34.908C341.234,303.61,356.032,316.758,373.526,316.287z"/>
	<path fill-rule="evenodd" clip-rule="evenodd" fill="#FFFFFF" d="M270.207,233.133c3.631-0.948,7.018-1.834,10.551-2.757
		c0.238,0.813,0.439,1.522,0.653,2.219c1.724,5.721,7.812,8.521,13.258,6.07c2.299-1.039,3.387-2.946,3.589-5.391
		c0.183-2.445-0.686-4.425-2.971-5.458c-2.849-1.29-5.795-2.396-8.687-3.588c-1.699-0.709-3.404-1.394-5.079-2.152
		c-9.511-4.285-10.99-14.132-8.148-21.479c2.104-5.446,6.131-8.619,11.804-9.805c0.525-0.11,1.052-0.22,1.735-0.367
		c0-2.066,0-4.095,0-6.229c2.366,0,4.555,0,6.944,0c0,1.583,0.073,3.093-0.019,4.584c-0.086,1.253,0.287,1.76,1.607,1.999
		c6.718,1.216,10.93,5.336,13.051,11.7c0.134,0.403,0.03,1.253-0.202,1.356c-2.897,1.278-5.844,2.458-8.686,3.625
		c-1.082-1.821-1.896-3.545-3.032-5.012c-1.962-2.543-4.639-3.454-7.799-2.659c-2.359,0.593-4.139,2.604-4.426,4.866
		c-0.354,2.836,0.391,4.609,3.014,5.85c3.318,1.571,6.772,2.849,10.152,4.285c1.442,0.611,2.879,1.253,4.272,1.968
		c6.65,3.398,9.854,9.682,8.735,17.078c-1.241,8.185-6.198,13.301-14.597,14.744c-1.755,0.305-2.207,0.954-2.078,2.598
		c0.141,1.925,0.03,3.869,0.03,5.911c-2.384,0-4.572,0-6.938,0c0-2.726,0-5.354,0-8.081c-5.178-0.691-9.64-2.518-12.806-6.73
		C272.133,239.606,270.855,236.611,270.207,233.133z"/>
	<path fill-rule="evenodd" clip-rule="evenodd" fill="#FFFFFF" d="M267.731,317.645c0-3.76-0.019-7.427,0.037-11.095
		c0.006-0.299,0.507-0.709,0.855-0.85c0.373-0.146,0.855-0.036,1.29-0.036c18.826,0,37.646,0.012,56.473-0.031
		c1.425-0.006,2.146,0.44,2.928,1.657c2.274,3.532,4.799,6.907,7.231,10.354C313.844,317.645,290.916,317.645,267.731,317.645z"/>
	<path fill-rule="evenodd" clip-rule="evenodd" fill="#FFFFFF" d="M267.793,280.278c0-4.144,0-8.025,0-12.06
		c19.046,0,38.038,0,57.041,0c-0.556,2.867-1.094,5.666-1.625,8.46c-0.05,0.269-0.099,0.538-0.129,0.807
		c-0.3,2.793-0.3,2.793-3.031,2.793c-16.663,0-33.319,0-49.982,0C269.376,280.278,268.686,280.278,267.793,280.278z"/>
	<path fill-rule="evenodd" clip-rule="evenodd" fill="#FFFFFF" d="M334.479,205.004c0-3.766,0.013-7.384-0.012-11.003
		c0-1.1,0.745-0.99,1.448-0.99c5.196,0,10.392,0,15.587,0c6.442,0,12.879,0.031,19.321-0.024c1.284-0.012,1.822,0.263,1.785,1.681
		c-0.104,3.398-0.037,6.803-0.037,10.336C359.847,205.004,347.279,205.004,334.479,205.004z"/>
	<path fill-rule="evenodd" clip-rule="evenodd" fill="#FFFFFF" d="M372.463,230.688c0,0.959,0,1.852,0,2.873
		c-2.421,0.232-4.829,0.385-7.213,0.703c-7.476,0.972-14.315,3.631-20.599,7.787c-0.514,0.342-1.174,0.636-1.767,0.642
		c-6.003,0.042-12.005,0.03-18.014,0.018c-0.202,0-0.409-0.067-0.722-0.128c0-3.949,0-7.867,0-11.895
		C340.274,230.688,356.308,230.688,372.463,230.688z"/>
	<path fill-rule="evenodd" clip-rule="evenodd" fill="#FFFFFF" d="M394.125,270.285c-0.312,0.458-0.617,0.941-0.959,1.405
		c-0.123,0.178-0.3,0.312-0.453,0.465c-2.347,2.359-2.463,3.19-0.709,5.99c0.202,0.317,0.776,0.52,1.198,0.55
		c1.021,0.08,2.054,0.049,3.081,0.024c1.21-0.03,1.846,0.587,1.864,1.748c0.036,2.274,0.024,4.542,0,6.815
		c-0.013,1.106-0.63,1.682-1.742,1.699c-0.214,0.007-0.44,0.049-0.654,0.007c-2.806-0.624-4.34,0.66-4.859,3.325
		c-0.098,0.514,0,1.234,0.3,1.644c0.611,0.813,1.418,1.479,2.146,2.207c0.813,0.825,0.923,1.699,0.079,2.562
		c-1.595,1.613-3.209,3.215-4.828,4.811c-0.789,0.77-1.614,0.782-2.434,0.012c-0.195-0.184-0.422-0.354-0.568-0.568
		c-1.424-2.048-3.05-2.641-5.366-1.21c-0.898,0.55-1.498,0.91-1.32,1.998c0.024,0.104,0.006,0.214,0.006,0.324
		c-0.006,4.212-0.006,4.212-4.315,4.212c-1.296,0-2.592-0.019-3.888,0c-1.497,0.012-2.2-0.716-2.146-2.201
		c0.006-0.165-0.03-0.323,0.006-0.482c0.386-2.299-0.201-3.826-2.763-4.486c-1.155-0.294-1.76-0.354-2.598,0.525
		c-3.221,3.404-2.958,3.246-6.216-0.024c-0.954-0.954-1.907-1.919-2.861-2.873c-0.85-0.855-0.818-1.705,0-2.562
		c0.153-0.152,0.306-0.305,0.459-0.458c2.463-2.5,2.5-2.519,1.051-5.764c-0.201-0.446-0.886-0.868-1.394-0.936
		c-1.009-0.152-2.054-0.043-3.08-0.062c-1.168-0.018-1.828-0.58-1.828-1.791c0-2.219-0.006-4.438,0-6.65
		c0.013-1.18,0.611-1.797,1.815-1.803c0.165,0,0.33-0.03,0.489,0c2.83,0.636,4.468-0.55,4.97-3.337c0.098-0.521,0-1.241-0.306-1.645
		c-0.605-0.813-1.419-1.479-2.146-2.207c-0.838-0.831-0.898-1.699-0.056-2.555c1.59-1.62,3.191-3.233,4.817-4.811
		c0.788-0.771,1.632-0.764,2.438,0.006c0.195,0.189,0.44,0.349,0.581,0.568c1.473,2.28,3.27,2.421,5.537,1.101
		c0.776-0.458,1.138-0.819,1.088-1.688c-0.042-0.965-0.023-1.943,0-2.915c0.037-1.168,0.667-1.815,1.834-1.834
		c2.213-0.024,4.432-0.024,6.65-0.006c1.26,0.019,1.883,0.69,1.853,1.956c0,0.158,0.03,0.33,0,0.482
		c-0.593,2.702,0.556,4.169,3.172,4.854c0.862,0.227,1.369,0.27,1.956-0.397c0.679-0.771,1.357-1.613,2.213-2.133
		c0.55-0.33,1.712-0.471,2.103-0.129c1.828,1.59,3.503,3.368,5.208,5.11C393.795,269.411,393.893,269.814,394.125,270.285z
		 M387.432,283.842c-0.61-3.551-1.607-7.176-4.132-9.682c-2.469-2.47-6.069-3.918-9.565-3.918c-3.558,0.012-7.183,1.473-9.688,4.01
		c-2.457,2.481-3.912,6.063-3.924,9.566c-0.007,3.502,1.46,7.065,3.899,9.571c2.494,2.562,6.131,4.01,9.676,4.047
		c3.496,0.03,7.072-1.448,9.572-3.906C385.818,291.024,386.79,287.406,387.432,283.842z"/>
	<path fill-rule="evenodd" clip-rule="evenodd" fill="#FFFFFF" d="M382.854,283.867c0.013,5.073-4.113,9.199-9.168,9.168
		c-4.964-0.03-9.065-4.126-9.12-9.107c-0.049-5.012,4.12-9.242,9.145-9.267C378.759,274.643,382.848,278.763,382.854,283.867z
		 M370.421,283.854c0.019,1.84,1.468,3.288,3.301,3.295c1.889,0.019,3.436-1.559,3.368-3.423c-0.061-1.791-1.62-3.265-3.417-3.222
		C371.846,280.541,370.409,282.021,370.421,283.854z"/>
</g>
</svg>
