<?xml version="1.0" encoding="utf-8"?>
<!-- Generator: Adobe Illustrator 16.0.0, SVG Export Plug-In . SVG Version: 6.00 Build 0)  -->
<!DOCTYPE svg PUBLIC "-//W3C//DTD SVG 1.1//EN" "http://www.w3.org/Graphics/SVG/1.1/DTD/svg11.dtd">
<svg version="1.1" id="Layer_1" xmlns="http://www.w3.org/2000/svg" xmlns:xlink="http://www.w3.org/1999/xlink" x="0px" y="0px"
	 width="512px" height="512px" viewBox="0 0 512 512" enable-background="new 0 0 512 512" xml:space="preserve">
<g>
	<g>
		<linearGradient id="SVGID_1_" gradientUnits="userSpaceOnUse" x1="100.0107" y1="99.7061" x2="416.0846" y2="415.7799">
			<stop  offset="0" style="stop-color:#FF00FF"/>
			<stop  offset="1" style="stop-color:#FF006F"/>
		</linearGradient>
		<path fill="url(#SVGID_1_)" d="M480.646,255.343c0,124.261-100.733,225-225,225s-225-100.739-225-225
			c0-124.267,100.733-225,225-225S480.646,131.076,480.646,255.343z"/>
		<linearGradient id="SVGID_2_" gradientUnits="userSpaceOnUse" x1="149.7002" y1="71.8379" x2="361.5933" y2="438.8475">
			<stop  offset="0" style="stop-color:#FF006F"/>
			<stop  offset="0.6601" style="stop-color:#FF007F"/>
			<stop  offset="1" style="stop-color:#FF00FF"/>
		</linearGradient>
		<circle fill="url(#SVGID_2_)" cx="255.646" cy="255.343" r="211.858"/>
	</g>
</g>
<g>
	<path fill-rule="evenodd" clip-rule="evenodd" fill="#FFFFFF" d="M255.561,370.007c-15.361,0-30.728,0-46.088-0.007
		c-34.865,0-63.288-24.798-67.921-59.314c-0.367-2.684-0.526-5.416-0.526-8.13c-0.037-31.406-0.037-62.812-0.018-94.218
		c0.03-37.072,30.232-67.476,67.304-67.598c31.541-0.104,63.081-0.092,94.621,0c37.078,0.116,67.316,30.501,67.347,67.561
		c0.025,31.4,0.025,62.805,0,94.211c-0.023,32.971-24.333,61.455-56.857,66.559c-3.741,0.587-7.573,0.868-11.363,0.893
		C286.563,370.062,271.063,370.007,255.561,370.007z M255.549,351.596c13.05,0,26.1,0.013,39.156,0
		c31.969-0.055,57.176-25.36,57.17-57.365c-0.006-25.972-0.006-51.944,0-77.916c0.006-31.717-25.227-57.084-56.968-57.17
		c-26.174-0.061-52.354-0.061-78.527,0c-31.742,0.086-56.968,25.453-56.968,57.17c0,25.972,0,51.95,0,77.922
		c0,32.005,25.208,57.305,57.176,57.359C229.571,351.608,242.56,351.596,255.549,351.596z"/>
	<path fill-rule="evenodd" clip-rule="evenodd" fill="#FFFFFF" d="M320.341,255.324c0.043,35.685-28.863,64.676-64.542,64.75
		c-35.794,0.073-64.823-28.869-64.847-64.646c-0.024-35.807,28.937-64.768,64.743-64.737
		C291.423,190.728,320.292,219.591,320.341,255.324z M300.86,256.052c0.733-24.456-19.242-45.171-44.235-45.88
		c-24.683-0.697-45.489,19.101-46.174,43.924c-0.697,24.859,18.912,45.746,43.606,46.461
		C279.577,301.296,300.09,281.791,300.86,256.052z"/>
	<path fill-rule="evenodd" clip-rule="evenodd" fill="#FFFFFF" d="M301.955,190.6c0.03-10.196,8.301-18.417,18.472-18.368
		c10.128,0.049,18.423,8.411,18.361,18.521c-0.061,10.177-8.337,18.368-18.521,18.331
		C310.048,209.047,301.924,200.838,301.955,190.6z M328.923,190.673c0.019-4.719-3.777-8.515-8.545-8.551
		c-4.743-0.037-8.552,3.704-8.619,8.472c-0.061,4.682,3.753,8.606,8.436,8.692C324.962,199.365,328.898,195.477,328.923,190.673z"/>
</g>
</svg>
