<?xml version="1.0" encoding="utf-8"?>
<!-- Generator: Adobe Illustrator 16.0.0, SVG Export Plug-In . SVG Version: 6.00 Build 0)  -->
<!DOCTYPE svg PUBLIC "-//W3C//DTD SVG 1.1//EN" "http://www.w3.org/Graphics/SVG/1.1/DTD/svg11.dtd">
<svg version="1.1" id="Layer_1" xmlns="http://www.w3.org/2000/svg" xmlns:xlink="http://www.w3.org/1999/xlink" x="0px" y="0px"
	 width="512px" height="512px" viewBox="0 0 512 512" enable-background="new 0 0 512 512" xml:space="preserve">
<g>
	<g>
		<linearGradient id="SVGID_1_" gradientUnits="userSpaceOnUse" x1="99.5728" y1="99.6938" x2="415.6466" y2="415.7677">
			<stop  offset="0" style="stop-color:#0000FF"/>
			<stop  offset="1" style="stop-color:#000083"/>
		</linearGradient>
		<path fill="url(#SVGID_1_)" d="M480.208,255.33c0,124.261-100.733,225-225,225s-225-100.739-225-225
			c0-124.267,100.733-225,225-225S480.208,131.063,480.208,255.33z"/>
		<linearGradient id="SVGID_2_" gradientUnits="userSpaceOnUse" x1="149.2617" y1="71.8257" x2="361.1548" y2="438.8353">
			<stop  offset="0" style="stop-color:#000083"/>
			<stop  offset="1" style="stop-color:#0000FF"/>
		</linearGradient>
		<circle fill="url(#SVGID_2_)" cx="255.208" cy="255.33" r="211.858"/>
	</g>
</g>
<g>
	<path fill-rule="evenodd" clip-rule="evenodd" fill="#FFFFFF" d="M327.329,392.476c-35.465-10.923-47.274-54.608-22.127-81.864
		c0.623-0.673,1.229-1.363,1.949-2.164c-1.51-2.017-2.946-3.948-4.511-6.045c-13.691,8.025-28.209,10.465-43.49,6.913
		c-15.202-3.539-26.999-12.207-35.697-25.33c-9.217,4.786-18.264,9.486-27.537,14.297c0.52,1.039,0.966,1.919,1.406,2.8
		c9.505,19.107,8.454,37.665-4.688,54.449c-13.215,16.883-31.223,22.978-51.956,17.477c-20.458-5.435-32.83-19.414-36.473-40.343
		c-3.631-20.874,6.779-41.534,25.318-51.65c18.502-10.092,41.223-7.5,57.139,6.681c1.693,1.504,2.806,1.693,4.805,0.611
		c8.086-4.364,16.29-8.509,24.444-12.75c0.819-0.422,1.601-0.911,2.5-1.425c-6.235-17.512-4.982-34.352,4.224-50.752
		c-6.217-4.835-12.415-9.657-18.759-14.596c-10.813,11.094-23.82,16.681-39.199,15.99c-13.014-0.587-24.193-5.654-33.313-14.988
		c-17.622-18.032-19.065-46.039-3.472-65.825c15.464-19.615,43.081-24.688,64.633-12.023c21.058,12.378,32.476,41.137,17.934,68.099
		c6.143,4.774,12.335,9.584,18.509,14.383c18.404-19.915,44.866-23.325,65.911-14.847c1.51-2.83,3.038-5.691,4.633-8.667
		c-1.015-0.862-1.962-1.614-2.854-2.42c-14.682-13.246-20.629-29.695-16.265-48.967c4.438-19.609,17.084-32.023,36.461-37.518
		c0.874-0.251,8.716-1.596,11.784-1.596c3.319,0,11.113,1.204,11.724,1.363c24.902,6.418,40.184,27.708,38.308,53.393
		c-2.023,27.652-28.955,49.064-56.376,44.688c-4.474-0.715-8.856-2.048-13.447-3.136c-1.351,2.561-2.781,5.275-4.205,7.971
		c31.021,20.575,34.31,65.764,6.846,91.253c1.528,1.938,3.075,3.887,4.597,5.813c0.947-0.514,1.602-0.874,2.262-1.223
		c27.305-14.37,60.91-0.966,70.728,28.265c1.032,3.08,1.656,6.302,2.469,9.456c0,4.321,0,8.637,0,12.958
		c-0.177,0.514-0.415,1.015-0.52,1.54c-3.606,18.777-14.327,31.669-32.029,38.796c-1.711,0.69-7.341,3.601-17.866,3.612
		C333.521,395.159,328.1,392.72,327.329,392.476z M370.941,150.342c-0.073-23.264-18.937-41.993-42.182-41.895
		c-23.057,0.104-41.847,19.034-41.767,42.072c0.079,23.264,18.93,41.944,42.225,41.846
		C352.354,192.274,371.021,173.472,370.941,150.342z M153.57,282.965c-23.233-0.056-41.944,18.472-42.054,41.644
		c-0.11,23.325,18.539,42.201,41.779,42.28c23.044,0.079,42.023-18.71,42.133-41.724C195.544,301.901,176.815,283.02,153.57,282.965
		z M167.036,132.977c-23.154,0.019-41.895,18.71-41.925,41.828c-0.037,23.252,18.79,42.127,41.986,42.103
		c23.221-0.024,41.968-18.882,41.925-42.158C208.973,151.65,190.184,132.958,167.036,132.977z M341.969,302.732
		c-23.325-0.08-42.17,18.594-42.213,41.84c-0.049,23.099,18.686,41.986,41.742,42.078c23.166,0.092,42.072-18.563,42.17-41.607
		C383.766,321.638,365.214,302.818,341.969,302.732z M272.971,227.042c-12.023,0.153-21.925,5.44-30.697,13.264
		c-1.711,1.528-1.724,3.496-0.361,5.312c1.29,1.706,3.57,1.822,5.514,0.385c2.488-1.833,4.841-3.881,7.451-5.507
		c12.586-7.867,25.11-7.628,37.39,0.69c2.556,1.73,4.829,3.857,7.262,5.752c1.95,1.516,4.107,1.418,5.514-0.318
		c1.442-1.797,1.381-3.753-0.27-5.312C295.855,232.897,285.715,227.133,272.971,227.042z M273.185,245.299
		c-6.84,0.123-13.099,2.83-18.606,7.378c-1.882,1.552-2.078,3.833-0.599,5.483c1.552,1.724,3.398,1.803,5.312,0.599
		c0.795-0.501,1.51-1.112,2.286-1.638c4.321-2.946,9.047-4.548,14.327-3.894c4.304,0.525,7.983,2.53,11.395,5.134
		c2.108,1.608,4.352,1.4,5.752-0.336c1.448-1.803,1.167-4.016-0.893-5.672C286.742,248.001,280.654,245.373,273.185,245.299z
		 M281.772,273.099c-0.036-4.597-3.631-8.16-8.239-8.178c-4.731-0.013-8.368,3.655-8.319,8.386c0.049,4.621,3.619,8.166,8.239,8.179
		C278.19,281.498,281.815,277.849,281.772,273.099z"/>
	<path fill-rule="evenodd" clip-rule="evenodd" fill="#FFFFFF" d="M321.4,162.732c-2.666-3.784-5.019-7.127-7.372-10.477
		c-4.902-6.968-5.905-14.395-1.821-21.974c3.569-6.626,9.565-9.627,17.017-9.419c13.325,0.367,22.378,12.94,17.854,25.024
		c-1.259,3.356-3.881,6.18-5.507,9.425c-1.889,3.778-4.511,5.758-8.888,5.905C328.777,161.357,324.896,162.237,321.4,162.732z"/>
	<path fill-rule="evenodd" clip-rule="evenodd" fill="#FFFFFF" d="M339.15,164.254c0,2.28,0.073,4.144-0.019,6.002
		c-0.238,4.755-3.661,8.154-8.466,8.521c-4.522,0.342-7.945-2.39-8.924-7.176c-0.287-1.369-0.465-2.763-0.764-4.591
		C327.005,166.094,332.959,165.189,339.15,164.254z"/>
	<path fill-rule="evenodd" clip-rule="evenodd" fill="#FFFFFF" d="M172.463,350.501c-12.916,0-25.342,0-38.068,0
		c0-6.026-0.018-11.913,0.031-17.793c0-0.501,0.312-1.106,0.672-1.467c6.052-6.131,12.134-12.226,18.307-18.423
		c6.192,6.173,12.225,12.176,18.215,18.209c0.422,0.421,0.801,1.112,0.807,1.687C172.488,338.588,172.463,344.468,172.463,350.501z
		 M157.476,344.395c-0.165-0.745-0.232-1.381-0.452-1.962c-0.85-2.298-1.926-4.297,0.354-6.761c1.394-1.51,0.66-3.991-1.277-5.403
		c-2.011-1.461-4.071-1.308-5.832,0.446c-1.657,1.65-2.146,3.967-0.501,5.52c1.95,1.84,1.259,3.344,0.526,5.153
		c-0.373,0.917-0.691,1.864-1.106,3.007C152.127,344.395,154.719,344.395,157.476,344.395z"/>
	<path fill-rule="evenodd" clip-rule="evenodd" fill="#FFFFFF" d="M179.566,326.168c-1.32,0.709-3.362,1.797-4.994,2.664
		c-7.323-6.778-14.45-13.38-21.895-20.281c-6.198,6.486-12.891,13.484-19.712,20.618c-2.164-1.125-4.206-2.194-5.434-2.83
		c8.515-9.053,17.072-18.154,26.088-27.732C162.494,308.031,171.033,317.103,179.566,326.168z"/>
	<path fill-rule="evenodd" clip-rule="evenodd" fill="#FFFFFF" d="M151.541,168.551c1.326-13.906,5.624-19.694,14.92-19.981
		c5.214-0.165,9.426,2.066,12.622,6.216c3.13,4.071,3.099,8.875,2.904,13.606c4.052,0.513,4.052,0.513,4.052,4.432
		c0.006,6.754-0.061,13.515,0.037,20.275c0.03,2.042-0.569,2.806-2.702,2.787c-11.167-0.085-22.341-0.085-33.515,0
		c-2.176,0.019-2.971-0.575-2.922-2.861c0.129-7.035,0.129-14.083,0-21.118c-0.042-2.335,0.453-3.649,3.075-3.264
		C150.452,168.71,150.917,168.594,151.541,168.551z M157.885,168.454c6.131,0,12.054,0,18.062,0
		c0.312-4.854,0.563-9.505-4.034-12.494c-3.068-2.005-6.375-2.115-9.554-0.293C157.323,158.539,157.463,163.368,157.885,168.454z"/>
	<path fill-rule="evenodd" clip-rule="evenodd" fill="#FFFFFF" d="M356.106,333.985c-2.372,1.564-4.608,3.032-7.054,4.646
		c1.112,1.266,1.956,2.213,2.555,2.891c3.154-1.442,5.905-3.142,8.9-3.984c5.843-1.645,11.118,1.362,13.227,7.054
		c3.705,9.981-2.469,18.856-13.135,18.869c-12.94,0.018-25.881,0.03-38.82-0.007c-7.018-0.018-11.785-5.152-11.382-12.121
		c0.269-4.779,3.569-8.447,9.15-9.603c2.311-0.482,3.355-1.332,3.918-3.74c1.62-6.864,7.39-11.828,14.181-12.714
		C345.551,324.248,352.384,327.433,356.106,333.985z"/>
</g>
</svg>
