<?xml version="1.0" encoding="utf-8"?>
<!-- Generator: Adobe Illustrator 16.0.0, SVG Export Plug-In . SVG Version: 6.00 Build 0)  -->
<!DOCTYPE svg PUBLIC "-//W3C//DTD SVG 1.1//EN" "http://www.w3.org/Graphics/SVG/1.1/DTD/svg11.dtd">
<svg version="1.1" id="Layer_1" xmlns="http://www.w3.org/2000/svg" xmlns:xlink="http://www.w3.org/1999/xlink" x="0px" y="0px"
	 width="512px" height="512px" viewBox="0 0 512 512" enable-background="new 0 0 512 512" xml:space="preserve">
<g>
	<g>
		<linearGradient id="SVGID_1_" gradientUnits="userSpaceOnUse" x1="100.2856" y1="100.6929" x2="416.3595" y2="416.7667">
			<stop  offset="0" style="stop-color:#FFA300"/>
			<stop  offset="1" style="stop-color:#FF6400"/>
		</linearGradient>
		<path fill="url(#SVGID_1_)" d="M480.922,256.33c0,124.261-100.733,225-225,225s-225-100.739-225-225
			c0-124.267,100.733-225,225-225S480.922,132.063,480.922,256.33z"/>
		<linearGradient id="SVGID_2_" gradientUnits="userSpaceOnUse" x1="149.9756" y1="72.8252" x2="361.8687" y2="439.8348">
			<stop  offset="0" style="stop-color:#FF6400"/>
			<stop  offset="1" style="stop-color:#FFA300"/>
		</linearGradient>
		<circle fill="url(#SVGID_2_)" cx="255.922" cy="256.33" r="211.858"/>
	</g>
</g>
<g>
	<g>
		<path fill-rule="evenodd" clip-rule="evenodd" fill="#FFFFFF" d="M246.038,304.912c-16.29,0.006-32.573-0.006-48.857-0.006
			c-14.811,0-29.627-0.025-44.438,0.006c-8.166,0.012-12.897-4.426-12.903-12.61c-0.055-31.521-0.012-63.044,0.006-94.566
			c0-3.887,0.061-3.814,3.912-3.808c23.57,0.024,47.14,0.012,70.703,0.012c0,0.012,0,0.031,0,0.043c20.685,0,41.363,0,62.048,0
			c3.154,0,6.32,0.134,9.468-0.019c2.164-0.104,2.818,0.66,2.806,2.781c-0.067,13.735-0.03,27.463-0.042,41.186
			c0,5.819-0.007,11.644-0.007,17.463c0.746-0.19,1.498-0.355,2.256-0.501c4.927-0.984,9.603-1.284,14.132-0.978
			c0.024-28.894,0.049-57.787,0.03-86.675c-0.012-14.272-10.636-26.1-24.89-27.366c-6.18-0.55-12.445-0.171-18.668-0.256
			c-2.053-0.024-2.022,1.32-2.017,2.738c0.006,6.058-0.036,12.109,0.019,18.154c0.079,8.362-6.229,15.129-14.353,15.288
			c-8.129,0.165-14.755-6.614-14.773-15.116c0-5.868,0.012-11.748,0.012-17.616c0-3.459-0.049-3.447-3.435-3.423
			c-9.572,0.042-19.139,0.122-28.71-0.012c-2.341-0.031-3.185,0.471-3.142,2.928c0.116,6.504,0.196,13.014-0.141,19.499
			c-0.416,8.142-7.268,14.138-15.202,13.722c-7.787-0.397-13.887-7.268-13.759-15.324c0.104-6.045-0.042-12.097,0.074-18.148
			c0.049-2.225-0.929-2.788-2.934-2.726c-4.328,0.122-8.661,0.073-12.989,0.171c-14.56,0.3-26.571,12.078-26.729,26.626
			c-0.196,18.777-0.08,37.561-0.092,56.345c-0.006,20.679-0.098,41.357,0.024,62.035c0.024,5.478-0.189,11.192,1.266,16.363
			c3.661,13.099,14.333,20.202,28.031,20.116c20.587-0.122,41.174-0.03,61.767-0.03c0-0.019,0-0.03,0-0.056
			c10.819,0,21.638,0.037,32.458,0.049c-0.349-1.681-0.624-3.398-0.807-5.14C245.738,312.247,245.72,308.524,246.038,304.912z"/>
		<path fill-rule="evenodd" clip-rule="evenodd" fill="#FFFFFF" d="M180.329,169.393c4.737,0.042,8.429-3.588,8.447-8.319
			c0.019-4.878,0-9.749,0-14.615c0,0,0,0-0.006,0c0-4.786,0.024-9.566-0.006-14.346c-0.024-4.829-3.662-8.417-8.392-8.343
			c-4.371,0.061-7.885,3.729-7.892,8.307c-0.018,9.652-0.024,19.303-0.018,28.955C172.462,165.566,176.044,169.362,180.329,169.393z
			"/>
		<path fill-rule="evenodd" clip-rule="evenodd" fill="#FFFFFF" d="M236.875,160.75c-0.006,4.884,3.49,8.6,8.129,8.643
			c4.597,0.049,8.179-3.723,8.172-8.588c-0.006-9.566,0.006-19.125,0.006-28.698c0-4.64-3.576-8.325-8.124-8.35
			c-4.536-0.024-8.136,3.606-8.167,8.301c-0.03,4.786-0.006,9.56-0.012,14.346C236.875,151.184,236.882,155.969,236.875,160.75z"/>
		<path fill-rule="evenodd" clip-rule="evenodd" fill="#FFFFFF" d="M242.646,241.825c-0.018-0.691-1.149-1.925-1.791-1.938
			c-6.204-0.135-12.42-0.062-18.631-0.062c-1.644,0-2.164,0.856-2.151,2.39c0.043,4.774,0.067,9.542-0.019,14.315
			c-0.03,1.779,0.734,2.409,2.409,2.378c2.977-0.042,5.941-0.006,8.912-0.006c0,0,0,0.019,0,0.03c3.063,0,6.131-0.024,9.193,0.013
			c1.388,0.012,2.194-0.416,2.182-1.993C242.701,251.905,242.805,246.855,242.646,241.825z"/>
		<path fill-rule="evenodd" clip-rule="evenodd" fill="#FFFFFF" d="M208.538,242.002c0.019-1.62-0.642-2.262-2.262-2.219
			c-2.971,0.073-5.947,0.018-8.924,0.018c0,0.024,0,0.043,0,0.067c-3.056,0-6.119,0.037-9.187-0.012
			c-1.724-0.031-2.396,0.691-2.377,2.427c0.067,4.688,0.091,9.371-0.006,14.059c-0.043,1.871,0.642,2.567,2.506,2.549
			c6.033-0.05,12.072-0.019,18.111,0.042c1.669,0.013,2.176-0.77,2.152-2.328C208.495,251.74,208.495,246.874,208.538,242.002z"/>
		<path fill-rule="evenodd" clip-rule="evenodd" fill="#FFFFFF" d="M225.867,226.391c5.471,0.019,10.948,0,16.852,0
			c0-6.143,0.049-11.809-0.085-17.469c-0.012-0.557-1.186-1.541-1.833-1.559c-6.119-0.104-12.243,0-18.362-0.037
			c-1.717-0.012-2.426,0.624-2.396,2.372c0.061,3.6-0.006,7.207-0.013,10.807C220.017,226.354,220.023,226.367,225.867,226.391z"/>
		<path fill-rule="evenodd" clip-rule="evenodd" fill="#FFFFFF" d="M206.637,207.4c-6.216-0.116-12.427-0.006-18.643-0.037
			c-1.657-0.006-2.213,0.678-2.194,2.268c0.055,4.865,0.067,9.731,0,14.603c-0.024,1.638,0.599,2.25,2.207,2.213
			c3.068-0.073,6.131-0.019,9.199-0.019c0-0.012,0-0.012,0-0.018c2.971,0,5.947-0.043,8.918,0.012
			c1.632,0.03,2.482-0.422,2.445-2.292c-0.104-4.957,0.024-9.915-0.134-14.865C208.416,208.598,207.272,207.412,206.637,207.4z"/>
		<path fill-rule="evenodd" clip-rule="evenodd" fill="#FFFFFF" d="M274.302,258.958c1.913,0.062,2.77-0.531,2.721-2.604
			c-0.11-4.603-0.104-9.199,0.012-13.79c0.056-2.133-0.758-2.842-2.842-2.806c-5.679,0.085-11.352,0.08-17.029-0.012
			c-1.969-0.024-2.788,0.69-2.77,2.665c0.049,4.682,0.043,9.37-0.037,14.052c-0.03,1.925,0.862,2.531,2.641,2.488
			c2.879-0.079,5.764-0.024,8.655-0.019C268.532,258.934,271.417,258.867,274.302,258.958z"/>
		<path fill-rule="evenodd" clip-rule="evenodd" fill="#FFFFFF" d="M153.929,258.909c5.948-0.085,11.901-0.073,17.854-0.012
			c1.706,0.012,2.482-0.532,2.451-2.329c-0.061-4.872-0.037-9.737,0-14.609c0.006-1.455-0.513-2.151-2.066-2.115
			c-3.075,0.08-6.143,0.024-9.206,0.03c-2.977,0.006-5.954,0.086-8.93-0.036c-1.84-0.067-2.592,0.495-2.555,2.445
			c0.11,4.682,0.092,9.376-0.006,14.071C151.436,258.188,151.998,258.94,153.929,258.909z"/>
		<path fill-rule="evenodd" clip-rule="evenodd" fill="#FFFFFF" d="M256.582,226.41c3.063-0.043,6.125-0.012,9.188-0.012
			c2.971-0.006,5.941-0.049,8.918,0.018c1.503,0.037,2.341-0.299,2.322-2.072c-0.086-4.859-0.079-9.725,0.013-14.584
			c0.036-1.883-0.697-2.519-2.531-2.494c-5.85,0.074-11.699,0.08-17.555-0.006c-1.889-0.019-2.592,0.751-2.567,2.542
			c0.049,4.859,0.073,9.725,0.062,14.584C254.424,225.915,255.14,226.434,256.582,226.41z"/>
		<path fill-rule="evenodd" clip-rule="evenodd" fill="#FFFFFF" d="M242.646,274.19c-0.012-0.611-1.082-1.711-1.687-1.724
			c-6.302-0.116-12.604-0.104-18.912,0.055c-0.667,0.013-1.853,1.198-1.871,1.865c-0.165,4.951-0.061,9.908-0.104,14.859
			c-0.012,1.638,0.728,2.262,2.298,2.249c3.062-0.043,6.125-0.013,9.187-0.013c0,0.013,0,0.025,0,0.031
			c2.971,0,5.947-0.019,8.912,0.018c1.369,0.019,2.28-0.33,2.273-1.931C242.719,284.46,242.786,279.325,242.646,274.19z"/>
		<path fill-rule="evenodd" clip-rule="evenodd" fill="#FFFFFF" d="M171.729,272.442c-5.947,0.073-11.889,0.062-17.83-0.006
			c-1.711-0.019-2.438,0.525-2.408,2.316c0.08,4.774,0.092,9.542-0.006,14.321c-0.037,1.95,0.794,2.476,2.598,2.421
			c2.879-0.104,5.764-0.03,8.649-0.03c0-0.007,0-0.013,0-0.013c2.971,0,5.941-0.079,8.912,0.024c1.84,0.073,2.616-0.563,2.58-2.469
			c-0.067-4.683-0.061-9.371,0.03-14.047C174.29,273.078,173.593,272.418,171.729,272.442z"/>
		<path fill-rule="evenodd" clip-rule="evenodd" fill="#FFFFFF" d="M206.282,272.424c-2.97,0.062-5.941,0.019-8.918,0.019
			c0,0.006,0,0.013,0,0.019c-2.971,0-5.941,0.067-8.912-0.03c-1.956-0.062-2.726,0.636-2.671,2.665
			c0.11,4.59,0.073,9.181,0.006,13.777c-0.031,1.791,0.532,2.628,2.463,2.616c6.033-0.056,12.06-0.031,18.099,0.03
			c1.669,0.019,2.194-0.739,2.182-2.299c-0.042-4.865-0.042-9.725,0.012-14.59C208.568,272.992,207.878,272.388,206.282,272.424z"/>
	</g>
	<g>
		<path fill-rule="evenodd" clip-rule="evenodd" fill="#FFFFFF" d="M254.975,367.669c0-32.47,0-64.945,0-97.415
			c0.935-1.791,2.279-2.945,4.548-3.337c24.407-4.193,48.796-8.46,73.185-12.696c3.961-0.685,6.308,1.119,6.313,4.847
			c0.007,6.449,0,12.897,0,19.353c0,0.477,0,0.966,0,1.559c0.733,0,1.314,0,1.883,0c19.255,0,38.515,0.024,57.775-0.037
			c2.378-0.012,4.132,0.648,5.397,2.488c0,24.352,0,48.704,0,73.062c-1.382,1.883-3.276,2.494-5.722,2.482
			c-19.199-0.056-38.411-0.037-57.61-0.037c-0.562,0-1.118,0-1.724,0c0,0.764,0,1.302,0,1.846c0,6.498,0.024,12.989-0.006,19.48
			c-0.012,3.105-2.555,5.098-5.752,4.542c-24.34-4.229-48.673-8.478-73.02-12.653C257.792,370.731,255.977,369.809,254.975,367.669z
			 M264.4,362.986c21.741,3.777,43.435,7.543,65.189,11.326c0-36.986,0-73.765,0-110.715c-21.773,3.783-43.46,7.562-65.189,11.333
			C264.4,304.325,264.4,333.622,264.4,362.986z M394.92,349.221c0-18.667,0-37.2,0-55.916c-0.563,0.396-0.99,0.672-1.406,0.972
			c-10.697,7.72-21.406,15.446-32.115,23.16c-2.714,1.956-4.267,2.023-7.146,0.324c-4.59-2.708-9.187-5.416-13.771-8.124
			c-0.428-0.25-0.868-0.465-1.345-0.728c0,13.552,0,26.92,0,40.312C357.773,349.221,376.282,349.221,394.92,349.221z
			 M339.021,288.701c0,2.965,0.056,5.795-0.024,8.619c-0.024,0.898,0.349,1.363,1.119,1.821c5.385,3.136,10.758,6.284,16.088,9.499
			c0.96,0.58,1.528,0.465,2.378-0.152c8.68-6.309,17.39-12.567,26.1-18.839c0.349-0.257,0.667-0.551,1.144-0.948
			C370.121,288.701,354.675,288.701,339.021,288.701z"/>
		<path fill-rule="evenodd" clip-rule="evenodd" fill="#FFFFFF" d="M320.348,324.661c-0.245,6.712-2.843,13.833-9.377,19.37
			c-8.704,7.396-21.161,6.95-29.211-1.118c-7.354-7.378-9.396-16.186-7.402-25.855c1.32-6.399,4.608-11.853,10.33-15.807
			c8.789-6.076,20.049-5.05,27.555,2.396C317.523,308.885,320.365,315.805,320.348,324.661z M310.971,324.063
			c0-5.092-1.32-9.12-3.918-12.738c-5.043-7.029-15.024-7.048-20.092-0.043c-5.287,7.286-5.275,16.767,0.013,24.021
			c4.688,6.437,13.142,7.104,18.789,1.382C309.479,332.919,310.818,328.273,310.971,324.063z"/>
	</g>
</g>
</svg>
