<?xml version="1.0" encoding="utf-8"?>
<!-- Generator: Adobe Illustrator 16.0.0, SVG Export Plug-In . SVG Version: 6.00 Build 0)  -->
<!DOCTYPE svg PUBLIC "-//W3C//DTD SVG 1.1//EN" "http://www.w3.org/Graphics/SVG/1.1/DTD/svg11.dtd">
<svg version="1.1" id="Layer_1" xmlns="http://www.w3.org/2000/svg" xmlns:xlink="http://www.w3.org/1999/xlink" x="0px" y="0px"
	 width="512px" height="512px" viewBox="0 0 512 512" enable-background="new 0 0 512 512" xml:space="preserve">
<g>
	<g>
		<linearGradient id="SVGID_1_" gradientUnits="userSpaceOnUse" x1="104.2065" y1="103.8188" x2="420.2797" y2="419.892">
			<stop  offset="0" style="stop-color:#FF00FF"/>
			<stop  offset="1" style="stop-color:#FF006F"/>
		</linearGradient>
		<path fill="url(#SVGID_1_)" d="M484.842,259.455c0,124.261-100.733,225-225,225s-225-100.739-225-225
			c0-124.267,100.733-225,225-225S484.842,135.188,484.842,259.455z"/>
		<linearGradient id="SVGID_2_" gradientUnits="userSpaceOnUse" x1="153.8955" y1="75.9507" x2="365.7886" y2="442.9603">
			<stop  offset="0" style="stop-color:#FF006F"/>
			<stop  offset="0.6601" style="stop-color:#FF007F"/>
			<stop  offset="1" style="stop-color:#FF00FF"/>
		</linearGradient>
		<circle fill="url(#SVGID_2_)" cx="259.842" cy="259.455" r="211.858"/>
	</g>
</g>
<g>
	<path fill-rule="evenodd" clip-rule="evenodd" fill="#FFFFFF" d="M333.063,179.217c-4.297,0-7.646,0-11.332,0
		c0-6.828,0-13.527,0-20.471c-47.268,0-94.181,0-141.406,0c0,71.84,0,143.729,0,215.85c46.962,0,93.881,0,141.149,0
		c0-25.067,0-50.122,0-75.471c3.857,0,7.372,0,11.082,0c0.055,1.101,0.146,2.121,0.146,3.136c0.013,28.258,0.043,56.51-0.036,84.773
		c-0.007,3.466-0.251,7.005-0.979,10.379c-2.519,11.785-10.904,19.23-23.331,19.823c-12.879,0.611-25.801,0.452-38.704,0.482
		c-22.439,0.062-44.884,0.049-67.329-0.024c-3.698-0.006-7.469-0.159-11.088-0.861c-12.94-2.5-20.563-10.874-21.07-24.047
		c-0.55-13.942-0.379-27.903-0.385-41.852c-0.024-69.426-0.024-138.845,0.024-208.265c0-3.82,0.183-7.701,0.886-11.442
		c2.39-12.604,10.617-20.177,23.459-20.855c11.828-0.624,23.705-0.477,35.563-0.508c23.49-0.067,46.98-0.067,70.47,0.031
		c4.047,0.019,8.16,0.281,12.121,1.07c10.954,2.194,18.595,9.291,19.456,20.416C332.983,147.193,332.696,163.11,333.063,179.217z
		 M251.413,140.409c8.71,0,17.427,0.018,26.137-0.006c4.713-0.012,7.628-2.438,7.592-6.234c-0.043-3.784-2.965-6.204-7.714-6.21
		c-17.543-0.019-35.086-0.019-52.629,0.018c-4.615,0.013-7.28,2.329-7.316,6.137c-0.037,4.01,2.616,6.284,7.439,6.29
		C233.754,140.427,242.58,140.409,251.413,140.409z"/>
	<path fill-rule="evenodd" clip-rule="evenodd" fill="#FFFFFF" d="M316.73,189.632c18.717,0,37.438-0.006,56.155,0.006
		c10.514,0.006,16.596,6.082,16.613,16.705c0.05,21.394,0.05,42.787,0.019,64.181c-0.012,10.514-6.18,16.675-16.711,16.688
		c-23.839,0.03-47.672,0.128-71.504-0.104c-4.346-0.049-7.023,1.168-9.267,4.872c-2.946,4.854-6.474,9.364-9.78,13.997
		c-2.476,3.454-4.235,3.466-6.681,0.056c-3.924-5.477-7.702-11.063-11.767-16.442c-0.886-1.162-2.689-2.183-4.145-2.293
		c-10.152-0.727-15.807-6.454-15.831-16.564c-0.042-21.277-0.049-42.549-0.018-63.826c0.018-11.522,5.825-17.243,17.458-17.262
		C279.763,189.614,298.246,189.632,316.73,189.632z M305.02,240.775c0.25-0.019,0.494-0.037,0.739-0.061
		c1.106,4.358,2.194,8.716,3.331,13.068c0.831,3.203,2.127,5.965,6.125,5.984c4.016,0.013,5.287-2.769,6.125-5.972
		c1.069-4.102,2.09-8.221,3.129-12.329c0.287,0.031,0.574,0.043,0.862,0.074c0,4.205-0.099,8.423,0.03,12.634
		c0.116,3.71,1.889,5.617,4.835,5.581c3.014-0.031,4.756-1.877,4.792-5.605c0.086-10.226,0.073-20.458-0.043-30.679
		c-0.012-1.283-0.488-2.891-1.351-3.771c-3.637-3.734-12.255-1.57-13.667,3.344c-1.254,4.346-2.335,8.741-3.521,13.105
		c-0.274,1.008-0.666,1.986-1.332,3.906c-1.516-5.66-2.751-10.245-3.979-14.835c-1.834-6.871-2.86-7.61-9.976-7.09
		c-4.162,0.305-5.715,1.742-5.752,5.843c-0.073,10-0.073,19.994,0.013,29.988c0.036,3.967,1.821,5.862,4.97,5.776
		c2.988-0.086,4.571-1.932,4.645-5.733C305.086,249.596,305.02,245.188,305.02,240.775z M271.62,259.797
		c0.624-0.042,1.785-0.055,2.935-0.177c7.494-0.795,12.476-5.349,13.245-12.097c0.716-6.363-2.671-10.74-10.36-13.19
		c-2.982-0.954-6.112-1.51-9.004-2.659c-1.283-0.514-2.163-2.054-3.227-3.124c1.203-0.954,2.279-2.353,3.643-2.775
		c3.539-1.088,5.69,0.141,8.117,4.126c1.479,2.445,3.282,3.985,6.29,2.653c2.476-1.094,3.918-4.083,2.371-6.76
		c-1.479-2.567-3.747-5.062-6.277-6.559c-4.267-2.524-9.218-2.182-13.93-1.119c-6.168,1.394-9.799,5.508-10.074,10.923
		c-0.263,5.293,2.799,9.444,8.808,11.546c3.172,1.106,6.583,1.589,9.646,2.903c1.528,0.654,2.512,2.549,3.747,3.881
		c-1.437,1.302-2.671,3.294-4.347,3.79c-4.554,1.339-6.724-0.036-9.027-4.712c-1.663-3.393-3.833-4.572-6.553-3.563
		c-2.665,0.99-3.667,3.906-2.384,7.359c0.477,1.29,1.137,2.573,1.962,3.667C260.68,258.514,265.618,259.791,271.62,259.797z
		 M359.628,259.804c1.155-0.056,2.329-0.043,3.478-0.202c4.414-0.617,8.289-2.298,10.898-6.106
		c4.389-6.375,2.244-14.731-4.884-17.817c-4.021-1.742-8.429-2.543-12.549-4.065c-1.191-0.44-1.992-1.932-2.971-2.94
		c1.155-0.979,2.151-2.433,3.484-2.867c3.552-1.167,5.862,0.074,8.16,3.992c1.442,2.451,3.19,4.059,6.223,2.787
		c2.684-1.125,4.102-4.15,2.384-6.95c-1.607-2.616-3.979-5.306-6.662-6.595c-5.459-2.623-11.363-2.237-16.871,0.293
		c-4.535,2.084-6.791,5.807-6.534,10.923c0.238,4.884,2.971,8.032,7.28,9.694c3.875,1.485,8.031,2.28,11.907,3.79
		c1.229,0.483,2.708,2.268,2.701,3.454c-0.006,1.223-1.424,2.916-2.659,3.57c-3.967,2.109-8.178,0.501-10.171-3.521
		c-0.464-0.935-0.733-2.286-1.491-2.683c-1.602-0.837-3.661-1.889-5.171-1.492c-1.296,0.349-3.118,2.787-2.897,3.955
		c0.52,2.824,1.613,5.837,3.386,8.044C349.879,259.046,354.689,259.871,359.628,259.804z"/>
</g>
</svg>
