<?xml version="1.0" encoding="utf-8"?>
<!-- Generator: Adobe Illustrator 16.0.0, SVG Export Plug-In . SVG Version: 6.00 Build 0)  -->
<!DOCTYPE svg PUBLIC "-//W3C//DTD SVG 1.1//EN" "http://www.w3.org/Graphics/SVG/1.1/DTD/svg11.dtd">
<svg version="1.1" id="Layer_1" xmlns="http://www.w3.org/2000/svg" xmlns:xlink="http://www.w3.org/1999/xlink" x="0px" y="0px"
	 width="512px" height="512px" viewBox="0 0 512 512" enable-background="new 0 0 512 512" xml:space="preserve">
<g>
	<g>
		<linearGradient id="SVGID_1_" gradientUnits="userSpaceOnUse" x1="99.5532" y1="99.2798" x2="415.6264" y2="415.3529">
			<stop  offset="0" style="stop-color:#00B5A4"/>
			<stop  offset="1" style="stop-color:#007D7D"/>
		</linearGradient>
		<path fill="url(#SVGID_1_)" d="M480.188,254.916c0,124.261-100.733,225-225,225s-225-100.739-225-225
			c0-124.267,100.733-225,225-225S480.188,130.649,480.188,254.916z"/>
		<linearGradient id="SVGID_2_" gradientUnits="userSpaceOnUse" x1="149.2422" y1="71.4106" x2="361.1353" y2="438.4202">
			<stop  offset="0.1823" style="stop-color:#007D7D"/>
			<stop  offset="1" style="stop-color:#00B5A4"/>
		</linearGradient>
		<circle fill="url(#SVGID_2_)" cx="255.188" cy="254.916" r="211.858"/>
	</g>
</g>
<g>
	<path fill-rule="evenodd" clip-rule="evenodd" fill="#FFFFFF" d="M337.725,182.294c-0.391,2.151-1.154,5.874-1.723,9.633
		c-1.106,7.207-1.406,14.414,1.521,21.308c1.039,2.445,2.329,4.933,4.053,6.926c8.264,9.566,2.108,28.96-8.625,33.19
		c-10.752,4.243-16.687,12.72-18.496,24.108c-1.528,9.597-8.301,14.425-16.418,18.031c-4.328,1.926-8.576,1.382-12.8-0.33
		c-5.159-2.078-10.458-2.939-15.996-2.011c-4.866,0.819-9.603,2.176-13.154,5.709c-5.153,5.116-11.058,6.18-17.744,4.242
		c-3.582-1.045-7.152-2.157-10.624-3.503c-4.382-1.699-7.396-4.847-8.979-9.34c-2.341-6.638-6.767-11.583-12.604-15.391
		c-3.918-2.549-8.368-3.344-12.836-4.064c-4.847-0.789-8.521-3.338-11.155-7.354c-1.467-2.237-2.75-4.621-3.9-7.048
		c-2.591-5.483-1.681-10.96,0.177-16.467c2.188-6.492,2.727-13.173,0.489-19.719c-1.131-3.307-2.793-6.552-4.792-9.419
		c-5.776-8.264-4.438-16.455-0.287-24.712c1.253-2.482,3.441-4.095,5.954-5.238c12.769-5.801,20.318-16.021,23.558-29.267
		c1.882-7.732,6.516-12.286,13.313-15.354c3.992-1.809,8.038-1.455,12.127-0.367c3.044,0.807,6.082,1.724,9.181,2.176
		c8.839,1.29,16.975-0.898,24.322-5.801c7.311-4.877,14.835-4.816,22.714-1.772c4.835,1.871,7.866,5.507,10.177,9.927
		c2.574,4.914,5.502,9.523,10.067,12.922c3.912,2.916,8.313,4.694,12.929,6.069c1.882,0.563,3.789,1.063,5.653,1.687
		C332.396,163.938,337.786,171.56,337.725,182.294z M322.163,215.362c-0.238-36.033-29.939-65.446-67.084-63.955
		c-33.796,1.363-62.182,29.089-61.595,65.275c0.586,36.406,30.281,64.48,66.748,63.233
		C294.98,278.724,322.205,250.283,322.163,215.362z"/>
	<path fill-rule="evenodd" clip-rule="evenodd" fill="#FFFFFF" d="M272.518,324.757c21.729-2.262,40.745-10.323,57.824-23.802
		c9.768,22.714,19.363,45.019,28.96,67.322c-0.109,0.11-0.22,0.221-0.33,0.33c-14.027-6.613-28.05-13.221-42.353-19.963
		c-4.536,15.195-9.034,30.232-13.527,45.275c-0.152,0.03-0.312,0.061-0.465,0.092C292.658,371.077,282.688,348.149,272.518,324.757z
		"/>
	<path fill-rule="evenodd" clip-rule="evenodd" fill="#FFFFFF" d="M219.718,393.804c-4.48-14.988-8.961-29.976-13.496-45.165
		c-14.236,6.718-28.209,13.307-42.188,19.908c-0.146-0.11-0.293-0.208-0.44-0.312c9.572-21.284,19.15-42.567,28.869-64.188
		c8.441,6.467,17.298,11.742,27.029,15.428c9.676,3.674,19.774,5.538,30.281,6.913c-9.915,22.684-19.701,45.074-29.487,67.464
		C220.097,393.834,219.907,393.815,219.718,393.804z"/>
	<path fill-rule="evenodd" clip-rule="evenodd" fill="#FFFFFF" d="M201.827,215.368c0.611-31.748,25.825-56.29,57.31-55.629
		c30.643,0.654,55.514,26.259,54.658,57.91c-0.807,30.061-26.688,54.627-57.237,53.967
		C226.111,270.961,201.252,245.411,201.827,215.368z M286.753,185.937c-12.292,12.402-24.548,24.768-37.004,37.348
		c-4.963-5.049-9.915-10.086-14.737-14.988c-3.771,3.68-7.366,7.188-10.752,10.501c8.692,8.698,17.335,17.353,25.734,25.764
		c15.855-15.868,31.821-31.84,47.659-47.684C294.309,193.528,290.813,190.008,286.753,185.937z"/>
</g>
</svg>
