<?xml version="1.0" encoding="utf-8"?>
<!-- Generator: Adobe Illustrator 16.0.0, SVG Export Plug-In . SVG Version: 6.00 Build 0)  -->
<!DOCTYPE svg PUBLIC "-//W3C//DTD SVG 1.1//EN" "http://www.w3.org/Graphics/SVG/1.1/DTD/svg11.dtd">
<svg version="1.1" id="Layer_1" xmlns="http://www.w3.org/2000/svg" xmlns:xlink="http://www.w3.org/1999/xlink" x="0px" y="0px"
	 width="512px" height="512px" viewBox="0 0 512 512" enable-background="new 0 0 512 512" xml:space="preserve">
<g>
	<g>
		<linearGradient id="SVGID_1_" gradientUnits="userSpaceOnUse" x1="101.1216" y1="100.8657" x2="417.1941" y2="416.9382">
			<stop  offset="0" style="stop-color:#00B100"/>
			<stop  offset="1" style="stop-color:#006700"/>
		</linearGradient>
		<path fill="url(#SVGID_1_)" d="M481.756,256.501c0,124.261-100.733,225-225,225s-225-100.739-225-225
			c0-124.264,100.733-225,225-225S481.756,132.237,481.756,256.501z"/>
		<linearGradient id="SVGID_2_" gradientUnits="userSpaceOnUse" x1="150.8086" y1="72.9971" x2="362.7041" y2="440.0109">
			<stop  offset="0" style="stop-color:#006700"/>
			<stop  offset="1" style="stop-color:#00B100"/>
		</linearGradient>
		<path fill="url(#SVGID_2_)" d="M468.614,256.501c0,117.011-94.854,211.864-211.858,211.864S44.897,373.512,44.897,256.501
			c0-117.005,94.854-211.858,211.858-211.858S468.614,139.496,468.614,256.501z"/>
	</g>
</g>
<g>
	<path fill-rule="evenodd" clip-rule="evenodd" fill="#FFFFFF" d="M298.076,266.274c10.825,1.461,21.388,2.366,31.729,4.401
		c14.077,2.763,23.325,11.613,27.879,25.152c5.716,16.975,7.012,34.523,4.945,52.164c-1.65,14.041-10.141,22.219-24.719,25.679
		c-10.195,2.421-20.593,2.592-30.978,2.592c-38.998-0.037-78.002,0.019-116.993-0.33c-7.237-0.067-14.603-1.271-21.675-2.965
		c-12.781-3.056-20.96-11.369-22.506-24.548c-2.201-18.648-0.979-37.194,5.764-54.944c4.609-12.14,13.509-20.049,26.271-22.58
		c10.617-2.103,21.455-3.136,32.292-4.657c1.608,10.439,8.484,15.525,16.693,18.875c18.215,7.457,36.656,7.445,54.854-0.086
		c3.93-1.619,7.476-4.413,10.831-7.114C295.796,275.235,297.477,271.366,298.076,266.274z"/>
	<path fill-rule="evenodd" clip-rule="evenodd" fill="#FFFFFF" d="M274.329,270.07c-7.365,4.48-15.238,7.018-24.034,5.936
		c-9.829-1.21-18.124-5.795-24.981-12.616c-20.098-20-31.204-44.178-31.106-72.677c0.098-27.916,22.372-52.745,50-56.993
		c32.806-5.049,62.433,15.514,69.004,48.056c2.756,13.597,0.274,26.773-4.133,39.646c-1.662,4.847-3.777,9.554-5.959,14.193
		c-0.563,1.204-2.042,2.258-3.344,2.772c-1.999,0.789-4.188,1.305-6.332,1.445c-1.639,0.11-3.362-0.421-4.988-0.886
		c-1.98-0.562-3.869-1.874-5.831-1.953c-5.813-0.235-11.706-0.553-17.445,0.134c-7.892,0.944-13.655,8.628-13.258,16.5
		c0.416,8.222,6.754,14.945,14.792,15.544c2.506,0.184,5.031,0.024,7.555,0.024C274.286,269.49,274.311,269.783,274.329,270.07z"/>
	<path fill-rule="evenodd" clip-rule="evenodd" fill="#FFFFFF" d="M156.163,216.119c0-4.652,0-9.304,0-13.955
		c0.012-5.642,2.255-10.061,6.919-13.377c0.972-0.697,1.638-2.381,1.742-3.665c1.4-17.43,7.109-33.332,17.989-46.962
		c23.527-29.478,54.382-41.434,91.075-33.151c36.058,8.135,58.516,31.76,67.635,67.695c1.07,4.187,1.21,8.606,2.023,12.87
		c0.244,1.259,1.076,2.698,2.084,3.462c4.065,3.083,6.394,7.063,6.461,12.115c0.129,9.997,0.221,19.997-0.006,29.988
		c-0.251,10.994-11.32,17.763-21.491,13.264c-1.602-0.709-2.604-0.571-3.985,0.352c-10.52,7.005-22.28,10.483-34.719,11.904
		c-2.207,0.25-3.937,0.794-5.685,2.476c-1.56,1.503-4.09,2.444-6.296,2.701c-3.717,0.428-7.513,0.208-11.271,0.104
		c-5.495-0.165-9.31-4.041-9.199-9.19c0.109-4.997,3.979-8.566,9.4-8.616c3.662-0.034,7.354-0.305,10.966,0.104
		c2.219,0.248,4.304,1.602,6.461,2.411c1.18,0.443,2.445,1.22,3.595,1.11c10.861-1.058,21.105-4.089,30.513-9.771
		c1.645-0.993,2.311-1.892,1.761-4.013c-0.568-2.146-0.354-4.514-0.36-6.785c-0.037-8.212,0.067-16.43-0.043-24.639
		c-0.079-5.804,2.042-10.327,6.803-13.719c0.722-0.514,1.18-1.95,1.125-2.919c-1.999-32.06-26.351-60.293-58.258-67.644
		c-43.863-10.104-86.761,19.707-92.555,64.306c-0.416,3.212-0.446,5.828,2.885,8.063c3.496,2.341,4.811,6.394,4.816,10.685
		c0.006,9.899,0.098,19.795-0.03,29.691c-0.104,8.573-6.761,14.887-15.293,14.792c-8.356-0.092-14.841-6.43-15.031-14.841
		c-0.11-4.945-0.018-9.899-0.018-14.847C156.169,216.119,156.169,216.119,156.163,216.119z"/>
</g>
</svg>
