<?xml version="1.0" encoding="utf-8"?>
<!-- Generator: Adobe Illustrator 16.0.0, SVG Export Plug-In . SVG Version: 6.00 Build 0)  -->
<!DOCTYPE svg PUBLIC "-//W3C//DTD SVG 1.1//EN" "http://www.w3.org/Graphics/SVG/1.1/DTD/svg11.dtd">
<svg version="1.1" id="Layer_1" xmlns="http://www.w3.org/2000/svg" xmlns:xlink="http://www.w3.org/1999/xlink" x="0px" y="0px"
	 width="512px" height="512px" viewBox="0 0 512 512" enable-background="new 0 0 512 512" xml:space="preserve">
<g>
	<g>
		<linearGradient id="SVGID_1_" gradientUnits="userSpaceOnUse" x1="100.7695" y1="100.8652" x2="416.842" y2="416.9377">
			<stop  offset="0" style="stop-color:#00B100"/>
			<stop  offset="1" style="stop-color:#006700"/>
		</linearGradient>
		<path fill="url(#SVGID_1_)" d="M481.404,256.501c0,124.261-100.733,225-225,225s-225-100.739-225-225
			c0-124.264,100.733-225,225-225S481.404,132.237,481.404,256.501z"/>
		<linearGradient id="SVGID_2_" gradientUnits="userSpaceOnUse" x1="150.457" y1="72.9971" x2="362.3525" y2="440.0109">
			<stop  offset="0" style="stop-color:#006700"/>
			<stop  offset="1" style="stop-color:#00B100"/>
		</linearGradient>
		<path fill="url(#SVGID_2_)" d="M468.263,256.501c0,117.011-94.854,211.864-211.858,211.864S44.546,373.512,44.546,256.501
			c0-117.005,94.854-211.858,211.858-211.858S468.263,139.496,468.263,256.501z"/>
	</g>
</g>
<g>
	<g>
		<path fill-rule="evenodd" clip-rule="evenodd" fill="#FFFFFF" d="M227.083,262.681c8.508,1.144,16.803,1.853,24.938,3.453
			c11.063,2.177,18.338,9.126,21.92,19.774c4.486,13.35,5.513,27.139,3.875,41.002c-1.29,11.039-7.965,17.47-19.426,20.196
			c-8.007,1.895-16.186,2.029-24.346,2.029c-30.66-0.031-61.32,0.012-91.968-0.257c-5.685-0.056-11.479-1.003-17.036-2.335
			c-10.049-2.396-16.479-8.937-17.701-19.297c-1.724-14.658-0.758-29.23,4.535-43.191c3.625-9.541,10.624-15.752,20.654-17.744
			c8.35-1.65,16.87-2.47,25.385-3.668c1.266,8.21,6.663,12.207,13.117,14.842c14.322,5.855,28.82,5.85,43.13-0.062
			c3.081-1.283,5.874-3.472,8.509-5.599C225.292,269.716,226.612,266.678,227.083,262.681z"/>
		<path fill-rule="evenodd" clip-rule="evenodd" fill="#FFFFFF" d="M208.409,265.664c-5.789,3.514-11.968,5.513-18.894,4.67
			c-7.726-0.954-14.242-4.561-19.633-9.928c-15.801-15.721-24.529-34.725-24.456-57.126c0.08-21.944,17.592-41.461,39.303-44.805
			c25.789-3.967,49.077,12.201,54.248,37.781c2.17,10.691,0.208,21.045-3.246,31.162c-1.308,3.808-2.977,7.512-4.694,11.155
			c-0.434,0.953-1.595,1.772-2.622,2.176c-1.577,0.624-3.301,1.027-4.982,1.143c-1.284,0.085-2.634-0.336-3.918-0.703
			c-1.559-0.44-3.044-1.467-4.584-1.528c-4.566-0.184-9.199-0.44-13.71,0.098c-6.204,0.746-10.739,6.785-10.421,12.971
			c0.324,6.467,5.299,11.748,11.626,12.225c1.968,0.147,3.96,0.024,5.941,0.024C208.373,265.205,208.403,265.438,208.409,265.664z"
			/>
		<path fill-rule="evenodd" clip-rule="evenodd" fill="#FFFFFF" d="M115.524,223.255c0-3.662,0-7.323,0-10.978
			c0.006-4.432,1.766-7.91,5.44-10.514c0.77-0.55,1.284-1.87,1.363-2.885c1.106-13.692,5.593-26.198,14.15-36.907
			c18.49-23.179,42.745-32.573,71.596-26.063c28.337,6.394,45.984,24.969,53.16,53.215c0.837,3.295,0.953,6.767,1.595,10.116
			c0.184,0.99,0.832,2.121,1.633,2.72c3.19,2.42,5.03,5.55,5.085,9.523c0.092,7.861,0.165,15.722-0.006,23.57
			c-0.208,8.643-8.899,13.967-16.901,10.434c-1.259-0.563-2.042-0.446-3.129,0.275c-8.271,5.501-17.513,8.24-27.286,9.352
			c-1.742,0.208-3.105,0.63-4.475,1.95c-1.229,1.18-3.209,1.925-4.945,2.121c-2.922,0.342-5.911,0.171-8.863,0.085
			c-4.321-0.128-7.316-3.178-7.231-7.225c0.085-3.93,3.13-6.736,7.384-6.772c2.879-0.024,5.789-0.245,8.625,0.085
			c1.736,0.196,3.38,1.259,5.079,1.895c0.929,0.342,1.919,0.953,2.83,0.868c8.527-0.831,16.583-3.215,23.973-7.677
			c1.302-0.782,1.822-1.491,1.388-3.154c-0.446-1.687-0.275-3.551-0.281-5.336c-0.024-6.448,0.055-12.916-0.031-19.37
			c-0.067-4.56,1.608-8.118,5.349-10.783c0.563-0.403,0.923-1.528,0.886-2.292c-1.577-25.202-20.715-47.402-45.801-53.172
			c-34.48-7.94-68.203,15.489-72.75,50.55c-0.324,2.519-0.354,4.579,2.268,6.333c2.738,1.84,3.777,5.024,3.784,8.404
			c0.006,7.781,0.073,15.557-0.024,23.337c-0.092,6.736-5.312,11.706-12.017,11.626c-6.577-0.067-11.681-5.055-11.815-11.668
			c-0.092-3.888-0.024-7.775-0.024-11.663C115.524,223.255,115.524,223.255,115.524,223.255z"/>
	</g>
</g>
<g>
	<path fill="#FFFFFF" d="M411.264,248.552H284.803c-3.459,0-6.259-2.803-6.259-6.259V166.04c0-3.457,2.8-6.259,6.259-6.259h126.461
		c3.46,0,6.26,2.803,6.26,6.259v76.253C417.523,245.749,414.724,248.552,411.264,248.552z M291.063,236.033h113.942v-63.734H291.063
		V236.033z"/>
	<path fill="#FFFFFF" d="M367.492,265.651c-1.98,0-3.93-0.941-5.146-2.689l-10.019-14.41h-7.255l-10.251,14.459
		c-1.993,2.824-5.904,3.484-8.723,1.485c-2.824-1.999-3.484-5.908-1.485-8.726l12.121-17.097c1.174-1.656,3.074-2.641,5.104-2.641
		h13.76c2.048,0,3.967,1.002,5.141,2.687l11.889,17.097c1.975,2.836,1.271,6.742-1.564,8.71
		C369.968,265.284,368.727,265.651,367.492,265.651z"/>
</g>
</svg>
