<?xml version="1.0" encoding="utf-8"?>
<!-- Generator: Adobe Illustrator 16.0.0, SVG Export Plug-In . SVG Version: 6.00 Build 0)  -->
<!DOCTYPE svg PUBLIC "-//W3C//DTD SVG 1.1//EN" "http://www.w3.org/Graphics/SVG/1.1/DTD/svg11.dtd">
<svg version="1.1" id="Layer_1" xmlns="http://www.w3.org/2000/svg" xmlns:xlink="http://www.w3.org/1999/xlink" x="0px" y="0px"
	 width="512px" height="512px" viewBox="0 0 512 512" enable-background="new 0 0 512 512" xml:space="preserve">
<g>
	<g>
		<linearGradient id="SVGID_1_" gradientUnits="userSpaceOnUse" x1="103.3848" y1="103.8184" x2="419.4579" y2="419.8915">
			<stop  offset="0" style="stop-color:#FF00FF"/>
			<stop  offset="1" style="stop-color:#FF006F"/>
		</linearGradient>
		<path fill="url(#SVGID_1_)" d="M484.021,259.455c0,124.261-100.733,225-225,225s-225-100.739-225-225
			c0-124.267,100.733-225,225-225S484.021,135.188,484.021,259.455z"/>
		<linearGradient id="SVGID_2_" gradientUnits="userSpaceOnUse" x1="153.0742" y1="75.9502" x2="364.9678" y2="442.9606">
			<stop  offset="0" style="stop-color:#FF006F"/>
			<stop  offset="0.6601" style="stop-color:#FF007F"/>
			<stop  offset="1" style="stop-color:#FF00FF"/>
		</linearGradient>
		<circle fill="url(#SVGID_2_)" cx="259.021" cy="259.455" r="211.858"/>
	</g>
</g>
<g>
	<path fill-rule="evenodd" clip-rule="evenodd" fill="#FFFFFF" d="M219.962,328.294c-0.031,0-0.055,0-0.086,0
		c0,19.352,0,38.704,0,58.062c0,4.658,0.465,5.123,5.202,5.129c13.074,0,26.149,0,39.224,0c6.204,0,6.283-0.067,6.277-6.375
		c-0.019-38.362-0.043-76.724-0.055-115.092c-0.007-3.76,0.189-3.888,3.942-3.869c9.205,0.043,18.404,0.043,27.61,0.055
		c3.435,0.006,4.126-0.647,4.694-4.07c1.791-10.765,3.588-21.529,5.422-32.287c0.983-5.782,0.61-6.143-5.3-6.063
		c-11.18,0.141-22.359,0.122-33.539,0.263c-2.146,0.024-2.886-0.77-2.86-2.861c0.098-7.83-0.043-15.66,0.146-23.484
		c0.214-8.765,6.124-14.584,14.944-14.743c7.824-0.147,15.654-0.019,23.484-0.031c3.466-0.006,4.004-0.556,4.004-4.083
		c0.012-11.1,0.012-22.194,0.006-33.289c0-4.596-0.397-4.976-4.987-4.939c-9.634,0.086-19.261,0.135-28.895,0.257
		c-8.11,0.104-16.131,0.966-23.954,3.209c-11.29,3.246-20.74,9.059-27.036,19.315c-5.275,8.601-7.359,18.13-7.769,28.02
		c-0.409,9.701-0.312,19.426-0.446,29.138c-0.042,3.105-0.36,3.459-3.398,3.448c-6.699-0.024-13.404-0.08-20.104-0.147
		c-3.454-0.031-4.047,0.507-4.047,3.979c-0.006,11.528-0.012,23.057,0,34.585c0.006,3.35,0.41,3.765,3.686,3.771
		c6.797,0.012,13.594,0,20.385-0.031c3.172-0.012,3.447,0.232,3.447,3.295C219.962,289.07,219.962,308.679,219.962,328.294z"/>
</g>
</svg>
