<?xml version="1.0" encoding="utf-8"?>
<!-- Generator: Adobe Illustrator 16.0.0, SVG Export Plug-In . SVG Version: 6.00 Build 0)  -->
<!DOCTYPE svg PUBLIC "-//W3C//DTD SVG 1.1//EN" "http://www.w3.org/Graphics/SVG/1.1/DTD/svg11.dtd">
<svg version="1.1" id="Layer_1" xmlns="http://www.w3.org/2000/svg" xmlns:xlink="http://www.w3.org/1999/xlink" x="0px" y="0px"
	 width="512px" height="512px" viewBox="0 0 512 512" enable-background="new 0 0 512 512" xml:space="preserve">
<g>
	<g>
		<linearGradient id="SVGID_1_" gradientUnits="userSpaceOnUse" x1="101.2065" y1="100.6938" x2="417.2797" y2="416.767">
			<stop  offset="0" style="stop-color:#DC00FF"/>
			<stop  offset="1" style="stop-color:#9A00FF"/>
		</linearGradient>
		<path fill="url(#SVGID_1_)" d="M481.842,256.33c0,124.261-100.733,225-225,225s-225-100.739-225-225
			c0-124.267,100.733-225,225-225S481.842,132.063,481.842,256.33z"/>
		<linearGradient id="SVGID_2_" gradientUnits="userSpaceOnUse" x1="150.8955" y1="72.8252" x2="362.7886" y2="439.8348">
			<stop  offset="0" style="stop-color:#9A00FF"/>
			<stop  offset="1" style="stop-color:#DC00FF"/>
		</linearGradient>
		<circle fill="url(#SVGID_2_)" cx="256.842" cy="256.33" r="211.858"/>
	</g>
</g>
<g>
	<path fill-rule="evenodd" clip-rule="evenodd" fill="#FFFFFF" d="M377.086,360.059c-2.365,0-4.217,0-6.069,0
		c-42.054,0-84.107,0.067-126.167-0.135c-3.129-0.012-6.602-1.338-9.315-3.02c-16.161-9.993-26.901-23.826-29.376-43.196
		c-0.116-0.917-0.128-1.847-0.245-3.515c11.381,0,22.494,0,35.428,0c-8.766-8.002-16.229-14.811-24.707-22.543
		c8.606-6.198,15.128-10.893,21.938-15.795c13.081,13.1,28.16,20.471,46.522,20.508c18.282,0.036,32.854-8.087,45.489-20.141
		C364.231,291.758,378.162,321.422,377.086,360.059z"/>
	<path fill-rule="evenodd" clip-rule="evenodd" fill="#FFFFFF" d="M284.458,279.271c-30.189,0.263-54.627-23.992-54.816-54.42
		c-0.196-30.599,23.729-55.348,53.729-55.574c31.198-0.238,56.015,23.435,56.234,53.649
		C339.837,255.089,316.444,278.995,284.458,279.271z"/>
	<path fill-rule="evenodd" clip-rule="evenodd" fill="#FFFFFF" d="M208.676,135.902c18.557,0.189,34.56,11.271,41.076,28.343
		c1.467,3.839,1.106,5.935-2.922,8.099c-16.833,9.04-25.581,23.845-28.374,42.341c-1.265,8.375-1.296,8.717-9.835,8.283
		c-22.476-1.125-41.167-17.916-42.75-38.398c-1.846-23.9,12.359-43.154,35.446-47.922
		C203.718,136.153,206.218,136.141,208.676,135.902z"/>
	<path fill-rule="evenodd" clip-rule="evenodd" fill="#FFFFFF" d="M215.998,301.996c-8.129,0-14.657,0-21.552,0
		c-0.593,23.423,7.005,42.342,25.306,56.907c-24.658-1.467-48.655-22.292-55.844-47.995c-2.347-8.393-2.347-8.423-11.155-8.704
		c-3.374-0.104-6.748-0.019-11.87-0.019c13.209-12.665,25.165-24.132,37.537-35.99C190.717,277.913,202.734,289.361,215.998,301.996
		z"/>
	<path fill-rule="evenodd" clip-rule="evenodd" fill="#FFFFFF" d="M173.07,217.223c13.215,13.282,28.82,18.355,47.854,14.768
		c1.149,5.269,2.408,10.336,3.271,15.464c0.195,1.162-0.648,2.983-1.608,3.784c-6.559,5.446-13.27,10.703-19.933,16.021
		c-6.223-6.437-12.793-13.227-20.092-20.782c-7.714,7.83-15.122,14.145-21.002,21.656c-6.522,8.325-14.859,5.679-22.873,5.673
		c-0.751,0-2.371-2.824-2.115-4.022C141.347,247.455,152.203,229.233,173.07,217.223z"/>
</g>
</svg>
