<?xml version="1.0" encoding="utf-8"?>
<!-- Generator: Adobe Illustrator 16.0.0, SVG Export Plug-In . SVG Version: 6.00 Build 0)  -->
<!DOCTYPE svg PUBLIC "-//W3C//DTD SVG 1.1//EN" "http://www.w3.org/Graphics/SVG/1.1/DTD/svg11.dtd">
<svg version="1.1" id="Layer_1" xmlns="http://www.w3.org/2000/svg" xmlns:xlink="http://www.w3.org/1999/xlink" x="0px" y="0px"
	 width="512px" height="512px" viewBox="0 0 512 512" enable-background="new 0 0 512 512" xml:space="preserve">
<g>
	<g>
		<linearGradient id="SVGID_1_" gradientUnits="userSpaceOnUse" x1="103.5337" y1="103.8188" x2="419.6068" y2="419.892">
			<stop  offset="0" style="stop-color:#FF00FF"/>
			<stop  offset="1" style="stop-color:#FF006F"/>
		</linearGradient>
		<path fill="url(#SVGID_1_)" d="M484.169,259.455c0,124.261-100.733,225-225,225s-225-100.739-225-225
			c0-124.267,100.733-225,225-225S484.169,135.188,484.169,259.455z"/>
		<linearGradient id="SVGID_2_" gradientUnits="userSpaceOnUse" x1="153.2217" y1="75.9492" x2="365.1157" y2="442.9605">
			<stop  offset="0" style="stop-color:#FF006F"/>
			<stop  offset="0.6601" style="stop-color:#FF007F"/>
			<stop  offset="1" style="stop-color:#FF00FF"/>
		</linearGradient>
		<circle fill="url(#SVGID_2_)" cx="259.169" cy="259.455" r="211.858"/>
	</g>
</g>
<g>
	<path fill-rule="evenodd" clip-rule="evenodd" fill="#FFFFFF" d="M192.042,388.172c0-3.105,0-6.003,0-9.169
		c10.538,0,20.917,0,31.497,0c0-10.667,0-21.039,0-31.742c-1.051-0.043-2.133-0.135-3.209-0.135
		c-27.311-0.006-54.615-0.22-81.919,0.104c-9.774,0.122-19.395-8.252-21.84-15.813c-0.514-1.613-0.801-3.368-0.801-5.067
		c-0.037-55.978-0.031-111.98-0.049-167.964c0-3.949,1.455-7.225,4.132-9.981c3.979-4.108,8.875-6.479,14.554-7.079
		c2.562-0.269,5.159-0.208,7.745-0.208c78.386-0.006,156.766-0.006,235.153-0.006c1.467,0,2.928-0.018,4.395,0.019
		c7.813,0.184,12.061,3.979,13.075,11.772c0.263,2.048,0.391,4.126,0.391,6.18c0.024,55.557,0.073,111.119-0.085,166.675
		c-0.019,4.548-0.979,9.255-2.396,13.601c-1.736,5.336-5.838,7.842-11.718,7.812c-28.942-0.11-57.885-0.049-86.821-0.049
		c-1.112,0-2.225,0-3.545,0c0,10.647,0,21.082,0,31.772c10.366,0,20.672,0,31.229,0c0,3.185,0,6.125,0,9.279
		C278.655,388.172,235.458,388.172,192.042,388.172z M138.136,163.397c0,42.323,0,84.462,0,126.528c78.38,0,156.522,0,234.67,0
		c0-42.292,0-84.364,0-126.528C294.438,163.397,216.284,163.397,138.136,163.397z"/>
	<path fill-rule="evenodd" clip-rule="evenodd" fill="#FFFFFF" d="M332.207,219.681c7.017,0,13.771,0,20.685,0
		c0,21.443,0,42.732,0,64.249c-6.896,0-13.704,0-20.685,0C332.207,262.535,332.207,241.246,332.207,219.681z"/>
	<path fill-rule="evenodd" clip-rule="evenodd" fill="#FFFFFF" d="M325.984,239.461c0,14.848,0,29.529,0,44.383
		c-0.63,0.116-1.198,0.287-1.754,0.287c-5.673,0.024-11.352,0-17.029,0.031c-1.395,0.006-2.237-0.184-2.231-1.938
		c0.067-13.93,0.049-27.866,0.062-41.803c0-0.245,0.085-0.501,0.177-0.96C312.012,239.461,318.852,239.461,325.984,239.461z"/>
	<path fill-rule="evenodd" clip-rule="evenodd" fill="#FFFFFF" d="M285.557,232.23c-2.47-2.323-4.518-4.254-6.437-6.07
		c8.692-8.637,17.273-17.176,26.052-25.929c2.769,2.598,5.758,5.409,8.997,8.472c8.509-8.203,16.956-16.369,25.587-24.694
		c-1.119-1.29-2.158-2.476-3.423-3.937c5.642-0.966,10.953-1.889,16.767-2.897c-1.076,5.728-2.091,11.052-3.197,16.877
		c-1.356-1.278-2.384-2.237-3.723-3.484c-10.623,10.422-21.223,20.801-31.992,31.369c-3.24-3.068-6.333-6.008-9.554-9.064
		C298.179,219.424,291.846,225.836,285.557,232.23z"/>
	<path fill-rule="evenodd" clip-rule="evenodd" fill="#FFFFFF" d="M298.582,283.99c-6.877,0-13.545,0-20.385,0
		c0-10.085,0-20.018,0-30.116c6.791,0,13.478,0,20.385,0C298.582,263.874,298.582,273.789,298.582,283.99z"/>
	<path fill-rule="evenodd" clip-rule="evenodd" fill="#FFFFFF" d="M161.804,281.796c2.848-0.898,5.495-1.742,8.227-2.61
		c-2.219-1.674-4.028-3.043-6.253-4.73c1.235-0.544,1.73-0.758,1.815-0.795c-1.375-1.889-2.775-3.796-4.175-5.703
		c0.195-0.195,0.385-0.396,0.581-0.586c0.636,0,1.253,0,2.109,0c-1.956-2.58-3.001-5.074-1.32-8.308
		c3.863,3.771,8.142,6.425,13.716,6.675c0.08-0.727,0.141-1.387,0.214-2.047c0.458-4.585,5.153-7.562,9.261-5.496
		c2.072,1.04,3.838,1.528,6.222,0.728c-0.458,0.728-0.923,1.455-1.491,2.354c0.66,0,1.247,0,1.956,0
		c-0.091,0.367-0.079,0.673-0.226,0.789c-1.711,1.362-2.145,3.129-2.451,5.293c-1.999,13.814-15.031,19.872-26.865,15.159
		C162.678,282.334,162.256,282.053,161.804,281.796z"/>
	<path fill-rule="evenodd" clip-rule="evenodd" fill="#FFFFFF" d="M180.813,191.313c-2.286,0-4.334,0-6.639,0
		c-0.067-1.37-0.122-2.524-0.201-4.114c3.734,0,7.304-0.049,10.874,0.08c0.36,0.012,0.978,1.07,1.002,1.65
		c0.3,6.76-4.59,12.066-11.229,12.292c-6.986,0.244-12.659-4.798-13.025-11.571c-0.361-6.833,4.627-12.714,11.112-13.172
		c3.411-0.232,6.449,0.605,9.114,2.775c-1.589,3.172-2.121,3.398-5.177,2.292c-4.15-1.498-8.301,0.379-9.89,4.487
		c-1.546,3.985,0.367,8.417,4.328,10.042c3.845,1.583,7.867,0.067,9.548-3.612C180.734,192.254,180.722,191.985,180.813,191.313z"/>
	<path fill-rule="evenodd" clip-rule="evenodd" fill="#FFFFFF" d="M239.028,270.391c-1.632,0.092-2.812,0.158-4.254,0.238
		c0,4.376,0,8.648,0,13.104c-2.011,0-3.771,0-5.917,0c0-4.267,0-8.594,0-12.964c-1.204-0.172-2.029-0.275-3.026-0.428
		c0-1.357,0-2.678,0-4.114c0.911-0.146,1.736-0.281,2.042-0.324c0.966-2.683,1.174-5.983,2.873-7.212
		c2.005-1.443,5.312-1.095,8.35-1.565c0,1.883,0,3.185,0,4.48c-4.633,0.893-4.633,0.893-4.083,4.242
		c1.271,0.086,2.616,0.177,4.224,0.281C239.169,267.578,239.096,268.898,239.028,270.391z"/>
	<path fill-rule="evenodd" clip-rule="evenodd" fill="#FFFFFF" d="M189.273,241.558c-1.785,0-3.129,0-4.902,0
		c0-2.042,0.019-3.979-0.006-5.917c-0.03-1.204-0.042-2.414-0.195-3.606c-0.208-1.546-1.125-2.799-2.72-2.365
		c-1.094,0.293-2.542,1.381-2.769,2.359c-0.477,2.048-0.269,4.267-0.317,6.406c-0.024,0.935-0.006,1.871-0.006,3.007
		c-1.595,0-3.001,0-4.597,0c0-5.202,0-10.403,0-15.587c2.983-0.751,3.802-0.629,4.994,0.893c0.709-0.422,1.4-0.917,2.158-1.265
		c3.667-1.699,7.806,0.354,8.197,4.248c0.287,2.897,0.134,5.837,0.165,8.759C189.291,239.418,189.273,240.348,189.273,241.558z"/>
	<path fill-rule="evenodd" clip-rule="evenodd" fill="#FFFFFF" d="M246.754,186.937c0,4.621,0,9.248,0,14.053
		c-9.92,0-19.847,0-29.957,0c0-7.194,0-14.303,0-21.62c7.115,0,14.23,0,21.345,0c0.006,0.312,0.012,0.611,0.018,0.917
		c-1.858,0.08-3.716,0.189-5.593,0.227c-2.151,0.03-4.303,0.006-6.455,0.006c-2.054,0-4.108,0-6.98,0
		c4.285,4.792,8.124,9.095,12.146,13.594c2.946-2.934,5.794-5.764,8.643-8.6c0.275,0.269,0.544,0.538,0.801,0.807
		c-3.075,3.179-6.155,6.351-9.395,9.688c-4.352-4.835-8.533-9.487-13.099-14.56c0,6.326,0,12.139,0,18.178
		c8.998,0,18.056,0,27.702,0c0-4.236,0-8.484,0-12.726C246.21,186.912,246.479,186.918,246.754,186.937z"/>
	<path fill-rule="evenodd" clip-rule="evenodd" fill="#FFFFFF" d="M220.141,230.574c0-1.632-0.079-3.276,0.006-4.909
		c0.238-3.955,3.38-7.17,7.329-7.341c3.35-0.146,6.712-0.146,10.067,0c3.931,0.171,7.14,3.374,7.329,7.341
		c0.165,3.271,0.159,6.547,0.018,9.805c-0.177,4.156-3.454,7.372-7.732,7.561c-3.093,0.141-6.198,0.141-9.285,0
		c-4.486-0.202-7.634-3.57-7.75-8.068c-0.031-1.461-0.006-2.928-0.006-4.389C220.123,230.574,220.135,230.574,220.141,230.574z
		 M222.176,230.562c0,1.369-0.024,2.75,0.012,4.126c0.092,3.594,2.316,6.088,5.856,6.271c3.013,0.152,6.039,0.152,9.028-0.006
		c3.209-0.177,5.581-2.476,5.74-5.593c0.165-3.185,0.171-6.375-0.012-9.547c-0.184-3.154-2.646-5.318-5.825-5.453
		c-1.541-0.079-3.105,0.055-4.646-0.036C223.784,219.81,221.657,222.047,222.176,230.562z"/>
	<path fill-rule="evenodd" clip-rule="evenodd" fill="#FFFFFF" d="M170.208,241.49c-0.923,0.086-1.424,0.147-1.919,0.159
		c-0.85,0.019-1.711,0.006-2.805,0.006c0-5.397,0-10.629,0-15.984c0.379-0.073,0.696-0.183,1.021-0.196
		c3.698-0.171,3.698-0.165,3.704,3.46C170.208,233.037,170.208,237.145,170.208,241.49z"/>
	<path fill-rule="evenodd" clip-rule="evenodd" fill="#FFFFFF" d="M193.594,183.404c1.07,0,2.048,0,3.167,0
		c0.104,1.1,0.189,2.096,0.299,3.24c1.088,0.116,2.079,0.214,3.24,0.33c0,1.045,0,2.029,0,3.209c-0.947,0.11-1.938,0.22-3.172,0.36
		c-0.123,1.015-0.257,2.066-0.403,3.264c-1.07,0-2.048,0-3.167,0c-0.11-1.113-0.202-2.109-0.312-3.252
		c-1.058-0.104-2.06-0.208-3.24-0.33c0-1.021,0-1.999,0-3.178c0.978-0.11,1.962-0.238,3.167-0.385
		C193.301,185.653,193.441,184.589,193.594,183.404z"/>
	<path fill-rule="evenodd" clip-rule="evenodd" fill="#FFFFFF" d="M248.539,181.087c-0.018,2.555-2.096,4.572-4.621,4.475
		c-2.445-0.086-4.297-2.054-4.285-4.523c0.012-2.481,1.9-4.425,4.346-4.48C246.485,176.497,248.552,178.55,248.539,181.087z
		 M244.206,177.371c-0.495,1.51-0.752,2.311-0.984,3.026c-0.819,0.165-1.504,0.306-2.188,0.452
		c-0.006,0.141-0.006,0.269-0.012,0.416c0.764,0.19,1.534,0.391,2.268,0.575c0.232,0.789,0.453,1.522,0.667,2.268
		c0.122-0.024,0.25-0.042,0.379-0.073c0.122-0.733,0.238-1.467,0.354-2.146c0.862-0.25,1.602-0.471,2.329-0.678
		c-0.024-0.141-0.037-0.281-0.067-0.416c-0.703-0.141-1.431-0.27-2.25-0.416C244.572,179.62,244.456,178.88,244.206,177.371z"/>
	<path fill-rule="evenodd" clip-rule="evenodd" fill="#FFFFFF" d="M167.684,217.279c1.828,0.153,2.885,1.088,2.891,2.934
		c0,1.852-1.07,2.903-2.885,2.897c-1.791-0.006-2.854-1.002-2.848-2.897C164.848,218.324,165.899,217.438,167.684,217.279z"/>
	<path fill-rule="evenodd" clip-rule="evenodd" fill="#FFFFFF" d="M232.745,224.516c3.337,0.11,6.009,2.916,5.948,6.229
		c-0.08,3.399-3.063,6.216-6.418,6.064c-3.325-0.159-5.959-2.965-5.911-6.29C226.418,227.071,229.254,224.406,232.745,224.516z
		 M232.439,226.594c-2.219,0.043-4.071,1.968-3.998,4.169c0.086,2.09,1.919,3.894,4.016,3.924c2.182,0.03,4.138-1.889,4.12-4.065
		C236.571,228.422,234.64,226.552,232.439,226.594z"/>
	<path fill-rule="evenodd" clip-rule="evenodd" fill="#FFFFFF" d="M239.945,223.129c-1.058,0.721-1.663,1.43-2.164,1.369
		c-0.544-0.08-0.978-0.887-1.455-1.375c0.446-0.428,0.88-1.204,1.345-1.216C238.24,221.875,238.833,222.493,239.945,223.129z"/>
</g>
</svg>
