<?xml version="1.0" encoding="utf-8"?>
<!-- Generator: Adobe Illustrator 16.0.0, SVG Export Plug-In . SVG Version: 6.00 Build 0)  -->
<!DOCTYPE svg PUBLIC "-//W3C//DTD SVG 1.1//EN" "http://www.w3.org/Graphics/SVG/1.1/DTD/svg11.dtd">
<svg version="1.1" id="Layer_1" xmlns="http://www.w3.org/2000/svg" xmlns:xlink="http://www.w3.org/1999/xlink" x="0px" y="0px"
	 width="609.945px" height="328.68px" viewBox="0 0 609.945 328.68" enable-background="new 0 0 609.945 328.68"
	 xml:space="preserve">
<rect fill="#333740" width="609.945" height="328.68"/>
<path fill="#EC6337" d="M182.082,185.775c-1.305,0-2.458,0.638-3.173,1.614l-38.511-14.715c0.789-2.006,1.227-4.188,1.227-6.475
	c0-1.482-0.184-2.919-0.527-4.295c2.214-0.581,6.445-1.714,14.563-3.91c1.364,3.663,4.882,6.278,9.02,6.278
	c5.32,0,9.632-4.313,9.632-9.633s-4.312-9.632-9.632-9.632s-9.633,4.312-9.633,9.632c0,0.494,0.049,0.975,0.121,1.449
	c-5.563,1.503-11.553,3.116-14.652,3.937c-2.19-5.889-7.423-10.295-13.788-11.313l0.2-35.133c4.661-1.203,8.108-5.422,8.108-10.458
	c0-5.972-4.841-10.813-10.813-10.813s-10.813,4.841-10.813,10.813c0,5.094,3.527,9.354,8.27,10.5l-0.199,35.037
	c-4.427,0.608-8.33,2.85-11.084,6.1c-7.984-6.061-12.4-9.388-14.901-11.209c0.158-0.494,0.245-1.02,0.245-1.566
	c0-2.837-2.3-5.138-5.137-5.138c-2.836,0-5.137,2.3-5.137,5.138c0,2.837,2.301,5.137,5.137,5.137c1.095,0,2.108-0.346,2.942-0.929
	c3.483,2.573,9.908,7.419,14.971,11.258c-1.47,2.582-2.314,5.566-2.314,8.75c0,1.91,0.306,3.747,0.865,5.472l-36.918,13.644
	c-1.33-2.251-3.774-3.766-6.58-3.766c-4.221,0-7.644,3.422-7.644,7.644s3.422,7.645,7.644,7.645c4.222,0,7.645-3.423,7.645-7.645
	c0-0.486-0.05-0.961-0.138-1.423l36.986-13.669c1.612,3.226,4.176,5.893,7.329,7.626l-5.036,14.321
	c-0.201-0.024-0.403-0.04-0.61-0.04c-2.837,0-5.138,2.301-5.138,5.138s2.3,5.137,5.138,5.137c2.837,0,5.137-2.3,5.137-5.137
	c0-1.693-0.823-3.191-2.087-4.127l4.993-14.197c1.91,0.704,3.973,1.089,6.126,1.089c1.517,0,2.989-0.191,4.395-0.551l11.982,32.713
	c-2.95,1.944-4.901,5.284-4.901,9.082c0,6.007,4.87,10.875,10.875,10.875c6.007,0,10.875-4.868,10.875-10.875
	s-4.869-10.875-10.875-10.875c-0.575,0-1.137,0.058-1.689,0.144l-12.004-32.774c2.777-1.56,5.09-3.846,6.683-6.602l38.901,14.863
	c0.104,2.08,1.82,3.736,3.926,3.736c2.174,0,3.936-1.763,3.936-3.936C186.017,187.538,184.255,185.775,182.082,185.775"/>
<path fill="#FFFFFF" d="M209.192,165.113c-3.665,0-6.948-0.79-9.848-2.371c-2.901-1.581-5.191-3.88-6.871-6.898
	c-1.679-3.017-2.519-6.51-2.519-10.48c0-4.005,0.853-7.531,2.559-10.575c1.707-3.045,4.033-5.361,6.979-6.951
	c2.946-1.59,6.287-2.385,10.023-2.385c3.682,0,6.986,0.781,9.916,2.344c2.927,1.563,5.227,3.799,6.897,6.709l-6.17,3.287
	c-1.061-2.047-2.516-3.588-4.365-4.621c-1.85-1.032-3.943-1.55-6.278-1.55c-3.665,0-6.673,1.205-9.026,3.611
	c-2.353,2.408-3.53,5.73-3.53,9.97c0,4.221,1.172,7.566,3.517,10.036c2.344,2.47,5.438,3.705,9.283,3.705
	c2.927,0,5.433-0.782,7.517-2.344c2.083-1.563,3.368-3.854,3.852-6.87h-11.369v-5.712h18.051v20.558h-5.578v-5.981
	c-1.275,2.084-3.013,3.691-5.213,4.823C214.818,164.548,212.209,165.113,209.192,165.113"/>
<rect x="236.729" y="125.964" fill="#FFFFFF" width="7.005" height="38.61"/>
<path fill="#FFFFFF" d="M271,165.113c-3.665,0-6.947-0.79-9.848-2.371c-2.901-1.581-5.191-3.88-6.871-6.898
	c-1.679-3.017-2.519-6.51-2.519-10.48c0-4.005,0.853-7.531,2.559-10.575c1.707-3.045,4.033-5.361,6.979-6.951
	c2.946-1.59,6.288-2.385,10.024-2.385c3.681,0,6.987,0.781,9.915,2.344s5.227,3.799,6.897,6.709l-6.17,3.287
	c-1.061-2.047-2.515-3.588-4.365-4.621c-1.851-1.032-3.944-1.55-6.277-1.55c-3.666,0-6.674,1.205-9.027,3.611
	c-2.353,2.408-3.53,5.73-3.53,9.97c0,4.221,1.172,7.566,3.516,10.036c2.344,2.47,5.438,3.705,9.282,3.705
	c2.928,0,5.434-0.782,7.518-2.344c2.083-1.563,3.368-3.854,3.853-6.87h-11.371v-5.712h18.052v20.558h-5.577v-5.981
	c-1.276,2.084-3.014,3.691-5.213,4.823C276.627,164.548,274.018,165.113,271,165.113"/>
<path fill="#FFFFFF" d="M324.053,164.575l-2.964-8.381h-16.651l-2.963,8.381h-7.195l14.226-38.611h8.514l14.2,38.611H324.053z
	 M306.54,150.267h12.447l-6.224-17.594L306.54,150.267z"/>
<path fill="#FFFFFF" d="M350.487,165.113c-4.168,0-7.666-0.961-10.495-2.883c-2.829-1.921-4.54-4.589-5.133-8.002l7.194-1.671
	c0.323,2.156,1.27,3.822,2.843,4.999c1.571,1.177,3.524,1.765,5.859,1.765c1.958,0,3.57-0.44,4.837-1.321
	c1.266-0.88,1.891-2.218,1.872-4.015c0-0.539-0.094-1.046-0.283-1.522c-0.188-0.476-0.417-0.89-0.686-1.239
	c-0.271-0.351-0.661-0.691-1.173-1.024c-0.512-0.332-0.979-0.61-1.401-0.835c-0.422-0.224-1.002-0.462-1.737-0.714
	c-0.737-0.251-1.356-0.453-1.859-0.606c-0.503-0.151-1.177-0.354-2.021-0.606c-0.162-0.053-0.288-0.089-0.378-0.107
	c-1.023-0.305-1.858-0.561-2.505-0.768c-0.647-0.206-1.429-0.498-2.346-0.875c-0.915-0.377-1.666-0.746-2.249-1.105
	c-0.584-0.359-1.203-0.817-1.859-1.375c-0.655-0.557-1.168-1.145-1.535-1.764c-0.368-0.62-0.679-1.352-0.931-2.196
	c-0.251-0.844-0.377-1.76-0.377-2.748c0-2.317,0.598-4.324,1.792-6.021c1.195-1.697,2.789-2.959,4.783-3.786
	c1.994-0.826,4.257-1.24,6.789-1.24c1.743,0,3.399,0.189,4.972,0.565c1.571,0.377,3.034,0.948,4.392,1.711
	c1.356,0.764,2.515,1.796,3.477,3.099c0.959,1.303,1.62,2.807,1.979,4.513l-6.735,1.67c-0.396-1.939-1.271-3.39-2.628-4.351
	c-1.356-0.961-3.049-1.441-5.078-1.441c-1.904,0-3.494,0.427-4.77,1.28c-1.276,0.853-1.913,2.142-1.913,3.866
	c0,0.646,0.152,1.23,0.459,1.751c0.304,0.522,0.696,0.957,1.172,1.307c0.475,0.351,1.104,0.692,1.885,1.024s1.527,0.611,2.237,0.835
	c0.709,0.225,1.584,0.481,2.626,0.768c0.091,0.018,0.162,0.036,0.217,0.054c1.563,0.449,2.792,0.826,3.69,1.131
	c0.898,0.306,2.017,0.791,3.354,1.455s2.371,1.36,3.099,2.088c0.728,0.728,1.37,1.688,1.927,2.883
	c0.557,1.195,0.836,2.529,0.836,4.001c0,1.94-0.387,3.661-1.159,5.159c-0.771,1.501-1.828,2.7-3.166,3.597
	c-1.338,0.899-2.839,1.573-4.499,2.021C354.199,164.889,352.408,165.113,350.487,165.113"/>
<path fill="#FFFFFF" d="M389.581,165.113c-3.736,0-7.077-0.799-10.023-2.397s-5.271-3.917-6.978-6.952
	c-1.707-3.036-2.56-6.539-2.56-10.509c0-3.969,0.853-7.467,2.56-10.494c1.706-3.026,4.031-5.335,6.978-6.924
	c2.946-1.59,6.287-2.385,10.023-2.385c3.719,0,7.051,0.795,9.995,2.385c2.947,1.589,5.272,3.898,6.98,6.924
	c1.706,3.026,2.559,6.524,2.559,10.494c0,3.97-0.853,7.473-2.559,10.509c-1.708,3.035-4.033,5.353-6.98,6.952
	C396.632,164.314,393.3,165.113,389.581,165.113 M380.542,155.036c2.38,2.407,5.393,3.61,9.039,3.61s6.655-1.203,9.026-3.61
	c2.371-2.407,3.557-5.667,3.557-9.781c0-4.077-1.19-7.319-3.57-9.726c-2.379-2.407-5.385-3.61-9.013-3.61
	c-1.778,0-3.435,0.306-4.971,0.916c-1.536,0.611-2.869,1.478-4.001,2.6c-1.132,1.123-2.021,2.528-2.668,4.217
	c-0.646,1.689-0.969,3.557-0.969,5.604C376.973,149.369,378.161,152.629,380.542,155.036"/>
<path fill="#FFFFFF" d="M431.103,165.113c-2.103,0-4.042-0.288-5.821-0.862c-1.777-0.575-3.336-1.419-4.674-2.533
	c-1.339-1.113-2.385-2.563-3.14-4.351c-0.755-1.787-1.132-3.813-1.132-6.076v-25.327h7.006v24.384c0,2.874,0.71,5.011,2.129,6.412
	c1.419,1.401,3.295,2.102,5.632,2.102c2.316,0,4.197-0.705,5.644-2.115c1.445-1.41,2.169-3.543,2.169-6.399v-24.384h6.979v25.327
	c0,2.281-0.378,4.311-1.132,6.089c-0.755,1.778-1.806,3.225-3.153,4.338c-1.347,1.114-2.905,1.958-4.675,2.533
	C435.166,164.825,433.221,165.113,431.103,165.113"/>
<path fill="#FFFFFF" d="M476.341,164.574l-9.996-17.136h-3.529v17.136h-7.033v-38.61h13.606c2.065,0,3.89,0.292,5.471,0.875
	c1.58,0.584,2.851,1.401,3.813,2.452c0.961,1.051,1.679,2.25,2.154,3.598c0.477,1.346,0.715,2.819,0.715,4.417
	c0,2.552-0.705,4.658-2.115,6.319c-1.41,1.662-3.48,2.779-6.211,3.354l11.37,17.594H476.341z M462.815,131.865v9.969h5.522
	c2.21,0,3.85-0.439,4.918-1.32c1.068-0.879,1.604-2.092,1.604-3.637c0-1.544-0.535-2.766-1.604-3.664
	c-1.068-0.898-2.708-1.348-4.918-1.348H462.815z"/>
<path fill="#FFFFFF" d="M507.191,165.113c-2.785,0-5.376-0.467-7.773-1.401c-2.398-0.934-4.469-2.245-6.21-3.934
	c-1.743-1.688-3.108-3.781-4.096-6.278c-0.989-2.496-1.482-5.245-1.482-8.245c0-3.97,0.853-7.467,2.56-10.494
	c1.707-3.027,4.032-5.334,6.979-6.924c2.945-1.59,6.287-2.385,10.023-2.385c4.148,0,7.805,0.997,10.966,2.99
	c3.161,1.995,5.451,4.743,6.87,8.245l-6.492,2.452c-0.953-2.28-2.435-4.055-4.446-5.321c-2.012-1.267-4.312-1.899-6.897-1.899
	c-1.779,0-3.436,0.306-4.971,0.916c-1.536,0.611-2.87,1.478-4.002,2.6c-1.132,1.123-2.021,2.529-2.668,4.217
	c-0.646,1.689-0.969,3.556-0.969,5.604c0,4.114,1.189,7.369,3.569,9.768c2.381,2.397,5.393,3.597,9.04,3.597
	c2.586,0,4.886-0.633,6.897-1.9c2.012-1.266,3.493-3.04,4.446-5.321l6.492,2.452c-1.419,3.521-3.714,6.277-6.885,8.271
	C514.974,164.116,511.322,165.113,507.191,165.113"/>
<polygon fill="#FFFFFF" points="554.02,132.161 539.281,132.161 539.281,142.211 552.321,142.211 552.321,148.354 539.281,148.354 
	539.281,158.351 554.02,158.351 554.02,164.575 532.194,164.575 532.194,125.965 554.02,125.965 "/>
<g>
	<path fill="#FFFFFF" d="M245.543,203.803v-11.984l-8.925-16.259h4.148l3.98,7.794c1.09,2.138,1.928,3.855,2.808,5.825h0.084
		c0.796-1.844,1.76-3.688,2.85-5.825l4.064-7.794h4.149l-9.471,16.217v12.026H245.543z"/>
	<path fill="#FFFFFF" d="M284.301,193.495c0,7.5-5.196,10.769-10.099,10.769c-5.489,0-9.722-4.022-9.722-10.435
		c0-6.788,4.442-10.769,10.057-10.769C280.362,183.061,284.301,187.293,284.301,193.495z M268.21,193.704
		c0,4.442,2.556,7.794,6.16,7.794c3.52,0,6.16-3.31,6.16-7.878c0-3.437-1.718-7.794-6.076-7.794
		C270.096,185.826,268.21,189.849,268.21,193.704z"/>
	<path fill="#FFFFFF" d="M315.099,198.271c0,2.095,0.042,3.938,0.167,5.531h-3.269l-0.209-3.311h-0.084
		c-0.964,1.635-3.101,3.771-6.705,3.771c-3.185,0-6.998-1.76-6.998-8.883v-11.859h3.688v11.229c0,3.855,1.173,6.454,4.526,6.454
		c2.472,0,4.19-1.719,4.86-3.353c0.21-0.545,0.336-1.216,0.336-1.886v-12.445h3.688V198.271z"/>
	<path fill="#FFFFFF" d="M330.433,189.849c0-2.388-0.042-4.441-0.168-6.327h3.226l0.126,3.98h0.168
		c0.922-2.723,3.144-4.441,5.615-4.441c0.419,0,0.712,0.042,1.048,0.125v3.479c-0.377-0.083-0.755-0.125-1.258-0.125
		c-2.598,0-4.441,1.969-4.943,4.734c-0.084,0.503-0.168,1.09-0.168,1.718v10.812h-3.646V189.849z"/>
	<path fill="#FFFFFF" d="M376.062,178.66h-8.59v-3.101h20.909v3.101h-8.632v25.143h-3.688V178.66z"/>
	<path fill="#FFFFFF" d="M398.06,189.849c0-2.388-0.042-4.441-0.167-6.327h3.226l0.126,3.98h0.168
		c0.921-2.723,3.143-4.441,5.614-4.441c0.419,0,0.714,0.042,1.048,0.125v3.479c-0.377-0.083-0.754-0.125-1.257-0.125
		c-2.599,0-4.441,1.969-4.944,4.734c-0.084,0.503-0.168,1.09-0.168,1.718v10.812h-3.646V189.849z"/>
	<path fill="#FFFFFF" d="M437.908,198.271c0,2.095,0.042,3.938,0.168,5.531h-3.27l-0.209-3.311h-0.084
		c-0.964,1.635-3.102,3.771-6.705,3.771c-3.184,0-6.998-1.76-6.998-8.883v-11.859h3.688v11.229c0,3.855,1.173,6.454,4.525,6.454
		c2.472,0,4.19-1.719,4.86-3.353c0.21-0.545,0.336-1.216,0.336-1.886v-12.445h3.688V198.271z"/>
	<path fill="#FFFFFF" d="M452.738,200.031c1.09,0.713,3.018,1.467,4.861,1.467c2.682,0,3.939-1.341,3.939-3.018
		c0-1.76-1.048-2.724-3.771-3.729c-3.646-1.298-5.363-3.31-5.363-5.74c0-3.269,2.64-5.95,6.997-5.95
		c2.054,0,3.855,0.587,4.986,1.257l-0.922,2.682c-0.796-0.502-2.263-1.173-4.148-1.173c-2.179,0-3.394,1.257-3.394,2.766
		c0,1.676,1.215,2.431,3.855,3.436c3.52,1.342,5.321,3.102,5.321,6.119c0,3.562-2.766,6.075-7.585,6.075
		c-2.221,0-4.273-0.545-5.699-1.383L452.738,200.031z"/>
	<path fill="#FFFFFF" d="M483.452,177.696v5.825h5.279v2.808h-5.279v10.938c0,2.514,0.713,3.938,2.767,3.938
		c0.964,0,1.676-0.126,2.137-0.252l0.167,2.766c-0.712,0.294-1.844,0.503-3.268,0.503c-1.719,0-3.102-0.545-3.981-1.55
		c-1.048-1.09-1.426-2.892-1.426-5.28v-11.063h-3.142v-2.808h3.142v-4.861L483.452,177.696z"/>
</g>
</svg>
