<?xml version="1.0" encoding="utf-8"?>
<!-- Generator: Adobe Illustrator 16.0.0, SVG Export Plug-In . SVG Version: 6.00 Build 0)  -->
<!DOCTYPE svg PUBLIC "-//W3C//DTD SVG 1.1//EN" "http://www.w3.org/Graphics/SVG/1.1/DTD/svg11.dtd">
<svg version="1.1" id="Layer_1" xmlns="http://www.w3.org/2000/svg" xmlns:xlink="http://www.w3.org/1999/xlink" x="0px" y="0px"
	 width="512px" height="512px" viewBox="0 0 512 512" enable-background="new 0 0 512 512" xml:space="preserve">
<g>
	<g>
		<linearGradient id="SVGID_1_" gradientUnits="userSpaceOnUse" x1="101.2378" y1="100.6938" x2="417.3109" y2="416.767">
			<stop  offset="0" style="stop-color:#FF68FF"/>
			<stop  offset="1" style="stop-color:#FF00FF"/>
		</linearGradient>
		<path fill="url(#SVGID_1_)" d="M481.873,256.33c0,124.261-100.733,225-225,225s-225-100.739-225-225
			c0-124.267,100.733-225,225-225S481.873,132.063,481.873,256.33z"/>
		<linearGradient id="SVGID_2_" gradientUnits="userSpaceOnUse" x1="150.9268" y1="72.8252" x2="362.8198" y2="439.8348">
			<stop  offset="0" style="stop-color:#FF00FF"/>
			<stop  offset="1" style="stop-color:#FF68FF"/>
		</linearGradient>
		<circle fill="url(#SVGID_2_)" cx="256.873" cy="256.33" r="211.858"/>
	</g>
</g>
<g>
	<path fill-rule="evenodd" clip-rule="evenodd" fill="#FFFFFF" d="M346.323,316.929c-14.548,14.829-28.625,29.188-42.714,43.533
		c-0.043,0.043-0.153,0.024-0.379,0.056c-6.59-9.291-9.523-19.664-8.692-31.058c0.116-1.639-0.294-2.689-1.418-3.796
		c-5.972-5.855-11.883-11.779-17.562-17.433c13.704-13.704,27.274-27.28,41.039-41.046c0.227,0.208,0.856,0.776,1.461,1.382
		c5.465,5.458,10.893,10.966,16.431,16.345c0.733,0.709,2.103,1.21,3.117,1.118c29.67-2.433,54.12,22.94,50.624,52.562
		c-0.654,5.477-2.177,10.654-4.683,15.605C371.311,341.947,359.165,329.783,346.323,316.929z"/>
	<path fill-rule="evenodd" clip-rule="evenodd" fill="#FFFFFF" d="M146.433,158.585c12.256,12.262,24.371,24.383,36.51,36.528
		c14.438-14.432,28.705-28.704,43.148-43.16c3.246,3.942,5.22,8.105,6.742,12.481c2.194,6.308,2.958,12.812,2.494,19.493
		c-0.067,1.002,0.525,2.323,1.253,3.068c5.917,6.027,11.932,11.956,17.683,17.684c-13.722,13.729-27.298,27.305-41.021,41.027
		c-0.3-0.275-0.947-0.843-1.553-1.449c-5.416-5.403-10.788-10.85-16.271-16.186c-0.746-0.722-2.072-1.32-3.074-1.247
		c-24.652,1.852-46.412-14.59-50.281-38.985C140.504,177.999,140.919,167.87,146.433,158.585z"/>
	<path fill-rule="evenodd" clip-rule="evenodd" fill="#FFFFFF" d="M182.502,327.968c-4.872-4.865-9.92-9.92-14.872-14.871
		c45.128-45.104,90.379-90.349,135.489-135.44c4.914,4.921,9.951,9.982,14.822,14.866
		C272.918,237.559,227.619,282.852,182.502,327.968z"/>
	<path fill-rule="evenodd" clip-rule="evenodd" fill="#FFFFFF" d="M208.004,353.616c-4.811-4.829-9.854-9.89-14.786-14.835
		c45.134-45.141,90.366-90.397,135.428-135.471c4.945,4.933,9.988,9.969,14.848,14.816
		C298.486,263.14,253.193,308.427,208.004,353.616z"/>
	<path fill-rule="evenodd" clip-rule="evenodd" fill="#FFFFFF" d="M374.984,187.076c-13.582-13.582-27.164-27.158-40.887-40.874
		c4.799-4.462,8.771-10.171,15.605-12.28c8.123-2.506,15.471-0.978,21.742,4.731c3.918,3.57,7.75,7.292,11.247,11.271
		c7.982,9.059,7.897,20.66-0.104,29.712C380.198,182.339,377.436,184.698,374.984,187.076z"/>
	<path fill-rule="evenodd" clip-rule="evenodd" fill="#FFFFFF" d="M197.038,364.68c-17.977,4.981-36.455,10.098-54.927,15.214
		c-0.238-0.171-0.471-0.343-0.703-0.507c5.116-18.516,10.239-37.023,15.239-55.099C170.039,337.675,183.529,351.165,197.038,364.68z
		"/>
	<path fill-rule="evenodd" clip-rule="evenodd" fill="#FFFFFF" d="M364.165,197.76c-3.13,3.118-6.418,6.406-9.443,9.425
		c-13.454-13.453-27.066-27.066-40.489-40.489c2.965-2.964,6.296-6.302,9.432-9.444C337.105,170.694,350.688,184.276,364.165,197.76
		z"/>
	<path fill-rule="evenodd" clip-rule="evenodd" fill="#FFFFFF" d="M215.693,141.629c-7.512,7.525-14.939,14.963-22.17,22.219
		c-8.582-8.582-17.323-17.305-26.002-25.979C179.837,130.713,200.437,130.328,215.693,141.629z"/>
	<path fill-rule="evenodd" clip-rule="evenodd" fill="#FFFFFF" d="M314.08,371.227c7.512-7.543,14.933-14.988,22.163-22.237
		c8.619,8.606,17.354,17.322,26.052,26.002C351.885,381.672,328.163,382.473,314.08,371.227z"/>
</g>
</svg>
