<?xml version="1.0" encoding="utf-8"?>
<!-- Generator: Adobe Illustrator 16.0.0, SVG Export Plug-In . SVG Version: 6.00 Build 0)  -->
<!DOCTYPE svg PUBLIC "-//W3C//DTD SVG 1.1//EN" "http://www.w3.org/Graphics/SVG/1.1/DTD/svg11.dtd">
<svg version="1.1" id="Layer_1" xmlns="http://www.w3.org/2000/svg" xmlns:xlink="http://www.w3.org/1999/xlink" x="0px" y="0px"
	 width="512px" height="512px" viewBox="0 0 512 512" enable-background="new 0 0 512 512" xml:space="preserve">
<g>
	<g>
		<linearGradient id="SVGID_1_" gradientUnits="userSpaceOnUse" x1="100.4175" y1="100.6938" x2="416.4906" y2="416.767">
			<stop  offset="0" style="stop-color:#DC00FF"/>
			<stop  offset="1" style="stop-color:#9A00FF"/>
		</linearGradient>
		<path fill="url(#SVGID_1_)" d="M481.053,256.33c0,124.261-100.733,225-225,225s-225-100.739-225-225
			c0-124.267,100.733-225,225-225S481.053,132.063,481.053,256.33z"/>
		<linearGradient id="SVGID_2_" gradientUnits="userSpaceOnUse" x1="150.106" y1="72.8252" x2="361.999" y2="439.8348">
			<stop  offset="0" style="stop-color:#9A00FF"/>
			<stop  offset="1" style="stop-color:#DC00FF"/>
		</linearGradient>
		<circle fill="url(#SVGID_2_)" cx="256.053" cy="256.33" r="211.858"/>
	</g>
</g>
<g>
	<g>
		<path fill-rule="evenodd" clip-rule="evenodd" d="M251.725,101.226c-6.876-1.785-13.398-0.605-17.017,1.424
			c-3.521,1.98-6.772,4.291-10.905,5.153c-3.967,0.831-6.229,3.863-8.368,7.335c-2.121,3.454-3.472,6.919-3.344,10.831
			c0.159,5,0.758,9.982,1.119,14.976c0.049,0.697,0.018,1.565-0.348,2.072c-2.763,3.845-2.06,9.92,1.613,12.952
			c0.342,0.281,0.825,0.385,1.155,0.667c0.789,0.672,1.706,1.284,2.243,2.121c0.557,0.874,0.728,1.98,1.082,2.989
			c2.262,6.602,5.385,12.506,11.803,16.155c6.858,3.906,13.631,7.25,21.773,3.582c5.745-2.585,11.497-5.257,14.963-10.66
			c2.359-3.655,3.631-8.007,5.477-11.999c0.361-0.776,1.046-1.614,1.791-1.944c4.677-2.072,6.491-9.89,3.191-13.734
			c-0.526-0.605-0.917-1.656-0.813-2.42c0.904-6.339,0.746-12.561-0.721-18.851c-2.091-9.01-7.702-14.603-16.119-17.61
			c-3.252-1.162-6.687-1.785-9.945-2.628C250.625,101.556,250.998,101.446,251.725,101.226z M245.405,253.237
			c-4.322-6.082-8.606-12.048-12.824-18.063c-0.905-1.284-1.944-2.653-2.274-4.126c-0.825-3.6-1.339-7.274-1.871-10.929
			c-1.602-11.008-3.19-21.999-4.67-33.02c-0.269-1.999-1.143-1.84-2.427-1.186c-3.056,1.546-6.143,3.05-9.12,4.737
			c-9.633,5.471-19.26,10.972-28.82,16.571c-5.715,3.362-9.743,8.227-11.577,14.676c-1.693,5.954-3.368,11.919-4.743,17.952
			c-1.32,5.795-2.25,11.675-3.362,17.598c36.553,0,72.793,0,109.45,0c-6.382-7.292-10.532-15.366-13.441-24.651
			C254.684,239.991,250.105,246.544,245.405,253.237z M351.707,172.54c-17.415-13.539-46.528-15.324-67.556,3.588
			c-21.552,19.407-23.502,52.286-5.709,74.016c18.589,22.714,49.628,25.629,71.522,11.161
			c25.281-16.706,28.313-45.795,21.009-63.111c-0.324,0.202-0.697,0.336-0.923,0.599c-2.25,2.677-4.225,5.642-6.773,7.989
			c-3.355,3.081-3.618,6.742-3.71,10.911c-0.324,13.924-7.023,24.486-18.503,31.87c-7.444,4.786-15.794,6.718-24.804,5.654
			c-8.344-0.99-15.789-3.998-21.913-9.652c-10.514-9.701-14.842-21.797-12.702-36.027c1.095-7.237,4.175-13.643,9.028-19.064
			c6.675-7.445,14.848-12.084,24.963-13.283c8.992-1.076,17.244,0.685,24.927,5.288c1.583,0.953,2.592,1.008,3.497-0.685
			c0.238-0.464,0.672-0.819,1.014-1.229C347.287,177.889,349.494,175.218,351.707,172.54z M322.893,219.368
			c-1.326-1.094-2.543-2.109-3.766-3.118c-4.614-3.814-9.181-7.683-13.856-11.418c-3.79-3.038-9.407-1.351-11.033,3.185
			c-1.277,3.563-0.33,6.412,3.374,9.505c7.115,5.947,14.261,11.846,21.424,17.738c2.599,2.133,6.187,2.524,8.803,0.349
			c2.469-2.048,4.462-4.701,6.559-7.182c7.988-9.444,15.917-18.949,23.912-28.393c7.561-8.93,15.189-17.787,22.72-26.73
			c2.817-3.337,2.555-7.897-0.171-10.501c-2.836-2.696-8.203-2.463-10.666,0.562c-3.148,3.882-6.56,7.562-9.78,11.394
			c-6.896,8.19-13.723,16.43-20.617,24.633C334.225,206.019,328.614,212.602,322.893,219.368z M253.504,202.485
			c-2.28-2.127-4.438-4.285-6.772-6.223c-0.514-0.44-1.969-0.501-2.451-0.104c-2.427,2.041-4.682,4.291-6.962,6.455
			c1.058,1.675,1.876,3.129,2.836,4.474c1.039,1.455,1.308,2.8,0.776,4.64c-1.724,5.947-3.283,11.968-4.676,18.007
			c-0.275,1.216,0.08,2.897,0.752,3.96c2.194,3.454,4.762,6.663,7.011,10.074c1.008,1.522,1.705,1.522,2.665,0.116
			c2.457-3.557,5.012-7.06,7.322-10.709c0.575-0.929,0.758-2.438,0.489-3.526c-1.596-6.363-3.386-12.684-5.055-19.041
			c-0.171-0.642-0.153-1.51,0.153-2.054C250.68,206.66,251.945,204.869,253.504,202.485z"/>
		<path fill-rule="evenodd" clip-rule="evenodd" fill="#FFFFFF" d="M251.725,101.226c-0.728,0.22-1.1,0.33-1.369,0.41
			c3.258,0.844,6.693,1.467,9.945,2.628c8.417,3.007,14.028,8.6,16.119,17.61c1.467,6.29,1.625,12.512,0.721,18.851
			c-0.104,0.764,0.287,1.815,0.813,2.42c3.3,3.845,1.485,11.663-3.191,13.734c-0.745,0.33-1.43,1.168-1.791,1.944
			c-1.846,3.991-3.117,8.343-5.477,11.999c-3.466,5.403-9.218,8.075-14.963,10.66c-8.142,3.667-14.915,0.324-21.773-3.582
			c-6.418-3.649-9.542-9.554-11.803-16.155c-0.354-1.008-0.525-2.115-1.082-2.989c-0.538-0.837-1.455-1.449-2.243-2.121
			c-0.33-0.281-0.813-0.385-1.155-0.667c-3.673-3.032-4.376-9.107-1.613-12.952c0.366-0.507,0.397-1.375,0.348-2.072
			c-0.361-4.994-0.959-9.976-1.119-14.976c-0.128-3.912,1.223-7.377,3.344-10.831c2.139-3.472,4.401-6.504,8.368-7.335
			c4.132-0.862,7.384-3.172,10.905-5.153C238.327,100.621,244.849,99.441,251.725,101.226z"/>
		<path fill-rule="evenodd" clip-rule="evenodd" fill="#FFFFFF" d="M245.405,253.237c4.701-6.693,9.279-13.246,14.322-20.44
			c2.909,9.285,7.06,17.359,13.441,24.651c-36.657,0-72.897,0-109.45,0c1.112-5.923,2.042-11.803,3.362-17.598
			c1.375-6.033,3.05-11.999,4.743-17.952c1.834-6.449,5.862-11.314,11.577-14.676c9.56-5.599,19.187-11.101,28.82-16.571
			c2.977-1.687,6.063-3.19,9.12-4.737c1.284-0.654,2.158-0.813,2.427,1.186c1.479,11.021,3.068,22.011,4.67,33.02
			c0.532,3.655,1.045,7.329,1.871,10.929c0.33,1.473,1.369,2.842,2.274,4.126C236.798,241.189,241.083,247.155,245.405,253.237z"/>
		<path fill-rule="evenodd" clip-rule="evenodd" fill="#FFFFFF" d="M351.707,172.54c-2.213,2.678-4.42,5.349-6.633,8.026
			c-0.342,0.41-0.775,0.764-1.014,1.229c-0.905,1.693-1.914,1.638-3.497,0.685c-7.683-4.603-15.935-6.363-24.927-5.288
			c-10.115,1.198-18.288,5.837-24.963,13.283c-4.854,5.421-7.934,11.827-9.028,19.064c-2.14,14.23,2.188,26.326,12.702,36.027
			c6.124,5.654,13.569,8.662,21.913,9.652c9.01,1.063,17.359-0.868,24.804-5.654c11.479-7.384,18.179-17.946,18.503-31.87
			c0.092-4.169,0.354-7.83,3.71-10.911c2.549-2.347,4.523-5.312,6.773-7.989c0.226-0.263,0.599-0.397,0.923-0.599
			c7.304,17.316,4.272,46.406-21.009,63.111c-21.895,14.468-52.934,11.553-71.522-11.161c-17.793-21.73-15.843-54.609,5.709-74.016
			C305.179,157.216,334.292,159.001,351.707,172.54z"/>
		<path fill-rule="evenodd" clip-rule="evenodd" fill="#FFFFFF" d="M322.893,219.368c5.722-6.767,11.332-13.35,16.901-19.976
			c6.895-8.203,13.722-16.443,20.617-24.633c3.221-3.833,6.632-7.512,9.78-11.394c2.463-3.025,7.83-3.258,10.666-0.562
			c2.726,2.604,2.988,7.164,0.171,10.501c-7.53,8.943-15.159,17.8-22.72,26.73c-7.995,9.444-15.924,18.949-23.912,28.393
			c-2.097,2.481-4.09,5.134-6.559,7.182c-2.616,2.176-6.204,1.785-8.803-0.349c-7.163-5.892-14.309-11.791-21.424-17.738
			c-3.704-3.093-4.651-5.941-3.374-9.505c1.626-4.536,7.243-6.223,11.033-3.185c4.676,3.735,9.242,7.604,13.856,11.418
			C320.35,217.259,321.566,218.274,322.893,219.368z"/>
		<path fill-rule="evenodd" clip-rule="evenodd" fill="#FFFFFF" d="M253.504,202.485c-1.559,2.384-2.824,4.175-3.912,6.069
			c-0.306,0.544-0.324,1.412-0.153,2.054c1.669,6.357,3.459,12.677,5.055,19.041c0.269,1.088,0.085,2.598-0.489,3.526
			c-2.311,3.649-4.865,7.152-7.322,10.709c-0.96,1.406-1.657,1.406-2.665-0.116c-2.25-3.411-4.817-6.62-7.011-10.074
			c-0.672-1.063-1.027-2.744-0.752-3.96c1.394-6.04,2.953-12.06,4.676-18.007c0.532-1.84,0.263-3.185-0.776-4.64
			c-0.96-1.345-1.779-2.799-2.836-4.474c2.28-2.164,4.536-4.414,6.962-6.455c0.482-0.397,1.938-0.336,2.451,0.104
			C249.066,198.2,251.224,200.358,253.504,202.485z"/>
	</g>
	<g>
		<path fill-rule="evenodd" clip-rule="evenodd" fill="#FFFFFF" d="M160.674,348.322c7.054,0.099,9.523-5.018,9.333-11.814
			c-0.245-8.943-0.061-17.91-0.061-27.183c23.533,0,46.088,0,69.383,0c0,8.441-0.141,16.345,0.043,24.224
			c0.208,9.016,4.596,13.967,11.742,13.637c6.773-0.312,10.661-5.22,10.734-13.796c0.079-8.08,0.012-16.18,0.012-24.021
			c23.655,0,45.972,0,68.894,0c0,9.064,0.238,17.519-0.067,25.953c-0.25,6.834,1.26,12.256,8.992,13.075
			c5.898,0.623,9.364-4.279,9.406-12.641c0.056-10.947,0.08-21.907-0.006-32.873c-0.073-10.27-2.787-12.91-13.294-12.94
			c-21.65-0.055-43.301,0-64.939-0.043c-1.485,0-2.964-0.073-4.443-0.158v-32.293h-30.239v32.262
			c-1.143,0.086-2.286,0.196-3.454,0.196c-22.738,0.018-45.477-0.049-68.215,0.042c-9.902,0.037-12.842,2.978-12.91,12.61
			c-0.067,11.234,0.147,22.47-0.08,33.698C151.371,342.95,153.632,348.225,160.674,348.322z"/>
		<path fill-rule="evenodd" clip-rule="evenodd" fill="#FFFFFF" d="M249.836,356.795c-11.914,0.049-21.259,9.688-20.917,21.589
			c0.33,11.516,9.755,20.397,21.443,20.178c11.735-0.208,20.66-9.413,20.501-21.106
			C270.661,365.811,261.456,356.752,249.836,356.795z"/>
		<path fill-rule="evenodd" clip-rule="evenodd" fill="#FFFFFF" d="M160.967,356.795c-11.736-0.031-20.801,8.881-20.966,20.574
			c-0.171,11.754,8.606,20.953,20.22,21.217c11.809,0.256,21.015-8.424,21.326-20.092
			C181.866,366.287,172.887,356.819,160.967,356.795z"/>
		<path fill-rule="evenodd" clip-rule="evenodd" fill="#FFFFFF" d="M339.243,356.795c-11.552,0.165-20.397,9.419-20.287,21.216
			c0.116,11.755,9.132,20.636,20.898,20.581c11.98-0.055,21.021-9.469,20.733-21.571
			C360.307,365.432,351.016,356.636,339.243,356.795z"/>
	</g>
</g>
</svg>
