<?xml version="1.0" encoding="utf-8"?>
<!-- Generator: Adobe Illustrator 16.0.0, SVG Export Plug-In . SVG Version: 6.00 Build 0)  -->
<!DOCTYPE svg PUBLIC "-//W3C//DTD SVG 1.1//EN" "http://www.w3.org/Graphics/SVG/1.1/DTD/svg11.dtd">
<svg version="1.1" id="Layer_1" xmlns="http://www.w3.org/2000/svg" xmlns:xlink="http://www.w3.org/1999/xlink" x="0px" y="0px"
	 width="512px" height="512px" viewBox="0 0 512 512" enable-background="new 0 0 512 512" xml:space="preserve">
<g>
	<g>
		<linearGradient id="SVGID_1_" gradientUnits="userSpaceOnUse" x1="101.103" y1="100.6938" x2="417.1769" y2="416.7677">
			<stop  offset="0" style="stop-color:#0000FF"/>
			<stop  offset="1" style="stop-color:#000083"/>
		</linearGradient>
		<path fill="url(#SVGID_1_)" d="M481.738,256.33c0,124.261-100.733,225-225,225s-225-100.739-225-225
			c0-124.267,100.733-225,225-225S481.738,132.063,481.738,256.33z"/>
		<linearGradient id="SVGID_2_" gradientUnits="userSpaceOnUse" x1="150.791" y1="72.8242" x2="362.6851" y2="439.8355">
			<stop  offset="0" style="stop-color:#000083"/>
			<stop  offset="1" style="stop-color:#0000FF"/>
		</linearGradient>
		<circle fill="url(#SVGID_2_)" cx="256.738" cy="256.33" r="211.858"/>
	</g>
</g>
<g>
	<path fill-rule="evenodd" clip-rule="evenodd" fill="#FFFFFF" d="M328.248,363.091c-19.107,0-38.209,0.134-57.329-0.05
		c-11.827-0.104-19.37-8.074-19.37-19.883c0-24.45,0.403-48.888-0.22-73.308c-0.214-8.117,9.376-18.227,16.938-18.301
		c7.836-0.061,15.666-0.458,23.496-0.477c27.72-0.067,55.452-0.061,83.173-0.019c4.064,0,8.147,0.184,12.194,0.563
		c11.063,1.021,17.946,8.777,17.946,20.024c0,23.974,0,47.94,0,71.896c0,10.965-7.94,19.357-19.028,19.462
		c-19.267,0.201-38.533,0.061-57.8,0.061C328.248,363.066,328.248,363.078,328.248,363.091z M394.666,292.479
		c-2.09,0-3.625,0-5.158,0c-32.274,0-64.561,0-96.828,0.019c-8.466,0.006-16.926,0.115-25.392,0.146
		c-2.433,0.006-4.187,0.36-4.15,3.563c0.227,15.507,0.147,31.021,0.459,46.528c0.116,6.118,2.732,8.245,8.894,8.258
		c18.967,0.012,37.934,0.036,56.889-0.013c19.12-0.043,38.228-0.146,57.354-0.293c4.773-0.037,7.86-2.549,7.891-6.742
		C394.739,327.039,394.666,310.113,394.666,292.479z M394.489,273.427c0.152-6.919-1.736-9.163-7.818-9.67
		c-1.876-0.153-3.759-0.227-5.63-0.227c-36.351-0.049-72.695-0.098-109.04-0.116c-6.075,0-9.021,3.601-8.325,10.013
		C307.19,273.427,350.705,273.427,394.489,273.427z"/>
	<path fill-rule="evenodd" clip-rule="evenodd" fill="#FFFFFF" d="M293.805,338.8c-6.98,5.349-14.31,5.25-19.157-0.043
		c-4.229-4.621-4.419-12.134-0.421-16.748c5.164-5.93,11.919-6.192,19.627-0.765c8.648-5.195,15.52-4.926,20.012,0.765
		c4.004,5.104,3.777,12.14-0.556,16.711C308.15,344.166,301.671,344.246,293.805,338.8z"/>
</g>
<g>
	<path fill-rule="evenodd" clip-rule="evenodd" fill="#FFFFFF" d="M251.995,282.889c-0.006,5.171,0.024,10.336-0.012,15.508
		c-0.012,3.068-1.149,3.894-5.464,3.899c-14.432,0.019-28.863,0.024-43.295,0c-4.462-0.013-5.55-0.862-5.55-4.096
		c-0.006-10.177-0.006-20.354,0-30.525c0.012-2.989,1.314-3.942,5.47-3.942c14.432-0.013,28.863-0.013,43.295-0.006
		c4.193,0.006,5.52,0.941,5.544,3.899C252.025,272.711,251.995,277.803,251.995,282.889z"/>
	<path fill-rule="evenodd" clip-rule="evenodd" fill="#FFFFFF" d="M125.986,282.907c0-5.098-0.037-10.184,0.013-15.27
		c0.03-3.037,1.21-3.862,5.544-3.875c14.205-0.03,28.411-0.036,42.61-0.019c5.122,0.013,6.222,0.85,6.222,4.432
		c0,10.019,0,20.031-0.012,30.043c-0.006,3.185-1.204,4.083-5.581,4.09c-14.438,0.018-28.869,0.023-43.301,0.006
		c-4.303-0.006-5.452-0.813-5.482-3.906C125.944,293.243,125.986,288.066,125.986,282.907z"/>
	<path fill-rule="evenodd" clip-rule="evenodd" fill="#FFFFFF" d="M269.317,181.489c0.007-5.178-0.012-10.349,0.013-15.514
		c0.012-3.032,1.198-3.9,5.471-3.912c14.432-0.019,28.869-0.024,43.295,0c4.492,0.006,5.604,0.832,5.617,4.071
		c0.018,10.171,0.012,20.349-0.013,30.526c-0.012,3.063-1.216,3.93-5.464,3.937c-14.432,0.03-28.863,0.043-43.301,0.03
		c-4.31-0.006-5.594-0.966-5.611-4.126C269.3,191.501,269.317,186.489,269.317,181.489z"/>
	<path fill-rule="evenodd" clip-rule="evenodd" fill="#FFFFFF" d="M153.425,162.063c7.152,0,14.315-0.024,21.473,0
		c4.272,0.024,5.446,0.874,5.452,3.924c0.024,10.177,0.019,20.348,0,30.526c-0.006,3.16-1.229,4.064-5.642,4.071
		c-14.432,0.024-28.857,0.024-43.289,0c-4.248-0.006-5.41-0.856-5.421-3.949c-0.031-10.177-0.043-20.349-0.006-30.526
		c0.012-3.264,1.088-4.022,5.611-4.046C138.884,162.027,146.151,162.051,153.425,162.063z"/>
	<path fill-rule="evenodd" clip-rule="evenodd" fill="#FFFFFF" d="M224.69,251.422c-7.28,0.006-14.547,0.024-21.827-0.006
		c-3.924-0.012-5.147-0.831-5.153-3.594c-0.042-10.507-0.042-21.008,0.006-31.516c0.012-2.481,1.247-3.331,4.774-3.337
		c14.89-0.024,29.78-0.031,44.676,0c3.484,0.006,4.811,0.892,4.823,3.337c0.049,10.587,0.037,21.167,0,31.748
		c-0.006,2.451-1.32,3.35-4.792,3.356C239.697,251.44,232.19,251.416,224.69,251.422z"/>
	<path fill-rule="evenodd" clip-rule="evenodd" fill="#FFFFFF" d="M296.555,251.41c-7.279,0-14.554,0.024-21.834-0.006
		c-4.211-0.012-5.403-0.893-5.409-3.937c-0.012-10.263-0.019-20.525,0.006-30.782c0.007-2.854,1.271-3.735,5.337-3.735
		c14.547-0.018,29.102-0.018,43.655-0.006c4.15,0.006,5.348,0.782,5.36,3.704c0.049,10.416,0.049,20.843-0.006,31.259
		c-0.013,2.659-1.247,3.478-4.945,3.496C311.329,251.434,303.938,251.403,296.555,251.41z"/>
	<path fill-rule="evenodd" clip-rule="evenodd" fill="#FFFFFF" d="M252.014,181.373c0,5.098,0.024,10.189-0.013,15.281
		c-0.024,3.044-1.216,3.93-5.495,3.942c-14.56,0.024-29.126,0.018-43.698-0.012c-3.82-0.012-5.098-0.941-5.104-3.686
		c-0.03-10.428-0.03-20.862,0.006-31.296c0.006-2.592,1.278-3.515,4.945-3.527c14.798-0.031,29.59-0.037,44.376,0.006
		c3.673,0.006,4.927,0.935,4.951,3.521c0.042,5.257,0.012,10.514,0.012,15.771C252.001,181.373,252.001,181.373,252.014,181.373z"/>
	<path fill-rule="evenodd" clip-rule="evenodd" fill="#FFFFFF" d="M153.144,251.41c-7.384,0-14.78,0.018-22.164-0.006
		c-3.704-0.012-4.951-0.819-4.963-3.466c-0.055-10.507-0.055-21.008,0-31.51c0.012-2.634,1.259-3.459,4.976-3.459
		c14.78-0.024,29.554-0.031,44.333,0c3.796,0.006,5.013,0.923,5.024,3.704c0.024,10.263,0.037,20.52,0.006,30.776
		c-0.006,3.148-1.192,3.955-5.728,3.967c-7.164,0.024-14.321,0.006-21.485,0.006C153.144,251.422,153.144,251.416,153.144,251.41z"
		/>
</g>
</svg>
