<?xml version="1.0" encoding="utf-8"?>
<!-- Generator: Adobe Illustrator 16.0.0, SVG Export Plug-In . SVG Version: 6.00 Build 0)  -->
<!DOCTYPE svg PUBLIC "-//W3C//DTD SVG 1.1//EN" "http://www.w3.org/Graphics/SVG/1.1/DTD/svg11.dtd">
<svg version="1.1" id="Layer_1" xmlns="http://www.w3.org/2000/svg" xmlns:xlink="http://www.w3.org/1999/xlink" x="0px" y="0px"
	 width="512px" height="512px" viewBox="0 0 512 512" enable-background="new 0 0 512 512" xml:space="preserve">
<g>
	<g>
		<linearGradient id="SVGID_1_" gradientUnits="userSpaceOnUse" x1="39.5679" y1="148.0703" x2="503.7817" y2="379.5572">
			<stop  offset="0.5151" style="stop-color:#535E78"/>
			<stop  offset="1" style="stop-color:#333740"/>
		</linearGradient>
		<path fill="url(#SVGID_1_)" d="M512,255.997c0,141.374-114.612,256.001-256,256.001S0,397.371,0,255.997
			C0,114.609,114.612,0,256,0S512,114.609,512,255.997z"/>
		<linearGradient id="SVGID_2_" gradientUnits="userSpaceOnUse" x1="135.4575" y1="47.2119" x2="376.5435" y2="464.785">
			<stop  offset="0" style="stop-color:#333740"/>
			<stop  offset="0.8538" style="stop-color:#535E78"/>
			<stop  offset="1" style="stop-color:#535E78"/>
		</linearGradient>
		<circle fill="url(#SVGID_2_)" cx="256" cy="255.997" r="241.048"/>
	</g>
</g>
<path fill="#EC6337" d="M425.186,315.82c-3.616,0-6.803,1.766-8.791,4.465L309.78,279.553c2.184-5.557,3.394-11.594,3.394-17.936
	c0-4.098-0.501-8.076-1.453-11.88c6.127-1.613,17.853-4.75,40.316-10.828c3.775,10.14,13.52,17.379,24.98,17.379
	c14.716,0,26.664-11.934,26.664-26.671c0-14.723-11.948-26.671-26.664-26.671c-14.736,0-26.678,11.948-26.678,26.671
	c0,1.371,0.139,2.706,0.334,4.014c-15.397,4.165-31.979,8.624-40.561,10.903c-6.07-16.308-20.557-28.506-38.167-31.323l0.551-97.267
	c12.9-3.325,22.441-15.008,22.441-28.952c0-16.535-13.407-29.94-29.932-29.94c-16.539,0-29.934,13.405-29.934,29.94
	c0,14.104,9.766,25.892,22.888,29.07l-0.549,96.997c-12.255,1.683-23.063,7.893-30.69,16.893
	c-22.096-16.782-34.335-25.99-41.249-31.032c0.432-1.37,0.682-2.831,0.682-4.34c0-7.859-6.371-14.222-14.229-14.222
	c-7.858,0-14.222,6.363-14.222,14.222c0,7.852,6.364,14.222,14.222,14.222c3.025,0,5.828-0.953,8.137-2.573
	c9.653,7.129,27.436,20.543,41.449,31.17c-4.061,7.149-6.398,15.411-6.398,24.218c0,5.299,0.835,10.377,2.393,15.16l-102.206,37.771
	c-3.686-6.24-10.46-10.426-18.221-10.426c-11.683,0-21.17,9.473-21.17,21.156c0,11.697,9.487,21.164,21.17,21.164
	c11.684,0,21.17-9.467,21.17-21.164c0-1.35-0.153-2.656-0.39-3.938l102.4-37.846c4.464,8.93,11.565,16.314,20.287,21.113
	l-13.944,39.648c-0.549-0.063-1.112-0.111-1.69-0.111c-7.851,0-14.214,6.379-14.214,14.229c0,7.854,6.364,14.223,14.214,14.223
	c7.867,0,14.223-6.369,14.223-14.223c0-4.688-2.281-8.838-5.771-11.426l13.817-39.307c5.294,1.945,10.996,3.018,16.963,3.018
	c4.201,0,8.276-0.529,12.172-1.529l33.174,90.563c-8.18,5.391-13.576,14.633-13.576,25.148c0,16.629,13.479,30.113,30.113,30.113
	c16.622,0,30.106-13.484,30.106-30.113c0-16.635-13.484-30.107-30.106-30.107c-1.593,0-3.145,0.16-4.673,0.396l-33.244-90.729
	c7.692-4.326,14.091-10.656,18.5-18.285l107.706,41.152c0.293,5.756,5.028,10.34,10.87,10.34c6.022,0,10.905-4.875,10.905-10.891
	C436.091,320.695,431.208,315.82,425.186,315.82"/>
</svg>
