<?xml version="1.0" encoding="utf-8"?>
<!-- Generator: Adobe Illustrator 16.0.0, SVG Export Plug-In . SVG Version: 6.00 Build 0)  -->
<!DOCTYPE svg PUBLIC "-//W3C//DTD SVG 1.1//EN" "http://www.w3.org/Graphics/SVG/1.1/DTD/svg11.dtd">
<svg version="1.1" id="Layer_1" xmlns="http://www.w3.org/2000/svg" xmlns:xlink="http://www.w3.org/1999/xlink" x="0px" y="0px"
	 width="512px" height="512px" viewBox="0 0 512 512" enable-background="new 0 0 512 512" xml:space="preserve">
<g>
	<g>
		<linearGradient id="SVGID_1_" gradientUnits="userSpaceOnUse" x1="100.4146" y1="100.8188" x2="416.4884" y2="416.8927">
			<stop  offset="0" style="stop-color:#FF00FF"/>
			<stop  offset="1" style="stop-color:#FF006F"/>
		</linearGradient>
		<path fill="url(#SVGID_1_)" d="M481.05,256.455c0,124.261-100.733,225-225,225s-225-100.739-225-225
			c0-124.267,100.733-225,225-225S481.05,132.188,481.05,256.455z"/>
		<linearGradient id="SVGID_2_" gradientUnits="userSpaceOnUse" x1="150.1035" y1="72.9502" x2="361.9966" y2="439.9598">
			<stop  offset="0" style="stop-color:#FF006F"/>
			<stop  offset="0.6601" style="stop-color:#FF007F"/>
			<stop  offset="1" style="stop-color:#FF00FF"/>
		</linearGradient>
		<circle fill="url(#SVGID_2_)" cx="256.05" cy="256.455" r="211.858"/>
	</g>
</g>
<g>
	<path fill-rule="evenodd" clip-rule="evenodd" fill="#FFFFFF" d="M151.814,313.796c2.634,1.907,3.435,2.537,4.291,3.075
		c40.979,25.745,105.104,21.473,142.317-9.358c28.086-23.271,39.498-54.187,41.021-89.536c0.287-6.32,0.972-11.375,6.761-15.678
		c5.421-4.022,9.443-9.958,14.083-15.055c-0.453-0.458-0.936-0.898-1.394-1.333c-4.958,1.18-9.891,2.341-15.386,3.643
		c4.615-7.298,8.539-13.478,12.464-19.627c-4.842,0.116-7.708,1.474-10.611,2.757c-8.949,3.998-16.584,5.801-26.204-1.381
		c-13.387-9.957-29.133-8.704-43.521-0.318c-14.297,8.356-22.164,20.911-21.797,37.958c0.062,2.427,0,4.872,0,7.5
		c-34.59-4.499-63.948-17.903-87.005-43.863c-11.333,17.463-8.282,35.061,9.743,56.345c-6.021-1.65-10.88-3.008-16.363-4.523
		c0.306,20.159,11.186,32.757,30.446,42.438c-6.669,0-10.501,0-15.293,0c6.149,18.992,20.789,26.106,39.303,31.076
		C194.858,310.172,175.249,315.104,151.814,313.796z"/>
</g>
</svg>
