<?xml version="1.0" encoding="utf-8"?>
<!-- Generator: Adobe Illustrator 16.0.0, SVG Export Plug-In . SVG Version: 6.00 Build 0)  -->
<!DOCTYPE svg PUBLIC "-//W3C//DTD SVG 1.1//EN" "http://www.w3.org/Graphics/SVG/1.1/DTD/svg11.dtd">
<svg version="1.1" id="Layer_1" xmlns="http://www.w3.org/2000/svg" xmlns:xlink="http://www.w3.org/1999/xlink" x="0px" y="0px"
	 width="2000px" height="1128px" viewBox="0 0 2000 1128" enable-background="new 0 0 2000 1128" xml:space="preserve">
<path opacity="0.25" fill="#EC6337" d="M299.535,234.264c-2.149,0-4.049,1.052-5.226,2.659l-63.433-24.237
	c1.299-3.304,2.02-6.899,2.02-10.665c0-2.442-0.302-4.81-0.868-7.076c3.648-0.956,10.616-2.823,23.988-6.439
	c2.247,6.034,8.041,10.34,14.858,10.34c8.762,0,15.864-7.104,15.864-15.867s-7.102-15.865-15.864-15.865
	c-8.763,0-15.868,7.102-15.868,15.865c0,0.814,0.082,1.607,0.2,2.387c-9.164,2.475-19.029,5.133-24.133,6.484
	c-3.608-9.7-12.228-16.957-22.712-18.633l0.331-57.869c7.676-1.982,13.354-8.931,13.354-17.226c0-9.837-7.975-17.811-17.81-17.811
	c-9.838,0-17.811,7.974-17.811,17.811c0,8.391,5.809,15.407,13.622,17.295l-0.328,57.711c-7.292,1-13.722,4.694-18.258,10.047
	c-13.15-9.982-20.424-15.463-24.543-18.462c0.26-0.814,0.404-1.681,0.404-2.581c0-4.672-3.789-8.462-8.462-8.462
	c-4.671,0-8.461,3.788-8.461,8.462c0,4.673,3.791,8.462,8.461,8.462c1.804,0,3.472-0.571,4.846-1.531
	c5.737,4.239,16.32,12.22,24.66,18.545c-2.421,4.253-3.811,9.167-3.811,14.413c0,3.145,0.504,6.17,1.424,9.013l-60.809,22.473
	c-2.191-3.708-6.216-6.203-10.839-6.203c-6.952,0-12.59,5.637-12.59,12.59c0,6.955,5.636,12.593,12.59,12.593
	c6.955,0,12.593-5.638,12.593-12.593c0-0.8-0.082-1.583-0.227-2.344l60.921-22.515c2.655,5.314,6.879,9.708,12.072,12.561
	l-8.295,23.589c-0.33-0.041-0.663-0.066-1.004-0.066c-4.673,0-8.463,3.79-8.463,8.462s3.789,8.462,8.463,8.462
	c4.673,0,8.461-3.79,8.461-8.462c0-2.788-1.355-5.255-3.438-6.798l8.225-23.385c3.146,1.16,6.545,1.795,10.09,1.795
	c2.5,0,4.922-0.315,7.238-0.909l19.737,53.884c-4.859,3.201-8.072,8.703-8.072,14.958c0,9.896,8.021,17.913,17.913,17.913
	c9.892,0,17.913-8.017,17.913-17.913c0-9.895-8.021-17.913-17.913-17.913c-0.949,0-1.874,0.096-2.783,0.238l-19.772-53.984
	c4.575-2.569,8.384-6.334,11.007-10.874l64.076,24.482c0.17,3.426,2.998,6.152,6.466,6.152c3.58,0,6.482-2.903,6.482-6.482
	C306.018,237.169,303.114,234.264,299.535,234.264"/>
</svg>
