<?xml version="1.0" encoding="utf-8"?>
<!-- Generator: Adobe Illustrator 16.0.0, SVG Export Plug-In . SVG Version: 6.00 Build 0)  -->
<!DOCTYPE svg PUBLIC "-//W3C//DTD SVG 1.1//EN" "http://www.w3.org/Graphics/SVG/1.1/DTD/svg11.dtd">
<svg version="1.1" id="Layer_1" xmlns="http://www.w3.org/2000/svg" xmlns:xlink="http://www.w3.org/1999/xlink" x="0px" y="0px"
	 width="512px" height="512px" viewBox="0 0 512 512" enable-background="new 0 0 512 512" xml:space="preserve">
<g>
	<g>
		<linearGradient id="SVGID_1_" gradientUnits="userSpaceOnUse" x1="101.2378" y1="100.6938" x2="417.3109" y2="416.767">
			<stop  offset="0" style="stop-color:#FFA300"/>
			<stop  offset="1" style="stop-color:#FF6400"/>
		</linearGradient>
		<path fill="url(#SVGID_1_)" d="M481.873,256.33c0,124.261-100.733,225-225,225s-225-100.739-225-225
			c0-124.267,100.733-225,225-225S481.873,132.063,481.873,256.33z"/>
		<linearGradient id="SVGID_2_" gradientUnits="userSpaceOnUse" x1="150.9268" y1="72.8252" x2="362.8198" y2="439.8348">
			<stop  offset="0" style="stop-color:#FF6400"/>
			<stop  offset="1" style="stop-color:#FFA300"/>
		</linearGradient>
		<circle fill="url(#SVGID_2_)" cx="256.873" cy="256.33" r="211.858"/>
	</g>
</g>
<g>
	<path fill-rule="evenodd" clip-rule="evenodd" fill="#FFFFFF" d="M182.698,138.897c60.434,0,120.581,0,180.978,0
		c0,28.948,0,57.573,0,86.546c-4.242-0.966-8.441-1.681-12.438-3.007c-0.984-0.324-1.821-2.653-1.834-4.065
		c-0.109-19.597-0.073-39.199-0.073-58.79c0-1.889,0-3.778,0-6.039c-50.917,0-101.467,0-152.298,0c0,59.987,0,119.969,0,180.666
		c1.65,0,3.319,0,4.994,0c17.677,0,35.367,0.067,53.044-0.061c2.831-0.031,4.224,0.8,5.226,3.483
		c1.369,3.661,3.344,7.091,5.208,10.93c-27.72,0-55.067,0-82.806,0C182.698,278.8,182.698,208.977,182.698,138.897z"/>
	<path fill-rule="evenodd" clip-rule="evenodd" fill="#FFFFFF" d="M409.477,305.261c-0.586,40.935-33.025,72.518-73.894,71.962
		c-40.104-0.551-71.619-33.276-71.039-73.753c0.575-39.859,33.527-71.81,73.282-71.058
		C378.09,233.176,410.045,265.664,409.477,305.261z M395.639,305.064c0.018-32.493-26.357-58.967-58.717-58.955
		c-32.108,0.006-58.661,26.443-58.796,58.527c-0.141,32.213,26.614,59.041,58.833,59.01
		C369.073,363.616,395.613,337.118,395.639,305.064z"/>
	<path fill-rule="evenodd" clip-rule="evenodd" fill="#FFFFFF" d="M158.854,152.62c4.578,0,8.833,0,13.337,0
		c0,60.807,0,121.4,0,182.201c-4.517,0-8.765,0-13.337,0C158.854,274.172,158.854,213.592,158.854,152.62z"/>
	<path fill-rule="evenodd" clip-rule="evenodd" fill="#FFFFFF" d="M136.922,166.208c4.31,0,8.228,0,12.433,0
		c0,51.736,0,103.196,0,154.944c-4.187,0-8.105,0-12.433,0C136.922,269.649,136.922,218.054,136.922,166.208z"/>
	<path fill-rule="evenodd" clip-rule="evenodd" fill="#FFFFFF" d="M207.454,179.869c0-3.796,0-7.25,0-11.1
		c43.563,0,87.023,0,130.74,0c0,3.686,0,7.255,0,11.1C294.685,179.869,251.317,179.869,207.454,179.869z"/>
	<path fill-rule="evenodd" clip-rule="evenodd" fill="#FFFFFF" d="M250.712,201.263c29.187,0,57.971,0,86.974,0
		c0,2.378,0,4.505,0,6.919c-29.187,0-58.086,0-86.974,0C250.712,205.67,250.712,203.396,250.712,201.263z"/>
	<path fill-rule="evenodd" clip-rule="evenodd" fill="#FFFFFF" d="M250.479,225.401c0-2.671,0-4.682,0-7.029
		c24.376,0,48.594,0,74.34,0c-1.369,1.962-2.103,4.175-3.228,4.401c-5.703,1.162-11.51,2.415-17.292,2.512
		C286.519,225.597,268.731,225.401,250.479,225.401z"/>
	<path fill-rule="evenodd" clip-rule="evenodd" fill="#FFFFFF" d="M207.637,243.512c9.26,0,18.111,0,27.426,0
		c-1.167,2.812-2.408,3.979-5.586,3.735c-5.832-0.458-11.742-0.135-18.001-0.135c0,6.926,0,13.655,0,20.722
		c6.345,0,12.757,0,19.315,0c1.333-3.46-1.491-8.301,3.808-10.648c0,4.842,0,9.554,0,14.518c-8.912,0-17.757,0-26.962,0
		C207.637,262.448,207.637,253.17,207.637,243.512z"/>
	<path fill-rule="evenodd" clip-rule="evenodd" fill="#FFFFFF" d="M211.311,291.936c0,7.219,0,13.826,0,20.715
		c6.522,0,12.812,0,19.358,0c1.736-3.228-1.62-8.502,4.003-10.672c0,4.761,0,9.406,0,14.413c-8.863,0-17.818,0-27.078,0
		c0-9.193,0-18.351,0-27.886c8.869,0,17.842,0,26.828,0c0.214,0.336,0.434,0.666,0.654,0.996c-1.742,0.819-3.454,2.237-5.232,2.323
		C223.829,292.118,217.79,291.936,211.311,291.936z"/>
	<path fill-rule="evenodd" clip-rule="evenodd" fill="#FFFFFF" d="M234.776,227.204c-9.193,0-18.179,0-27.323,0
		c0-9.346,0-18.386,0-27.818c9.053,0,18.014,0,26.98,0c0.202,0.367,0.397,0.74,0.593,1.113c-1.791,0.746-3.551,2.054-5.379,2.133
		c-5.996,0.275-12.017,0.104-18.289,0.104c0,7.066,0,13.698,0,20.685c6.431,0,12.861,0,19.389,0c1.4-3.502-1.497-8.6,4.028-10.746
		C234.776,217.577,234.776,222.271,234.776,227.204z"/>
	<path fill-rule="evenodd" clip-rule="evenodd" fill="#FFFFFF" d="M250.553,252.846c0-2.787,0-4.945,0-7.311
		c9.028,0,17.812,0,26.919,0c-3.007,5.171-6.437,8.38-12.854,7.433C260.137,252.314,255.485,252.846,250.553,252.846z"/>
	<path fill-rule="evenodd" clip-rule="evenodd" fill="#FFFFFF" d="M236.494,289.301c1.668,1.742,2.5,2.61,3.105,3.246
		c-5.667,5.653-11.119,11.094-16.552,16.516c-2.421-2.665-5.055-5.563-8.063-8.863c0.177-0.214,0.99-1.234,2.316-2.891
		c1.803,2.463,3.368,4.608,5.043,6.906C227.417,298.867,231.745,294.307,236.494,289.301z"/>
	<path fill-rule="evenodd" clip-rule="evenodd" fill="#FFFFFF" d="M222.723,220.107c-2.494-2.598-5.22-5.446-8.252-8.618
		c0.789-0.832,1.669-1.785,2.842-3.038c1.925,2.207,3.588,4.12,5.464,6.259c4.475-4.902,8.705-9.535,13.179-14.431
		c1.889,1.607,2.861,2.439,3.686,3.136C233.89,209.081,228.389,214.515,222.723,220.107z"/>
	<path fill-rule="evenodd" clip-rule="evenodd" fill="#FFFFFF" d="M214.141,255.927c1.094-0.893,2.036-1.663,3.533-2.892
		c1.668,2.17,3.215,4.188,4.884,6.369c4.737-5.061,9.022-9.639,13.576-14.504c1.822,1.62,2.769,2.457,3.741,3.325
		c-5.746,5.746-11.222,11.216-16.632,16.625C220.345,262.009,217.441,259.16,214.141,255.927z"/>
	<path fill-rule="evenodd" clip-rule="evenodd" fill="#FFFFFF" d="M250.528,269.637c0-2.451,0-4.615,0-6.999
		c4.725,0,9.224,0,13.783,0C261.433,270.719,261.299,270.78,250.528,269.637z"/>
	<path fill-rule="evenodd" clip-rule="evenodd" fill="#FFFFFF" d="M255.021,290.364c-2.023,2.316,1.43,7.097-4.462,7.335
		c0-2.494,0-4.78,0-7.335C251.867,290.364,253.169,290.364,255.021,290.364z"/>
	<path fill-rule="evenodd" clip-rule="evenodd" fill="#FFFFFF" d="M253.682,314.246c-3.735,0.244-3.735,0.244-3.056-6.517
		C253.902,307.883,254.012,308.133,253.682,314.246z"/>
	<path fill-rule="evenodd" clip-rule="evenodd" fill="#FFFFFF" d="M351.977,313.158c1.993,1.088,2.311,5.293,5.898,2.219
		c0.129-0.104,1.425,1.008,2.079,1.65c5.568,5.452,11.124,10.935,16.534,16.259c-3.698,3.558-7.177,6.895-10.887,10.471
		c-4.976-5.056-10.587-10.69-16.106-16.412c-0.654-0.673-1.418-2.359-1.167-2.604c2.249-2.188-0.049-3.325-1.198-3.937
		c-1.027-0.551-2.897-0.367-4.004,0.226c-6.962,3.698-14.102,5.324-22.017,3.612c-15.686-3.398-25.44-17.054-23.943-33.942
		c1.254-14.162,14.885-26.259,29.737-26.405c15.733-0.146,28.845,11.448,30.679,26.938
		C358.518,299.172,356.433,306.293,351.977,313.158z M327.264,315.994c11.767,0.03,21.357-9.304,21.504-20.923
		c0.153-11.81-9.505-21.425-21.504-21.394c-11.662,0.036-21.295,9.596-21.289,21.148
		C305.98,306.385,315.613,315.963,327.264,315.994z"/>
</g>
</svg>
