<?xml version="1.0" encoding="utf-8"?>
<!-- Generator: Adobe Illustrator 16.0.0, SVG Export Plug-In . SVG Version: 6.00 Build 0)  -->
<!DOCTYPE svg PUBLIC "-//W3C//DTD SVG 1.1//EN" "http://www.w3.org/Graphics/SVG/1.1/DTD/svg11.dtd">
<svg version="1.1" id="Layer_1" xmlns="http://www.w3.org/2000/svg" xmlns:xlink="http://www.w3.org/1999/xlink" x="0px" y="0px"
	 width="512px" height="512px" viewBox="0 0 512 512" enable-background="new 0 0 512 512" xml:space="preserve">
<g>
	<g>
		<linearGradient id="SVGID_1_" gradientUnits="userSpaceOnUse" x1="100.9419" y1="100.8188" x2="417.0157" y2="416.8927">
			<stop  offset="0" style="stop-color:#FF00FF"/>
			<stop  offset="1" style="stop-color:#FF006F"/>
		</linearGradient>
		<path fill="url(#SVGID_1_)" d="M481.577,256.455c0,124.261-100.733,225-225,225s-225-100.739-225-225
			c0-124.267,100.733-225,225-225S481.577,132.188,481.577,256.455z"/>
		<linearGradient id="SVGID_2_" gradientUnits="userSpaceOnUse" x1="150.6309" y1="72.9502" x2="362.5239" y2="439.9598">
			<stop  offset="0" style="stop-color:#FF006F"/>
			<stop  offset="0.6601" style="stop-color:#FF007F"/>
			<stop  offset="1" style="stop-color:#FF00FF"/>
		</linearGradient>
		<circle fill="url(#SVGID_2_)" cx="256.577" cy="256.455" r="211.858"/>
	</g>
</g>
<g>
	<path fill-rule="evenodd" clip-rule="evenodd" fill="#FFFFFF" d="M256.351,372.837c-27.396,0-54.786-0.19-82.17,0.055
		c-23.6,0.214-46.058-19.627-46.278-45.611c-0.128-14.603-0.22-29.212,0.275-43.802c0.721-20.838,20.024-40.465,40.77-41.987
		c4.395-0.312,8.796-0.501,13.197-0.501c51.473-0.031,102.965-0.012,154.438-0.025c18.448-0.006,32.702,7.592,42.402,23.344
		c3.826,6.21,6.155,13.025,6.192,20.416c0.061,14.951,0.409,29.908-0.073,44.841c-0.765,23.154-21.443,43.044-44.694,43.197
		c-28.008,0.189-56.039,0.042-84.059,0.042C256.351,372.813,256.351,372.824,256.351,372.837z M275.568,341.73
		c1.51,1.161,2.665,2.213,3.961,3.007c8.466,5.22,19.034,1.253,19.42-7.946c0.635-15.195,0.488-30.452,0.006-45.66
		c-0.238-7.476-6.088-11.852-13.594-10.818c-3.356,0.458-6.486,2.512-10.11,4.021c0-8.759,0-17.616,0-26.473
		c-4.67,0-8.833,0-12.867,0c0,29.517,0,58.704,0,88.093c4.304,0,8.331,0,12.524,0C275.129,344.542,275.336,343.24,275.568,341.73z
		 M344.505,315.232c0-6.546,0.043-12.487-0.019-18.429c-0.085-9.981-6.283-17.029-15.317-17.524
		c-12.885-0.703-21.889,5.36-22.39,16.112c-0.568,12.219-0.147,24.468-0.11,36.712c0.013,1.057,0.336,2.151,0.666,3.19
		c3.222,10.152,13.057,14.816,24.792,11.803c9.315-2.408,13.863-10.941,11.864-22.347c-4.144,0-8.282,0-12.555,0
		c-0.141,2.481-0.195,4.676-0.415,6.84c-0.313,3.515-2.543,4.804-5.808,4.737c-3.185-0.062-5.073-1.858-5.201-4.902
		c-0.221-5.294-0.062-10.6-0.062-16.192C328.246,315.232,336.07,315.232,344.505,315.232z M239.169,281.033
		c0,5.422,0.006,10.294,0,15.171c0,10.526,0.055,21.063-0.031,31.596c-0.03,3.71-4.187,7.47-7.83,7.183
		c-4.639-0.355-3.062-4.077-3.105-6.51c-0.171-9.891-0.073-19.793-0.067-29.683c0-5.904,0-11.785,0-17.695
		c-4.798,0-8.783,0-13.056,0c0,19.517-0.171,38.673,0.098,57.823c0.085,5.716,5.006,9.322,10.501,7.764
		c4.615-1.303,8.857-3.955,13.252-6.015c0.092,1.332,0.208,3.288,0.348,5.238c4.267,0,8.289,0,12.543,0c0-21.699,0-43.142,0-64.872
		C247.573,281.033,243.576,281.033,239.169,281.033z M194.138,270.428c5.434,0,10.098,0,14.994,0c0-4.413,0-8.416,0-12.615
		c-15.049,0-29.89,0-44.725,0c0,4.4,0,8.526,0,12.971c5.043,0,9.682,0,14.859,0c0,25.25,0,50.152,0,75.066c5.184,0,9.811,0,14.872,0
		C194.138,320.752,194.138,295.96,194.138,270.428z"/>
	<path fill-rule="evenodd" clip-rule="evenodd" fill="#FFFFFF" d="M196.143,218.026c0-11.693,0.085-23.007-0.061-34.321
		c-0.03-2.763-0.428-5.636-1.29-8.246c-5.373-16.327-10.923-32.604-16.388-48.9c-0.581-1.742-0.966-3.551-1.571-5.813
		c5.024,0,9.597-0.293,14.077,0.189c1.247,0.135,2.812,2.415,3.276,3.991c3.374,11.522,6.497,23.118,10.715,34.823
		c3.46-12.959,6.913-25.911,10.373-38.875c5.593,0,10.758,0,16.564,0c-2.335,7.115-4.56,14.01-6.87,20.868
		c-3.209,9.499-6.155,19.083-9.817,28.387c-3.857,9.768-1.754,19.829-2.365,29.749c-0.367,5.923-0.061,11.883-0.061,18.148
		C207.237,218.026,201.968,218.026,196.143,218.026z"/>
	<path fill-rule="evenodd" clip-rule="evenodd" fill="#FFFFFF" d="M275.557,182.127c0,6.767,0.128,13.539-0.024,20.299
		c-0.189,7.684-3.82,13.802-11.192,15.636c-5.844,1.455-12.481,1.65-18.374,0.453c-8.178-1.657-12.585-8.551-12.812-18.167
		c-0.312-12.573-0.342-25.177-0.031-37.757c0.275-11.613,10.281-18.93,23.54-17.977c11.448,0.831,19.981,8.539,19.016,20.52
		c-0.465,5.63-0.079,11.326-0.079,16.993C275.587,182.127,275.568,182.127,275.557,182.127z M260.996,181.81
		c-0.049,0-0.115,0-0.177,0c0-5.959,0.062-11.913-0.019-17.867c-0.061-4.884-1.943-6.828-6.381-6.852
		c-4.089-0.024-6.277,2.311-6.29,7.017c-0.049,11.803-0.043,23.612,0,35.422c0.012,5.794,1.785,7.946,6.265,7.94
		c4.75-0.012,6.601-2.311,6.601-8.209C261.003,193.448,260.996,187.629,260.996,181.81z"/>
	<path fill-rule="evenodd" clip-rule="evenodd" fill="#FFFFFF" d="M287.861,146.571c5.061,0,9.443,0,14.34,0
		c0.091,1.687,0.256,3.35,0.263,5.024c0.018,15.874-0.043,31.748,0.049,47.622c0.024,2.903-1.009,6.871,3.813,7.188
		c3.619,0.25,8.747-4.737,8.754-8.313c0.049-15.263,0.024-30.532,0.024-45.794c0-1.718,0-3.436,0-5.489c4.706,0,9.168,0,13.991,0
		c0,23.582,0,47.243,0,71.235c-4.462,0-8.942,0-13.784,0c-0.116-2.213-0.231-4.346-0.372-7.25c-2.14,1.724-3.735,3.423-5.679,4.462
		c-2.867,1.516-5.887,3.075-9.034,3.735c-6.986,1.437-12.146-2.219-12.262-9.34C287.653,188.76,287.861,167.855,287.861,146.571z"/>
	<path fill-rule="evenodd" clip-rule="evenodd" d="M285.893,313.563c0-5.972,0.049-11.943-0.019-17.909
		c-0.024-3.417-1.821-5.184-5.306-5.11c-3.276,0.067-5.33,1.271-5.312,5.013c0.079,11.772,0.122,23.558-0.013,35.33
		c-0.055,4.303,2.739,5.507,5.96,5.666c3.454,0.171,4.817-2.146,4.731-5.563C285.807,325.178,285.898,319.371,285.893,313.563z"/>
	<path fill-rule="evenodd" clip-rule="evenodd" fill="#FFFFFF" d="M285.898,313.563c0,5.808-0.092,11.614,0.037,17.427
		c0.086,3.417-1.277,5.733-4.731,5.563c-3.221-0.159-6.015-1.363-5.96-5.666c0.135-11.772,0.092-23.558,0.013-35.33
		c-0.019-3.741,2.035-4.945,5.312-5.013c3.484-0.073,5.281,1.693,5.306,5.11C285.941,301.62,285.893,307.592,285.898,313.563z"/>
	<path fill-rule="evenodd" clip-rule="evenodd" fill="#FFFFFF" d="M331.033,304.701c-3.814,0-7.091,0-11.082,0
		c0-3.117-0.244-6.192,0.067-9.218c0.317-2.909,2.157-5.403,5.244-4.683c2.14,0.508,4.884,2.421,5.532,4.328
		C331.736,297.892,331.033,301.223,331.033,304.701z"/>
</g>
</svg>
