<?xml version="1.0" encoding="utf-8"?>
<!-- Generator: Adobe Illustrator 16.0.0, SVG Export Plug-In . SVG Version: 6.00 Build 0)  -->
<!DOCTYPE svg PUBLIC "-//W3C//DTD SVG 1.1//EN" "http://www.w3.org/Graphics/SVG/1.1/DTD/svg11.dtd">
<svg version="1.1" id="Layer_1" xmlns="http://www.w3.org/2000/svg" xmlns:xlink="http://www.w3.org/1999/xlink" x="0px" y="0px"
	 width="512px" height="512px" viewBox="0 0 512 512" enable-background="new 0 0 512 512" xml:space="preserve">
<g>
	<g>
		<linearGradient id="SVGID_1_" gradientUnits="userSpaceOnUse" x1="99.7114" y1="99.2798" x2="415.7846" y2="415.3529">
			<stop  offset="0" style="stop-color:#00B5A4"/>
			<stop  offset="1" style="stop-color:#007D7D"/>
		</linearGradient>
		<path fill="url(#SVGID_1_)" d="M480.347,254.916c0,124.261-100.733,225-225,225s-225-100.739-225-225
			c0-124.267,100.733-225,225-225S480.347,130.649,480.347,254.916z"/>
		<linearGradient id="SVGID_2_" gradientUnits="userSpaceOnUse" x1="149.3999" y1="71.4106" x2="361.293" y2="438.4202">
			<stop  offset="0.1823" style="stop-color:#007D7D"/>
			<stop  offset="1" style="stop-color:#00B5A4"/>
		</linearGradient>
		<circle fill="url(#SVGID_2_)" cx="255.347" cy="254.916" r="211.858"/>
	</g>
</g>
<g>
	<path fill-rule="evenodd" clip-rule="evenodd" fill="#FFFFFF" d="M204.729,129.066c-0.263-19.859,15.416-34.224,33.814-34.591
		c21.73-0.446,36.119,15.239,36.314,34.493c0.195,19.981-14.749,34.768-34.884,35.11
		C220.451,164.415,204.466,149.127,204.729,129.066z"/>
	<path fill-rule="evenodd" clip-rule="evenodd" fill="#FFFFFF" d="M375.133,267.092c19.578,0.178,34.377,15.073,34.468,34.346
		c0.104,20.459-14.407,35.239-35.183,35.104c-20.08-0.128-35.189-15.868-34.426-36.033
		C340.652,282.887,355.604,266.542,375.133,267.092z"/>
	<path fill-rule="evenodd" clip-rule="evenodd" fill="#FFFFFF" d="M188.739,333.602c1.082,18.839-14.835,36.088-39.285,33.692
		c-14.474-1.425-30.917-14.585-29.7-37.354c0.825-15.403,14.902-32.286,36.082-31.663
		C174.876,298.847,191.153,315.747,188.739,333.602z"/>
	<path fill-rule="evenodd" clip-rule="evenodd" fill="#FFFFFF" d="M256.361,373.669c13.717-1.039,26.62-2.671,39.132-7.311
		c15.563-5.771,29.554-13.851,41.81-25.03c3.826-3.496,9.621-3.619,12.268-0.574c2.665,3.062,1.901,8.887-1.675,12.193
		c-14.505,13.448-31.234,22.8-50.086,29.035c-21.216,7.022-42.665,7.065-64.438,5.03c-1.21-0.11-3.147,0.3-3.576,1.094
		c-0.507,0.941-0.067,2.738,0.538,3.857c1.864,3.49,4.028,6.81,6.021,10.226c2.146,3.704,1.32,7.109-2.348,10.037
		c-2.854,2.273-7.207,2.378-9.584-0.581c-2.971-3.698-5.33-7.922-7.763-12.029c-4.035-6.784-7.971-13.631-11.853-20.513
		c-3.777-6.688-2.934-10.27,3.906-14.31c10.69-6.314,21.534-12.372,32.372-18.436c3.606-2.017,6.277,0.281,8.576,2.641
		c2.384,2.445,3.625,5.746,0.837,8.307c-3.374,3.081-7.531,5.294-11.271,7.978c-1.73,1.246-3.294,2.72-4.933,4.095
		c2.06,0.923,4.034,2.341,6.173,2.665C245.909,372.862,251.422,373.192,256.361,373.669z"/>
	<path fill-rule="evenodd" clip-rule="evenodd" fill="#FFFFFF" d="M339.362,212.936c1.504-2.023,2.629-5.116,4.603-5.807
		c2.604-0.917,6.144-0.654,8.79,0.36c3.479,1.351,6.418,4.065,9.743,5.905c1.198,0.654,2.861,0.44,4.31,0.624
		c-0.006-1.302,0.379-2.775-0.079-3.894c-4.859-11.81-11.357-22.659-19.664-32.366c-14.865-17.378-33.222-29.584-54.921-36.779
		c-4.535-1.498-7.029-6.027-5.55-9.878c1.895-4.908,6.283-6.253,11.356-4.596c12.451,4.046,23.985,9.853,34.75,17.188
		c12.23,8.337,22.769,18.454,31.656,30.367c7.573,10.159,13.239,21.278,17.83,33.007c1.339,3.429,3.02,3.943,5.294,0.997
		c1.882-2.427,3.093-5.361,4.761-7.964c1.131-1.767,2.219-3.857,3.882-4.915c3.19-2.023,6.785-1.999,9.945,0.342
		c2.677,1.98,3.343,6.394,1.399,9.7c-6.069,10.354-12.127,20.715-18.46,30.911c-3.68,5.917-7.305,6.662-13.19,3.258
		c-9.994-5.795-19.994-11.589-29.859-17.61C343,219.977,339.906,217.832,339.362,212.936z"/>
	<path fill-rule="evenodd" clip-rule="evenodd" fill="#FFFFFF" d="M157.443,148.168c6.088,0,12.17-0.031,18.252,0.006
		c5.88,0.031,8.753,2.83,8.686,8.985c-0.104,9.046-0.544,18.093-0.782,27.14c-0.086,3.392,0.128,6.797-0.049,10.183
		c-0.238,4.578-3.362,7.433-7.665,7.304c-4.157-0.134-6.779-2.958-6.828-7.506c-0.042-4.107,0.184-8.221-0.024-12.311
		c-0.067-1.333-0.855-3.405-1.791-3.716c-1.045-0.361-3.124,0.52-3.906,1.522c-9.035,11.522-15.948,24.187-20.917,38.014
		c-5.868,16.345-6.632,33.16-5.514,50.195c0.245,3.771,1.883,7.451,2.091,11.21c0.165,3.044,0.122,6.913-1.553,9.083
		c-3.808,4.939-10.648,3.497-12.604-2.664c-1.693-5.324-2.097-11.058-3.056-16.614c-2.524-14.633-0.929-29.218,2.139-43.417
		c4.652-21.522,13.778-41.131,29.004-57.512c0.807-0.855,1.412-2.793,0.972-3.661c-0.41-0.832-2.292-1.235-3.545-1.284
		c-3.955-0.135-7.946,0.293-11.87-0.061c-7.39-0.667-10.642-6.528-6.596-12.054c1.168-1.589,3.937-2.684,6.033-2.8
		c6.492-0.354,13.014-0.128,19.523-0.128C157.443,148.113,157.443,148.137,157.443,148.168z"/>
	<path fill-rule="evenodd" clip-rule="evenodd" fill="#FFFFFF" d="M254.577,308.565c-10.092-6.101-19.206-11.632-28.356-17.121
		c-5.318-3.19-10.629-6.394-16.045-9.426c-2.543-1.412-3.222-3.093-3.185-6.106c0.183-15.538-0.055-31.069-0.116-46.607
		c-0.006-0.776,0.269-1.553,0.52-2.867c4.12,2.506,7.885,4.811,11.656,7.084c10.74,6.479,21.522,12.879,32.17,19.499
		c1.467,0.917,3.191,2.934,3.209,4.462C254.656,274.134,254.577,290.777,254.577,308.565z"/>
	<path fill-rule="evenodd" clip-rule="evenodd" fill="#FFFFFF" d="M309.613,226.511c0.269,1.186,0.647,2.072,0.642,2.971
		c-0.019,15.544,0.024,31.094-0.287,46.632c-0.043,1.999-1.448,4.786-3.087,5.807c-13.759,8.558-27.714,16.803-41.62,25.128
		c-0.458,0.27-1.032,0.343-2.127,0.697c-0.159-1.418-0.397-2.586-0.397-3.753c-0.024-13.839,0.221-27.684-0.116-41.522
		c-0.128-5.391,1.241-8.551,6.314-11.381C282.56,243.485,295.695,235.008,309.613,226.511z M280.848,257.153
		c0.049-0.526,0.221-1.51,0.208-2.488c-0.036-2.665-1.84-3.784-3.931-2.842c-3.166,1.418-7.249,2.873-8.686,5.538
		c-1.619,2.995-0.788,7.347-0.807,11.112c0,0.306,1.675,0.947,2.519,0.874C275.523,268.883,280.964,262.838,280.848,257.153z"/>
	<path fill-rule="evenodd" clip-rule="evenodd" fill="#FFFFFF" d="M208.641,216.444c6.956-4.322,13.118-8.264,19.432-11.956
		c0.923-0.538,2.818-0.281,3.833,0.324c14.028,8.417,27.977,16.95,41.944,25.453c1.76,1.076,3.514,2.146,6.124,3.734
		c-2.457,1.516-4.291,2.635-6.112,3.766c-3.955,2.457-7.928,4.884-11.84,7.408c-2.438,1.571-4.651,1.412-7.115-0.08
		c-14.48-8.759-29.016-17.433-43.515-26.167C210.5,218.382,209.809,217.514,208.641,216.444z"/>
	<path fill-rule="evenodd" clip-rule="evenodd" fill="#FFFFFF" d="M308.751,216.951c-6.564,3.796-12.652,7.476-18.93,10.801
		c-1.046,0.557-3.13-0.055-4.353-0.77c-14.933-8.79-29.798-17.689-44.664-26.589c-0.697-0.416-1.247-1.057-2.458-2.103
		c3.668-2.213,6.962-4.199,10.269-6.18c0.245-0.141,0.563-0.195,0.752-0.379c7.158-7.323,13.649-3.313,20.421,0.898
		c12.329,7.659,24.848,15.006,37.274,22.506C307.4,215.338,307.627,215.729,308.751,216.951z"/>
</g>
</svg>
