<?xml version="1.0" encoding="utf-8"?>
<!-- Generator: Adobe Illustrator 16.0.0, SVG Export Plug-In . SVG Version: 6.00 Build 0)  -->
<!DOCTYPE svg PUBLIC "-//W3C//DTD SVG 1.1//EN" "http://www.w3.org/Graphics/SVG/1.1/DTD/svg11.dtd">
<svg version="1.1" id="Layer_1" xmlns="http://www.w3.org/2000/svg" xmlns:xlink="http://www.w3.org/1999/xlink" x="0px" y="0px"
	 width="512px" height="512px" viewBox="0 0 512 512" enable-background="new 0 0 512 512" xml:space="preserve">
<g>
	<g>
		<linearGradient id="SVGID_1_" gradientUnits="userSpaceOnUse" x1="100.5625" y1="100.8652" x2="416.635" y2="416.9377">
			<stop  offset="0" style="stop-color:#00B100"/>
			<stop  offset="1" style="stop-color:#006700"/>
		</linearGradient>
		<path fill="url(#SVGID_1_)" d="M481.197,256.501c0,124.261-100.733,225-225,225s-225-100.739-225-225
			c0-124.264,100.733-225,225-225S481.197,132.237,481.197,256.501z"/>
		<linearGradient id="SVGID_2_" gradientUnits="userSpaceOnUse" x1="150.25" y1="72.9966" x2="362.146" y2="440.0112">
			<stop  offset="0" style="stop-color:#006700"/>
			<stop  offset="1" style="stop-color:#00B100"/>
		</linearGradient>
		<path fill="url(#SVGID_2_)" d="M468.056,256.501c0,117.011-94.854,211.864-211.858,211.864S44.339,373.512,44.339,256.501
			c0-117.005,94.854-211.858,211.858-211.858S468.056,139.496,468.056,256.501z"/>
	</g>
</g>
<g>
	<path fill-rule="evenodd" clip-rule="evenodd" fill="#FFFFFF" d="M323.275,146.755c0,13.572,0,26.959,0,40.581
		c-45.77,0-91.21,0-136.98,0c0-13.505,0-26.889,0-40.563c-9.132,0-17.94,0-27.06,0c0,75.721,0,151.568,0,227.839
		c3.044,0,6.051,0,9.059,0c11.534,0,23.074,0.085,34.608-0.067c2.751-0.037,4.254,0.593,5.434,3.307
		c1.546,3.533,3.881,6.724,6.045,10.349c-23.044,0-45.893,0-69.022,0c0-84.994,0-169.994,0-255.458c24.083,0,48.215,0,72.58,0
		c0.458-11.776,4.896-21.265,13.722-28.481c7.274-5.941,15.667-8.512,25.08-8.175c18.515,0.66,31.999,14.535,34.914,36.406
		c23.998,0,48.038,0,72.402,0c0,20.244,0,40.165,0,60.146c-4.413-0.192-8.686-0.379-13.361-0.587c0-14.984,0-30.003,0-45.296
		C341.497,146.755,332.683,146.755,323.275,146.755z M277.401,146.492c0-5.248,0.195-10.04-0.036-14.816
		c-0.703-14.487-14.225-24.438-28.271-20.951c-9.683,2.411-16.626,10.993-17.018,21.305c-0.183,4.75-0.03,9.511-0.03,14.575
		c-11.033,0-21.369,0-31.821,0c0,9.141,0,17.946,0,26.806c36.491,0,72.769,0,108.924,0c0-9.12,0-17.922,0-26.919
		C298.618,146.492,288.367,146.492,277.401,146.492z"/>
	<path fill-rule="evenodd" clip-rule="evenodd" fill="#FFFFFF" d="M353.74,297.143c-3.961-1.51-6.705,1.26-9.694,4.267
		c-26.021,26.174-52.121,52.274-78.265,78.325c-13.093,13.044-33.307,11.296-43.154-3.576c-7.219-10.898-5.892-24.963,3.478-34.578
		c8.056-8.264,16.302-16.345,24.462-24.511c18.833-18.826,37.641-37.689,56.534-56.455c1.858-1.846,2.598-3.581,2.451-6.271
		c-1.308-24.878,16.455-45.926,40.733-48.493c24.512-2.592,46.369,14.435,50.245,39.125
		C404.84,272.387,382.811,297.332,353.74,297.143z M371.998,224.646c-11.424-7.096-24.994-6.625-35.557,1.061
		c-10.317,7.509-15.379,20.725-12.108,32.922c0.819,3.025-0.03,4.566-1.968,6.498c-28.186,28.099-56.32,56.259-84.463,84.413
		c-0.984,0.978-2.011,1.938-2.873,3.025c-6.229,7.854-2.201,19.395,7.567,21.613c5.477,1.247,9.816-0.788,13.686-4.663
		c28.551-28.631,57.164-57.201,85.746-85.808c1.369-1.369,2.439-2.396,4.841-1.748c13.087,3.497,25.973-1.015,33.796-11.516
		c7.873-10.55,8.417-23.888,1.284-35.963c-7.476,7.482-15.208,14.621-22.194,22.424c-4.169,4.651-8.698,3.832-13.393,3.404
		c-1.547-6.451,0.263-11.079,5.104-15.348C358.66,238.622,365.158,231.492,371.998,224.646z"/>
	<path fill-rule="evenodd" clip-rule="evenodd" fill="#FFFFFF" d="M276.222,388.206c4.707-4.621,8.667-8.691,12.879-12.5
		c0.947-0.855,2.763-1.045,4.181-1.051c17.482-0.067,34.957-0.043,52.439-0.043c1.394,0,2.781,0,4.811,0c0-1.461,0-2.787,0-4.107
		c0-17.738-0.006-35.465,0.006-53.203c0-4.389,1.956-6.467,6.217-6.724c2.384-0.146,4.762-0.343,7.396-0.538
		c0,26.112,0,52.011,0,78.166C335.152,388.206,306.222,388.206,276.222,388.206z"/>
	<path fill-rule="evenodd" clip-rule="evenodd" fill="#FFFFFF" d="M297.677,237.629c-27.83,0-55.66,0-83.809,0
		c0-4.371,0-8.723,0-13.383c29.322,0,58.735,0,88.356,0C300.708,228.708,299.217,233.09,297.677,237.629z"/>
	<path fill-rule="evenodd" clip-rule="evenodd" fill="#FFFFFF" d="M213.74,274.074c0-4.621,0-8.875,0-13.374
		c24.554,0,48.918,0,74.224,0c-4.762,4.706-8.985,8.948-13.313,13.081c-0.531,0.501-1.656,0.52-2.506,0.52
		c-18.881,0.018-37.763,0.018-56.65,0C215.012,274.301,214.522,274.178,213.74,274.074z"/>
	<path fill-rule="evenodd" clip-rule="evenodd" fill="#FFFFFF" d="M213.758,310.847c0-4.688,0-8.948,0-13.533
		c12.255,0,24.536,0,37.39,0c-4.493,4.523-8.606,8.741-12.83,12.843c-0.532,0.52-1.62,0.654-2.451,0.66
		C228.661,310.865,221.436,310.847,213.758,310.847z"/>
	<path fill-rule="evenodd" clip-rule="evenodd" fill="#FFFFFF" d="M199.865,224.203c0,4.572,0,8.823,0,13.337
		c-4.493,0-8.838,0-13.441,0c0-4.392,0-8.735,0-13.337C190.812,224.203,195.152,224.203,199.865,224.203z"/>
	<path fill-rule="evenodd" clip-rule="evenodd" fill="#FFFFFF" d="M186.393,260.651c4.67,0,8.918,0,13.399,0
		c0,4.529,0,8.869,0,13.441c-4.48,0-8.827,0-13.399,0C186.393,269.612,186.393,265.272,186.393,260.651z"/>
	<path fill-rule="evenodd" clip-rule="evenodd" fill="#FFFFFF" d="M186.362,310.517c0-4.352,0-8.606,0-13.19
		c4.297,0,8.649,0,13.331,0c0,4.169,0,8.509,0,13.19C195.427,310.517,190.989,310.517,186.362,310.517z"/>
</g>
</svg>
