<?xml version="1.0" encoding="utf-8"?>
<!-- Generator: Adobe Illustrator 16.0.0, SVG Export Plug-In . SVG Version: 6.00 Build 0)  -->
<!DOCTYPE svg PUBLIC "-//W3C//DTD SVG 1.1//EN" "http://www.w3.org/Graphics/SVG/1.1/DTD/svg11.dtd">
<svg version="1.1" id="Layer_1" xmlns="http://www.w3.org/2000/svg" xmlns:xlink="http://www.w3.org/1999/xlink" x="0px" y="0px"
	 width="512px" height="512px" viewBox="0 0 512 512" enable-background="new 0 0 512 512" xml:space="preserve">
<g>
	<g>
		<linearGradient id="SVGID_1_" gradientUnits="userSpaceOnUse" x1="101.2104" y1="100.8647" x2="417.2829" y2="416.9372">
			<stop  offset="0" style="stop-color:#00B100"/>
			<stop  offset="1" style="stop-color:#006700"/>
		</linearGradient>
		<path fill="url(#SVGID_1_)" d="M481.846,256.501c0,124.261-100.733,225-225,225s-225-100.739-225-225
			c0-124.264,100.733-225,225-225S481.846,132.237,481.846,256.501z"/>
		<linearGradient id="SVGID_2_" gradientUnits="userSpaceOnUse" x1="150.8984" y1="72.9971" x2="362.7939" y2="440.0109">
			<stop  offset="0" style="stop-color:#006700"/>
			<stop  offset="1" style="stop-color:#00B100"/>
		</linearGradient>
		<path fill="url(#SVGID_2_)" d="M468.704,256.501c0,117.011-94.854,211.864-211.858,211.864S44.987,373.512,44.987,256.501
			c0-117.005,94.854-211.858,211.858-211.858S468.704,139.496,468.704,256.501z"/>
	</g>
</g>
<g>
	<g>
		<path fill-rule="evenodd" clip-rule="evenodd" fill="#FFFFFF" d="M224.089,266.446c8.759,1.18,17.292,1.907,25.666,3.558
			c11.388,2.236,18.876,9.389,22.562,20.354c4.621,13.741,5.679,27.935,3.991,42.201c-1.326,11.363-8.196,17.982-19.994,20.782
			c-8.246,1.956-16.663,2.091-25.061,2.091c-31.559-0.031-63.111,0.012-94.658-0.264c-5.85-0.055-11.815-1.032-17.537-2.401
			c-10.343-2.47-16.956-9.2-18.215-19.866c-1.773-15.085-0.783-30.085,4.67-44.449c3.729-9.823,10.929-16.211,21.253-18.265
			c8.594-1.699,17.366-2.543,26.131-3.777c1.302,8.447,6.858,12.567,13.502,15.281c14.737,6.026,29.664,6.015,44.389-0.067
			c3.172-1.32,6.045-3.576,8.759-5.764C222.243,273.689,223.606,270.565,224.089,266.446z"/>
		<path fill-rule="evenodd" clip-rule="evenodd" fill="#FFFFFF" d="M204.871,269.521c-5.959,3.612-12.322,5.673-19.45,4.805
			c-7.952-0.984-14.658-4.688-20.208-10.214c-16.266-16.183-25.245-35.743-25.171-58.802c0.08-22.585,18.105-42.674,40.452-46.116
			c26.546-4.083,50.514,12.558,55.837,38.888c2.231,11.002,0.214,21.66-3.343,32.072c-1.345,3.921-3.063,7.732-4.829,11.482
			c-0.446,0.981-1.644,1.825-2.702,2.24c-1.62,0.642-3.393,1.058-5.128,1.177c-1.32,0.088-2.708-0.345-4.028-0.724
			c-1.607-0.453-3.136-1.51-4.719-1.571c-4.701-0.189-9.468-0.455-14.114,0.101c-6.381,0.767-11.051,6.98-10.728,13.35
			c0.336,6.657,5.458,12.09,11.968,12.585c2.023,0.146,4.077,0.024,6.112,0.024C204.829,269.05,204.865,269.282,204.871,269.521z"/>
		<path fill-rule="evenodd" clip-rule="evenodd" fill="#FFFFFF" d="M109.266,225.871c0-3.771,0-7.54,0-11.302
			c0.006-4.56,1.815-8.139,5.599-10.819c0.794-0.569,1.32-1.925,1.406-2.971c1.137-14.092,5.752-26.965,14.56-37.986
			c19.034-23.857,43.998-33.527,73.692-26.828c29.168,6.58,47.329,25.7,54.712,54.774c0.862,3.389,0.984,6.965,1.645,10.412
			c0.189,1.018,0.855,2.183,1.681,2.8c3.282,2.491,5.178,5.712,5.232,9.801c0.098,8.09,0.171,16.18-0.006,24.257
			c-0.214,8.896-9.156,14.376-17.396,10.74c-1.295-0.578-2.103-0.458-3.221,0.284c-8.508,5.663-18.025,8.481-28.081,9.624
			c-1.797,0.215-3.197,0.648-4.609,2.006c-1.265,1.216-3.3,1.986-5.085,2.188c-3.007,0.354-6.088,0.172-9.126,0.086
			c-4.45-0.135-7.53-3.271-7.439-7.436c0.085-4.043,3.221-6.932,7.598-6.971c2.964-0.024,5.959-0.25,8.875,0.089
			c1.785,0.201,3.478,1.296,5.232,1.95c0.954,0.352,1.974,0.981,2.91,0.896c8.777-0.856,17.066-3.31,24.676-7.904
			c1.339-0.804,1.876-1.534,1.424-3.246c-0.458-1.736-0.281-3.655-0.287-5.492c-0.024-6.638,0.055-13.295-0.031-19.939
			c-0.067-4.691,1.657-8.353,5.507-11.097c0.575-0.416,0.947-1.574,0.911-2.359c-1.625-25.938-21.32-48.79-47.139-54.728
			c-35.489-8.172-70.202,15.941-74.884,52.029c-0.33,2.591-0.361,4.712,2.335,6.519c2.818,1.892,3.888,5.171,3.894,8.649
			c0.006,8.01,0.08,16.012-0.024,24.022c-0.092,6.932-5.465,12.048-12.366,11.965c-6.772-0.07-12.023-5.205-12.164-12.011
			c-0.092-4-0.024-8.001-0.024-12.002C109.266,225.871,109.266,225.871,109.266,225.871z"/>
	</g>
</g>
<g>
	<path fill-rule="evenodd" clip-rule="evenodd" fill="#FFFFFF" d="M385,192.846c-29.401,0-58.644,0-88.197,0
		c-0.165,1.485-0.434,2.809-0.439,4.135c-0.025,15.603,0.091,31.208-0.086,46.807c-0.043,3.835,1.148,5.027,4.987,4.981
		c15.776-0.183,31.559-0.269,47.323,0.098c3.02,0.074,6.949,1.568,8.796,3.79c4.089,4.933-0.007,11.932-6.932,12.115
		c-9.945,0.269-19.89,0.098-29.835,0.104c-10.281,0.006-20.574,0.079-30.862-0.03c-6.797-0.073-9.682-2.946-9.706-9.805
		c-0.073-22.98-0.073-45.957,0-68.93c0.024-6.785,2.995-9.89,9.7-9.909c34.12-0.076,68.246-0.076,102.359,0.009
		c6.253,0.015,9.15,2.91,9.518,9.059c0.195,3.414,0.207,6.87-0.073,10.271c-0.44,5.352-3.424,8.243-8.045,8.246
		c-4.364,0-7.292-2.751-8.117-7.674C385.226,195.129,385.152,194.123,385,192.846z"/>
	<path fill-rule="evenodd" clip-rule="evenodd" fill="#FFFFFF" d="M393.74,224.288c-7.188,0.006-14.376,0.067-21.559-0.012
		c-6.461-0.07-10.269-3.285-10.152-8.362c0.116-4.93,3.771-8.01,9.927-8.038c14.364-0.067,28.747-0.067,43.117,0
		c6.088,0.031,9.78,3.169,9.859,8.075c0.079,4.902-3.644,8.225-9.634,8.313C408.117,224.374,400.923,224.288,393.74,224.288z"/>
	<path fill-rule="evenodd" clip-rule="evenodd" fill="#FFFFFF" d="M393.551,228.31c7.354,0,14.713-0.085,22.061,0.025
		c5.77,0.085,9.254,3.196,9.314,8.01c0.056,4.709-3.508,8.172-9.174,8.224c-14.878,0.144-29.756,0.15-44.628-0.006
		c-5.685-0.055-9.218-3.585-9.083-8.329c0.129-4.838,3.558-7.814,9.45-7.9C378.845,228.23,386.204,228.31,393.551,228.31z"/>
	<path fill-rule="evenodd" clip-rule="evenodd" fill="#FFFFFF" d="M393.447,248.708c7.371-0.003,14.743-0.092,22.115,0.027
		c5.818,0.095,9.34,3.215,9.363,8.001c0.025,4.801-3.483,8.053-9.26,8.096c-14.75,0.098-29.493,0.098-44.242,0
		c-5.887-0.036-9.34-3.16-9.383-7.995c-0.03-4.835,3.447-8.001,9.285-8.099C378.697,248.613,386.069,248.71,393.447,248.708z"/>
	<path fill-rule="evenodd" clip-rule="evenodd" fill="#FFFFFF" d="M317.622,228.414c2.213,1.021,3.856,2.032,5.636,2.534
		c2.757,0.77,5.605,1.556,8.429,1.595c1.241,0.016,2.513-1.806,3.766-2.784c-0.96-1.213-1.675-2.937-2.928-3.521
		c-2.916-1.375-6.119-2.152-9.163-3.271c-4.706-1.724-7.971-4.679-8.111-10.073c-0.141-5.189,2.378-8.609,6.92-11.03
		c1.479-0.786,2.194-2.919,3.393-4.334c0.916-1.094,1.938-2.68,3.086-2.848c1.119-0.156,3.479,1.152,3.533,1.925
		c0.275,4.532,4.053,4.747,6.797,6.51c1.675,1.076,2.488,3.487,3.698,5.299c-1.932,0.807-3.899,2.363-5.758,2.244
		c-2.806-0.184-5.495-1.959-8.313-2.21c-1.406-0.122-2.978,1.647-4.469,2.558c1.015,1.345,1.742,3.255,3.093,3.912
		c2.897,1.415,6.119,2.143,9.175,3.236c4.811,1.715,7.861,4.994,7.879,10.245c0.019,5.299-2.671,8.909-7.573,11.174
		c-1.65,0.764-2.658,2.845-4.064,4.211c-1.131,1.1-2.457,2.848-3.637,2.803c-1.204-0.049-3.246-1.88-3.325-3.032
		c-0.184-3.105-2.048-3.805-4.396-4.709c-2.188-0.843-4.406-1.99-6.118-3.554c-0.844-0.771-1.106-2.949-0.673-4.142
		C314.926,229.988,316.57,229.273,317.622,228.414z"/>
</g>
</svg>
