<?xml version="1.0" encoding="utf-8"?>
<!-- Generator: Adobe Illustrator 16.0.0, SVG Export Plug-In . SVG Version: 6.00 Build 0)  -->
<!DOCTYPE svg PUBLIC "-//W3C//DTD SVG 1.1//EN" "http://www.w3.org/Graphics/SVG/1.1/DTD/svg11.dtd">
<svg version="1.1" id="Layer_1" xmlns="http://www.w3.org/2000/svg" xmlns:xlink="http://www.w3.org/1999/xlink" x="0px" y="0px"
	 width="512px" height="512px" viewBox="0 0 512 512" enable-background="new 0 0 512 512" xml:space="preserve">
<g>
	<g>
		<linearGradient id="SVGID_1_" gradientUnits="userSpaceOnUse" x1="99.6631" y1="99.8193" x2="415.7362" y2="415.8925">
			<stop  offset="0" style="stop-color:#00C9FF"/>
			<stop  offset="1" style="stop-color:#0091FF"/>
		</linearGradient>
		<path fill="url(#SVGID_1_)" d="M480.298,255.455c0,124.261-100.733,225-225,225s-225-100.739-225-225
			c0-124.267,100.733-225,225-225S480.298,131.188,480.298,255.455z"/>
		<linearGradient id="SVGID_2_" gradientUnits="userSpaceOnUse" x1="149.3516" y1="71.9512" x2="361.2446" y2="438.9608">
			<stop  offset="0" style="stop-color:#0091FF"/>
			<stop  offset="0.4483" style="stop-color:#0093FF"/>
			<stop  offset="1" style="stop-color:#00C9FF"/>
		</linearGradient>
		<circle fill="url(#SVGID_2_)" cx="255.298" cy="255.455" r="211.858"/>
	</g>
</g>
<g>
	<path fill-rule="evenodd" clip-rule="evenodd" fill="#FFFFFF" d="M216.582,227.069c21.418,13.068,42.842,26.131,64.517,39.339
		c-3.979,5.165-8.68,8.43-15.171,9.139c-11.962,1.308-22.384-2.5-32.354-8.686c-13.271-8.246-26.754-16.162-40.104-24.292
		c-1.455-0.88-2.616-1.198-4.089-0.153c-1.943,1.382-4.945,2.201-5.715,4.01c-0.624,1.449,1.528,3.985,2.219,6.113
		c1.388,4.23,2.989,8.441,3.82,12.788c1.455,7.604-0.385,14.768-5.208,20.727c-9.804,12.152-22.164,19.842-38.325,18.931
		c-18.631-1.051-29.578-13.344-30.862-30.764c-0.471-6.277,2.158-11.669,6.302-16.314c5.531-6.204,12.329-10.825,19.272-15.238
		c7.61-4.829,15.348-9.444,23.025-14.175c0.862-0.514,1.675-1.106,2.91-1.932c-2.097-1.32-3.826-2.396-5.55-3.502
		c-10.275-6.559-20.623-13.02-30.782-19.762c-2.885-1.913-5.257-4.627-7.763-7.084c-8.332-8.16-9.328-17.683-5.067-28.148
		c4.988-12.255,14.297-18.692,27.28-19.694c16.693-1.295,29.694,6.192,39.511,18.851c8.282,10.685,6.785,22.555,1.119,34.138
		c-0.832,1.705-1.754,3.374-2.824,5.44c2.732,1.571,5.275,3.179,7.958,4.499c0.611,0.306,1.815-0.189,2.562-0.63
		c13.722-8.142,27.377-16.394,41.137-24.474c6.241-3.667,12.506-7.665,19.951-8.24c6.681-0.52,13.655-1.675,19.762,2.47
		c2.519,1.711,4.73,3.894,7.476,6.191c-22.103,13.436-43.582,26.485-65.055,39.542C216.551,226.464,216.563,226.763,216.582,227.069
		z M147.297,278.512c4.627-0.202,8.056-1.84,11.345-3.845c7.2-4.407,8.038-7.929,3.606-15.129c-0.08-0.135-0.159-0.269-0.232-0.415
		c-0.642-1.205-1.516-1.254-2.567-0.526c-5.44,3.753-10.972,7.384-16.302,11.29c-3.38,2.47-3.038,5.428,0.715,7.494
		C145.072,278.053,146.545,278.273,147.297,278.512z M148.397,171.115c-0.99,0.085-1.559,0.085-2.103,0.202
		c-2.604,0.556-4.651,2.048-5.403,4.542c-0.678,2.237,1.479,3.368,2.946,4.438c3.777,2.788,7.628,5.477,11.553,8.044
		c6.491,4.254,7.127,4.022,9.04-3.753c0.379-1.54,0.41-3.887-0.482-4.908C159.766,174.868,154.509,171.72,148.397,171.115z"/>
	<path fill-rule="evenodd" clip-rule="evenodd" fill="#FFFFFF" d="M187.627,299.44c0,7.078,0,13.533,0,19.981
		c0,5.508,0.232,11.021-0.049,16.516c-0.514,9.836,8.196,17.965,15.782,20.184c0.953,0.287,2.054,0.165,3.093,0.165
		c49.218-0.067,98.447-0.25,147.684-0.098c7.677,0.03,12.83-3.361,17.164-8.942c2.194-2.824,3.245-5.947,3.227-9.719
		c-0.115-39.646-0.079-79.304-0.006-118.949c0.006-2.616-0.739-4.786-2.023-6.974c-3.044-5.208-7.585-8.558-13.117-10.624
		c-1.131-0.421-2.506-0.287-3.771-0.287c-24.095-0.018-48.196-0.03-72.286-0.043c-0.929,0-1.846,0-3.429,0
		c2.519-1.675,4.518-2.909,6.412-4.297c5.978-4.401,6.705-6.901,4.242-13.93c-0.178-0.513-0.313-1.051-0.581-1.999
		c1.858-0.147,3.552-0.392,5.244-0.392c15.874,0.037,31.761,0.092,47.635,0.227c5.66,0.061,11.326,0.189,16.975,0.605
		c10.11,0.758,18.056,5.88,24.725,13.142c6.534,7.127,10.263,15.477,10.306,25.318c0.11,18.82,0.349,37.653,0.416,56.479
		c0.073,19.865-0.195,39.743,0.134,59.603c0.11,7.701-2.029,14.511-5.898,20.819c-7.268,11.858-17.585,19.181-31.846,20.006
		c-4.933,0.287-9.878,0.409-14.829,0.409c-43.643,0-87.292-0.049-130.929-0.098c-1.437,0-2.873-0.171-4.31-0.122
		c-12.457,0.477-22.066-5.104-30.159-14.028c-6.29-6.949-9.853-14.994-10.061-24.443c-0.177-7.897-0.44-15.789-0.568-23.686
		c-0.006-0.746,0.52-1.957,1.1-2.195c6.62-2.641,12.323-6.668,17.72-11.191C186.093,300.498,186.612,300.168,187.627,299.44z"/>
	<path fill-rule="evenodd" clip-rule="evenodd" fill="#FFFFFF" d="M354.345,242.075c-3.961,0-7.201,0-10.74,0
		c0-3.423,0-6.706,0-10.245c-3.558,0-6.791,0-10.373,0c0-3.24-0.055-6.247,0.067-9.23c0.013-0.403,0.923-1.076,1.418-1.076
		c3.417,0.018,6.883-0.135,10.245,0.385c4.376,0.69,7.481,3.404,8.264,7.86C353.923,233.713,353.983,237.784,354.345,242.075z"/>
	<path fill-rule="evenodd" clip-rule="evenodd" fill="#FFFFFF" d="M343.593,325.204c0-3.575,0-6.803,0-10.183
		c3.582,0,6.882,0,10.452,0c0,5.244,0.135,10.403-1.779,15.33c-0.91,2.335-2.823,3.795-5.195,4.15
		c-4.456,0.685-8.967,1.015-13.839,1.534c0-3.631-0.066-6.712,0.08-9.792c0.019-0.367,1.118-0.96,1.742-0.99
		C337.743,325.149,340.451,325.204,343.593,325.204z"/>
	<path fill-rule="evenodd" clip-rule="evenodd" fill="#FFFFFF" d="M207.969,314.979c4.047,0,7.286,0,10.813,0
		c0,3.344,0,6.583,0,10.184c3.563,0,6.846,0,10.281,0c0,3.661,0,6.955,0,10.91c-4.908-0.58-9.651-0.953-14.303-1.772
		c-2.689-0.465-4.639-2.487-5.091-5.177C208.892,324.538,208.538,319.881,207.969,314.979z"/>
	<path fill-rule="evenodd" clip-rule="evenodd" fill="#FFFFFF" d="M302.125,231.788c0-3.57,0-6.73,0-10.336c1.62,0,3.179,0,4.731,0
		c4.7,0,9.401,0.043,14.102-0.018c1.467-0.024,1.986,0.495,1.926,1.932c-0.073,2.231,0.061,4.468-0.104,6.693
		c-0.049,0.599-0.844,1.645-1.314,1.657C315.108,231.831,308.752,231.788,302.125,231.788z"/>
	<path fill-rule="evenodd" clip-rule="evenodd" fill="#FFFFFF" d="M353.916,273.322c-3.532,0-6.772,0-10.323,0
		c0-2.556,0-4.994,0-7.439c-0.013-3.74,0.036-7.487-0.049-11.229c-0.024-1.473,0.336-2.194,1.974-2.133
		c2.757,0.104,5.526,0.024,8.398,0.024C353.916,259.624,353.916,266.354,353.916,273.322z"/>
	<path fill-rule="evenodd" clip-rule="evenodd" fill="#FFFFFF" d="M353.916,283.67c0,7.048,0,13.717,0,20.587
		c-3.324,0-6.607,0-10.177,0c-0.062-0.782-0.159-1.626-0.159-2.457c-0.012-5.257,0.08-10.507-0.055-15.764
		c-0.049-1.932,0.63-2.476,2.463-2.391C348.58,283.768,351.185,283.67,353.916,283.67z"/>
	<path fill-rule="evenodd" clip-rule="evenodd" fill="#FFFFFF" d="M291.648,335.633c-5.092,0-9.847,0-14.597,0
		c-6.289,0-6.32,0-6.253-6.376c0.056-4.425-0.813-4.021,4.077-4.04c4.854-0.03,9.707,0.037,14.566-0.037
		c1.595-0.018,2.329,0.379,2.249,2.121C291.563,329.984,291.648,332.674,291.648,335.633z"/>
	<path fill-rule="evenodd" clip-rule="evenodd" fill="#FFFFFF" d="M270.799,221.543c7.066,0,13.741,0,20.63,0
		c0,3.393,0,6.687,0,10.257c-4.859,0-9.627,0-14.389,0c-6.204,0-6.204,0-6.241-6.198
		C270.793,224.343,270.799,223.065,270.799,221.543z"/>
	<path fill-rule="evenodd" clip-rule="evenodd" fill="#FFFFFF" d="M302.016,335.626c0-3.245-0.073-6.1,0.061-8.942
		c0.025-0.507,0.856-1.394,1.32-1.399c5.966-0.098,11.932-0.104,17.897,0c0.52,0.006,1.437,0.947,1.474,1.503
		c0.177,2.451,0.165,4.934,0.018,7.391c-0.018,0.507-0.855,1.381-1.338,1.388C315.103,335.663,308.752,335.626,302.016,335.626z"/>
	<path fill-rule="evenodd" clip-rule="evenodd" fill="#FFFFFF" d="M208.568,304.27c0-6.81,0-13.539,0-20.557
		c3.142,0,6.155-0.049,9.168,0.049c0.373,0.019,1.045,0.782,1.045,1.204c0.067,6.369,0.049,12.732,0.049,19.304
		C215.316,304.27,212.034,304.27,208.568,304.27z"/>
	<path fill-rule="evenodd" clip-rule="evenodd" fill="#FFFFFF" d="M249.949,335.645c-2.787,0.006-5.574-0.049-8.361,0.024
		c-1.4,0.043-2.048-0.36-1.98-1.883c0.098-2.298,0.073-4.614,0.018-6.925c-0.031-1.271,0.507-1.657,1.711-1.645
		c5.813,0.03,11.632-0.03,17.445,0.067c0.544,0.006,1.516,0.898,1.553,1.424c0.165,2.464,0.165,4.951-0.031,7.402
		c-0.049,0.557-1.118,1.424-1.748,1.467C255.689,335.73,252.822,335.645,249.949,335.645z"/>
</g>
</svg>
