<?xml version="1.0" encoding="utf-8"?>
<!-- Generator: Adobe Illustrator 16.0.0, SVG Export Plug-In . SVG Version: 6.00 Build 0)  -->
<!DOCTYPE svg PUBLIC "-//W3C//DTD SVG 1.1//EN" "http://www.w3.org/Graphics/SVG/1.1/DTD/svg11.dtd">
<svg version="1.1" id="Layer_1" xmlns="http://www.w3.org/2000/svg" xmlns:xlink="http://www.w3.org/1999/xlink" x="0px" y="0px"
	 width="512px" height="512px" viewBox="0 0 512 512" enable-background="new 0 0 512 512" xml:space="preserve">
<g>
	<g>
		<linearGradient id="SVGID_1_" gradientUnits="userSpaceOnUse" x1="100.6519" y1="100.8647" x2="416.725" y2="416.9379">
			<stop  offset="0" style="stop-color:#00B100"/>
			<stop  offset="1" style="stop-color:#006700"/>
		</linearGradient>
		<path fill="url(#SVGID_1_)" d="M481.287,256.501c0,124.261-100.733,225-225,225s-225-100.739-225-225
			c0-124.264,100.733-225,225-225S481.287,132.237,481.287,256.501z"/>
		<linearGradient id="SVGID_2_" gradientUnits="userSpaceOnUse" x1="150.3398" y1="72.9971" x2="362.2354" y2="440.0109">
			<stop  offset="0" style="stop-color:#006700"/>
			<stop  offset="1" style="stop-color:#00B100"/>
		</linearGradient>
		<path fill="url(#SVGID_2_)" d="M468.146,256.501c0,117.011-94.854,211.864-211.858,211.864S44.429,373.512,44.429,256.501
			c0-117.005,94.854-211.858,211.858-211.858S468.146,139.496,468.146,256.501z"/>
	</g>
</g>
<g>
	<g>
		<path fill-rule="evenodd" clip-rule="evenodd" fill="#FFFFFF" d="M211.287,255.933c7.646,1.027,15.104,1.665,22.415,3.104
			c9.951,1.957,16.491,8.203,19.707,17.775c4.04,12.005,4.963,24.401,3.49,36.864c-1.162,9.921-7.164,15.703-17.463,18.154
			c-7.207,1.705-14.554,1.827-21.889,1.827c-27.567-0.03-55.128,0.013-82.684-0.231c-5.11-0.05-10.318-0.905-15.318-2.104
			c-9.034-2.151-14.811-8.031-15.911-17.347c-1.546-13.179-0.678-26.277,4.083-38.826c3.252-8.582,9.542-14.163,18.564-15.954
			c7.506-1.482,15.165-2.219,22.824-3.294c1.137,7.377,5.99,10.972,11.791,13.343c12.873,5.263,25.911,5.257,38.771-0.061
			c2.769-1.149,5.281-3.118,7.653-5.031C209.673,262.253,210.865,259.526,211.287,255.933z"/>
		<path fill-rule="evenodd" clip-rule="evenodd" fill="#FFFFFF" d="M194.502,258.616c-5.208,3.16-10.764,4.957-16.992,4.199
			c-6.944-0.856-12.8-4.102-17.647-8.928c-14.211-14.132-22.054-31.216-21.986-51.357c0.067-19.728,15.813-37.274,35.33-40.281
			c23.19-3.567,44.12,10.969,48.771,33.967c1.95,9.612,0.189,18.918-2.916,28.013c-1.18,3.426-2.677,6.754-4.217,10.031
			c-0.392,0.855-1.443,1.592-2.366,1.956c-1.412,0.559-2.958,0.923-4.474,1.027c-1.155,0.076-2.366-0.303-3.521-0.633
			c-1.406-0.394-2.738-1.317-4.12-1.372c-4.108-0.165-8.271-0.397-12.329,0.088c-5.574,0.669-9.651,6.098-9.37,11.66
			c0.293,5.816,4.768,10.562,10.452,10.99c1.767,0.132,3.563,0.021,5.342,0.021C194.466,258.203,194.496,258.411,194.502,258.616z"
			/>
		<path fill-rule="evenodd" clip-rule="evenodd" fill="#FFFFFF" d="M110.994,220.489c0-3.292,0-6.583,0-9.872
			c0.006-3.982,1.583-7.109,4.89-9.45c0.697-0.495,1.155-1.681,1.229-2.595c0.99-12.308,5.024-23.552,12.72-33.179
			c16.626-20.837,38.429-29.285,64.364-23.432c25.477,5.749,41.339,22.448,47.788,47.842c0.752,2.961,0.862,6.085,1.437,9.095
			c0.165,0.89,0.746,1.907,1.467,2.445c2.867,2.176,4.523,4.988,4.572,8.56c0.085,7.066,0.146,14.132-0.006,21.189
			c-0.183,7.769-7.995,12.555-15.195,9.379c-1.131-0.504-1.834-0.4-2.812,0.248c-7.433,4.948-15.746,7.408-24.529,8.408
			c-1.571,0.186-2.793,0.565-4.022,1.754c-1.106,1.057-2.885,1.729-4.443,1.904c-2.629,0.312-5.318,0.156-7.971,0.08
			c-3.888-0.116-6.577-2.857-6.498-6.495c0.074-3.533,2.812-6.058,6.639-6.091c2.585-0.021,5.201-0.217,7.75,0.077
			c1.559,0.177,3.038,1.134,4.566,1.706c0.837,0.306,1.729,0.855,2.543,0.782c7.671-0.749,14.908-2.891,21.552-6.904
			c1.174-0.703,1.644-1.341,1.247-2.836c-0.403-1.516-0.245-3.19-0.25-4.795c-0.024-5.797,0.049-11.614-0.031-17.417
			c-0.055-4.095,1.449-7.295,4.817-9.691c0.501-0.363,0.825-1.375,0.794-2.06c-1.424-22.659-18.625-42.616-41.174-47.803
			c-31.002-7.139-61.32,13.924-65.41,45.443c-0.287,2.265-0.317,4.117,2.042,5.693c2.457,1.654,3.393,4.518,3.398,7.555
			c0.006,6.996,0.067,13.985-0.019,20.981c-0.085,6.058-4.773,10.526-10.807,10.453c-5.911-0.061-10.501-4.544-10.624-10.492
			c-0.08-3.493-0.018-6.987-0.018-10.483C110.994,220.489,110.994,220.489,110.994,220.489z"/>
	</g>
</g>
<g>
	<g>
		<path fill-rule="evenodd" clip-rule="evenodd" fill="#FFFFFF" d="M400.229,220.709c-3.104,0-5.911,0-8.888,0
			c0-4.251,0-8.405,0-12.668c-36.148,0-72.139,0-108.301,0c0,28.479,0,56.95,0,85.568c-3.02,0-5.85,0-8.954,0
			c0-0.653,0-1.308,0-1.956c0-33.028,0.018-66.048-0.019-99.073c0-1.253,0.366-1.853,1.559-2.351
			c17.958-7.595,35.898-15.226,53.82-22.913c1.98-0.853,3.973-1,6.063-1.134c4.444-0.288,8.484,0.7,12.567,2.482
			c16.791,7.316,33.667,14.425,50.544,21.549c1.247,0.529,1.632,1.127,1.626,2.466c-0.067,8.417-0.024,16.825-0.019,25.232
			C400.229,218.809,400.229,219.695,400.229,220.709z M283.054,206.461c36.167,0,72.14,0,108.142,0c0-2.124,0-4.123,0-6.115
			c-36.125,0-72.103,0-108.142,0C283.054,202.427,283.054,204.383,283.054,206.461z"/>
		<path fill-rule="evenodd" clip-rule="evenodd" fill="#FFFFFF" d="M437.699,232.641c-11.144,7.06-22.072,13.982-33.313,21.101
			c0-4.315,0-8.325,0-12.476c-13.967,0-27.714,0-41.583,0c0-5.764,0-11.381,0-17.213c13.777,0,27.567,0,41.504,0
			c0-4.187,0-8.166,0-12.552C415.554,218.625,426.514,225.56,437.699,232.641z"/>
		<path fill-rule="evenodd" clip-rule="evenodd" fill="#FFFFFF" d="M289.881,261.049c0-9.994,0-19.894,0-29.991
			c3.124,0,6.155,0,9.188,0c8.111,0.003,16.24,0.04,24.364-0.018c1.528-0.015,2.017,0.376,2.005,1.986
			c-0.086,8.57-0.037,17.143-0.037,25.715c0,0.728,0,1.458,0,2.308C313.543,261.049,301.795,261.049,289.881,261.049z"/>
		<path fill-rule="evenodd" clip-rule="evenodd" fill="#FFFFFF" d="M289.881,228.793c0-5.877,0-11.699,0-17.641
			c1.834,0,3.625,0,5.404,0c4.768,0.003,9.553,0.024,14.321-0.009c0.904-0.009,1.191,0.22,1.186,1.167
			c-0.049,5.04-0.024,10.083-0.013,15.125c0,0.425,0,0.856,0,1.357C303.799,228.793,296.88,228.793,289.881,228.793z"/>
		<path fill-rule="evenodd" clip-rule="evenodd" fill="#FFFFFF" d="M329.612,260.309c0-5.877,0-11.702,0-17.64
			c1.846,0,3.625,0,5.403,0c4.78,0,9.554,0.024,14.334-0.009c0.904-0.006,1.186,0.22,1.174,1.165
			c-0.043,5.046-0.019,10.083-0.013,15.128c0,0.428,0,0.855,0,1.356C343.536,260.309,336.623,260.309,329.612,260.309z"/>
		<path fill-rule="evenodd" clip-rule="evenodd" fill="#FFFFFF" d="M289.875,292.889c0-10.013,0-19.884,0-29.964
			c3.796,0,7.506,0,11.217,0c7.512,0,15.018,0.013,22.53,0c1.039,0,1.815-0.024,1.803,1.479c-0.067,9.315-0.03,18.631-0.036,27.946
			c0,0.159-0.062,0.317-0.104,0.538C313.463,292.889,301.654,292.889,289.875,292.889z"/>
		<path fill-rule="evenodd" clip-rule="evenodd" fill="#FFFFFF" d="M365.126,276.923c0,5.141,0.006,10.281,0.006,15.428
			c0,0.159-0.062,0.317-0.104,0.538c-11.827,0-23.624,0-35.415,0c0-10.013,0-19.884,0-29.964c3.808,0,7.513,0,11.216,0
			c3.234,0,6.468,0,9.695,0c1.436,0,4.755,0,6.186,0.007l-6.186,4.309L365.126,276.923z"/>
		<path fill-rule="evenodd" clip-rule="evenodd" fill="#FFFFFF" d="M400.107,306.801c-2.916,0-5.709,0-8.649,0
			c0-4.817,0-22.702,0-27.592c2.824,0,5.673,0,8.649,0C400.107,283.958,400.107,301.837,400.107,306.801z"/>
	</g>
	<path fill-rule="evenodd" clip-rule="evenodd" fill="#FFFFFF" d="M389.05,246.116c0,4.358,0,8.292,0,12.458
		c13.906,0,27.695,0,41.54,0c0,5.844,0,11.454,0,17.237c-13.845,0-27.585,0-41.491,0c0,4.144,0,8.117,0,12.555
		c-11.277-7.133-22.219-14.071-33.386-21.137C366.868,260.162,377.785,253.246,389.05,246.116z"/>
</g>
</svg>
