<?xml version="1.0" encoding="utf-8"?>
<!-- Generator: Adobe Illustrator 16.0.0, SVG Export Plug-In . SVG Version: 6.00 Build 0)  -->
<!DOCTYPE svg PUBLIC "-//W3C//DTD SVG 1.1//EN" "http://www.w3.org/Graphics/SVG/1.1/DTD/svg11.dtd">
<svg version="1.1" id="Layer_1" xmlns="http://www.w3.org/2000/svg" xmlns:xlink="http://www.w3.org/1999/xlink" x="0px" y="0px"
	 width="512px" height="512px" viewBox="0 0 512 512" enable-background="new 0 0 512 512" xml:space="preserve">
<linearGradient id="SVGID_1_" gradientUnits="userSpaceOnUse" x1="100.0649" y1="99.2778" x2="416.1381" y2="415.351">
	<stop  offset="0" style="stop-color:#E20001"/>
	<stop  offset="1" style="stop-color:#8C0000"/>
</linearGradient>
<path fill="url(#SVGID_1_)" d="M480.7,254.914c0,124.261-100.733,225-225,225s-225-100.739-225-225c0-124.267,100.733-225,225-225
	S480.7,130.647,480.7,254.914z"/>
<linearGradient id="SVGID_2_" gradientUnits="userSpaceOnUse" x1="149.7529" y1="71.4102" x2="361.6484" y2="438.424">
	<stop  offset="0" style="stop-color:#8C0000"/>
	<stop  offset="1" style="stop-color:#E20001"/>
</linearGradient>
<path fill="url(#SVGID_2_)" d="M467.559,254.914c0,117.011-94.854,211.864-211.858,211.864S43.842,371.925,43.842,254.914
	c0-117.005,94.854-211.858,211.858-211.858S467.559,137.909,467.559,254.914z"/>
<g>
	<path fill-rule="evenodd" clip-rule="evenodd" fill="#FFFFFF" d="M285.004,241.491c-10.703,6.993-22.494,4.077-33.644,3.197
		c-23.612-1.876-46.442-7.806-68.753-15.837c-7.708-2.775-12.604-7.879-14.48-15.526c-2.689-10.972-5.116-22.029-7.005-33.16
		c-1.724-10.171,1.767-15.88,11.571-19.584c28.613-10.8,57.255-21.534,85.997-31.986c17.023-6.192,34.646-4.572,52.17-2.744
		c12.427,1.295,24.816,2.903,37.243,4.193c12.897,1.345,18.209,7.139,18.222,20.281c0.006,5.862-0.208,11.736,0.055,17.591
		c0.373,8.209-1.211,15.569-5.666,22.806c-5.587,9.077-6.706,19.725-5.147,30.067c2.916,19.242,6.241,38.454,10.318,57.476
		c4.407,20.574,8.111,41.027,2.836,61.938c-1.143,4.493-2.72,8.961-4.706,13.148c-4.383,9.235-11.205,14.535-22.195,13.826
		c-8.948-0.574-17.988-0.482-26.955-0.019c-8.595,0.452-15.648-2.476-21.926-7.922c-1.92-1.669-3.851-3.325-5.642-5.122
		c-13.949-13.942-13.753-24.786,0.642-38.355c4.102-3.863,5.874-14.053,2.916-18.558c-0.667-1.015-2.604-1.516-4.017-1.656
		c-6.32-0.636-9.218-3.918-11.718-10.019c-4.352-10.605-3.631-18.766,5.819-25.813C287.314,254.963,287.992,248.618,285.004,241.491
		z M280.438,230.929c1.229-0.563,1.95-0.776,2.543-1.18c23.056-15.703,46.161-31.326,69.021-47.304
		c2.072-1.443,3.447-5.128,3.595-7.861c0.464-8.374-0.153-16.803,0.281-25.177c0.317-6.162-2.427-8.252-8.081-8.827
		c-16.101-1.638-32.151-3.869-48.264-5.336c-14.664-1.333-29.096-0.464-43.179,4.976c-23.778,9.206-47.793,17.775-71.706,26.638
		c-1.449,0.544-2.799,1.381-5.599,2.787c30.3,5.239,58.875,10.367,87.53,14.988c5.844,0.941,7.77,3.57,8.436,9.004
		C276.525,205.972,278.561,218.239,280.438,230.929z M302.197,298.466c0,1.992-0.379,3.813,0.067,5.403
		c2.391,8.545-0.904,14.755-7.542,19.865c-1.828,1.406-3.717,3.136-4.701,5.135c-1.216,2.481-2.524,5.599-2.047,8.099
		c1.638,8.509,16.045,19.505,24.761,19.529c9.371,0.019,18.803-0.617,28.105,0.189c8.001,0.697,11.993-3.093,14.7-9.578
		c0.973-2.335,1.804-4.737,2.507-7.164c4.847-16.619,3.19-33.153-0.489-49.73c-6.607-29.731-15.825-59.145-11.351-91.101
		c-16.858,11.498-33.13,22.549-49.31,33.723c-0.862,0.605-1.474,2.268-1.412,3.386c0.22,3.497,0.428,7.084,1.437,10.397
		c0.507,1.681,2.555,3.747,4.224,4.083c9.162,1.828,18.398,3.398,27.671,4.603c4.511,0.581,6.235,2.775,5.819,6.95
		c-0.66,6.577-0.825,13.301-2.402,19.67c-3.337,13.49-12.83,19.285-26.442,17.061C304.68,298.808,303.555,298.661,302.197,298.466z
		 M171.171,178.716c2.457,11.522,4.713,21.98,6.901,32.451c0.899,4.334,3.692,6.65,7.75,7.83
		c13.271,3.851,26.357,8.588,39.841,11.369c14.401,2.965,29.168,4.102,45.061,6.198c-2.194-15.067-4.126-28.258-6.045-41.449
		C233.537,189.657,202.895,184.278,171.171,178.716z M322.809,274.059c-1.394,1.18-2.236,1.693-2.812,2.414
		c-4.957,6.229-11.015,7.573-18.631,5.294c-5.306-1.596-11.002-1.92-16.521-2.813c-0.343,0.679-0.69,1.363-1.033,2.042
		c2.359,1.589,4.517,3.888,7.115,4.627c5.03,1.437,10.317,1.975,15.482,2.922C316.947,290.477,322.369,286.026,322.809,274.059z
		 M288.103,268.074c16.767,6.314,21.761,5.63,28.814-4.297c-5.178-0.789-10.337-0.904-15.031-2.445
		C294.661,258.961,291.109,262.566,288.103,268.074z"/>
	<path fill-rule="evenodd" clip-rule="evenodd" fill="#FFFFFF" d="M154.973,282.988c0,20.936,0,41.547,0,62.556
		c-4.89,0-9.651,0-14.89,0c0-20.673,0-41.412,0-62.556C144.765,282.988,149.551,282.988,154.973,282.988z"/>
	<path fill-rule="evenodd" clip-rule="evenodd" fill="#FFFFFF" d="M201.99,345.758c-5.08,0-9.707,0-14.731,0
		c0-20.898,0-41.65,0-62.781c4.75,0,9.517,0,14.731,0C201.99,303.723,201.99,324.462,201.99,345.758z"/>
	<path fill-rule="evenodd" clip-rule="evenodd" fill="#FFFFFF" d="M175.896,345.69c-3.435,0-6.492,0-9.847,0
		c0-21.021,0-41.791,0-62.824c3.331,0,6.387,0,9.847,0C175.896,303.655,175.896,324.425,175.896,345.69z"/>
	<path fill-rule="evenodd" clip-rule="evenodd" fill="#FFFFFF" d="M223.329,282.891c0,21.07,0,41.682,0,62.665
		c-3.178,0-6.167,0-9.493,0c0-20.91,0-41.644,0-62.665C216.984,282.891,219.832,282.891,223.329,282.891z"/>
</g>
</svg>
