<?xml version="1.0" encoding="utf-8"?>
<!-- Generator: Adobe Illustrator 16.0.0, SVG Export Plug-In . SVG Version: 6.00 Build 0)  -->
<!DOCTYPE svg PUBLIC "-//W3C//DTD SVG 1.1//EN" "http://www.w3.org/Graphics/SVG/1.1/DTD/svg11.dtd">
<svg version="1.1" id="Layer_1" xmlns="http://www.w3.org/2000/svg" xmlns:xlink="http://www.w3.org/1999/xlink" x="0px" y="0px"
	 width="512px" height="512px" viewBox="0 0 512 512" enable-background="new 0 0 512 512" xml:space="preserve">
<g>
	<linearGradient id="SVGID_1_" gradientUnits="userSpaceOnUse" x1="99.2529" y1="99.2773" x2="415.3268" y2="415.3512">
		<stop  offset="0" style="stop-color:#E20001"/>
		<stop  offset="1" style="stop-color:#8C0000"/>
	</linearGradient>
	<path fill="url(#SVGID_1_)" d="M479.889,254.914c0,124.261-100.733,225-225,225s-225-100.739-225-225
		c0-124.267,100.733-225,225-225S479.889,130.647,479.889,254.914z"/>
	<linearGradient id="SVGID_2_" gradientUnits="userSpaceOnUse" x1="148.9414" y1="71.4097" x2="360.8369" y2="438.4235">
		<stop  offset="0" style="stop-color:#8C0000"/>
		<stop  offset="1" style="stop-color:#E20001"/>
	</linearGradient>
	<path fill="url(#SVGID_2_)" d="M466.747,254.914c0,117.011-94.854,211.864-211.858,211.864S43.03,371.925,43.03,254.914
		c0-117.005,94.854-211.858,211.858-211.858S466.747,137.909,466.747,254.914z"/>
</g>
<g>
	<path fill-rule="evenodd" clip-rule="evenodd" fill="#FFFFFF" d="M222.786,253.545c5.605,6.681,10.99,13.111,16.87,20.129
		c-1.173,1.222-2.262,2.763-3.704,3.802c-14.26,10.293-29.927,16.741-47.787,15.599c-27.519-1.748-50.08-21.98-55-48.551
		c-5.587-30.214,14.321-58.82,42.072-65.563c29.554-7.17,57.683,7.958,67.561,37.5c0.477,1.418,0.99,2.818,1.779,5.043
		c3.386-12.023,8.539-22.207,17.622-30.134c12.922-11.278,27.708-15.819,44.756-13.588c26.344,3.448,42.071,18.827,48.117,43.93
		c6.992,29.034-9.737,63.197-42.115,69.726c-13.668,2.757-27.451,0.831-38.411-9.694c-0.52-0.496-1.191-0.826-2.493-1.718
		c-0.172,2.188-0.397,3.759-0.397,5.336c-0.03,16.118-0.141,32.243,0.055,48.362c0.062,4.314-1.381,5.745-5.642,5.574
		c-7.084-0.281-14.181-0.08-22.029-0.08c0-31.332,0-62.463,0-94.016c-27.286,0-53.808,0-80.349,0
		C168.452,266.962,195.463,270.904,222.786,253.545z M328.036,234.755c0.422-21.7-19.309-37.017-38.899-28.497
		c-17.097,7.439-22.506,32.897-10.557,48.356c5.911,7.647,13.411,12.023,23.393,11.327
		C318.482,264.792,328.758,248.851,328.036,234.755z M214.828,221.601c-3.209-13.557-15.599-20.996-27.317-19.859
		c-14.102,1.375-23.215,8.985-24.199,19.859C180.372,221.601,197.419,221.601,214.828,221.601z"/>
	<path fill-rule="evenodd" clip-rule="evenodd" fill="#FFFFFF" d="M356.655,272.695c0.079-9.664,7.438-17.335,16.791-17.519
		c9.254-0.183,18.031,8.588,17.928,17.922c-0.098,9.395-8.46,17.573-17.745,17.39C363.88,290.299,356.563,282.628,356.655,272.695z"
		/>
</g>
</svg>
