<?xml version="1.0" encoding="utf-8"?>
<!-- Generator: Adobe Illustrator 16.0.0, SVG Export Plug-In . SVG Version: 6.00 Build 0)  -->
<!DOCTYPE svg PUBLIC "-//W3C//DTD SVG 1.1//EN" "http://www.w3.org/Graphics/SVG/1.1/DTD/svg11.dtd">
<svg version="1.1" id="Layer_1" xmlns="http://www.w3.org/2000/svg" xmlns:xlink="http://www.w3.org/1999/xlink" x="0px" y="0px"
	 width="512px" height="512px" viewBox="0 0 512 512" enable-background="new 0 0 512 512" xml:space="preserve">
<g>
	<g>
		<linearGradient id="SVGID_1_" gradientUnits="userSpaceOnUse" x1="100.3281" y1="100.8652" x2="416.4013" y2="416.9384">
			<stop  offset="0" style="stop-color:#00B100"/>
			<stop  offset="1" style="stop-color:#006700"/>
		</linearGradient>
		<path fill="url(#SVGID_1_)" d="M480.963,256.501c0,124.261-100.733,225-225,225s-225-100.739-225-225
			c0-124.264,100.733-225,225-225S480.963,132.237,480.963,256.501z"/>
		<linearGradient id="SVGID_2_" gradientUnits="userSpaceOnUse" x1="150.0156" y1="72.9966" x2="361.9116" y2="440.0112">
			<stop  offset="0" style="stop-color:#006700"/>
			<stop  offset="1" style="stop-color:#00B100"/>
		</linearGradient>
		<path fill="url(#SVGID_2_)" d="M467.821,256.501c0,117.011-94.854,211.864-211.858,211.864S44.104,373.512,44.104,256.501
			c0-117.005,94.854-211.858,211.858-211.858S467.821,139.496,467.821,256.501z"/>
	</g>
</g>
<g>
	<g>
		<path fill-rule="evenodd" clip-rule="evenodd" fill="#FFFFFF" d="M238.127,277.668c8.508,1.144,16.803,1.853,24.938,3.454
			c11.063,2.176,18.338,9.126,21.919,19.773c4.487,13.35,5.514,27.14,3.876,41.003c-1.29,11.039-7.965,17.469-19.426,20.195
			c-8.007,1.895-16.186,2.029-24.346,2.029c-30.66-0.03-61.32,0.013-91.968-0.257c-5.685-0.055-11.479-1.002-17.036-2.335
			c-10.049-2.396-16.479-8.937-17.702-19.297c-1.724-14.657-0.758-29.229,4.536-43.19c3.625-9.542,10.624-15.752,20.654-17.745
			c8.35-1.65,16.87-2.469,25.385-3.667c1.265,8.209,6.663,12.206,13.117,14.841c14.322,5.855,28.82,5.85,43.13-0.061
			c3.081-1.284,5.874-3.473,8.508-5.6C236.336,284.704,237.656,281.666,238.127,277.668z"/>
		<path fill-rule="evenodd" clip-rule="evenodd" fill="#FFFFFF" d="M219.453,280.651c-5.789,3.515-11.968,5.514-18.894,4.67
			c-7.726-0.954-14.242-4.56-19.633-9.927c-15.801-15.721-24.529-34.725-24.456-57.127c0.08-21.947,17.592-41.461,39.303-44.802
			c25.789-3.97,49.077,12.195,54.248,37.778c2.17,10.688,0.208,21.042-3.246,31.161c-1.308,3.812-2.977,7.513-4.694,11.159
			c-0.434,0.947-1.595,1.772-2.623,2.176c-1.577,0.621-3.3,1.027-4.981,1.14c-1.284,0.085-2.634-0.333-3.918-0.7
			c-1.559-0.443-3.044-1.473-4.584-1.535c-4.566-0.183-9.199-0.434-13.71,0.104c-6.204,0.746-10.739,6.781-10.421,12.967
			c0.324,6.468,5.299,11.749,11.625,12.226c1.969,0.146,3.961,0.024,5.941,0.024C219.417,280.193,219.447,280.425,219.453,280.651z"
			/>
		<path fill-rule="evenodd" clip-rule="evenodd" fill="#FFFFFF" d="M126.568,238.24c0-3.658,0-7.316,0-10.975
			c0.006-4.432,1.767-7.907,5.44-10.514c0.77-0.547,1.284-1.874,1.363-2.882c1.106-13.698,5.593-26.201,14.15-36.914
			c18.49-23.172,42.745-32.57,71.596-26.057c28.337,6.391,45.984,24.966,53.16,53.209c0.837,3.297,0.953,6.77,1.595,10.119
			c0.184,0.99,0.832,2.121,1.633,2.723c3.19,2.42,5.03,5.547,5.085,9.523c0.092,7.857,0.165,15.721-0.006,23.569
			c-0.208,8.644-8.899,13.964-16.901,10.431c-1.259-0.562-2.041-0.446-3.129,0.275c-8.271,5.501-17.513,8.239-27.286,9.353
			c-1.742,0.207-3.105,0.629-4.475,1.949c-1.229,1.18-3.209,1.926-4.945,2.121c-2.922,0.343-5.911,0.172-8.863,0.086
			c-4.321-0.129-7.316-3.179-7.231-7.225c0.085-3.931,3.129-6.736,7.384-6.773c2.879-0.024,5.789-0.244,8.625,0.086
			c1.736,0.195,3.38,1.259,5.079,1.895c0.929,0.343,1.919,0.954,2.83,0.868c8.527-0.831,16.583-3.215,23.973-7.68
			c1.302-0.779,1.822-1.485,1.387-3.154c-0.446-1.684-0.274-3.549-0.281-5.333c-0.024-6.452,0.055-12.918-0.031-19.367
			c-0.067-4.563,1.607-8.118,5.349-10.786c0.563-0.4,0.923-1.531,0.886-2.292c-1.576-25.202-20.715-47.399-45.8-53.176
			c-34.48-7.937-68.203,15.492-72.75,50.554c-0.324,2.521-0.354,4.578,2.268,6.335c2.738,1.836,3.777,5.021,3.784,8.401
			c0.006,7.778,0.073,15.56-0.024,23.337c-0.092,6.736-5.312,11.705-12.017,11.626c-6.577-0.067-11.681-5.052-11.815-11.666
			c-0.092-3.888-0.024-7.778-0.024-11.669C126.568,238.24,126.568,238.24,126.568,238.24z"/>
	</g>
</g>
<g>
	<path fill="#FFFFFF" d="M307.216,258.995c-4.578,0-6.65-2.732-7.329-3.909c-2.683-4.655,0.147-9.548,3.417-15.217
		c0.911-1.571,2.402-4.154,3.16-5.929c-12.42-8.393-19.755-21.742-19.755-36.183c0-24.608,21.399-44.63,47.701-44.63
		s47.702,20.021,47.702,44.63c0,17.867-11.327,33.967-28.863,41.018c-1.234,0.498-5.36,2.576-9.725,4.774
		C322.313,254.23,312.039,258.995,307.216,258.995z M334.41,165.645c-19.4,0-35.184,14.404-35.184,32.112
		c0,10.822,5.924,20.853,15.838,26.828c7.249,4.37,4.089,12.411,0.807,18.493c7.28-3.286,16.864-8.111,22.023-10.709
		c5.721-2.882,9.034-4.545,10.679-5.205c12.769-5.138,21.021-16.678,21.021-29.407C369.594,180.049,353.812,165.645,334.41,165.645z
		"/>
	<path fill="#FFFFFF" d="M403.047,252.546c-3.41,0-8.374-2.304-29.511-13.704c-5.244-2.83-10.226-5.513-13.802-7.307
		c-3.087-1.55-4.34-5.312-2.787-8.402c1.54-3.087,5.312-4.346,8.398-2.79c3.661,1.837,8.759,4.584,14.132,7.481
		c4.064,2.191,9.511,5.128,14.272,7.586c-3.014-5.902-5.324-13.191,1.442-17.274c9.921-5.975,15.844-16.002,15.844-26.824
		c0-17.708-15.782-32.115-35.184-32.115c-3.789,0-7.524,0.547-11.094,1.629c-4.291,1.299-8.222,3.328-11.687,6.027
		c-2.732,2.118-6.663,1.632-8.784-1.091c-2.121-2.729-1.632-6.66,1.094-8.787c4.683-3.646,9.976-6.381,15.746-8.129
		c4.756-1.44,9.707-2.167,14.725-2.167c26.303,0,47.702,20.021,47.702,44.633c0,14.44-7.335,27.79-19.756,36.18
		c0.758,1.779,2.25,4.361,3.16,5.935c3.271,5.667,6.101,10.559,3.411,15.211C409.691,249.814,407.619,252.546,403.047,252.546z"/>
</g>
</svg>
