<?xml version="1.0" encoding="utf-8"?>
<!-- Generator: Adobe Illustrator 16.0.0, SVG Export Plug-In . SVG Version: 6.00 Build 0)  -->
<!DOCTYPE svg PUBLIC "-//W3C//DTD SVG 1.1//EN" "http://www.w3.org/Graphics/SVG/1.1/DTD/svg11.dtd">
<svg version="1.1" id="Layer_1" xmlns="http://www.w3.org/2000/svg" xmlns:xlink="http://www.w3.org/1999/xlink" x="0px" y="0px"
	 width="512px" height="512px" viewBox="0 0 512 512" enable-background="new 0 0 512 512" xml:space="preserve">
<linearGradient id="SVGID_1_" gradientUnits="userSpaceOnUse" x1="99.2261" y1="99.2778" x2="415.2992" y2="415.351">
	<stop  offset="0" style="stop-color:#E20001"/>
	<stop  offset="1" style="stop-color:#8C0000"/>
</linearGradient>
<path fill="url(#SVGID_1_)" d="M479.861,254.914c0,124.261-100.733,225-225,225s-225-100.739-225-225c0-124.267,100.733-225,225-225
	S479.861,130.647,479.861,254.914z"/>
<linearGradient id="SVGID_2_" gradientUnits="userSpaceOnUse" x1="148.9141" y1="71.4111" x2="360.8091" y2="438.4241">
	<stop  offset="0" style="stop-color:#8C0000"/>
	<stop  offset="1" style="stop-color:#E20001"/>
</linearGradient>
<path fill="url(#SVGID_2_)" d="M466.72,254.914c0,117.011-94.854,211.864-211.858,211.864S43.003,371.925,43.003,254.914
	c0-117.005,94.854-211.858,211.858-211.858S466.72,137.909,466.72,254.914z"/>
<g>
	<path fill-rule="evenodd" clip-rule="evenodd" fill="#FFFFFF" d="M69.189,253.96c4.193,0.165,8.38,0.453,12.58,0.458
		c12.757,0.055,25.52,0.019,38.276,0.012c1.394,0,2.775,0,4.413,0c-1.345,4.243-3.447,5.153-6.381,5.116
		c-14.737-0.152-29.475-0.091-44.206-0.049c-1.559,0-3.124,0.3-4.682,0.459C69.189,257.958,69.189,255.959,69.189,253.96z"/>
	<path fill-rule="evenodd" clip-rule="evenodd" fill="#FFFFFF" d="M445.454,276.956c-18.147,0-36.302,0-54.786,0
		c1.046-3.49,2.457-5.092,5.446-5.062c16.442,0.165,32.897,0.067,49.34,0.067C445.454,273.624,445.454,275.293,445.454,276.956z"/>
	<path fill-rule="evenodd" clip-rule="evenodd" fill="#FFFFFF" d="M445.454,259.957c-8.417-0.159-16.821-0.354-25.232-0.465
		c-6.271-0.067-12.542-0.006-19.052-0.006c0.69-4.206,2.536-5.128,5.22-5.098c11.595,0.104,23.185,0.067,34.773,0.024
		c1.431,0,2.86-0.293,4.291-0.453C445.454,255.959,445.454,257.958,445.454,259.957z"/>
	<path fill-rule="evenodd" clip-rule="evenodd" fill="#FFFFFF" d="M69.189,262.952c16.516,0,33.032,0,49.548,0
		c0.183,0.599,0.367,1.186,0.55,1.784c-1.431,1.144-2.867,3.283-4.315,3.308c-15.257,0.152-30.52,0-45.783-0.086
		C69.189,266.289,69.189,264.621,69.189,262.952z"/>
	<path fill-rule="evenodd" clip-rule="evenodd" fill="#FFFFFF" d="M445.454,267.958c-16.424,0-32.842,0-49.4,0
		c0.636-4.059,2.622-4.944,5.629-4.921c14.585,0.116,29.181-0.023,43.771-0.085C445.454,264.621,445.454,266.289,445.454,267.958z"
		/>
	<path fill-rule="evenodd" clip-rule="evenodd" fill="#FFFFFF" d="M69.189,271.962c14.823,0,29.646,0,44.652,0
		c-0.593,4.021-2.378,5.116-5.288,5.092c-13.117-0.159-26.241-0.092-39.364-0.098C69.189,275.293,69.189,273.624,69.189,271.962z"/>
	<path fill-rule="evenodd" clip-rule="evenodd" fill="#FFFFFF" d="M282.899,209.938c-4.469,7.689-8.46,14.578-13.014,22.421
		c5.227,0,9.859,0.122,14.475-0.098c0.771-0.055,1.613-1.498,2.213-2.506c3.41-5.672,6.705-11.461,10.165-17.084
		c0.721-1.18,1.949-2.598,2.952-2.61c10.886-0.183,21.778-0.116,33.393-0.116c-6.693,11.473-13.143,22.047-19.132,33.038
		c-2.807,5.153-5.851,7.115-10.954,7.042c-25.679-0.41-51.369-0.184-77.971-0.184c2.323-4.218,4.218-7.83,6.235-11.308
		c5.055-8.68,10.11-17.366,15.324-25.893c0.813-1.333,2.47-2.567,3.759-2.591C260.876,209.841,271.408,209.938,282.899,209.938z"/>
	<path fill-rule="evenodd" clip-rule="evenodd" fill="#FFFFFF" d="M182.447,248.612c3.337-6.198,6.137-11.4,9.48-17.592
		c-23.649,0-46.088,0-69.547,0c4.315-7.323,8.044-13.802,11.943-20.104c0.483-0.782,1.883-0.941,2.854-0.947
		c23.441-0.031,46.883-0.104,70.324,0.042c8.264,0.049,15.654,7.916,15.874,16.907c0.067,3.111-0.587,6.73-1.883,9.328
		c-6.864,13.674-6.974,13.588-19.89,13.594c-4.48,0-8.955,0.085-13.429-0.049C186.536,249.743,184.91,249.144,182.447,248.612z"/>
	<path fill-rule="evenodd" clip-rule="evenodd" fill="#FFFFFF" d="M117.942,276.986c4.701-8.136,8.973-15.581,13.283-22.983
		c2.573-4.413,5.397-8.606,7.738-13.197c1.962-3.857,4.224-5.563,8.001-5.373c7.628,0.391,15.275,0.092,22.91,0.146
		c1.657,0.019,3.313,0.343,5.978,0.642c-3.331,6.088-6.223,11.338-9.811,17.873c15.563,0,29.798,0,45.067,0
		c-7.042,11.46-14.854,18.881-25.055,21.791c-2.531,0.728-5.189,1.009-7.787,1.033c-18.833,0.092-37.671,0.062-56.504,0.067
		C120.748,276.986,119.733,276.986,117.942,276.986z"/>
	<path fill-rule="evenodd" clip-rule="evenodd" fill="#FFFFFF" d="M397.129,254.431c-4.584,7.831-8.539,14.731-12.665,21.479
		c-0.482,0.801-1.846,1.027-2.806,1.027c-19.083,0.055-38.178,0.079-57.268-0.055c-2.023-0.025-4.138-0.808-6.051-1.761
		c-6.125-3.068-7.091-7.83-3.644-14.859c2.146-4.364,4.627-6.058,8.875-5.984c22.384,0.33,44.762,0.153,67.146,0.153
		C392.423,254.431,394.128,254.431,397.129,254.431z"/>
	<path fill-rule="evenodd" clip-rule="evenodd" fill="#FFFFFF" d="M381.157,209.938c-7.843,13.368-15.055,25.764-22.408,38.032
		c-0.648,1.076-2.2,1.773-3.338,1.791c-11.191,0.128-22.384,0.073-34.407,0.073c2.781-4.908,5.196-9.272,7.684-13.569
		c4.42-7.61,8.894-15.196,13.319-22.806c1.388-2.396,2.916-3.686,5.544-3.625C358.438,210.073,369.336,209.938,381.157,209.938z"/>
	<path fill-rule="evenodd" clip-rule="evenodd" fill="#FFFFFF" d="M306.561,255.287c-4.126,7.066-8.13,13.979-12.207,20.819
		c-0.312,0.525-1.118,0.831-1.699,0.831c-10.898,0.049-21.797,0.036-33.569,0.036c4.426-7.628,8.374-14.511,12.438-21.295
		c0.453-0.746,1.584-1.198,2.402-1.198c10.404-0.061,20.808-0.006,31.211,0.037C305.484,254.517,305.827,254.884,306.561,255.287z"
		/>
	<path fill-rule="evenodd" clip-rule="evenodd" fill="#FFFFFF" d="M208.841,276.986c4.419-7.481,8.264-14.15,12.268-20.667
		c0.617-0.996,1.968-1.785,2.983-1.803c10.648-0.128,21.296-0.073,32.781-0.073c-4.383,7.53-8.289,14.42-12.384,21.119
		c-0.568,0.941-2.054,1.356-3.123,1.362C230.833,277.023,220.302,276.986,208.841,276.986z"/>
</g>
</svg>
