<?xml version="1.0" encoding="utf-8"?>
<!-- Generator: Adobe Illustrator 16.0.0, SVG Export Plug-In . SVG Version: 6.00 Build 0)  -->
<!DOCTYPE svg PUBLIC "-//W3C//DTD SVG 1.1//EN" "http://www.w3.org/Graphics/SVG/1.1/DTD/svg11.dtd">
<svg version="1.1" id="Layer_1" xmlns="http://www.w3.org/2000/svg" xmlns:xlink="http://www.w3.org/1999/xlink" x="0px" y="0px"
	 width="512px" height="512px" viewBox="0 0 512 512" enable-background="new 0 0 512 512" xml:space="preserve">
<g>
	<g>
		<linearGradient id="SVGID_1_" gradientUnits="userSpaceOnUse" x1="100.6519" y1="100.8647" x2="416.725" y2="416.9379">
			<stop  offset="0" style="stop-color:#00B100"/>
			<stop  offset="1" style="stop-color:#006700"/>
		</linearGradient>
		<path fill="url(#SVGID_1_)" d="M481.287,256.501c0,124.261-100.733,225-225,225s-225-100.739-225-225
			c0-124.264,100.733-225,225-225S481.287,132.237,481.287,256.501z"/>
		<linearGradient id="SVGID_2_" gradientUnits="userSpaceOnUse" x1="150.3398" y1="72.9971" x2="362.2354" y2="440.0109">
			<stop  offset="0" style="stop-color:#006700"/>
			<stop  offset="1" style="stop-color:#00B100"/>
		</linearGradient>
		<path fill="url(#SVGID_2_)" d="M468.146,256.501c0,117.011-94.854,211.864-211.858,211.864S44.429,373.512,44.429,256.501
			c0-117.005,94.854-211.858,211.858-211.858S468.146,139.496,468.146,256.501z"/>
	</g>
</g>
<g>
	<g>
		<g>
			<path fill-rule="evenodd" clip-rule="evenodd" fill="#FFFFFF" d="M213.103,266.446c8.759,1.18,17.292,1.907,25.666,3.558
				c11.388,2.236,18.876,9.389,22.562,20.354c4.621,13.741,5.678,27.935,3.991,42.201c-1.326,11.363-8.196,17.982-19.994,20.782
				c-8.246,1.956-16.662,2.091-25.061,2.091c-31.559-0.031-63.111,0.012-94.658-0.264c-5.85-0.055-11.815-1.032-17.537-2.401
				c-10.342-2.47-16.956-9.2-18.215-19.866c-1.772-15.085-0.782-30.085,4.67-44.449c3.729-9.823,10.93-16.211,21.253-18.265
				c8.594-1.699,17.366-2.543,26.131-3.777c1.302,8.447,6.858,12.567,13.502,15.281c14.737,6.026,29.664,6.015,44.389-0.067
				c3.172-1.32,6.045-3.576,8.759-5.764C211.256,273.689,212.62,270.565,213.103,266.446z"/>
			<path fill-rule="evenodd" clip-rule="evenodd" fill="#FFFFFF" d="M193.885,269.521c-5.959,3.612-12.323,5.673-19.45,4.805
				c-7.953-0.984-14.658-4.688-20.208-10.214c-16.265-16.183-25.245-35.743-25.171-58.802c0.08-22.585,18.105-42.674,40.452-46.116
				c26.546-4.083,50.513,12.558,55.837,38.888c2.231,11.002,0.214,21.66-3.344,32.072c-1.345,3.921-3.062,7.732-4.829,11.482
				c-0.446,0.981-1.644,1.825-2.702,2.24c-1.62,0.642-3.393,1.058-5.128,1.177c-1.32,0.088-2.708-0.345-4.028-0.724
				c-1.608-0.453-3.136-1.51-4.719-1.571c-4.7-0.189-9.468-0.455-14.114,0.101c-6.381,0.767-11.051,6.98-10.727,13.35
				c0.336,6.657,5.458,12.09,11.968,12.585c2.023,0.146,4.077,0.024,6.112,0.024C193.842,269.05,193.879,269.282,193.885,269.521z"
				/>
			<path fill-rule="evenodd" clip-rule="evenodd" fill="#FFFFFF" d="M98.28,225.871c0-3.771,0-7.54,0-11.302
				c0.006-4.56,1.815-8.139,5.599-10.819c0.794-0.569,1.32-1.925,1.406-2.971c1.137-14.092,5.752-26.965,14.56-37.986
				c19.034-23.857,43.997-33.527,73.692-26.828c29.168,6.58,47.329,25.7,54.712,54.774c0.862,3.389,0.984,6.965,1.645,10.412
				c0.189,1.018,0.855,2.183,1.681,2.8c3.282,2.491,5.177,5.712,5.232,9.801c0.098,8.09,0.171,16.18-0.006,24.257
				c-0.214,8.896-9.157,14.376-17.396,10.74c-1.296-0.578-2.103-0.458-3.221,0.284c-8.508,5.663-18.026,8.481-28.081,9.624
				c-1.797,0.215-3.197,0.648-4.609,2.006c-1.265,1.216-3.301,1.986-5.085,2.188c-3.007,0.354-6.088,0.172-9.126,0.086
				c-4.45-0.135-7.531-3.271-7.439-7.436c0.085-4.043,3.221-6.932,7.598-6.971c2.965-0.024,5.96-0.25,8.875,0.089
				c1.785,0.201,3.478,1.296,5.232,1.95c0.953,0.352,1.974,0.981,2.909,0.896c8.778-0.856,17.066-3.31,24.676-7.904
				c1.338-0.804,1.876-1.534,1.424-3.246c-0.458-1.736-0.281-3.655-0.288-5.492c-0.024-6.638,0.055-13.295-0.03-19.939
				c-0.067-4.691,1.656-8.353,5.507-11.097c0.574-0.416,0.947-1.574,0.911-2.359c-1.626-25.938-21.32-48.79-47.139-54.728
				c-35.489-8.172-70.202,15.941-74.884,52.029c-0.33,2.591-0.361,4.712,2.335,6.519c2.817,1.892,3.887,5.171,3.894,8.649
				c0.006,8.01,0.079,16.012-0.024,24.022c-0.092,6.932-5.465,12.048-12.366,11.965c-6.772-0.07-12.023-5.205-12.164-12.011
				c-0.092-4-0.024-8.001-0.024-12.002H98.28z"/>
		</g>
	</g>
	<g>
		<path fill-rule="evenodd" clip-rule="evenodd" fill="#FFFFFF" d="M397.174,279.991c-0.636-0.807-1.106-1.54-1.706-2.151
			c-3.93-3.967-7.885-7.922-11.858-11.846c-0.611-0.605-0.824-1.113-0.574-2.018c5.789-21.571-8.215-43.273-30.257-46.922
			c-20.917-3.472-40.696,11.247-43.393,32.283c-2.708,21.144,12.689,40.324,33.9,42.262c6.063,0.557,11.907-0.324,17.567-2.549
			c0.439-0.171,1.246-0.11,1.552,0.184c4.413,4.333,8.778,8.723,13.148,13.111c0.122,0.116,0.201,0.263,0.422,0.58
			c-1.712,0.905-3.325,1.883-5.031,2.629c-2.322,1.015-4.694,1.907-7.078,2.757c-0.733,0.263-1.015,0.629-1.112,1.356
			c-0.514,3.918-1.076,7.83-1.596,11.755c-0.488,3.753-2.273,5.396-6.032,5.501c-4.132,0.122-8.252,0.238-12.384,0.33
			c-3.527,0.073-5.446-1.485-6.131-4.945c-0.771-3.881-1.553-7.757-2.28-11.638c-0.141-0.74-0.452-1.076-1.198-1.253
			c-4.407-1.058-8.643-2.592-12.646-4.737c-0.733-0.397-1.191-0.306-1.815,0.177c-3.264,2.519-6.564,5-9.859,7.481
			c-2.464,1.858-4.994,1.749-7.237-0.342c-3.179-2.959-6.339-5.941-9.486-8.924c-2.072-1.969-2.348-4.67-0.709-7.146
			c2.2-3.338,4.426-6.663,6.699-9.945c0.574-0.831,0.617-1.442,0.067-2.305c-2.329-3.734-4.15-7.72-5.428-11.938
			c-0.263-0.85-0.654-1.234-1.577-1.356c-4.133-0.52-8.258-1.125-12.384-1.725c-2.751-0.391-4.664-2.481-4.756-5.256
			c-0.171-4.512-0.287-9.028-0.385-13.54c-0.062-2.836,1.662-4.872,4.505-5.437c3.961-0.789,7.915-1.604,11.889-2.347
			c0.85-0.159,1.216-0.52,1.412-1.354c1.057-4.502,2.658-8.808,4.841-12.882c0.379-0.715,0.202-1.155-0.232-1.718
			c-2.433-3.166-4.847-6.351-7.262-9.544c-2.206-2.913-2.065-5.266,0.452-7.937c2.8-2.98,5.594-5.951,8.398-8.921
			c2.311-2.445,4.982-2.769,7.757-0.929c3.265,2.161,6.528,4.318,9.75,6.538c0.801,0.553,1.388,0.571,2.298,0.128
			c3.949-1.883,7.946-3.662,11.969-5.385c0.709-0.312,0.983-0.645,1.082-1.366c0.55-4.086,1.143-8.172,1.729-12.255
			c0.428-3.035,2.213-4.826,5.306-4.979c4.682-0.239,9.364-0.367,14.046-0.422c2.488-0.027,4.396,1.586,4.945,4.107
			c0.904,4.16,1.724,8.332,2.519,12.512c0.152,0.807,0.477,1.155,1.266,1.333c4.462,1.024,8.716,2.638,12.744,4.811
			c0.831,0.446,1.351,0.336,2.041-0.202c3.246-2.488,6.504-4.951,9.78-7.381c2.476-1.828,5.019-1.638,7.243,0.464
			c3.032,2.858,6.076,5.719,9.102,8.588c2.481,2.353,2.751,4.712,0.85,7.595c-2.207,3.331-4.407,6.675-6.662,9.972
			c-0.483,0.709-0.52,1.226-0.062,1.959c2.396,3.854,4.218,7.977,5.55,12.311c0.281,0.92,0.722,1.271,1.675,1.388
			c3.888,0.468,7.763,1.027,11.639,1.559c3.466,0.477,5.165,2.372,5.281,5.85c0.128,3.998,0.257,7.992,0.36,11.993
			c0.098,3.805-1.394,5.626-5.104,6.359c-3.839,0.758-7.672,1.565-11.51,2.286c-0.801,0.147-1.095,0.526-1.352,1.266
			c-1.296,3.734-2.677,7.427-4.046,11.131C397.742,279.185,397.57,279.367,397.174,279.991z"/>
		<path fill-rule="evenodd" clip-rule="evenodd" fill="#FFFFFF" d="M328.665,251.965c3.618,2.286,6.938,4.352,10.226,6.458
			c2.873,1.849,5.783,1.8,8.301-0.48c3.094-2.814,5.275-6.164,4.75-10.614c-0.251-2.066-1.357-3.652-3.154-4.786
			c-3.142-1.993-6.253-4.064-9.572-6.229c0.459-0.425,0.728-0.807,1.094-0.996c9.212-4.582,21.363-1.895,26.847,6.925
			c2.2,3.545,2.849,7.476,1.833,11.418c-1.234,4.835,0.232,8.261,3.729,11.703c15.709,15.422,31.197,31.069,46.772,46.632
			c1.668,1.669,3.38,3.307,5,5.024c2.744,2.922,3.318,6.876,1.564,10.257c-1.724,3.301-5.201,5.073-9.07,4.597
			c-1.999-0.245-3.656-1.192-5.062-2.598c-10.159-10.153-20.306-20.313-30.465-30.459c-7.689-7.695-15.366-15.403-23.087-23.063
			c-2.347-2.328-5.066-3.087-8.38-2.084c-5.911,1.81-11.045,0.03-15.416-4.071c-4.443-4.181-6.332-9.511-6.479-15.51
			C328.078,253.46,328.42,252.824,328.665,251.965z M422.956,323.146c-0.007-2.556-2.14-4.67-4.701-4.658
			c-2.567,0-4.688,2.127-4.676,4.694c0.006,2.592,2.072,4.694,4.64,4.725C420.828,327.943,422.962,325.792,422.956,323.146z"/>
	</g>
</g>
</svg>
