<?xml version="1.0" encoding="utf-8"?>
<!-- Generator: Adobe Illustrator 16.0.0, SVG Export Plug-In . SVG Version: 6.00 Build 0)  -->
<!DOCTYPE svg PUBLIC "-//W3C//DTD SVG 1.1//EN" "http://www.w3.org/Graphics/SVG/1.1/DTD/svg11.dtd">
<svg version="1.1" id="Layer_1" xmlns="http://www.w3.org/2000/svg" xmlns:xlink="http://www.w3.org/1999/xlink" x="0px" y="0px"
	 width="512px" height="512px" viewBox="0 0 512 512" enable-background="new 0 0 512 512" xml:space="preserve">
<g>
	<g>
		<linearGradient id="SVGID_1_" gradientUnits="userSpaceOnUse" x1="100.4453" y1="100.8652" x2="416.5178" y2="416.9377">
			<stop  offset="0" style="stop-color:#00B100"/>
			<stop  offset="1" style="stop-color:#006700"/>
		</linearGradient>
		<path fill="url(#SVGID_1_)" d="M481.08,256.501c0,124.261-100.733,225-225,225s-225-100.739-225-225
			c0-124.264,100.733-225,225-225S481.08,132.237,481.08,256.501z"/>
		<linearGradient id="SVGID_2_" gradientUnits="userSpaceOnUse" x1="150.1328" y1="72.9976" x2="362.0283" y2="440.0114">
			<stop  offset="0" style="stop-color:#006700"/>
			<stop  offset="1" style="stop-color:#00B100"/>
		</linearGradient>
		<path fill="url(#SVGID_2_)" d="M467.938,256.501c0,117.011-94.854,211.864-211.858,211.864S44.222,373.512,44.222,256.501
			c0-117.005,94.854-211.858,211.858-211.858S467.938,139.496,467.938,256.501z"/>
	</g>
</g>
<g>
	<path fill-rule="evenodd" clip-rule="evenodd" fill="#FFFFFF" d="M167.046,143.671c-1.693,0-3.601,0.034-5.501-0.009
		c-4.817-0.104-7.47-2.607-7.543-7.32c-0.086-6.231-0.098-12.46,0.012-18.692c0.08-4.407,2.689-6.885,7.103-7.05
		c0.856-0.031,1.724-0.013,2.58-0.013c61.663,0,123.325,0,184.987,0c7.556,0,9.493,1.95,9.499,9.542
		c0,5.266,0.043,10.528-0.012,15.794c-0.056,5.134-2.635,7.656-7.788,7.742c-1.803,0.03-3.612,0.006-5.354,0.006
		c-0.917,6.556-1.424,12.876-2.726,19.022c-7.678,36.388-27.622,64.062-59.799,82.714c-4.871,2.827-7.934,5.495-7.084,11.819
		c0.471,3.578,1.296,5.669,4.523,7.448c25.531,14.07,44.229,34.413,55.495,61.405c5.208,12.494,8.228,25.514,9.016,39.047
		c0.043,0.831,0.165,1.662,0.294,2.879c2.145,0,4.15-0.056,6.154,0.006c4.555,0.146,7.183,2.714,7.25,7.286
		c0.092,6.234,0.098,12.47-0.006,18.691c-0.074,4.426-2.678,6.914-7.078,7.078c-0.862,0.037-1.725,0.013-2.58,0.013
		c-61.662,0-123.325,0-184.988,0c-7.58,0-9.523-1.943-9.523-9.511c0-5.159-0.031-10.318,0.006-15.471
		c0.037-5.574,2.519-8.038,8.075-8.1c1.699-0.012,3.405,0,5.128,0c0.782-5.99,1.192-11.772,2.316-17.414
		c7.506-37.586,27.983-65.972,61.21-84.981c4.517-2.579,6.314-5.269,6.039-10.511c-0.214-4.016-1.284-6.311-4.835-8.27
		c-23.447-12.946-41.223-31.36-52.726-55.657c-6.742-14.236-10.63-29.215-11.492-44.96c-0.037-0.532-0.079-1.07-0.165-1.599
		C167.51,144.414,167.352,144.236,167.046,143.671z M335.377,367.803c0.172-0.391,0.318-0.574,0.324-0.77
		c0.03-0.532,0.037-1.076-0.006-1.602c-3.038-35.551-18.711-64.084-47.58-85.141c-5.703-4.163-11.949-7.598-18.014-11.26
		c-2.139-1.289-3.313-2.879-3.275-5.434c0.073-5.263-0.184-10.538,0.146-15.779c0.104-1.632,1.283-3.662,2.609-4.664
		c2.983-2.252,6.369-3.979,9.585-5.914c30.947-18.61,49.37-45.764,55.422-81.32c0.679-3.952,0.868-7.983,1.283-11.993
		c-53.483,0-106.375,0-159.187,0c-0.14,0.461-0.245,0.666-0.245,0.871c-0.018,0.535-0.012,1.072,0.037,1.607
		c2.836,33.674,17.237,61.269,43.845,82.161c6.711,5.278,14.321,9.444,21.607,13.982c2.341,1.455,3.521,3.169,3.429,5.996
		c-0.171,5.043-0.165,10.095-0.085,15.138c0.037,2.444-0.96,4.021-3.032,5.22c-3.729,2.133-7.396,4.37-11.051,6.626
		c-27.439,16.925-44.75,41.204-52.158,72.494c-1.51,6.394-2.035,13.02-3.05,19.779C229.674,367.803,282.565,367.803,335.377,367.803
		z M162.73,119.502c0,3.784,0,7.396,0,11.012c0.006,4.306,0.006,4.306,4.401,4.31c59.297,0,118.594,0,177.891-0.003
		c0.966,0,1.975,0.131,2.879-0.098c0.575-0.144,1.412-0.84,1.418-1.308c0.11-4.578,0.067-9.163,0.067-13.912
		C287.04,119.502,225.121,119.502,162.73,119.502z M162.755,392.155c62.457,0,124.346,0,186.669,0c0-3.809,0.006-7.427,0-11.046
		c0-4.284,0-4.291-4.413-4.291c-59.364,0-118.729,0-178.093,0c-0.862,0-1.791-0.183-2.555,0.092
		c-0.636,0.227-1.522,0.99-1.534,1.528C162.706,382.925,162.755,387.405,162.755,392.155z"/>
	<path fill-rule="evenodd" clip-rule="evenodd" fill="#FFFFFF" d="M256.099,362.265c-18.362,0-36.724-0.012-55.086,0.019
		c-2.598,0.006-5.085-0.122-6.051-3.074c-0.966-2.935,0.917-4.561,3.044-6.063c19.762-13.985,41.479-21.376,65.923-19.291
		c19.028,1.613,35.904,8.851,51.216,20.024c1.81,1.32,2.806,3.031,2.061,5.287c-0.838,2.573-2.91,3.123-5.373,3.117
		C293.25,362.253,274.674,362.265,256.099,362.265z M296.422,353.206c-15.751-14.034-65.146-14.028-80.672,0
		C242.736,353.206,269.424,353.206,296.422,353.206z"/>
	<path fill-rule="evenodd" clip-rule="evenodd" fill="#FFFFFF" d="M256.245,185.578c15.788,0,31.577-0.003,47.365,0.006
		c5.825,0.003,7.635,2.641,5.257,7.977c-8.948,20.055-23.991,32.785-45.758,36.589c-15.33,2.681-28.808-2.659-40.917-11.757
		c-8.692-6.54-14.811-15.162-19.022-25.141c-2.115-5.009-0.342-7.662,5.067-7.665C224.24,185.572,240.243,185.581,256.245,185.578z
		 M214.155,194.597c3.833,13.417,25.11,27.247,41.76,27.311c16.742,0.064,38.228-13.792,42.078-27.311
		C270.028,194.597,242.125,194.597,214.155,194.597z"/>
	<path fill-rule="evenodd" clip-rule="evenodd" fill="#FFFFFF" d="M260.542,299.697c0.073,2.348-1.754,4.34-4.107,4.469
		c-2.488,0.141-4.615-1.779-4.688-4.224c-0.067-2.262,1.858-4.377,4.12-4.536C258.244,295.235,260.475,297.289,260.542,299.697z"/>
	<path fill-rule="evenodd" clip-rule="evenodd" fill="#FFFFFF" d="M256.331,256.565c2.402,0.141,4.401,2.393,4.211,4.752
		c-0.184,2.249-2.298,4.089-4.597,4.01c-2.353-0.085-4.413-2.414-4.205-4.737C251.954,258.298,254.075,256.434,256.331,256.565z"/>
	<path fill-rule="evenodd" clip-rule="evenodd" fill="#FFFFFF" d="M255.988,237.14c2.421-0.083,4.554,1.971,4.572,4.389
		c0.006,2.338-1.87,4.267-4.248,4.355c-2.47,0.098-4.572-1.91-4.566-4.355C251.759,239.212,253.684,237.222,255.988,237.14z"/>
	<path fill-rule="evenodd" clip-rule="evenodd" fill="#FFFFFF" d="M256.251,276c2.323,0.061,4.285,2.029,4.31,4.327
		c0.037,2.427-2.078,4.518-4.499,4.456c-2.433-0.061-4.468-2.249-4.315-4.651C251.893,277.815,253.929,275.938,256.251,276z"/>
	<path fill-rule="evenodd" clip-rule="evenodd" fill="#FFFFFF" d="M260.561,319.19c0.043,2.335-1.815,4.297-4.169,4.413
		c-2.487,0.116-4.603-1.827-4.651-4.272c-0.037-2.359,1.803-4.278,4.181-4.389C258.477,314.832,260.518,316.703,260.561,319.19z"/>
</g>
</svg>
