<?xml version="1.0" encoding="utf-8"?>
<!-- Generator: Adobe Illustrator 16.0.0, SVG Export Plug-In . SVG Version: 6.00 Build 0)  -->
<!DOCTYPE svg PUBLIC "-//W3C//DTD SVG 1.1//EN" "http://www.w3.org/Graphics/SVG/1.1/DTD/svg11.dtd">
<svg version="1.1" id="Layer_1" xmlns="http://www.w3.org/2000/svg" xmlns:xlink="http://www.w3.org/1999/xlink" x="0px" y="0px"
	 width="512px" height="512px" viewBox="0 0 512 512" enable-background="new 0 0 512 512" xml:space="preserve">
<g>
	<g>
		<linearGradient id="SVGID_1_" gradientUnits="userSpaceOnUse" x1="100.3267" y1="100.6938" x2="416.4005" y2="416.7677">
			<stop  offset="0" style="stop-color:#FFA300"/>
			<stop  offset="1" style="stop-color:#FF6400"/>
		</linearGradient>
		<path fill="url(#SVGID_1_)" d="M480.962,256.33c0,124.261-100.733,225-225,225s-225-100.739-225-225
			c0-124.267,100.733-225,225-225S480.962,132.063,480.962,256.33z"/>
		<linearGradient id="SVGID_2_" gradientUnits="userSpaceOnUse" x1="150.0156" y1="72.8252" x2="361.9092" y2="439.8356">
			<stop  offset="0" style="stop-color:#FF6400"/>
			<stop  offset="1" style="stop-color:#FFA300"/>
		</linearGradient>
		<circle fill="url(#SVGID_2_)" cx="255.962" cy="256.33" r="211.858"/>
	</g>
</g>
<g>
	<path fill-rule="evenodd" clip-rule="evenodd" fill="#FFFFFF" d="M173.963,165.132c0.465-0.947,0.764-1.595,1.094-2.225
		c4.419-8.46,11.345-13.105,20.948-13.118c45.312-0.061,90.63-0.049,135.941-0.012c13.398,0.006,23.393,10.086,23.417,23.606
		c0.055,29.651,0.018,59.303,0.018,88.955c0,7.029-0.006,14.064-0.006,21.1c0,0.856,0,1.712,0,2.837c1.607,0,2.94,0,4.285,0
		c8.563,0.03,13.404,4.816,13.41,13.343c0.025,16.864,0.007,33.729,0.007,50.587c0,5.917,0.024,11.834,0,17.745
		c-0.043,7.958-5.116,12.982-13.111,12.964c-54.426-0.122-108.851-0.244-163.271-0.403c-11.962-0.036-20.886-6.992-23.233-18.117
		c-0.446-2.091-0.514-4.285-0.514-6.437c-0.024-52.506-0.03-105.012,0.024-157.518c0-2.225-0.586-3.918-2.011-5.624
		c-6.143-7.359-12.151-14.835-18.246-22.231c-1.742-2.121-2.763-4.456-2.726-7.231c0.061-4.346,2.445-7.91,6.271-9.31
		c4.095-1.504,8.496-0.403,11.29,2.965C169.697,159.582,171.708,162.259,173.963,165.132z M347.704,286.275c0-1.101,0-1.883,0-2.665
		c0-36.516,0-73.038-0.006-109.554c-0.007-10.727-6.278-17.017-16.95-17.023c-26.767-0.006-53.533,0-80.306,0
		c-18.142,0-36.277-0.031-54.413,0.018c-8.282,0.024-15.067,5.959-15.605,13.594c-0.073,1.002,0.214,2.28,0.819,3.044
		c4.053,5.146,8.228,10.202,12.402,15.25c0.421,0.507,1.1,1.143,1.662,1.149c7.201,0.042,12.036,4.003,16.094,9.413
		c1.088,1.449,2.244,3.032,3.729,3.979c13.313,8.49,27.537,14.468,43.558,15.22c1.9,0.092,3.539,0.886,3.862,2.598
		c0.251,1.345-0.195,3.271-1.069,4.315c-17.035,20.397-37.127,37.109-60.679,49.517c-1.381,0.733-3.6,0.666-5.134,0.122
		c-1.846-0.653-1.491-2.732-1.333-4.438c0.324-3.41,0.764-6.827,0.874-10.244c0.373-11.198-2.457-21.797-6.008-32.305
		c-1.749-5.171-5.825-8.545-8.79-13.551c-0.074,1.363-0.141,1.98-0.141,2.604c-0.006,46.589-0.024,93.166,0.012,139.756
		c0.006,9.835,6.424,16.137,16.266,16.155c15.263,0.024,30.52,0.012,45.782,0c0.752,0,1.491-0.092,2.243-0.135
		c-0.177-1.528-0.446-2.794-0.452-4.059c-0.024-23.649-0.049-47.305,0.006-70.96c0.013-6.467,5.019-11.479,11.492-11.76
		c1.4-0.067,2.812-0.013,4.23-0.013c0.061-0.862,0.104-1.339,0.109-1.81c0.135-8.318,4.878-12.995,13.197-13.014
		c5.758-0.012,11.504-0.024,17.262,0.007c7.897,0.03,12.701,4.663,12.849,12.579c0.036,1.858,0.647,2.256,2.371,2.243
		c10.227-0.067,20.459-0.036,30.685-0.036C339.99,286.275,343.651,286.275,347.704,286.275z M257.643,312.791
		c0.056-0.936,0.08-1.571,0.123-2.207c0.379-5.446,3.905-8.808,9.363-8.808c27.886-0.013,55.759-0.013,83.644,0.006
		c5,0,8.594,3.447,8.912,8.454c0.049,0.837,0.006,1.681,0.006,2.549c2.183,0,3.985,0,6.069,0c0-4.193,0.007-8.252,0-12.305
		c-0.012-5.501-1.411-6.901-6.98-6.901c-18.209,0-36.424,0-54.639,0c-1.675,0-3.362,0.073-5.031-0.036
		c-2.377-0.159-3.624-1.474-3.71-3.839c-0.067-1.919,0.024-3.839-0.043-5.752c-0.109-3.147-1.662-4.768-4.749-4.798
		c-6.149-0.056-12.299-0.056-18.453-0.006c-3.368,0.03-4.878,1.649-4.927,5.098c-0.024,1.675,0.006,3.35-0.007,5.03
		c-0.03,3.355-1.229,4.548-4.645,4.608c-2.237,0.043-4.475-0.024-6.706,0.098c-2.158,0.116-3.869,1.271-3.961,3.441
		c-0.202,5.074-0.061,10.172-0.061,15.367C253.859,312.791,255.656,312.791,257.643,312.791z M236.952,240.199
		c-6.131-2.243-11.21-5.184-15.507-9.37c-2.133-2.084-2.298-4.035-0.563-5.807c1.571-1.607,3.502-1.302,5.581,0.74
		c4.31,4.236,9.487,6.95,15.306,8.484c0.526,0.141,1.388,0.128,1.699-0.189c2.861-2.964,5.636-6.015,8.827-9.468
		c-14.578-1.767-27.103-7.121-38.857-14.456c-5.232,4.254-10.269,8.436-15.428,12.458c-1.516,1.173-1.797,2.151-1.131,3.967
		c4.059,11.106,6.479,22.519,6.015,34.432c-0.049,1.143-0.006,2.292-0.006,3.729c3.435-2.17,6.608-4.279,9.896-6.205
		c1.394-0.813,1.767-1.791,1.626-3.3c-0.562-5.832-2.408-11.186-5.617-16.094c-1.253-1.925-0.782-4.267,0.85-5.324
		c1.754-1.137,4.254-0.587,5.25,1.602c2.115,4.615,3.949,9.358,5.85,14.064c0.366,0.899,0.495,1.895,0.837,3.258
		C226.812,248.451,231.732,244.447,236.952,240.199z"/>
	<path fill-rule="evenodd" clip-rule="evenodd" fill="#FFFFFF" d="M297.459,215.303c0-8.056-0.012-16.119,0.007-24.181
		c0.006-3.661,1.24-4.884,4.89-4.896c2.476-0.012,4.945-0.012,7.421,0c3.582,0.024,4.798,1.265,4.804,4.994
		c0.013,11.81,0.007,23.625,0.007,35.435c0,4.309,0.019,8.618-0.013,12.934c-0.012,3.563-1.21,4.768-4.713,4.805
		c-2.476,0.03-4.951,0.018-7.426,0c-4.041-0.019-4.97-0.941-4.977-4.902C297.453,231.428,297.459,223.365,297.459,215.303z"/>
	<path fill-rule="evenodd" clip-rule="evenodd" fill="#FFFFFF" d="M290.308,226.25c0.007,4.554,0.024,9.102,0,13.649
		c-0.024,3.258-1.222,4.456-4.48,4.493c-2.793,0.03-5.593,0.049-8.38-0.013c-2.549-0.049-4.059-1.436-4.071-3.997
		c-0.061-9.499-0.049-18.998,0.007-28.497c0.012-2.207,1.405-3.533,3.655-3.594c3.19-0.079,6.388-0.085,9.571,0
		c2.402,0.067,3.662,1.492,3.687,4.077C290.339,216.996,290.308,221.624,290.308,226.25z"/>
	<path fill-rule="evenodd" clip-rule="evenodd" fill="#FFFFFF" d="M340.553,229.692c0,3.435,0.03,6.871-0.013,10.306
		c-0.03,3.075-1.29,4.34-4.376,4.389c-2.8,0.049-5.594,0.049-8.387,0c-2.892-0.055-4.229-1.216-4.261-4.01
		c-0.073-7.103-0.067-14.211,0.007-21.32c0.03-2.537,1.369-3.857,3.875-3.949c3.025-0.11,6.069-0.104,9.102-0.006
		c2.701,0.079,4.01,1.51,4.04,4.291C340.589,222.828,340.553,226.263,340.553,229.692z"/>
	<path fill-rule="evenodd" clip-rule="evenodd" fill="#FFFFFF" d="M214.299,356.709c-4.547,0-9.095,0.03-13.649-0.006
		c-3.038-0.031-4.591-1.339-4.529-3.704c0.055-2.299,1.552-3.563,4.443-3.57c9.181-0.03,18.362-0.03,27.537,0
		c2.75,0.007,4.456,1.437,4.48,3.601c0.024,2.182-1.657,3.643-4.395,3.668C223.56,356.739,218.927,356.703,214.299,356.709z"/>
	<path fill-rule="evenodd" clip-rule="evenodd" fill="#FFFFFF" d="M214.214,311.257c-4.236,0.006-8.472,0.006-12.708,0
		c-0.556,0-1.119,0.03-1.675-0.024c-2.194-0.232-3.686-1.718-3.71-3.668c-0.024-2.054,1.326-3.563,3.673-3.582
		c9.59-0.079,19.181-0.079,28.771-0.018c2.316,0.018,3.991,1.705,4.016,3.643c0.024,2.048-1.7,3.606-4.224,3.631
		C223.646,311.3,218.927,311.257,214.214,311.257z"/>
	<path fill-rule="evenodd" clip-rule="evenodd" fill="#FFFFFF" d="M214.189,326.697c4.621,0,9.242-0.019,13.863,0
		c2.616,0.018,4.462,1.51,4.53,3.6c0.061,2.164-1.657,3.644-4.383,3.649c-9.242,0.024-18.49,0.024-27.732,0
		c-2.653-0.006-4.364-1.516-4.346-3.704c0.012-2.213,1.638-3.527,4.438-3.545C205.1,326.679,209.642,326.697,214.189,326.697z"/>
	<path fill-rule="evenodd" clip-rule="evenodd" fill="#FFFFFF" d="M250.932,193.103c-0.062,3.447-3.014,6.192-6.589,6.143
		c-3.613-0.055-6.479-3.02-6.4-6.62c0.073-3.558,3.166-6.516,6.663-6.388C247.961,186.367,250.993,189.661,250.932,193.103z"/>
	<path fill-rule="evenodd" clip-rule="evenodd" fill="#FFFFFF" d="M228.242,270.725c3.447,0.227,5.965,2.971,5.788,6.333
		c-0.171,3.331-3.319,6.216-6.528,5.99c-3.197-0.227-5.978-3.295-5.825-6.449C221.842,273.2,224.855,270.505,228.242,270.725z"/>
	<path fill-rule="evenodd" clip-rule="evenodd" fill="#FFFFFF" d="M254.513,250.499c2.531-0.037,4.707,2.139,4.719,4.706
		c0.018,2.556-2.177,4.78-4.683,4.756c-2.359-0.019-4.633-2.408-4.658-4.884C249.874,252.736,252.099,250.535,254.513,250.499z"/>
	<path fill-rule="evenodd" clip-rule="evenodd" fill="#FFFFFF" d="M227.869,176.367c0.055,2.023-1.485,3.655-3.502,3.723
		c-2.036,0.067-3.667-1.455-3.729-3.478c-0.055-1.993,1.51-3.662,3.515-3.747C226.182,172.779,227.814,174.319,227.869,176.367z"/>
	<path fill-rule="evenodd" clip-rule="evenodd" fill="#FFFFFF" d="M195.32,288.53c0.037,1.84-1.547,3.472-3.454,3.558
		c-1.907,0.092-3.698-1.602-3.765-3.539c-0.074-1.95,1.595-3.661,3.582-3.674C193.578,284.857,195.277,286.557,195.32,288.53z"/>
</g>
</svg>
