<?xml version="1.0" encoding="utf-8"?>
<!-- Generator: Adobe Illustrator 16.0.0, SVG Export Plug-In . SVG Version: 6.00 Build 0)  -->
<!DOCTYPE svg PUBLIC "-//W3C//DTD SVG 1.1//EN" "http://www.w3.org/Graphics/SVG/1.1/DTD/svg11.dtd">
<svg version="1.1" id="Layer_1" xmlns="http://www.w3.org/2000/svg" xmlns:xlink="http://www.w3.org/1999/xlink" x="0px" y="0px"
	 width="512px" height="512px" viewBox="0 0 512 512" enable-background="new 0 0 512 512" xml:space="preserve">
<g>
	<g>
		<linearGradient id="SVGID_1_" gradientUnits="userSpaceOnUse" x1="103.7866" y1="103.8188" x2="419.8598" y2="419.892">
			<stop  offset="0" style="stop-color:#FF00FF"/>
			<stop  offset="1" style="stop-color:#FF006F"/>
		</linearGradient>
		<path fill="url(#SVGID_1_)" d="M484.422,259.455c0,124.261-100.733,225-225,225s-225-100.739-225-225
			c0-124.267,100.733-225,225-225S484.422,135.188,484.422,259.455z"/>
		<linearGradient id="SVGID_2_" gradientUnits="userSpaceOnUse" x1="153.4756" y1="75.9512" x2="365.3687" y2="442.9608">
			<stop  offset="0" style="stop-color:#FF006F"/>
			<stop  offset="0.6601" style="stop-color:#FF007F"/>
			<stop  offset="1" style="stop-color:#FF00FF"/>
		</linearGradient>
		<circle fill="url(#SVGID_2_)" cx="259.422" cy="259.455" r="211.858"/>
	</g>
</g>
<g>
	<path fill-rule="evenodd" clip-rule="evenodd" fill="#FFFFFF" d="M215.204,231.417c1.131,8.545,6.259,13.068,12.494,16.553
		c6.968,3.888,14.572,5.85,22.481,6.583c12.414,1.149,24.499-0.067,35.947-5.385c1.693-0.783,3.325-1.724,4.878-2.763
		c5.165-3.435,9.083-7.787,9.848-14.206c8.979-0.886,15.807,5.361,16.546,15.116c-1.155,0.477-2.378,0.911-3.539,1.474
		c-6.54,3.16-10.073,10.611-8.398,17.622c1.729,7.268,8.117,12.298,15.501,12.219c7.439-0.073,13.687-5.178,15.288-12.487
		c1.546-7.048-2.072-14.518-8.698-17.409c-1.877-0.813-2.665-1.883-3.063-3.784c-0.483-2.354-1.357-4.633-2.158-7.256
		c0.691,0.159,1.198,0.202,1.65,0.392c27.396,11.986,44.743,43.777,39.976,73.142c-2.114,13.075-9.498,21.729-22.164,25.165
		c-7.261,1.969-14.901,2.555-22.359,3.783c-2.017,0.33-2.591-0.513-2.555-2.469c0.098-6.363,0.049-12.732,0.037-19.102
		c-0.024-9.395-6.076-15.508-15.41-15.581c-2.341-0.019-4.688-0.067-7.022,0.013c-1.596,0.049-2.22-0.642-2.14-2.17
		c0.037-0.844,0.012-1.688-0.024-2.531c-0.257-5.965-4.548-10.305-10.343-10.482c-5.568-0.165-10.281,4.236-10.733,10.116
		c-0.122,1.559-0.019,3.142-0.019,5.049c-4.736,0-9.113,0-13.49,0c-3.557,0-7.121-0.049-10.678,0.03
		c-1.583,0.037-2.176-0.537-2.134-2.121c0.043-1.485,0-3.007-0.281-4.462c-0.807-4.267-3.411-7.084-7.555-8.203
		c-4.138-1.118-7.769,0.056-10.697,3.24c-0.379,0.409-0.746,0.825-1.131,1.229c-0.055,0.062-0.165,0.062-0.52,0.159
		c-0.147-0.801-0.281-1.584-0.446-2.359c-0.892-4.108-1.84-8.203-2.671-12.323c-0.403-1.962-0.568-3.967-0.886-5.947
		c-0.135-0.825-0.257-1.699-0.618-2.427c-3.643-7.316-8.178-13.808-15.513-18.032c-1.907-1.094-3.283-3.215-4.683-5.037
		c-0.366-0.465-0.171-1.742,0.22-2.347c2.415-3.625,4.584-7.537,7.604-10.587C209.312,232.249,212.454,232.236,215.204,231.417z"/>
	<path fill-rule="evenodd" clip-rule="evenodd" fill="#FFFFFF" d="M204.165,162.707c0.189-27.61,15.177-49.334,37.225-56.748
		c28.716-9.658,59.291,7.017,68.191,37.023c3.558,11.968,2.506,23.918,0.452,35.874c-2.629,15.275-8.02,29.432-18.087,41.455
		c-7.616,9.102-16.864,15.703-28.967,17.237c-14.377,1.815-26.021-3.838-35.746-13.906c-12.005-12.42-18.099-27.775-21.039-44.499
		C205.07,172.799,204.599,166.344,204.165,162.707z M212.307,170.567c-0.257,0.177-0.514,0.354-0.771,0.532
		c0.483,3.014,0.856,6.051,1.467,9.041c3.111,15.177,9.003,28.955,20.788,39.529c8.503,7.635,18.393,11.4,29.951,9.401
		c10.104-1.748,17.867-7.433,24.212-15.159c10-12.194,14.633-26.565,16.473-41.993c0.043-0.33-0.141-0.685-0.312-1.418
		c-2.268,0.96-4.358,1.853-6.797,2.892c0.11-1.235,0.238-2.14,0.274-3.05c0.239-5.507,0.826-11.039,0.545-16.522
		c-0.196-3.845-1.211-7.769-2.574-11.394c-1.589-4.218-3.483-4.658-7.585-3.081c-11.718,4.523-23.698,7.623-36.418,6.088
		c-8.503-1.021-16.749-3.124-24.56-6.626c-2.176-0.978-3.875-0.563-4.811,1.204c-1.51,2.842-3.344,5.886-3.564,8.955
		c-0.501,7.054-0.128,14.169-0.085,21.259c0,0.954,0.135,1.914,0.232,3.179C216.329,172.334,214.324,171.454,212.307,170.567z"/>
	<path fill-rule="evenodd" clip-rule="evenodd" fill="#FFFFFF" d="M198.798,340.256c-11.552-0.758-23.038-1.534-33.246-7.744
		c-8.704-5.3-12.402-13.625-13.698-23.35c-3.875-29.108,14.426-60.624,41.687-71.693c0.483-0.196,1.002-0.306,1.687-0.514
		c-2.005,6.925-4.816,12.83-11.039,16.821c-6.247,4.01-10.966,10-12.86,16.932c-2.958,10.782-6.437,21.693-4.377,33.276
		c0.856,4.822,3.093,7.842,7.861,9.511c3.399,1.192,6.724,1.388,10.159,1.302c2.916-0.073,4.92-1.919,4.926-4.34
		c0-2.426-2.023-4.291-4.902-4.314c-2.519-0.025-5.061,0.354-7.555,0.115c-1.1-0.104-2.867-1.161-3.02-2.022
		c-1.583-8.76-1.027-17.494,2.745-25.557c2.133-4.542,5.678-8.429,8.619-12.592c0.532-0.758,1.216-1.418,1.882-2.072
		c5.514-5.452,10.954-5.807,16.045-0.049c6.223,7.036,12.005,14.591,13.081,24.444c0.44,4.076,0.367,8.202,0.538,12.311
		c0.073,1.613-0.55,2.236-2.286,2.322c-10.721,0.508-15.844,6.045-15.819,16.84c0.012,6.461-0.025,12.916-0.049,19.377
		C199.177,339.431,199.055,339.607,198.798,340.256z"/>
	<path fill-rule="evenodd" clip-rule="evenodd" fill="#FFFFFF" d="M257.918,388.024c-14.034,0-28.074,0.007-42.115-0.006
		c-4.89-0.006-6.088-1.247-6.088-6.18c0.006-20.874,0-41.742,0.006-62.61c0-4.522,1.302-5.818,5.85-5.855
		c1.21-0.012,2.433,0.062,3.643-0.03c2.983-0.214,5.153,0.232,7.188,3.209c4.046,5.904,12.91,5.128,16.815-1.125
		c0.99-1.589,1.999-2.114,3.784-2.097c7.396,0.086,14.792,0.098,22.182-0.006c1.821-0.024,2.787,0.581,3.771,2.133
		c4.34,6.858,13.655,6.718,17.86-0.25c0.868-1.431,1.797-1.926,3.362-1.858c2.335,0.092,4.676-0.013,7.017,0.03
		c3.802,0.067,5.227,1.479,5.232,5.324c0.024,15.538,0.006,31.069,0,46.607c0,5.709,0.024,11.418,0,17.127
		c-0.024,4.206-1.345,5.563-5.55,5.575C286.562,388.037,272.24,388.019,257.918,388.024z M258.034,377.31
		c10.947,0,21.901,0.006,32.854-0.006c5.043,0,6.797-1.669,6.81-6.693c0.043-12.543,0.036-25.086,0.012-37.628
		c-0.012-4.261-1.943-6.235-6.173-6.241c-22.274-0.024-44.554-0.024-66.834,0c-4.279,0.006-6.241,1.932-6.247,6.155
		c-0.037,12.635-0.043,25.275,0,37.909c0.012,4.786,1.834,6.491,6.724,6.498C236.133,377.315,247.081,377.31,258.034,377.31z"/>
	<path fill-rule="evenodd" clip-rule="evenodd" fill="#FFFFFF" d="M239.63,304.131c0,2.054,0.092,4.114-0.024,6.162
		c-0.171,2.934-2.506,5.098-5.3,5.085c-2.616-0.019-5.184-2.146-5.299-4.847c-0.184-4.193-0.177-8.411,0.012-12.599
		c0.122-2.928,2.616-4.944,5.477-4.89c2.842,0.062,4.994,2.176,5.147,5.202c0.091,1.962,0.012,3.924,0.012,5.886
		C239.642,304.131,239.636,304.131,239.63,304.131z"/>
	<path fill-rule="evenodd" clip-rule="evenodd" fill="#FFFFFF" d="M276.5,304.131c0-1.962-0.073-3.924,0.019-5.88
		c0.152-3.038,2.28-5.135,5.146-5.208c2.83-0.079,5.343,1.969,5.471,4.89c0.195,4.193,0.208,8.405,0.006,12.599
		c-0.134,2.83-2.879,4.987-5.58,4.841c-2.714-0.146-4.854-2.237-5.013-5.079c-0.116-2.048-0.024-4.108-0.024-6.162
		C276.524,304.131,276.513,304.131,276.5,304.131z"/>
	<path fill-rule="evenodd" clip-rule="evenodd" fill="#FFFFFF" d="M312.924,262.811c0.019-4.327,3.564-7.897,7.855-7.891
		c4.413,0,8.062,3.667,8.02,8.056c-0.043,4.364-3.79,7.977-8.203,7.903C316.359,270.8,312.906,267.169,312.924,262.811z"/>
	<path fill-rule="evenodd" clip-rule="evenodd" fill="#FFFFFF" d="M267.441,363.905c0.012,0,0.024,0,0.037,0
		c0-1.772-0.019-3.552,0.006-5.324c0.03-2.671-1.277-3.974-3.942-3.967c-3.735,0.012-7.476,0-11.21,0.03
		c-2.39,0.019-3.631,1.259-3.637,3.661c-0.006,3.833,0,7.659,0.024,11.491c0.013,2.286,1.278,3.497,3.478,3.546
		c3.924,0.085,7.848,0.085,11.773,0c2.2-0.049,3.447-1.266,3.472-3.552C267.46,367.829,267.441,365.867,267.441,363.905z
		 M258.016,349.388c1.871,0,3.741-0.019,5.605,0.006c2.537,0.031,3.832-1.18,3.832-3.734c0-3.741,0.007-7.476-0.006-11.217
		c-0.006-2.536-1.277-3.753-3.832-3.729c-3.741,0.043-7.482,0.031-11.217,0.007c-2.426-0.013-3.655,1.21-3.68,3.594
		c-0.03,3.826-0.03,7.659-0.006,11.491c0.019,2.415,1.302,3.582,3.692,3.582C254.275,349.382,256.146,349.388,258.016,349.388z
		 M243.487,364.174c0-1.962,0.006-3.924,0-5.887c-0.006-2.414-1.247-3.624-3.637-3.643c-3.826-0.019-7.665-0.012-11.491-0.006
		c-2.262,0.006-3.539,1.143-3.576,3.41c-0.067,3.918-0.061,7.849-0.018,11.773c0.018,2.249,1.271,3.483,3.497,3.521
		c3.924,0.061,7.848,0.073,11.772-0.019c2.188-0.049,3.459-1.234,3.454-3.545C243.48,367.915,243.487,366.044,243.487,364.174z
		 M281.934,354.645c-1.863,0-3.734-0.019-5.604,0c-2.384,0.024-3.644,1.204-3.649,3.631c-0.006,3.826,0.006,7.659,0,11.491
		c-0.006,2.311,1.234,3.509,3.43,3.558c3.924,0.098,7.848,0.092,11.772,0.024c2.212-0.036,3.496-1.266,3.521-3.515
		c0.049-3.924,0.049-7.849-0.024-11.772c-0.037-2.256-1.296-3.411-3.558-3.417C285.858,354.639,283.896,354.645,281.934,354.645z
		 M272.692,340.213h-0.019c0,1.87,0,3.741,0,5.611c0,2.273,1.131,3.539,3.398,3.563c4.021,0.049,8.044,0.03,12.066-0.024
		c1.992-0.03,3.178-1.155,3.221-3.142c0.092-4.022,0.11-8.044,0.043-12.06c-0.037-2.213-1.241-3.441-3.558-3.436
		c-3.924,0.012-7.849-0.013-11.778,0.012c-2.158,0.019-3.295,1.187-3.356,3.308C272.637,336.1,272.692,338.159,272.692,340.213z
		 M233.994,349.388c0,0,0,0.006,0,0.013c1.968,0,3.924,0.006,5.893,0c2.237-0.013,3.569-1.046,3.582-3.368
		c0.037-3.931,0.037-7.854,0.006-11.785c-0.024-2.427-1.339-3.545-3.735-3.526c-3.838,0.024-7.671,0.012-11.503,0.006
		c-2.335,0-3.448,1.283-3.479,3.496c-0.055,3.833-0.018,7.665,0.006,11.504c0.012,2.561,1.375,3.723,3.9,3.667
		C230.437,349.357,232.215,349.388,233.994,349.388z"/>
	<path fill-rule="evenodd" clip-rule="evenodd" fill="#FFFFFF" d="M267.441,363.905c0,1.962,0.019,3.924,0,5.886
		c-0.024,2.286-1.271,3.503-3.472,3.552c-3.925,0.085-7.849,0.085-11.773,0c-2.2-0.049-3.465-1.26-3.478-3.546
		c-0.024-3.832-0.03-7.658-0.024-11.491c0.006-2.402,1.247-3.643,3.637-3.661c3.735-0.03,7.475-0.019,11.21-0.03
		c2.665-0.007,3.973,1.296,3.942,3.967c-0.024,1.772-0.006,3.552-0.006,5.324C267.466,363.905,267.453,363.905,267.441,363.905z"/>
	<path fill-rule="evenodd" clip-rule="evenodd" fill="#FFFFFF" d="M258.016,349.388c-1.87,0-3.74-0.006-5.611,0
		c-2.39,0-3.673-1.167-3.692-3.582c-0.024-3.832-0.024-7.665,0.006-11.491c0.024-2.384,1.253-3.606,3.68-3.594
		c3.735,0.024,7.476,0.036,11.217-0.007c2.555-0.024,3.826,1.192,3.832,3.729c0.013,3.741,0.006,7.476,0.006,11.217
		c0,2.555-1.295,3.766-3.832,3.734C261.757,349.369,259.887,349.388,258.016,349.388z"/>
	<path fill-rule="evenodd" clip-rule="evenodd" fill="#FFFFFF" d="M243.487,364.174c0,1.87-0.006,3.741,0,5.605
		c0.006,2.311-1.265,3.496-3.454,3.545c-3.924,0.092-7.849,0.079-11.772,0.019c-2.225-0.037-3.479-1.271-3.497-3.521
		c-0.042-3.925-0.049-7.855,0.018-11.773c0.037-2.268,1.314-3.404,3.576-3.41c3.826-0.006,7.665-0.013,11.491,0.006
		c2.39,0.019,3.631,1.229,3.637,3.643C243.493,360.25,243.487,362.212,243.487,364.174z"/>
	<path fill-rule="evenodd" clip-rule="evenodd" fill="#FFFFFF" d="M281.934,354.645c1.963,0,3.925-0.006,5.887,0
		c2.262,0.006,3.521,1.161,3.558,3.417c0.073,3.924,0.073,7.849,0.024,11.772c-0.024,2.249-1.309,3.479-3.521,3.515
		c-3.925,0.067-7.849,0.073-11.772-0.024c-2.195-0.049-3.436-1.247-3.43-3.558c0.006-3.832-0.006-7.665,0-11.491
		c0.006-2.427,1.266-3.606,3.649-3.631C278.199,354.626,280.07,354.645,281.934,354.645z"/>
	<path fill-rule="evenodd" clip-rule="evenodd" fill="#FFFFFF" d="M272.692,340.213c0-2.054-0.056-4.113,0.018-6.167
		c0.062-2.121,1.198-3.289,3.356-3.308c3.93-0.024,7.854,0,11.778-0.012c2.316-0.006,3.521,1.223,3.558,3.436
		c0.067,4.016,0.049,8.037-0.043,12.06c-0.043,1.986-1.229,3.111-3.221,3.142c-4.022,0.055-8.045,0.073-12.066,0.024
		c-2.268-0.024-3.398-1.29-3.398-3.563c0-1.87,0-3.741,0-5.611H272.692z"/>
	<path fill-rule="evenodd" clip-rule="evenodd" fill="#FFFFFF" d="M233.994,349.388c-1.779,0-3.558-0.03-5.33,0.006
		c-2.524,0.056-3.888-1.106-3.9-3.667c-0.024-3.839-0.061-7.671-0.006-11.504c0.031-2.213,1.144-3.496,3.479-3.496
		c3.832,0.006,7.665,0.019,11.503-0.006c2.396-0.019,3.71,1.1,3.735,3.526c0.03,3.931,0.03,7.854-0.006,11.785
		c-0.012,2.322-1.345,3.355-3.582,3.368c-1.969,0.006-3.924,0-5.893,0C233.994,349.394,233.994,349.394,233.994,349.388z"/>
</g>
</svg>
