<?xml version="1.0" encoding="utf-8"?>
<!-- Generator: Adobe Illustrator 16.0.0, SVG Export Plug-In . SVG Version: 6.00 Build 0)  -->
<!DOCTYPE svg PUBLIC "-//W3C//DTD SVG 1.1//EN" "http://www.w3.org/Graphics/SVG/1.1/DTD/svg11.dtd">
<svg version="1.1" id="Layer_1" xmlns="http://www.w3.org/2000/svg" xmlns:xlink="http://www.w3.org/1999/xlink" x="0px" y="0px"
	 width="512px" height="512px" viewBox="0 0 512 512" enable-background="new 0 0 512 512" xml:space="preserve">
<g>
	<g>
		<linearGradient id="SVGID_1_" gradientUnits="userSpaceOnUse" x1="100.6519" y1="100.8647" x2="416.725" y2="416.9379">
			<stop  offset="0" style="stop-color:#00B100"/>
			<stop  offset="1" style="stop-color:#006700"/>
		</linearGradient>
		<path fill="url(#SVGID_1_)" d="M481.287,256.501c0,124.261-100.733,225-225,225s-225-100.739-225-225
			c0-124.264,100.733-225,225-225S481.287,132.237,481.287,256.501z"/>
		<linearGradient id="SVGID_2_" gradientUnits="userSpaceOnUse" x1="150.3398" y1="72.9971" x2="362.2354" y2="440.0109">
			<stop  offset="0" style="stop-color:#006700"/>
			<stop  offset="1" style="stop-color:#00B100"/>
		</linearGradient>
		<path fill="url(#SVGID_2_)" d="M468.146,256.501c0,117.011-94.854,211.864-211.858,211.864S44.429,373.512,44.429,256.501
			c0-117.005,94.854-211.858,211.858-211.858S468.146,139.496,468.146,256.501z"/>
	</g>
</g>
<g>
	<g>
		<path fill-rule="evenodd" clip-rule="evenodd" fill="#FFFFFF" d="M211.336,266.446c8.759,1.18,17.292,1.907,25.666,3.558
			c11.388,2.236,18.875,9.389,22.562,20.354c4.621,13.741,5.679,27.935,3.991,42.201c-1.326,11.363-8.197,17.982-19.994,20.782
			c-8.246,1.956-16.663,2.091-25.061,2.091c-31.559-0.031-63.111,0.012-94.658-0.264c-5.85-0.055-11.815-1.032-17.536-2.401
			c-10.343-2.47-16.956-9.2-18.215-19.866c-1.773-15.085-0.783-30.085,4.67-44.449c3.729-9.823,10.929-16.211,21.253-18.265
			c8.594-1.699,17.366-2.543,26.131-3.777c1.302,8.447,6.858,12.567,13.502,15.281c14.737,6.026,29.664,6.015,44.389-0.067
			c3.172-1.32,6.045-3.576,8.759-5.764C209.49,273.689,210.853,270.565,211.336,266.446z"/>
		<path fill-rule="evenodd" clip-rule="evenodd" fill="#FFFFFF" d="M192.118,269.521c-5.959,3.612-12.322,5.673-19.45,4.805
			c-7.952-0.984-14.658-4.688-20.208-10.214c-16.266-16.183-25.245-35.743-25.171-58.802c0.08-22.585,18.105-42.674,40.452-46.116
			c26.546-4.083,50.514,12.558,55.837,38.888c2.231,11.002,0.214,21.66-3.343,32.072c-1.345,3.921-3.063,7.732-4.829,11.482
			c-0.446,0.981-1.644,1.825-2.702,2.24c-1.62,0.642-3.393,1.058-5.128,1.177c-1.32,0.088-2.708-0.345-4.028-0.724
			c-1.608-0.453-3.136-1.51-4.719-1.571c-4.701-0.189-9.469-0.455-14.114,0.101c-6.381,0.767-11.051,6.98-10.728,13.35
			c0.336,6.657,5.458,12.09,11.968,12.585c2.023,0.146,4.077,0.024,6.112,0.024C192.076,269.05,192.112,269.282,192.118,269.521z"/>
		<path fill-rule="evenodd" clip-rule="evenodd" fill="#FFFFFF" d="M96.513,225.871c0-3.771,0-7.54,0-11.302
			c0.006-4.56,1.815-8.139,5.599-10.819c0.794-0.569,1.32-1.925,1.406-2.971c1.137-14.092,5.752-26.965,14.56-37.986
			c19.034-23.857,43.998-33.527,73.692-26.828c29.168,6.58,47.329,25.7,54.712,54.774c0.862,3.389,0.984,6.965,1.645,10.412
			c0.189,1.018,0.855,2.183,1.681,2.8c3.283,2.491,5.178,5.712,5.232,9.801c0.098,8.09,0.171,16.18-0.006,24.257
			c-0.214,8.896-9.157,14.376-17.396,10.74c-1.296-0.578-2.103-0.458-3.221,0.284c-8.508,5.663-18.025,8.481-28.081,9.624
			c-1.797,0.215-3.197,0.648-4.609,2.006c-1.265,1.216-3.301,1.986-5.085,2.188c-3.007,0.354-6.088,0.172-9.126,0.086
			c-4.45-0.135-7.53-3.271-7.439-7.436c0.085-4.043,3.221-6.932,7.598-6.971c2.964-0.024,5.959-0.25,8.875,0.089
			c1.785,0.201,3.478,1.296,5.232,1.95c0.954,0.352,1.974,0.981,2.909,0.896c8.778-0.856,17.066-3.31,24.676-7.904
			c1.339-0.804,1.876-1.534,1.424-3.246c-0.458-1.736-0.281-3.655-0.287-5.492c-0.024-6.638,0.055-13.295-0.031-19.939
			c-0.067-4.691,1.657-8.353,5.507-11.097c0.575-0.416,0.947-1.574,0.911-2.359c-1.626-25.938-21.32-48.79-47.139-54.728
			c-35.489-8.172-70.202,15.941-74.884,52.029c-0.33,2.591-0.361,4.712,2.335,6.519c2.817,1.892,3.887,5.171,3.894,8.649
			c0.006,8.01,0.079,16.012-0.024,24.022c-0.092,6.932-5.465,12.048-12.366,11.965c-6.772-0.07-12.023-5.205-12.164-12.011
			c-0.092-4-0.024-8.001-0.024-12.002H96.513z"/>
	</g>
</g>
<path fill-rule="evenodd" clip-rule="evenodd" fill="#FFFFFF" d="M406.776,316.104c-0.037,19.413-11.577,31.021-31.027,31.106
	c-17.646,0.067-35.293,0.055-52.928,0.006c-20.086-0.061-31.564-11.521-31.602-31.516c-0.03-23.637,1.095-47.347-0.342-70.893
	c-1.235-20.085,5.342-34.468,22.622-44.489c5.415-3.136,5.208-4.539,0.813-8.912c-8.386-8.334-16.834-16.599-25.122-25.027
	c-4.181-4.258-3.105-11.085,2.029-11.853c2.732-0.406,6.565,0.795,8.625,2.671c7.964,7.271,15.428,15.083,23.038,22.732
	c8.526,8.576,7.145,8.457,16.889,1.1c6.815-5.135,11.852-5.125,18.6-0.037c11.633,8.753,23.179,17.607,34.982,26.134
	c9.04,6.541,13.496,15.138,13.447,26.247c-0.067,13.875-0.019,27.748-0.019,41.623C406.782,288.701,406.807,302.399,406.776,316.104
	z M351.929,286c-2.915,0-4.798,0.458-6.296-0.116c-1.852-0.709-4.578-2.078-4.798-3.484c-0.386-2.579,0.171-7.378,1.418-7.763
	c4.064-1.266,8.686-1.498,12.94-0.953c1.516,0.195,2.982,3.6,3.82,5.794c1.491,3.888,4.01,6.063,8.135,5.477
	c4.077-0.587,6.223-3.215,6.29-7.457c0.11-7.176-4.78-14.486-12.151-17.519c-2.463-1.018-3.973-2.02-5.104-4.834
	c-0.905-2.262-4.322-4.676-6.749-4.811c-2.133-0.119-5.685,2.415-6.375,4.514c-1.039,3.129-2.836,4.141-5.403,5.266
	c-9.682,4.236-13.802,13.631-11.369,25.403c1.815,8.777,9.792,14.854,19.578,14.902c2.573,0.013,5.349-0.599,7.646,0.195
	c2.029,0.722,4.713,2.837,4.939,4.609c0.306,2.438-0.648,6.186-2.434,7.524c-5.263,3.905-14.04,0.36-16.081-5.898
	c-1.296-3.992-3.979-6.015-8.148-5.33c-3.931,0.66-5.758,3.337-5.874,7.286c-0.214,7.53,4.48,14.841,11.815,17.652
	c2.72,1.046,4.432,2.078,5.306,5.245c0.557,1.925,3.398,4.119,5.482,4.449c2.085,0.33,6.18-1.118,6.498-2.469
	c1.314-5.575,5.917-6.663,9.816-9.06c2.243-1.369,4.23-3.581,5.6-5.855c4.413-7.305,4.492-15.079,0.58-22.524
	C366.782,288.23,359.539,285.37,351.929,286z M351.274,208.252c1.278,1.363,2.708,2.684,3.644,4.273
	c1.877,3.169,1.491,6.341-1.241,8.845c-2.946,2.708-6.313,2.705-9.254,0.073c-3.441-3.072-6.577-6.488-9.896-9.701
	c-1.302-1.265-2.738-2.387-4.119-3.579c-4.951,6.097-3.344,17.234,3.001,23.561c8.185,8.16,20.887,8.97,29.334,1.871
	c8.851-7.436,10.647-19.374,4.291-28.585c-5.893-8.555-17.195-12.155-25.997-7.394C344.729,201.446,348.011,204.826,351.274,208.252
	z"/>
</svg>
