<?xml version="1.0" encoding="utf-8"?>
<!-- Generator: Adobe Illustrator 16.0.0, SVG Export Plug-In . SVG Version: 6.00 Build 0)  -->
<!DOCTYPE svg PUBLIC "-//W3C//DTD SVG 1.1//EN" "http://www.w3.org/Graphics/SVG/1.1/DTD/svg11.dtd">
<svg version="1.1" id="Layer_1" xmlns="http://www.w3.org/2000/svg" xmlns:xlink="http://www.w3.org/1999/xlink" x="0px" y="0px"
	 width="512px" height="512px" viewBox="0 0 512 512" enable-background="new 0 0 512 512" xml:space="preserve">
<g>
	<g>
		<linearGradient id="SVGID_1_" gradientUnits="userSpaceOnUse" x1="99.874" y1="99.9453" x2="415.9472" y2="416.0185">
			<stop  offset="0" style="stop-color:#FF7601"/>
			<stop  offset="1" style="stop-color:#FF0000"/>
		</linearGradient>
		<path fill="url(#SVGID_1_)" d="M480.509,255.581c0,124.261-100.733,225-225,225s-225-100.739-225-225
			c0-124.264,100.733-225,225-225S480.509,131.317,480.509,255.581z"/>
		<linearGradient id="SVGID_2_" gradientUnits="userSpaceOnUse" x1="149.5615" y1="72.0767" x2="361.4575" y2="439.0913">
			<stop  offset="0" style="stop-color:#FF0000"/>
			<stop  offset="1" style="stop-color:#FF6301"/>
		</linearGradient>
		<path fill="url(#SVGID_2_)" d="M467.367,255.581c0,117.011-94.854,211.864-211.858,211.864S43.65,372.592,43.65,255.581
			c0-117.005,94.854-211.858,211.858-211.858S467.367,138.576,467.367,255.581z"/>
	</g>
</g>
<g>
	<path fill-rule="evenodd" clip-rule="evenodd" fill="#FFFFFF" d="M129.213,250.771c0.721-2.573,1.259-5.196,2.176-7.689
		c5.855-16.021,16.944-26.284,33.869-29.321c6.082-1.101,12.426-0.746,18.649-1.052c0.073,0.214,0.135,0.434,0.196,0.654
		c-0.342,0.532-0.672,1.088-1.033,1.613c-6.32,9.083-11.711,18.662-15.74,28.992c-0.293,0.733-0.874,1.455-1.497,1.962
		c-4.139,3.276-6.253,7.481-6.253,12.799c0.024,24.982,0,49.951,0.012,74.945c0,9.102,6.296,15.373,15.428,15.385
		c48.191,0.007,96.394,0.007,144.585-0.012c6.234,0,11.394-2.023,14.113-8.111c0.593-1.32,0.911-2.781,1.155-4.205
		c0.152-0.874,0.795-2.134-0.947-2.408c-0.153-0.019-0.287-0.722-0.287-1.125c-0.031-11.938-0.031-23.882,0.012-35.825
		c0-0.508,0.318-1.21,0.733-1.516c9.23-6.98,18.497-13.906,27.757-20.844c0.135-0.098,0.324-0.116,0.642-0.227
		c0.05,0.6,0.129,1.106,0.129,1.626c0,19.432,0.165,38.869-0.067,58.301c-0.178,15.844-6.705,28.606-19.792,37.757
		c-5.856,4.083-12.445,6.326-19.548,7.072c-0.531,0.043-1.063,0.195-1.589,0.306c-50.703,0-101.412,0-152.115,0
		c-0.336-0.092-0.685-0.227-1.027-0.275c-17.512-2.078-29.566-11.437-36.467-27.5c-1.394-3.258-2.084-6.827-3.093-10.257
		C129.213,311.467,129.213,281.113,129.213,250.771z"/>
	<path fill-rule="evenodd" clip-rule="evenodd" fill="#FFFFFF" d="M391.694,157.164c-1.21-0.03-2.42,0.006-3.643-0.085
		c-14.304-1.076-27.897,1.736-40.765,7.897c-18.905,9.059-32.915,23.148-42.182,41.956c-0.232,0.489-0.446,1.003-0.746,1.681
		c3.479,1.553,6.938,3.02,10.324,4.627c2.078,0.984,4.229,1.956,6.063,3.307c5.746,4.248,7.121,12.524,3.869,18.899
		c-2.072,4.028-5.079,6.596-8.954,8.686c-19.726,10.629-39.371,21.394-59.028,32.139c-10.893,5.96-22.152,0.605-24.518-11.51
		c-3.857-19.768-7.946-39.492-11.846-59.254c-0.911-4.584-1.913-9.206-2.127-13.845c-0.129-2.922,0.782-6.045,1.87-8.814
		c1.143-2.922,4.248-4.126,6.907-5.336c3.82-1.724,7.72-1.614,11.613,0.354c4.181,2.097,8.54,3.851,12.995,5.825
		c0.349-0.642,0.654-1.204,0.948-1.785c13.276-26.516,34.425-42.799,63.465-48.829c1.352-0.281,2.727-0.526,4.077-0.789
		c7.806,0,15.605,0,23.411,0c0.22,0.091,0.428,0.235,0.654,0.263c10.818,1.443,20.886,5.138,30.488,10.187
		c6.663,3.493,12.194,8.414,17.121,14.046C391.694,156.907,391.694,157.036,391.694,157.164z"/>
</g>
<g>
	<path fill="#FFFFFF" d="M223.119,313.839c0,8.606-2.377,14.768-7.145,18.478c-3.875,2.996-9.523,4.493-16.944,4.493
		c-8.215,0-14.291-1.724-18.209-5.189c-4.297-3.796-6.448-9.896-6.448-18.301c0-6.87,1.925-12.237,5.758-16.076
		c4.175-4.175,10.409-6.265,18.716-6.265c9.144,0,15.593,2.005,19.346,6.021C221.475,300.538,223.119,306.149,223.119,313.839z
		 M211.866,313.582c0-4.358-1.039-7.817-3.099-10.391c-2.316-2.879-5.752-4.315-10.299-4.315c-4.468,0-7.849,1.552-10.116,4.633
		c-1.901,2.573-2.848,5.936-2.848,10.073c0,4.768,0.764,8.295,2.28,10.574c2.103,3.167,5.996,4.75,11.687,4.75
		c4.804,0,8.179-1.534,10.122-4.621C211.108,321.877,211.866,318.313,211.866,313.582z"/>
	<path fill="#FFFFFF" d="M269.586,317.592h-30.538v18.405h-10.874v-27.152c0-1.681,0.318-3.532,0.954-5.556
		c1.216-3.655,3.496-6.4,6.828-8.203c3.955-2.188,10.385-3.289,19.279-3.289h14.352v7.396h-14.988c-4.004,0-6.828,0.208-8.466,0.636
		c-2.781,0.709-4.786,2.243-6.015,4.585c-0.88,1.717-1.32,3.648-1.32,5.782h30.789V317.592z"/>
	<path fill="#FFFFFF" d="M322.941,336.125h-12.897l-11.308-14.799l-10.495,14.799H275.02l17.268-22.041l-16.882-22.287h13.27
		l10.122,14.67l10.813-14.67h12.892l-17.006,22.164L322.941,336.125z"/>
</g>
</svg>
