<?xml version="1.0" encoding="utf-8"?>
<!-- Generator: Adobe Illustrator 16.0.0, SVG Export Plug-In . SVG Version: 6.00 Build 0)  -->
<!DOCTYPE svg PUBLIC "-//W3C//DTD SVG 1.1//EN" "http://www.w3.org/Graphics/SVG/1.1/DTD/svg11.dtd">
<svg version="1.1" id="Layer_1" xmlns="http://www.w3.org/2000/svg" xmlns:xlink="http://www.w3.org/1999/xlink" x="0px" y="0px"
	 width="512px" height="512px" viewBox="0 0 512 512" enable-background="new 0 0 512 512" xml:space="preserve">
<g>
	<g>
		<linearGradient id="SVGID_1_" gradientUnits="userSpaceOnUse" x1="100.7466" y1="100.6938" x2="416.8204" y2="416.7677">
			<stop  offset="0" style="stop-color:#0000FF"/>
			<stop  offset="1" style="stop-color:#000083"/>
		</linearGradient>
		<path fill="url(#SVGID_1_)" d="M481.382,256.33c0,124.261-100.733,225-225,225s-225-100.739-225-225
			c0-124.267,100.733-225,225-225S481.382,132.063,481.382,256.33z"/>
		<linearGradient id="SVGID_2_" gradientUnits="userSpaceOnUse" x1="150.4355" y1="72.8262" x2="362.3286" y2="439.8358">
			<stop  offset="0" style="stop-color:#000083"/>
			<stop  offset="1" style="stop-color:#0000FF"/>
		</linearGradient>
		<circle fill="url(#SVGID_2_)" cx="256.382" cy="256.33" r="211.858"/>
	</g>
</g>
<g>
	<path fill-rule="evenodd" clip-rule="evenodd" fill="#FFFFFF" d="M232.996,225.462c10.629-21.253,9.535-41.577-3.111-61.583
		c1.082-0.11,1.95-0.269,2.824-0.269c35.428-0.012,70.856,0.031,106.29-0.08c3.344-0.012,4.218,1.101,4.138,4.273
		c-0.189,7.879,0.019,15.77-0.122,23.655c-0.036,1.932-0.452,4.01-1.277,5.74c-4.083,8.606-8.393,17.108-12.537,25.685
		c-0.91,1.889-1.98,2.916-4.254,2.916c-30.019-0.061-60.037-0.043-90.049-0.055C234.438,225.743,233.986,225.615,232.996,225.462z"
		/>
	<path fill-rule="evenodd" clip-rule="evenodd" fill="#FFFFFF" d="M182.256,245.407c-26.669-0.037-48.233-21.565-48.289-48.203
		c-0.055-26.595,21.485-48.203,48.167-48.325c26.815-0.122,48.466,21.522,48.38,48.38
		C230.435,224.007,208.943,245.45,182.256,245.407z M174.34,236.336c0.299,0.135,0.599,0.275,0.898,0.41
		c9.584-14.297,19.175-28.594,29.383-43.82c-7.091,0-12.977,0-19.383,0c4.059-9.872,7.854-19.107,11.919-28.985
		c-6.198,0-11.467,0.116-16.73-0.049c-2.5-0.08-3.759,0.752-4.664,3.142c-4.646,12.286-9.475,24.505-14.224,36.754
		c-0.367,0.948-0.605,1.95-1.076,3.49c6.968,0,13.49,0,20.563,0C178.711,217.345,176.522,226.844,174.34,236.336z"/>
	<path fill-rule="evenodd" clip-rule="evenodd" fill="#FFFFFF" d="M346.271,210.211c7.47,4.309,14.554,8.398,21.822,12.592
		c-7.567,13.117-14.958,25.935-22.359,38.753c-5.813,10.079-11.602,20.177-17.488,30.214c-1.718,2.934-2.378,5.776-0.923,9.027
		c0.354,0.795,0.244,2.115-0.189,2.886c-10.165,17.744-20.403,35.439-30.905,53.631c-8.729-5.031-17.311-9.982-26.167-15.092
		C295.453,298.243,320.716,254.484,346.271,210.211z"/>
	<path fill-rule="evenodd" clip-rule="evenodd" fill="#FFFFFF" d="M309.42,257.797c-0.44,1.106-0.544,1.437-0.703,1.742
		c-5.342,10.214-5.342,10.214-16.846,10.214c-37.433,0-74.866,0-112.299,0c-1.387,0-2.781,0-4.627,0
		c0-3.575-0.11-6.846,0.092-10.104c0.043-0.648,1.186-1.461,1.986-1.761c0.825-0.312,1.858-0.092,2.8-0.092
		c41.668,0,83.337,0,125.012,0C306.205,257.797,307.574,257.797,309.42,257.797z"/>
	<path fill-rule="evenodd" clip-rule="evenodd" fill="#FFFFFF" d="M350.116,204.313c2.873-4.908,5.361-9.572,8.265-13.961
		c1.711-2.585,4.419-3.508,7.402-1.809c7.457,4.248,14.938,8.453,22.285,12.873c3.766,2.255,4.188,5.275,1.633,9.744
		c-7.237,12.652-14.548,25.256-21.834,37.879c-8.698,15.061-17.396,30.116-26.101,45.177c-0.171,0.306-0.336,0.617-0.525,0.917
		c-1.247,2.005-2.476,4.609-5.379,2.818c-2.616-1.62-1.192-3.919-0.062-5.881c8.216-14.254,16.443-28.496,24.677-42.744
		c4.584-7.94,9.199-15.862,13.759-23.814c2.537-4.419,2.146-5.984-2.256-8.563C364.896,212.791,357.764,208.72,350.116,204.313z"/>
	<path fill-rule="evenodd" clip-rule="evenodd" fill="#FFFFFF" d="M292.396,287.87c-2.2,3.796-4.028,7.194-6.137,10.416
		c-0.489,0.752-1.926,1.247-2.928,1.247c-35.294,0.061-70.593,0.055-105.887,0.043c-0.69,0-1.369-0.184-2.292-0.306
		c0-3.796,0-7.5,0-11.4C214.151,287.87,252.935,287.87,292.396,287.87z"/>
	<path fill-rule="evenodd" clip-rule="evenodd" fill="#FFFFFF" d="M275.178,317.645c-2.427,4.217-4.218,7.512-6.223,10.672
		c-0.446,0.709-1.645,1.345-2.5,1.345c-30.012,0.056-60.019,0.037-90.03,0.013c-0.33,0-0.66-0.172-1.455-0.386
		c0-3.172-0.11-6.437,0.098-9.682c0.043-0.673,1.174-1.516,1.98-1.84c0.819-0.324,1.853-0.116,2.793-0.116
		c30.128-0.006,60.263-0.006,90.391-0.006C271.596,317.645,272.965,317.645,275.178,317.645z"/>
	<path fill-rule="evenodd" clip-rule="evenodd" fill="#FFFFFF" d="M259.677,347.889c0,3.961,0,7.562,0,11.394
		c-28.191,0-56.217,0-84.511,0c0-3.759,0-7.457,0-11.394C203.356,347.889,231.363,347.889,259.677,347.889z"/>
	<path fill-rule="evenodd" clip-rule="evenodd" fill="#FFFFFF" d="M268.24,346.855c8.393,4.835,16.265,9.377,24.835,14.322
		c-8.687,5.818-16.858,11.295-25.966,17.408C267.5,367.589,267.854,357.613,268.24,346.855z"/>
	<path fill-rule="evenodd" clip-rule="evenodd" fill="#FFFFFF" d="M319.01,347.662c0,4.139,0,7.739,0,11.633
		c-4.871,0-9.596,0-14.902,0c2.177-3.741,3.961-7.311,6.284-10.483c0.696-0.953,2.892-0.904,4.426-1.112
		C316.076,347.528,317.372,347.662,319.01,347.662z"/>
</g>
</svg>
